G04 #@! TF.GenerationSoftware,KiCad,Pcbnew,5.1.0*
G04 #@! TF.CreationDate,2019-05-01T02:44:57+08:00*
G04 #@! TF.ProjectId,reflow-toaster-mainboard,7265666c-6f77-42d7-946f-61737465722d,rev?*
G04 #@! TF.SameCoordinates,Original*
G04 #@! TF.FileFunction,Copper,L2,Bot*
G04 #@! TF.FilePolarity,Positive*
%FSLAX46Y46*%
G04 Gerber Fmt 4.6, Leading zero omitted, Abs format (unit mm)*
G04 Created by KiCad (PCBNEW 5.1.0) date 2019-05-01 02:44:57*
%MOMM*%
%LPD*%
G04 APERTURE LIST*
%ADD10C,0.150000*%
%ADD11R,1.700000X1.700000*%
%ADD12O,1.700000X1.700000*%
%ADD13C,0.100000*%
%ADD14C,1.200000*%
%ADD15O,1.750000X1.200000*%
%ADD16R,1.000000X1.000000*%
%ADD17O,1.000000X1.000000*%
%ADD18C,0.600000*%
%ADD19C,0.300000*%
%ADD20C,0.200000*%
%ADD21C,0.254000*%
G04 APERTURE END LIST*
D10*
X171000000Y-54500000D02*
X121200000Y-54500000D01*
X121300000Y-109400000D02*
X121200000Y-54500000D01*
X170900000Y-109400000D02*
X121300000Y-109400000D01*
X171000000Y-54500000D02*
X170900000Y-109400000D01*
D11*
X128520000Y-68600000D03*
D12*
X131060000Y-68600000D03*
X133600000Y-68600000D03*
D11*
X137200000Y-68600000D03*
D12*
X139740000Y-68600000D03*
X142280000Y-68600000D03*
X144820000Y-68600000D03*
X147360000Y-68600000D03*
D13*
G36*
X133549505Y-96101204D02*
G01*
X133573773Y-96104804D01*
X133597572Y-96110765D01*
X133620671Y-96119030D01*
X133642850Y-96129520D01*
X133663893Y-96142132D01*
X133683599Y-96156747D01*
X133701777Y-96173223D01*
X133718253Y-96191401D01*
X133732868Y-96211107D01*
X133745480Y-96232150D01*
X133755970Y-96254329D01*
X133764235Y-96277428D01*
X133770196Y-96301227D01*
X133773796Y-96325495D01*
X133775000Y-96349999D01*
X133775000Y-97050001D01*
X133773796Y-97074505D01*
X133770196Y-97098773D01*
X133764235Y-97122572D01*
X133755970Y-97145671D01*
X133745480Y-97167850D01*
X133732868Y-97188893D01*
X133718253Y-97208599D01*
X133701777Y-97226777D01*
X133683599Y-97243253D01*
X133663893Y-97257868D01*
X133642850Y-97270480D01*
X133620671Y-97280970D01*
X133597572Y-97289235D01*
X133573773Y-97295196D01*
X133549505Y-97298796D01*
X133525001Y-97300000D01*
X132274999Y-97300000D01*
X132250495Y-97298796D01*
X132226227Y-97295196D01*
X132202428Y-97289235D01*
X132179329Y-97280970D01*
X132157150Y-97270480D01*
X132136107Y-97257868D01*
X132116401Y-97243253D01*
X132098223Y-97226777D01*
X132081747Y-97208599D01*
X132067132Y-97188893D01*
X132054520Y-97167850D01*
X132044030Y-97145671D01*
X132035765Y-97122572D01*
X132029804Y-97098773D01*
X132026204Y-97074505D01*
X132025000Y-97050001D01*
X132025000Y-96349999D01*
X132026204Y-96325495D01*
X132029804Y-96301227D01*
X132035765Y-96277428D01*
X132044030Y-96254329D01*
X132054520Y-96232150D01*
X132067132Y-96211107D01*
X132081747Y-96191401D01*
X132098223Y-96173223D01*
X132116401Y-96156747D01*
X132136107Y-96142132D01*
X132157150Y-96129520D01*
X132179329Y-96119030D01*
X132202428Y-96110765D01*
X132226227Y-96104804D01*
X132250495Y-96101204D01*
X132274999Y-96100000D01*
X133525001Y-96100000D01*
X133549505Y-96101204D01*
X133549505Y-96101204D01*
G37*
D14*
X132900000Y-96700000D03*
D15*
X132900000Y-98700000D03*
D11*
X162500000Y-78700000D03*
D12*
X165040000Y-78700000D03*
D11*
X151000000Y-68600000D03*
D12*
X153540000Y-68600000D03*
X156080000Y-68600000D03*
X158620000Y-68600000D03*
D16*
X164600000Y-94000000D03*
D17*
X163330000Y-94000000D03*
D18*
X146700000Y-83500000D03*
X142600000Y-78600000D03*
X151200000Y-78600000D03*
X151200000Y-88400000D03*
X142200000Y-88400000D03*
X145800000Y-88400000D03*
X148800000Y-88400000D03*
X147600000Y-78600000D03*
X151200000Y-83400000D03*
X142200000Y-83400000D03*
X155900000Y-90100000D03*
X153000000Y-93400000D03*
X145800000Y-99200000D03*
X156300000Y-94900000D03*
X139700000Y-93200000D03*
X156600000Y-78700000D03*
X141100000Y-99200000D03*
X144000000Y-76700000D03*
X136400000Y-86300000D03*
X136400000Y-81200000D03*
X159800000Y-89300000D03*
X161150000Y-85900000D03*
X153600000Y-84400000D03*
X147018199Y-96981801D03*
X147606012Y-96431801D03*
X153600000Y-83649997D03*
X148079998Y-95179997D03*
X150500000Y-76700000D03*
X148277179Y-94204997D03*
X149751668Y-76750000D03*
X153474746Y-94164625D03*
X156649990Y-87476337D03*
X154000000Y-94700000D03*
X156800000Y-86700000D03*
X157421463Y-92056369D03*
X157757526Y-87093933D03*
X158010923Y-92520108D03*
X158749979Y-87231169D03*
X158604943Y-91862183D03*
X158768555Y-86294993D03*
X148000000Y-70400000D03*
X148400000Y-76750000D03*
X144750003Y-95700000D03*
X147300000Y-76750000D03*
X144000000Y-95700000D03*
X146500000Y-76750000D03*
X143000000Y-95700000D03*
X160521155Y-89506044D03*
X160542063Y-87285769D03*
X153600000Y-78800000D03*
X140400000Y-79300000D03*
X143450000Y-96550000D03*
X159850000Y-97450000D03*
X146400000Y-96100000D03*
X137900000Y-76400000D03*
X137815000Y-83900000D03*
X139600000Y-94200000D03*
X136200000Y-98600000D03*
X131400000Y-90800000D03*
X137000000Y-88300000D03*
X137500000Y-92300000D03*
X135200000Y-98600000D03*
X158800000Y-81100000D03*
X159300000Y-80300000D03*
D19*
X159800000Y-89300000D02*
X159800000Y-86900000D01*
X159800000Y-86825736D02*
X159800000Y-86900000D01*
X160725736Y-85900000D02*
X159800000Y-86825736D01*
X161150000Y-85900000D02*
X160725736Y-85900000D01*
D20*
X147018199Y-96981801D02*
X147932201Y-96981801D01*
X147932201Y-96981801D02*
X153600000Y-91314002D01*
X153600000Y-91314002D02*
X153600000Y-84400000D01*
X153049999Y-84135999D02*
X153536001Y-83649997D01*
X153536001Y-83649997D02*
X153600000Y-83649997D01*
X153049999Y-90987814D02*
X153049999Y-84135999D01*
X147606012Y-96431801D02*
X153049999Y-90987814D01*
X148079998Y-95179997D02*
X150500000Y-92759995D01*
X150500000Y-92759995D02*
X150500000Y-76700000D01*
X148277179Y-94204997D02*
X149751668Y-92730508D01*
X149751668Y-92730508D02*
X149751668Y-76750000D01*
X156649990Y-90989381D02*
X156649990Y-87900601D01*
X153474746Y-94164625D02*
X156649990Y-90989381D01*
X156649990Y-87900601D02*
X156649990Y-87476337D01*
X154000000Y-94700000D02*
X157200000Y-91500000D01*
X157200000Y-91500000D02*
X157200000Y-87100000D01*
X157200000Y-87100000D02*
X156800000Y-86700000D01*
X157421463Y-92056369D02*
X157599993Y-91877839D01*
X157757526Y-87518197D02*
X157757526Y-87093933D01*
X157599993Y-91877839D02*
X157599993Y-87675730D01*
X157599993Y-87675730D02*
X157757526Y-87518197D01*
X158010923Y-87970225D02*
X158449980Y-87531168D01*
X158449980Y-87531168D02*
X158749979Y-87231169D01*
X158010923Y-92520108D02*
X158010923Y-87970225D01*
X159299989Y-86826427D02*
X159299989Y-87555021D01*
X158768555Y-86294993D02*
X159299989Y-86826427D01*
X158604943Y-91437919D02*
X158604943Y-91862183D01*
X159299989Y-87555021D02*
X158604943Y-88250067D01*
X158604943Y-88250067D02*
X158604943Y-91437919D01*
X154203916Y-70476084D02*
X156080000Y-68600000D01*
X154203916Y-70476084D02*
X148076084Y-70476084D01*
X148076084Y-70476084D02*
X148000000Y-70400000D01*
X148400000Y-76750000D02*
X144750003Y-80399997D01*
X144750003Y-80399997D02*
X144750003Y-95700000D01*
X147300000Y-76750000D02*
X144000000Y-80050000D01*
X144000000Y-80050000D02*
X144000000Y-95700000D01*
X146500000Y-76750000D02*
X143000000Y-80250000D01*
X143000000Y-80250000D02*
X143000000Y-95700000D01*
X160521155Y-89506044D02*
X160521155Y-87306677D01*
X160521155Y-87306677D02*
X160542063Y-87285769D01*
X153600000Y-78800000D02*
X153600000Y-77200000D01*
X147160000Y-70760000D02*
X147160000Y-68600000D01*
X153600000Y-77200000D02*
X147160000Y-70760000D01*
X140400000Y-93924264D02*
X143025736Y-96550000D01*
X143025736Y-96550000D02*
X143450000Y-96550000D01*
X140400000Y-79600000D02*
X140400000Y-79300000D01*
X140400000Y-79500000D02*
X140400000Y-79600000D01*
X140400000Y-79600000D02*
X140400000Y-93924264D01*
X158050000Y-99250000D02*
X159850000Y-97450000D01*
X146400000Y-97250000D02*
X148400000Y-99250000D01*
X146400000Y-96100000D02*
X146400000Y-97250000D01*
X148400000Y-99250000D02*
X158050000Y-99250000D01*
X137900000Y-76400000D02*
X137900000Y-83815000D01*
X137900000Y-83815000D02*
X137815000Y-83900000D01*
D19*
X139600000Y-94200000D02*
X139600000Y-95200000D01*
X139600000Y-95200000D02*
X136200000Y-98600000D01*
X131400000Y-97475000D02*
X132625000Y-98700000D01*
X132625000Y-98700000D02*
X132900000Y-98700000D01*
X131400000Y-90800000D02*
X131400000Y-97475000D01*
D20*
X133600000Y-69802081D02*
X133600000Y-68600000D01*
X136575736Y-88300000D02*
X133600000Y-85324264D01*
X133600000Y-85324264D02*
X133600000Y-69802081D01*
X137000000Y-88300000D02*
X136575736Y-88300000D01*
D19*
X137500000Y-92300000D02*
X135200000Y-94600000D01*
X135200000Y-94600000D02*
X135200000Y-98600000D01*
D20*
X163330000Y-85630000D02*
X163330000Y-94000000D01*
X158800000Y-81100000D02*
X163330000Y-85630000D01*
X164600000Y-85600000D02*
X164600000Y-94000000D01*
X159300000Y-80300000D02*
X164600000Y-85600000D01*
D21*
G36*
X170073000Y-108573000D02*
G01*
X122027000Y-108573000D01*
X122027000Y-106059453D01*
X122973000Y-106059453D01*
X122973000Y-106340547D01*
X123027838Y-106616241D01*
X123135409Y-106875938D01*
X123291576Y-107109660D01*
X123490340Y-107308424D01*
X123724062Y-107464591D01*
X123983759Y-107572162D01*
X124259453Y-107627000D01*
X124540547Y-107627000D01*
X124816241Y-107572162D01*
X125075938Y-107464591D01*
X125309660Y-107308424D01*
X125508424Y-107109660D01*
X125664591Y-106875938D01*
X125772162Y-106616241D01*
X125827000Y-106340547D01*
X125827000Y-106059453D01*
X166273000Y-106059453D01*
X166273000Y-106340547D01*
X166327838Y-106616241D01*
X166435409Y-106875938D01*
X166591576Y-107109660D01*
X166790340Y-107308424D01*
X167024062Y-107464591D01*
X167283759Y-107572162D01*
X167559453Y-107627000D01*
X167840547Y-107627000D01*
X168116241Y-107572162D01*
X168375938Y-107464591D01*
X168609660Y-107308424D01*
X168808424Y-107109660D01*
X168964591Y-106875938D01*
X169072162Y-106616241D01*
X169127000Y-106340547D01*
X169127000Y-106059453D01*
X169072162Y-105783759D01*
X168964591Y-105524062D01*
X168808424Y-105290340D01*
X168609660Y-105091576D01*
X168375938Y-104935409D01*
X168116241Y-104827838D01*
X167840547Y-104773000D01*
X167559453Y-104773000D01*
X167283759Y-104827838D01*
X167024062Y-104935409D01*
X166790340Y-105091576D01*
X166591576Y-105290340D01*
X166435409Y-105524062D01*
X166327838Y-105783759D01*
X166273000Y-106059453D01*
X125827000Y-106059453D01*
X125772162Y-105783759D01*
X125664591Y-105524062D01*
X125508424Y-105290340D01*
X125309660Y-105091576D01*
X125075938Y-104935409D01*
X124816241Y-104827838D01*
X124540547Y-104773000D01*
X124259453Y-104773000D01*
X123983759Y-104827838D01*
X123724062Y-104935409D01*
X123490340Y-105091576D01*
X123291576Y-105290340D01*
X123135409Y-105524062D01*
X123027838Y-105783759D01*
X122973000Y-106059453D01*
X122027000Y-106059453D01*
X122027000Y-90738246D01*
X130773000Y-90738246D01*
X130773000Y-90861754D01*
X130797095Y-90982889D01*
X130844360Y-91096996D01*
X130912977Y-91199689D01*
X130923000Y-91209712D01*
X130923001Y-97451575D01*
X130920694Y-97475000D01*
X130929903Y-97568507D01*
X130957178Y-97658422D01*
X130957179Y-97658423D01*
X131001472Y-97741289D01*
X131006156Y-97746996D01*
X131038505Y-97786413D01*
X131061080Y-97813921D01*
X131079271Y-97828850D01*
X131724745Y-98474325D01*
X131711413Y-98518276D01*
X131693515Y-98700000D01*
X131711413Y-98881724D01*
X131764420Y-99056464D01*
X131850499Y-99217505D01*
X131966341Y-99358659D01*
X132107495Y-99474501D01*
X132268536Y-99560580D01*
X132443276Y-99613587D01*
X132579462Y-99627000D01*
X133220538Y-99627000D01*
X133356724Y-99613587D01*
X133531464Y-99560580D01*
X133692505Y-99474501D01*
X133833659Y-99358659D01*
X133949501Y-99217505D01*
X134035580Y-99056464D01*
X134088587Y-98881724D01*
X134106485Y-98700000D01*
X134090554Y-98538246D01*
X134573000Y-98538246D01*
X134573000Y-98661754D01*
X134597095Y-98782889D01*
X134644360Y-98896996D01*
X134712977Y-98999689D01*
X134800311Y-99087023D01*
X134903004Y-99155640D01*
X135017111Y-99202905D01*
X135138246Y-99227000D01*
X135261754Y-99227000D01*
X135382889Y-99202905D01*
X135496996Y-99155640D01*
X135599689Y-99087023D01*
X135687023Y-98999689D01*
X135700000Y-98980267D01*
X135712977Y-98999689D01*
X135800311Y-99087023D01*
X135903004Y-99155640D01*
X136017111Y-99202905D01*
X136138246Y-99227000D01*
X136261754Y-99227000D01*
X136382889Y-99202905D01*
X136496996Y-99155640D01*
X136599689Y-99087023D01*
X136687023Y-98999689D01*
X136755640Y-98896996D01*
X136802905Y-98782889D01*
X136827000Y-98661754D01*
X136827000Y-98647579D01*
X139920729Y-95553851D01*
X139938921Y-95538921D01*
X139998529Y-95466289D01*
X140042822Y-95383423D01*
X140070097Y-95293508D01*
X140077000Y-95223423D01*
X140077000Y-95223416D01*
X140079306Y-95200001D01*
X140077000Y-95176586D01*
X140077000Y-94609712D01*
X140087023Y-94599689D01*
X140155640Y-94496996D01*
X140202905Y-94382889D01*
X140211508Y-94339640D01*
X142708972Y-96837105D01*
X142722341Y-96853395D01*
X142738631Y-96866764D01*
X142738634Y-96866767D01*
X142787359Y-96906755D01*
X142827009Y-96927948D01*
X142861540Y-96946405D01*
X142942029Y-96970822D01*
X142988707Y-96975419D01*
X143050311Y-97037023D01*
X143153004Y-97105640D01*
X143267111Y-97152905D01*
X143388246Y-97177000D01*
X143511754Y-97177000D01*
X143632889Y-97152905D01*
X143746996Y-97105640D01*
X143849689Y-97037023D01*
X143937023Y-96949689D01*
X144005640Y-96846996D01*
X144052905Y-96732889D01*
X144077000Y-96611754D01*
X144077000Y-96488246D01*
X144052905Y-96367111D01*
X144036290Y-96327000D01*
X144061754Y-96327000D01*
X144182889Y-96302905D01*
X144296996Y-96255640D01*
X144375002Y-96203519D01*
X144453007Y-96255640D01*
X144567114Y-96302905D01*
X144688249Y-96327000D01*
X144811757Y-96327000D01*
X144932892Y-96302905D01*
X145046999Y-96255640D01*
X145149692Y-96187023D01*
X145237026Y-96099689D01*
X145278080Y-96038246D01*
X145773000Y-96038246D01*
X145773000Y-96161754D01*
X145797095Y-96282889D01*
X145844360Y-96396996D01*
X145912977Y-96499689D01*
X145973000Y-96559712D01*
X145973001Y-97229023D01*
X145970935Y-97250000D01*
X145979179Y-97333706D01*
X146003596Y-97414196D01*
X146043245Y-97488376D01*
X146083232Y-97537100D01*
X146083237Y-97537105D01*
X146096606Y-97553395D01*
X146112896Y-97566764D01*
X148083236Y-99537105D01*
X148096605Y-99553395D01*
X148112895Y-99566764D01*
X148112899Y-99566768D01*
X148161623Y-99606755D01*
X148199500Y-99627000D01*
X148235804Y-99646405D01*
X148316293Y-99670822D01*
X148379022Y-99677000D01*
X148379032Y-99677000D01*
X148399999Y-99679065D01*
X148420966Y-99677000D01*
X158029033Y-99677000D01*
X158050000Y-99679065D01*
X158070967Y-99677000D01*
X158070978Y-99677000D01*
X158133707Y-99670822D01*
X158214196Y-99646405D01*
X158288376Y-99606755D01*
X158353395Y-99553395D01*
X158366768Y-99537100D01*
X159826869Y-98077000D01*
X159911754Y-98077000D01*
X160032889Y-98052905D01*
X160146996Y-98005640D01*
X160249689Y-97937023D01*
X160337023Y-97849689D01*
X160405640Y-97746996D01*
X160452905Y-97632889D01*
X160477000Y-97511754D01*
X160477000Y-97388246D01*
X160452905Y-97267111D01*
X160405640Y-97153004D01*
X160337023Y-97050311D01*
X160249689Y-96962977D01*
X160146996Y-96894360D01*
X160032889Y-96847095D01*
X159911754Y-96823000D01*
X159788246Y-96823000D01*
X159667111Y-96847095D01*
X159553004Y-96894360D01*
X159450311Y-96962977D01*
X159362977Y-97050311D01*
X159294360Y-97153004D01*
X159247095Y-97267111D01*
X159223000Y-97388246D01*
X159223000Y-97473131D01*
X157873132Y-98823000D01*
X148576869Y-98823000D01*
X147298305Y-97544437D01*
X147315195Y-97537441D01*
X147417888Y-97468824D01*
X147477911Y-97408801D01*
X147911234Y-97408801D01*
X147932201Y-97410866D01*
X147953168Y-97408801D01*
X147953179Y-97408801D01*
X148015908Y-97402623D01*
X148096397Y-97378206D01*
X148170577Y-97338556D01*
X148235596Y-97285196D01*
X148248969Y-97268901D01*
X151415000Y-94102871D01*
X152847746Y-94102871D01*
X152847746Y-94226379D01*
X152871841Y-94347514D01*
X152919106Y-94461621D01*
X152987723Y-94564314D01*
X153075057Y-94651648D01*
X153177750Y-94720265D01*
X153291857Y-94767530D01*
X153377539Y-94784573D01*
X153397095Y-94882889D01*
X153444360Y-94996996D01*
X153512977Y-95099689D01*
X153600311Y-95187023D01*
X153703004Y-95255640D01*
X153817111Y-95302905D01*
X153938246Y-95327000D01*
X154061754Y-95327000D01*
X154182889Y-95302905D01*
X154296996Y-95255640D01*
X154399689Y-95187023D01*
X154487023Y-95099689D01*
X154555640Y-94996996D01*
X154602905Y-94882889D01*
X154627000Y-94761754D01*
X154627000Y-94676868D01*
X156899741Y-92404128D01*
X156934440Y-92456058D01*
X157021774Y-92543392D01*
X157124467Y-92612009D01*
X157238574Y-92659274D01*
X157359709Y-92683369D01*
X157404114Y-92683369D01*
X157408018Y-92702997D01*
X157455283Y-92817104D01*
X157523900Y-92919797D01*
X157611234Y-93007131D01*
X157713927Y-93075748D01*
X157828034Y-93123013D01*
X157949169Y-93147108D01*
X158072677Y-93147108D01*
X158193812Y-93123013D01*
X158307919Y-93075748D01*
X158410612Y-93007131D01*
X158497946Y-92919797D01*
X158566563Y-92817104D01*
X158613828Y-92702997D01*
X158637923Y-92581862D01*
X158637923Y-92489183D01*
X158666697Y-92489183D01*
X158787832Y-92465088D01*
X158901939Y-92417823D01*
X159004632Y-92349206D01*
X159091966Y-92261872D01*
X159160583Y-92159179D01*
X159207848Y-92045072D01*
X159231943Y-91923937D01*
X159231943Y-91800429D01*
X159207848Y-91679294D01*
X159160583Y-91565187D01*
X159091966Y-91462494D01*
X159031943Y-91402471D01*
X159031943Y-88426935D01*
X159323000Y-88135878D01*
X159323000Y-88890288D01*
X159312977Y-88900311D01*
X159244360Y-89003004D01*
X159197095Y-89117111D01*
X159173000Y-89238246D01*
X159173000Y-89361754D01*
X159197095Y-89482889D01*
X159244360Y-89596996D01*
X159312977Y-89699689D01*
X159400311Y-89787023D01*
X159503004Y-89855640D01*
X159617111Y-89902905D01*
X159738246Y-89927000D01*
X159861754Y-89927000D01*
X159982889Y-89902905D01*
X160021544Y-89886894D01*
X160034132Y-89905733D01*
X160121466Y-89993067D01*
X160224159Y-90061684D01*
X160338266Y-90108949D01*
X160459401Y-90133044D01*
X160582909Y-90133044D01*
X160704044Y-90108949D01*
X160818151Y-90061684D01*
X160920844Y-89993067D01*
X161008178Y-89905733D01*
X161076795Y-89803040D01*
X161124060Y-89688933D01*
X161148155Y-89567798D01*
X161148155Y-89444290D01*
X161124060Y-89323155D01*
X161076795Y-89209048D01*
X161008178Y-89106355D01*
X160948155Y-89046332D01*
X160948155Y-87766389D01*
X161029086Y-87685458D01*
X161097703Y-87582765D01*
X161144968Y-87468658D01*
X161169063Y-87347523D01*
X161169063Y-87224015D01*
X161144968Y-87102880D01*
X161097703Y-86988773D01*
X161029086Y-86886080D01*
X160941752Y-86798746D01*
X160839059Y-86730129D01*
X160724952Y-86682864D01*
X160635287Y-86665029D01*
X160848012Y-86452304D01*
X160853004Y-86455640D01*
X160967111Y-86502905D01*
X161088246Y-86527000D01*
X161211754Y-86527000D01*
X161332889Y-86502905D01*
X161446996Y-86455640D01*
X161549689Y-86387023D01*
X161637023Y-86299689D01*
X161705640Y-86196996D01*
X161752905Y-86082889D01*
X161777000Y-85961754D01*
X161777000Y-85838246D01*
X161752905Y-85717111D01*
X161705640Y-85603004D01*
X161637023Y-85500311D01*
X161549689Y-85412977D01*
X161446996Y-85344360D01*
X161332889Y-85297095D01*
X161211754Y-85273000D01*
X161088246Y-85273000D01*
X160967111Y-85297095D01*
X160853004Y-85344360D01*
X160750311Y-85412977D01*
X160741083Y-85422205D01*
X160725735Y-85420694D01*
X160702320Y-85423000D01*
X160702313Y-85423000D01*
X160641074Y-85429032D01*
X160632227Y-85429903D01*
X160612771Y-85435805D01*
X160542313Y-85457178D01*
X160459447Y-85501471D01*
X160386815Y-85561079D01*
X160371885Y-85579271D01*
X159514294Y-86436863D01*
X159395555Y-86318124D01*
X159395555Y-86233239D01*
X159371460Y-86112104D01*
X159324195Y-85997997D01*
X159255578Y-85895304D01*
X159168244Y-85807970D01*
X159065551Y-85739353D01*
X158951444Y-85692088D01*
X158830309Y-85667993D01*
X158706801Y-85667993D01*
X158585666Y-85692088D01*
X158471559Y-85739353D01*
X158368866Y-85807970D01*
X158281532Y-85895304D01*
X158212915Y-85997997D01*
X158165650Y-86112104D01*
X158141555Y-86233239D01*
X158141555Y-86356747D01*
X158165650Y-86477882D01*
X158212915Y-86591989D01*
X158281532Y-86694682D01*
X158340643Y-86753793D01*
X158306891Y-86787545D01*
X158244549Y-86694244D01*
X158157215Y-86606910D01*
X158054522Y-86538293D01*
X157940415Y-86491028D01*
X157819280Y-86466933D01*
X157695772Y-86466933D01*
X157574637Y-86491028D01*
X157460530Y-86538293D01*
X157413384Y-86569795D01*
X157402905Y-86517111D01*
X157355640Y-86403004D01*
X157287023Y-86300311D01*
X157199689Y-86212977D01*
X157096996Y-86144360D01*
X156982889Y-86097095D01*
X156861754Y-86073000D01*
X156738246Y-86073000D01*
X156617111Y-86097095D01*
X156503004Y-86144360D01*
X156400311Y-86212977D01*
X156312977Y-86300311D01*
X156244360Y-86403004D01*
X156197095Y-86517111D01*
X156173000Y-86638246D01*
X156173000Y-86761754D01*
X156197095Y-86882889D01*
X156243850Y-86995765D01*
X156162967Y-87076648D01*
X156094350Y-87179341D01*
X156047085Y-87293448D01*
X156022990Y-87414583D01*
X156022990Y-87538091D01*
X156047085Y-87659226D01*
X156094350Y-87773333D01*
X156162967Y-87876026D01*
X156222991Y-87936050D01*
X156222990Y-90812511D01*
X153497878Y-93537625D01*
X153412992Y-93537625D01*
X153291857Y-93561720D01*
X153177750Y-93608985D01*
X153075057Y-93677602D01*
X152987723Y-93764936D01*
X152919106Y-93867629D01*
X152871841Y-93981736D01*
X152847746Y-94102871D01*
X151415000Y-94102871D01*
X153887112Y-91630760D01*
X153903395Y-91617397D01*
X153916759Y-91601113D01*
X153916768Y-91601104D01*
X153956755Y-91552379D01*
X153996404Y-91478199D01*
X153996405Y-91478198D01*
X154020822Y-91397709D01*
X154027000Y-91334980D01*
X154027000Y-91334970D01*
X154029065Y-91314003D01*
X154027000Y-91293036D01*
X154027000Y-84859712D01*
X154087023Y-84799689D01*
X154155640Y-84696996D01*
X154202905Y-84582889D01*
X154227000Y-84461754D01*
X154227000Y-84338246D01*
X154202905Y-84217111D01*
X154155640Y-84103004D01*
X154103519Y-84024999D01*
X154155640Y-83946993D01*
X154202905Y-83832886D01*
X154227000Y-83711751D01*
X154227000Y-83588243D01*
X154202905Y-83467108D01*
X154155640Y-83353001D01*
X154087023Y-83250308D01*
X153999689Y-83162974D01*
X153896996Y-83094357D01*
X153782889Y-83047092D01*
X153661754Y-83022997D01*
X153538246Y-83022997D01*
X153417111Y-83047092D01*
X153303004Y-83094357D01*
X153200311Y-83162974D01*
X153112977Y-83250308D01*
X153044360Y-83353001D01*
X152997095Y-83467108D01*
X152973000Y-83588243D01*
X152973000Y-83609130D01*
X152762894Y-83819236D01*
X152746605Y-83832604D01*
X152733236Y-83848894D01*
X152733231Y-83848899D01*
X152693244Y-83897623D01*
X152672145Y-83937098D01*
X152653595Y-83971803D01*
X152629178Y-84052292D01*
X152624184Y-84103004D01*
X152620934Y-84135999D01*
X152623000Y-84156976D01*
X152622999Y-90810944D01*
X150927000Y-92506944D01*
X150927000Y-81038246D01*
X158173000Y-81038246D01*
X158173000Y-81161754D01*
X158197095Y-81282889D01*
X158244360Y-81396996D01*
X158312977Y-81499689D01*
X158400311Y-81587023D01*
X158503004Y-81655640D01*
X158617111Y-81702905D01*
X158738246Y-81727000D01*
X158823132Y-81727000D01*
X162903000Y-85806869D01*
X162903001Y-93290511D01*
X162868321Y-93309048D01*
X162742394Y-93412394D01*
X162639048Y-93538321D01*
X162562255Y-93681990D01*
X162514966Y-93837880D01*
X162498999Y-94000000D01*
X162514966Y-94162120D01*
X162562255Y-94318010D01*
X162639048Y-94461679D01*
X162742394Y-94587606D01*
X162868321Y-94690952D01*
X163011990Y-94767745D01*
X163167880Y-94815034D01*
X163289376Y-94827000D01*
X163370624Y-94827000D01*
X163492120Y-94815034D01*
X163648010Y-94767745D01*
X163791679Y-94690952D01*
X163819209Y-94668359D01*
X163826794Y-94682550D01*
X163867657Y-94732343D01*
X163917450Y-94773206D01*
X163974257Y-94803570D01*
X164035897Y-94822268D01*
X164100000Y-94828582D01*
X165100000Y-94828582D01*
X165164103Y-94822268D01*
X165225743Y-94803570D01*
X165282550Y-94773206D01*
X165332343Y-94732343D01*
X165373206Y-94682550D01*
X165403570Y-94625743D01*
X165422268Y-94564103D01*
X165428582Y-94500000D01*
X165428582Y-93500000D01*
X165422268Y-93435897D01*
X165403570Y-93374257D01*
X165373206Y-93317450D01*
X165332343Y-93267657D01*
X165282550Y-93226794D01*
X165225743Y-93196430D01*
X165164103Y-93177732D01*
X165100000Y-93171418D01*
X165027000Y-93171418D01*
X165027000Y-85620967D01*
X165029065Y-85600000D01*
X165027000Y-85579033D01*
X165027000Y-85579022D01*
X165020822Y-85516293D01*
X164996405Y-85435804D01*
X164956756Y-85361625D01*
X164956755Y-85361623D01*
X164916768Y-85312899D01*
X164916764Y-85312895D01*
X164903395Y-85296605D01*
X164887107Y-85283238D01*
X159927000Y-80323132D01*
X159927000Y-80238246D01*
X159902905Y-80117111D01*
X159855640Y-80003004D01*
X159787023Y-79900311D01*
X159699689Y-79812977D01*
X159596996Y-79744360D01*
X159482889Y-79697095D01*
X159361754Y-79673000D01*
X159238246Y-79673000D01*
X159117111Y-79697095D01*
X159003004Y-79744360D01*
X158900311Y-79812977D01*
X158812977Y-79900311D01*
X158744360Y-80003004D01*
X158697095Y-80117111D01*
X158673000Y-80238246D01*
X158673000Y-80361754D01*
X158696769Y-80481250D01*
X158617111Y-80497095D01*
X158503004Y-80544360D01*
X158400311Y-80612977D01*
X158312977Y-80700311D01*
X158244360Y-80803004D01*
X158197095Y-80917111D01*
X158173000Y-81038246D01*
X150927000Y-81038246D01*
X150927000Y-77159712D01*
X150987023Y-77099689D01*
X151055640Y-76996996D01*
X151102905Y-76882889D01*
X151127000Y-76761754D01*
X151127000Y-76638246D01*
X151102905Y-76517111D01*
X151055640Y-76403004D01*
X150987023Y-76300311D01*
X150899689Y-76212977D01*
X150796996Y-76144360D01*
X150682889Y-76097095D01*
X150561754Y-76073000D01*
X150438246Y-76073000D01*
X150317111Y-76097095D01*
X150203004Y-76144360D01*
X150100311Y-76212977D01*
X150090784Y-76222504D01*
X150048664Y-76194360D01*
X149934557Y-76147095D01*
X149813422Y-76123000D01*
X149689914Y-76123000D01*
X149568779Y-76147095D01*
X149454672Y-76194360D01*
X149351979Y-76262977D01*
X149264645Y-76350311D01*
X149196028Y-76453004D01*
X149148763Y-76567111D01*
X149124668Y-76688246D01*
X149124668Y-76811754D01*
X149148763Y-76932889D01*
X149196028Y-77046996D01*
X149264645Y-77149689D01*
X149324669Y-77209713D01*
X149324668Y-92553638D01*
X148300311Y-93577997D01*
X148215425Y-93577997D01*
X148094290Y-93602092D01*
X147980183Y-93649357D01*
X147877490Y-93717974D01*
X147790156Y-93805308D01*
X147721539Y-93908001D01*
X147674274Y-94022108D01*
X147650179Y-94143243D01*
X147650179Y-94266751D01*
X147674274Y-94387886D01*
X147721539Y-94501993D01*
X147790156Y-94604686D01*
X147801970Y-94616500D01*
X147783002Y-94624357D01*
X147680309Y-94692974D01*
X147592975Y-94780308D01*
X147524358Y-94883001D01*
X147477093Y-94997108D01*
X147452998Y-95118243D01*
X147452998Y-95241751D01*
X147477093Y-95362886D01*
X147524358Y-95476993D01*
X147592975Y-95579686D01*
X147680309Y-95667020D01*
X147732231Y-95701713D01*
X147629144Y-95804801D01*
X147544258Y-95804801D01*
X147423123Y-95828896D01*
X147309016Y-95876161D01*
X147206323Y-95944778D01*
X147118989Y-96032112D01*
X147050372Y-96134805D01*
X147015720Y-96218461D01*
X147027000Y-96161754D01*
X147027000Y-96038246D01*
X147002905Y-95917111D01*
X146955640Y-95803004D01*
X146887023Y-95700311D01*
X146799689Y-95612977D01*
X146696996Y-95544360D01*
X146582889Y-95497095D01*
X146461754Y-95473000D01*
X146338246Y-95473000D01*
X146217111Y-95497095D01*
X146103004Y-95544360D01*
X146000311Y-95612977D01*
X145912977Y-95700311D01*
X145844360Y-95803004D01*
X145797095Y-95917111D01*
X145773000Y-96038246D01*
X145278080Y-96038246D01*
X145305643Y-95996996D01*
X145352908Y-95882889D01*
X145377003Y-95761754D01*
X145377003Y-95638246D01*
X145352908Y-95517111D01*
X145305643Y-95403004D01*
X145237026Y-95300311D01*
X145177003Y-95240288D01*
X145177003Y-80576865D01*
X148376870Y-77377000D01*
X148461754Y-77377000D01*
X148582889Y-77352905D01*
X148696996Y-77305640D01*
X148799689Y-77237023D01*
X148887023Y-77149689D01*
X148955640Y-77046996D01*
X149002905Y-76932889D01*
X149027000Y-76811754D01*
X149027000Y-76688246D01*
X149002905Y-76567111D01*
X148955640Y-76453004D01*
X148887023Y-76350311D01*
X148799689Y-76262977D01*
X148696996Y-76194360D01*
X148582889Y-76147095D01*
X148461754Y-76123000D01*
X148338246Y-76123000D01*
X148217111Y-76147095D01*
X148103004Y-76194360D01*
X148000311Y-76262977D01*
X147912977Y-76350311D01*
X147850000Y-76444563D01*
X147787023Y-76350311D01*
X147699689Y-76262977D01*
X147596996Y-76194360D01*
X147482889Y-76147095D01*
X147361754Y-76123000D01*
X147238246Y-76123000D01*
X147117111Y-76147095D01*
X147003004Y-76194360D01*
X146900311Y-76262977D01*
X146900000Y-76263288D01*
X146899689Y-76262977D01*
X146796996Y-76194360D01*
X146682889Y-76147095D01*
X146561754Y-76123000D01*
X146438246Y-76123000D01*
X146317111Y-76147095D01*
X146203004Y-76194360D01*
X146100311Y-76262977D01*
X146012977Y-76350311D01*
X145944360Y-76453004D01*
X145897095Y-76567111D01*
X145873000Y-76688246D01*
X145873000Y-76773131D01*
X142712900Y-79933232D01*
X142696605Y-79946605D01*
X142683233Y-79962899D01*
X142683232Y-79962900D01*
X142643245Y-80011624D01*
X142626345Y-80043242D01*
X142603595Y-80085805D01*
X142579178Y-80166294D01*
X142573000Y-80229023D01*
X142573000Y-80229033D01*
X142570935Y-80250000D01*
X142573000Y-80270967D01*
X142573001Y-95240287D01*
X142512977Y-95300311D01*
X142459680Y-95380076D01*
X140827000Y-93747396D01*
X140827000Y-79759712D01*
X140887023Y-79699689D01*
X140955640Y-79596996D01*
X141002905Y-79482889D01*
X141027000Y-79361754D01*
X141027000Y-79238246D01*
X141002905Y-79117111D01*
X140955640Y-79003004D01*
X140887023Y-78900311D01*
X140799689Y-78812977D01*
X140696996Y-78744360D01*
X140582889Y-78697095D01*
X140461754Y-78673000D01*
X140338246Y-78673000D01*
X140217111Y-78697095D01*
X140103004Y-78744360D01*
X140000311Y-78812977D01*
X139912977Y-78900311D01*
X139844360Y-79003004D01*
X139797095Y-79117111D01*
X139773000Y-79238246D01*
X139773000Y-79361754D01*
X139797095Y-79482889D01*
X139844360Y-79596996D01*
X139912977Y-79699689D01*
X139973000Y-79759712D01*
X139973001Y-93695145D01*
X139896996Y-93644360D01*
X139782889Y-93597095D01*
X139661754Y-93573000D01*
X139538246Y-93573000D01*
X139417111Y-93597095D01*
X139303004Y-93644360D01*
X139200311Y-93712977D01*
X139112977Y-93800311D01*
X139044360Y-93903004D01*
X138997095Y-94017111D01*
X138973000Y-94138246D01*
X138973000Y-94261754D01*
X138997095Y-94382889D01*
X139044360Y-94496996D01*
X139112977Y-94599689D01*
X139123000Y-94609712D01*
X139123001Y-95002419D01*
X136152421Y-97973000D01*
X136138246Y-97973000D01*
X136017111Y-97997095D01*
X135903004Y-98044360D01*
X135800311Y-98112977D01*
X135712977Y-98200311D01*
X135700000Y-98219733D01*
X135687023Y-98200311D01*
X135677000Y-98190288D01*
X135677000Y-94797579D01*
X137547580Y-92927000D01*
X137561754Y-92927000D01*
X137682889Y-92902905D01*
X137796996Y-92855640D01*
X137899689Y-92787023D01*
X137987023Y-92699689D01*
X138055640Y-92596996D01*
X138102905Y-92482889D01*
X138127000Y-92361754D01*
X138127000Y-92238246D01*
X138102905Y-92117111D01*
X138055640Y-92003004D01*
X137987023Y-91900311D01*
X137899689Y-91812977D01*
X137796996Y-91744360D01*
X137682889Y-91697095D01*
X137561754Y-91673000D01*
X137438246Y-91673000D01*
X137317111Y-91697095D01*
X137203004Y-91744360D01*
X137100311Y-91812977D01*
X137012977Y-91900311D01*
X136944360Y-92003004D01*
X136897095Y-92117111D01*
X136873000Y-92238246D01*
X136873000Y-92252420D01*
X134879276Y-94246145D01*
X134861079Y-94261079D01*
X134801471Y-94333711D01*
X134757178Y-94416578D01*
X134729903Y-94506493D01*
X134723000Y-94576578D01*
X134723000Y-94576585D01*
X134720694Y-94600000D01*
X134723000Y-94623415D01*
X134723001Y-98190287D01*
X134712977Y-98200311D01*
X134644360Y-98303004D01*
X134597095Y-98417111D01*
X134573000Y-98538246D01*
X134090554Y-98538246D01*
X134088587Y-98518276D01*
X134035580Y-98343536D01*
X133949501Y-98182495D01*
X133833659Y-98041341D01*
X133692505Y-97925499D01*
X133531464Y-97839420D01*
X133356724Y-97786413D01*
X133220538Y-97773000D01*
X132579462Y-97773000D01*
X132443276Y-97786413D01*
X132399325Y-97799745D01*
X132223044Y-97623465D01*
X132274999Y-97628582D01*
X133525001Y-97628582D01*
X133637877Y-97617465D01*
X133746414Y-97584540D01*
X133846443Y-97531074D01*
X133934120Y-97459120D01*
X134006074Y-97371443D01*
X134059540Y-97271414D01*
X134092465Y-97162877D01*
X134103582Y-97050001D01*
X134103582Y-96349999D01*
X134092465Y-96237123D01*
X134059540Y-96128586D01*
X134006074Y-96028557D01*
X133934120Y-95940880D01*
X133846443Y-95868926D01*
X133746414Y-95815460D01*
X133637877Y-95782535D01*
X133525001Y-95771418D01*
X132274999Y-95771418D01*
X132162123Y-95782535D01*
X132053586Y-95815460D01*
X131953557Y-95868926D01*
X131877000Y-95931754D01*
X131877000Y-91209712D01*
X131887023Y-91199689D01*
X131955640Y-91096996D01*
X132002905Y-90982889D01*
X132027000Y-90861754D01*
X132027000Y-90738246D01*
X132002905Y-90617111D01*
X131955640Y-90503004D01*
X131887023Y-90400311D01*
X131799689Y-90312977D01*
X131696996Y-90244360D01*
X131582889Y-90197095D01*
X131461754Y-90173000D01*
X131338246Y-90173000D01*
X131217111Y-90197095D01*
X131103004Y-90244360D01*
X131000311Y-90312977D01*
X130912977Y-90400311D01*
X130844360Y-90503004D01*
X130797095Y-90617111D01*
X130773000Y-90738246D01*
X122027000Y-90738246D01*
X122027000Y-69450000D01*
X127031928Y-69450000D01*
X127044188Y-69574482D01*
X127080498Y-69694180D01*
X127139463Y-69804494D01*
X127218815Y-69901185D01*
X127315506Y-69980537D01*
X127425820Y-70039502D01*
X127545518Y-70075812D01*
X127670000Y-70088072D01*
X128234250Y-70085000D01*
X128393000Y-69926250D01*
X128393000Y-68727000D01*
X127193750Y-68727000D01*
X127035000Y-68885750D01*
X127031928Y-69450000D01*
X122027000Y-69450000D01*
X122027000Y-67750000D01*
X127031928Y-67750000D01*
X127035000Y-68314250D01*
X127193750Y-68473000D01*
X128393000Y-68473000D01*
X128393000Y-67273750D01*
X128647000Y-67273750D01*
X128647000Y-68473000D01*
X128667000Y-68473000D01*
X128667000Y-68727000D01*
X128647000Y-68727000D01*
X128647000Y-69926250D01*
X128805750Y-70085000D01*
X129370000Y-70088072D01*
X129494482Y-70075812D01*
X129614180Y-70039502D01*
X129724494Y-69980537D01*
X129821185Y-69901185D01*
X129900537Y-69804494D01*
X129959502Y-69694180D01*
X129995812Y-69574482D01*
X130008072Y-69450000D01*
X130006305Y-69125509D01*
X130076626Y-69257070D01*
X130223709Y-69436291D01*
X130402930Y-69583374D01*
X130607403Y-69692667D01*
X130829268Y-69759969D01*
X131002188Y-69777000D01*
X131117812Y-69777000D01*
X131290732Y-69759969D01*
X131512597Y-69692667D01*
X131717070Y-69583374D01*
X131896291Y-69436291D01*
X132043374Y-69257070D01*
X132152667Y-69052597D01*
X132219969Y-68830732D01*
X132242694Y-68600000D01*
X132417306Y-68600000D01*
X132440031Y-68830732D01*
X132507333Y-69052597D01*
X132616626Y-69257070D01*
X132763709Y-69436291D01*
X132942930Y-69583374D01*
X133147403Y-69692667D01*
X133173000Y-69700432D01*
X133173000Y-69823058D01*
X133173001Y-69823068D01*
X133173000Y-85303297D01*
X133170935Y-85324264D01*
X133173000Y-85345231D01*
X133173000Y-85345241D01*
X133179178Y-85407970D01*
X133203595Y-85488459D01*
X133203596Y-85488460D01*
X133243245Y-85562640D01*
X133273906Y-85600000D01*
X133296605Y-85627659D01*
X133312900Y-85641032D01*
X136258977Y-88587111D01*
X136272341Y-88603395D01*
X136288625Y-88616759D01*
X136288634Y-88616768D01*
X136337359Y-88656755D01*
X136363801Y-88670888D01*
X136411540Y-88696405D01*
X136492029Y-88720822D01*
X136538707Y-88725419D01*
X136600311Y-88787023D01*
X136703004Y-88855640D01*
X136817111Y-88902905D01*
X136938246Y-88927000D01*
X137061754Y-88927000D01*
X137182889Y-88902905D01*
X137296996Y-88855640D01*
X137399689Y-88787023D01*
X137487023Y-88699689D01*
X137555640Y-88596996D01*
X137602905Y-88482889D01*
X137627000Y-88361754D01*
X137627000Y-88238246D01*
X137602905Y-88117111D01*
X137555640Y-88003004D01*
X137487023Y-87900311D01*
X137399689Y-87812977D01*
X137296996Y-87744360D01*
X137182889Y-87697095D01*
X137061754Y-87673000D01*
X136938246Y-87673000D01*
X136817111Y-87697095D01*
X136703004Y-87744360D01*
X136655624Y-87776018D01*
X134027000Y-85147396D01*
X134027000Y-83838246D01*
X137188000Y-83838246D01*
X137188000Y-83961754D01*
X137212095Y-84082889D01*
X137259360Y-84196996D01*
X137327977Y-84299689D01*
X137415311Y-84387023D01*
X137518004Y-84455640D01*
X137632111Y-84502905D01*
X137753246Y-84527000D01*
X137876754Y-84527000D01*
X137997889Y-84502905D01*
X138111996Y-84455640D01*
X138214689Y-84387023D01*
X138302023Y-84299689D01*
X138370640Y-84196996D01*
X138417905Y-84082889D01*
X138442000Y-83961754D01*
X138442000Y-83838246D01*
X138417905Y-83717111D01*
X138370640Y-83603004D01*
X138327000Y-83537692D01*
X138327000Y-76859712D01*
X138387023Y-76799689D01*
X138455640Y-76696996D01*
X138502905Y-76582889D01*
X138527000Y-76461754D01*
X138527000Y-76338246D01*
X138502905Y-76217111D01*
X138455640Y-76103004D01*
X138387023Y-76000311D01*
X138299689Y-75912977D01*
X138196996Y-75844360D01*
X138082889Y-75797095D01*
X137961754Y-75773000D01*
X137838246Y-75773000D01*
X137717111Y-75797095D01*
X137603004Y-75844360D01*
X137500311Y-75912977D01*
X137412977Y-76000311D01*
X137344360Y-76103004D01*
X137297095Y-76217111D01*
X137273000Y-76338246D01*
X137273000Y-76461754D01*
X137297095Y-76582889D01*
X137344360Y-76696996D01*
X137412977Y-76799689D01*
X137473000Y-76859712D01*
X137473001Y-83374430D01*
X137415311Y-83412977D01*
X137327977Y-83500311D01*
X137259360Y-83603004D01*
X137212095Y-83717111D01*
X137188000Y-83838246D01*
X134027000Y-83838246D01*
X134027000Y-69700432D01*
X134052597Y-69692667D01*
X134257070Y-69583374D01*
X134419586Y-69450000D01*
X135711928Y-69450000D01*
X135724188Y-69574482D01*
X135760498Y-69694180D01*
X135819463Y-69804494D01*
X135898815Y-69901185D01*
X135995506Y-69980537D01*
X136105820Y-70039502D01*
X136225518Y-70075812D01*
X136350000Y-70088072D01*
X136914250Y-70085000D01*
X137073000Y-69926250D01*
X137073000Y-68727000D01*
X135873750Y-68727000D01*
X135715000Y-68885750D01*
X135711928Y-69450000D01*
X134419586Y-69450000D01*
X134436291Y-69436291D01*
X134583374Y-69257070D01*
X134692667Y-69052597D01*
X134759969Y-68830732D01*
X134782694Y-68600000D01*
X134759969Y-68369268D01*
X134692667Y-68147403D01*
X134583374Y-67942930D01*
X134436291Y-67763709D01*
X134419587Y-67750000D01*
X135711928Y-67750000D01*
X135715000Y-68314250D01*
X135873750Y-68473000D01*
X137073000Y-68473000D01*
X137073000Y-67273750D01*
X137327000Y-67273750D01*
X137327000Y-68473000D01*
X137347000Y-68473000D01*
X137347000Y-68727000D01*
X137327000Y-68727000D01*
X137327000Y-69926250D01*
X137485750Y-70085000D01*
X138050000Y-70088072D01*
X138174482Y-70075812D01*
X138294180Y-70039502D01*
X138404494Y-69980537D01*
X138501185Y-69901185D01*
X138580537Y-69804494D01*
X138639502Y-69694180D01*
X138675812Y-69574482D01*
X138688072Y-69450000D01*
X138686305Y-69125509D01*
X138756626Y-69257070D01*
X138903709Y-69436291D01*
X139082930Y-69583374D01*
X139287403Y-69692667D01*
X139509268Y-69759969D01*
X139682188Y-69777000D01*
X139797812Y-69777000D01*
X139970732Y-69759969D01*
X140192597Y-69692667D01*
X140397070Y-69583374D01*
X140576291Y-69436291D01*
X140723374Y-69257070D01*
X140832667Y-69052597D01*
X140899969Y-68830732D01*
X140922694Y-68600000D01*
X141097306Y-68600000D01*
X141120031Y-68830732D01*
X141187333Y-69052597D01*
X141296626Y-69257070D01*
X141443709Y-69436291D01*
X141622930Y-69583374D01*
X141827403Y-69692667D01*
X142049268Y-69759969D01*
X142222188Y-69777000D01*
X142337812Y-69777000D01*
X142510732Y-69759969D01*
X142732597Y-69692667D01*
X142937070Y-69583374D01*
X143116291Y-69436291D01*
X143263374Y-69257070D01*
X143372667Y-69052597D01*
X143439969Y-68830732D01*
X143462694Y-68600000D01*
X143637306Y-68600000D01*
X143660031Y-68830732D01*
X143727333Y-69052597D01*
X143836626Y-69257070D01*
X143983709Y-69436291D01*
X144162930Y-69583374D01*
X144367403Y-69692667D01*
X144589268Y-69759969D01*
X144762188Y-69777000D01*
X144877812Y-69777000D01*
X145050732Y-69759969D01*
X145272597Y-69692667D01*
X145477070Y-69583374D01*
X145656291Y-69436291D01*
X145803374Y-69257070D01*
X145912667Y-69052597D01*
X145979969Y-68830732D01*
X146002694Y-68600000D01*
X146177306Y-68600000D01*
X146200031Y-68830732D01*
X146267333Y-69052597D01*
X146376626Y-69257070D01*
X146523709Y-69436291D01*
X146702930Y-69583374D01*
X146733001Y-69599447D01*
X146733000Y-70739033D01*
X146730935Y-70760000D01*
X146733000Y-70780967D01*
X146733000Y-70780977D01*
X146739178Y-70843706D01*
X146763595Y-70924195D01*
X146763596Y-70924196D01*
X146803245Y-70998376D01*
X146843232Y-71047100D01*
X146856605Y-71063395D01*
X146872900Y-71076768D01*
X153173001Y-77376871D01*
X153173000Y-78340288D01*
X153112977Y-78400311D01*
X153044360Y-78503004D01*
X152997095Y-78617111D01*
X152973000Y-78738246D01*
X152973000Y-78861754D01*
X152997095Y-78982889D01*
X153044360Y-79096996D01*
X153112977Y-79199689D01*
X153200311Y-79287023D01*
X153303004Y-79355640D01*
X153417111Y-79402905D01*
X153538246Y-79427000D01*
X153661754Y-79427000D01*
X153782889Y-79402905D01*
X153896996Y-79355640D01*
X153999689Y-79287023D01*
X154087023Y-79199689D01*
X154155640Y-79096996D01*
X154202905Y-78982889D01*
X154227000Y-78861754D01*
X154227000Y-78738246D01*
X154202905Y-78617111D01*
X154155640Y-78503004D01*
X154087023Y-78400311D01*
X154027000Y-78340288D01*
X154027000Y-77850000D01*
X161321418Y-77850000D01*
X161321418Y-79550000D01*
X161327732Y-79614103D01*
X161346430Y-79675743D01*
X161376794Y-79732550D01*
X161417657Y-79782343D01*
X161467450Y-79823206D01*
X161524257Y-79853570D01*
X161585897Y-79872268D01*
X161650000Y-79878582D01*
X163350000Y-79878582D01*
X163414103Y-79872268D01*
X163475743Y-79853570D01*
X163532550Y-79823206D01*
X163582343Y-79782343D01*
X163623206Y-79732550D01*
X163653570Y-79675743D01*
X163672268Y-79614103D01*
X163678582Y-79550000D01*
X163678582Y-78700000D01*
X163857306Y-78700000D01*
X163880031Y-78930732D01*
X163947333Y-79152597D01*
X164056626Y-79357070D01*
X164203709Y-79536291D01*
X164382930Y-79683374D01*
X164587403Y-79792667D01*
X164809268Y-79859969D01*
X164982188Y-79877000D01*
X165097812Y-79877000D01*
X165270732Y-79859969D01*
X165492597Y-79792667D01*
X165697070Y-79683374D01*
X165876291Y-79536291D01*
X166023374Y-79357070D01*
X166132667Y-79152597D01*
X166199969Y-78930732D01*
X166222694Y-78700000D01*
X166199969Y-78469268D01*
X166132667Y-78247403D01*
X166023374Y-78042930D01*
X165876291Y-77863709D01*
X165697070Y-77716626D01*
X165492597Y-77607333D01*
X165270732Y-77540031D01*
X165097812Y-77523000D01*
X164982188Y-77523000D01*
X164809268Y-77540031D01*
X164587403Y-77607333D01*
X164382930Y-77716626D01*
X164203709Y-77863709D01*
X164056626Y-78042930D01*
X163947333Y-78247403D01*
X163880031Y-78469268D01*
X163857306Y-78700000D01*
X163678582Y-78700000D01*
X163678582Y-77850000D01*
X163672268Y-77785897D01*
X163653570Y-77724257D01*
X163623206Y-77667450D01*
X163582343Y-77617657D01*
X163532550Y-77576794D01*
X163475743Y-77546430D01*
X163414103Y-77527732D01*
X163350000Y-77521418D01*
X161650000Y-77521418D01*
X161585897Y-77527732D01*
X161524257Y-77546430D01*
X161467450Y-77576794D01*
X161417657Y-77617657D01*
X161376794Y-77667450D01*
X161346430Y-77724257D01*
X161327732Y-77785897D01*
X161321418Y-77850000D01*
X154027000Y-77850000D01*
X154027000Y-77220964D01*
X154029065Y-77199999D01*
X154027000Y-77179034D01*
X154027000Y-77179022D01*
X154020822Y-77116293D01*
X153996405Y-77035804D01*
X153971055Y-76988377D01*
X153956755Y-76961623D01*
X153916768Y-76912898D01*
X153916759Y-76912889D01*
X153903395Y-76896605D01*
X153887111Y-76883241D01*
X148030868Y-71027000D01*
X148061754Y-71027000D01*
X148182889Y-71002905D01*
X148296996Y-70955640D01*
X148375652Y-70903084D01*
X154182949Y-70903084D01*
X154203916Y-70905149D01*
X154224883Y-70903084D01*
X154224894Y-70903084D01*
X154287623Y-70896906D01*
X154368112Y-70872489D01*
X154442292Y-70832839D01*
X154507311Y-70779479D01*
X154520684Y-70763184D01*
X155603811Y-69680057D01*
X155627403Y-69692667D01*
X155849268Y-69759969D01*
X156022188Y-69777000D01*
X156137812Y-69777000D01*
X156310732Y-69759969D01*
X156532597Y-69692667D01*
X156737070Y-69583374D01*
X156916291Y-69436291D01*
X157063374Y-69257070D01*
X157172667Y-69052597D01*
X157239969Y-68830732D01*
X157262694Y-68600000D01*
X157437306Y-68600000D01*
X157460031Y-68830732D01*
X157527333Y-69052597D01*
X157636626Y-69257070D01*
X157783709Y-69436291D01*
X157962930Y-69583374D01*
X158167403Y-69692667D01*
X158389268Y-69759969D01*
X158562188Y-69777000D01*
X158677812Y-69777000D01*
X158850732Y-69759969D01*
X159072597Y-69692667D01*
X159277070Y-69583374D01*
X159456291Y-69436291D01*
X159603374Y-69257070D01*
X159712667Y-69052597D01*
X159779969Y-68830732D01*
X159802694Y-68600000D01*
X159779969Y-68369268D01*
X159712667Y-68147403D01*
X159603374Y-67942930D01*
X159456291Y-67763709D01*
X159277070Y-67616626D01*
X159072597Y-67507333D01*
X158850732Y-67440031D01*
X158677812Y-67423000D01*
X158562188Y-67423000D01*
X158389268Y-67440031D01*
X158167403Y-67507333D01*
X157962930Y-67616626D01*
X157783709Y-67763709D01*
X157636626Y-67942930D01*
X157527333Y-68147403D01*
X157460031Y-68369268D01*
X157437306Y-68600000D01*
X157262694Y-68600000D01*
X157239969Y-68369268D01*
X157172667Y-68147403D01*
X157063374Y-67942930D01*
X156916291Y-67763709D01*
X156737070Y-67616626D01*
X156532597Y-67507333D01*
X156310732Y-67440031D01*
X156137812Y-67423000D01*
X156022188Y-67423000D01*
X155849268Y-67440031D01*
X155627403Y-67507333D01*
X155422930Y-67616626D01*
X155243709Y-67763709D01*
X155096626Y-67942930D01*
X154987333Y-68147403D01*
X154920031Y-68369268D01*
X154897306Y-68600000D01*
X154920031Y-68830732D01*
X154987333Y-69052597D01*
X154999943Y-69076189D01*
X154027048Y-70049084D01*
X152062592Y-70049084D01*
X152094180Y-70039502D01*
X152204494Y-69980537D01*
X152301185Y-69901185D01*
X152380537Y-69804494D01*
X152439502Y-69694180D01*
X152475812Y-69574482D01*
X152488072Y-69450000D01*
X152486305Y-69125509D01*
X152556626Y-69257070D01*
X152703709Y-69436291D01*
X152882930Y-69583374D01*
X153087403Y-69692667D01*
X153309268Y-69759969D01*
X153482188Y-69777000D01*
X153597812Y-69777000D01*
X153770732Y-69759969D01*
X153992597Y-69692667D01*
X154197070Y-69583374D01*
X154376291Y-69436291D01*
X154523374Y-69257070D01*
X154632667Y-69052597D01*
X154699969Y-68830732D01*
X154722694Y-68600000D01*
X154699969Y-68369268D01*
X154632667Y-68147403D01*
X154523374Y-67942930D01*
X154376291Y-67763709D01*
X154197070Y-67616626D01*
X153992597Y-67507333D01*
X153770732Y-67440031D01*
X153597812Y-67423000D01*
X153482188Y-67423000D01*
X153309268Y-67440031D01*
X153087403Y-67507333D01*
X152882930Y-67616626D01*
X152703709Y-67763709D01*
X152556626Y-67942930D01*
X152486305Y-68074491D01*
X152488072Y-67750000D01*
X152475812Y-67625518D01*
X152439502Y-67505820D01*
X152380537Y-67395506D01*
X152301185Y-67298815D01*
X152204494Y-67219463D01*
X152094180Y-67160498D01*
X151974482Y-67124188D01*
X151850000Y-67111928D01*
X151285750Y-67115000D01*
X151127000Y-67273750D01*
X151127000Y-68473000D01*
X151147000Y-68473000D01*
X151147000Y-68727000D01*
X151127000Y-68727000D01*
X151127000Y-68747000D01*
X150873000Y-68747000D01*
X150873000Y-68727000D01*
X149673750Y-68727000D01*
X149515000Y-68885750D01*
X149511928Y-69450000D01*
X149524188Y-69574482D01*
X149560498Y-69694180D01*
X149619463Y-69804494D01*
X149698815Y-69901185D01*
X149795506Y-69980537D01*
X149905820Y-70039502D01*
X149937408Y-70049084D01*
X148519612Y-70049084D01*
X148487023Y-70000311D01*
X148399689Y-69912977D01*
X148296996Y-69844360D01*
X148182889Y-69797095D01*
X148061754Y-69773000D01*
X147938246Y-69773000D01*
X147817111Y-69797095D01*
X147703004Y-69844360D01*
X147600311Y-69912977D01*
X147587000Y-69926288D01*
X147587000Y-69760337D01*
X147590732Y-69759969D01*
X147812597Y-69692667D01*
X148017070Y-69583374D01*
X148196291Y-69436291D01*
X148343374Y-69257070D01*
X148452667Y-69052597D01*
X148519969Y-68830732D01*
X148542694Y-68600000D01*
X148519969Y-68369268D01*
X148452667Y-68147403D01*
X148343374Y-67942930D01*
X148196291Y-67763709D01*
X148179587Y-67750000D01*
X149511928Y-67750000D01*
X149515000Y-68314250D01*
X149673750Y-68473000D01*
X150873000Y-68473000D01*
X150873000Y-67273750D01*
X150714250Y-67115000D01*
X150150000Y-67111928D01*
X150025518Y-67124188D01*
X149905820Y-67160498D01*
X149795506Y-67219463D01*
X149698815Y-67298815D01*
X149619463Y-67395506D01*
X149560498Y-67505820D01*
X149524188Y-67625518D01*
X149511928Y-67750000D01*
X148179587Y-67750000D01*
X148017070Y-67616626D01*
X147812597Y-67507333D01*
X147590732Y-67440031D01*
X147417812Y-67423000D01*
X147302188Y-67423000D01*
X147129268Y-67440031D01*
X146907403Y-67507333D01*
X146702930Y-67616626D01*
X146523709Y-67763709D01*
X146376626Y-67942930D01*
X146267333Y-68147403D01*
X146200031Y-68369268D01*
X146177306Y-68600000D01*
X146002694Y-68600000D01*
X145979969Y-68369268D01*
X145912667Y-68147403D01*
X145803374Y-67942930D01*
X145656291Y-67763709D01*
X145477070Y-67616626D01*
X145272597Y-67507333D01*
X145050732Y-67440031D01*
X144877812Y-67423000D01*
X144762188Y-67423000D01*
X144589268Y-67440031D01*
X144367403Y-67507333D01*
X144162930Y-67616626D01*
X143983709Y-67763709D01*
X143836626Y-67942930D01*
X143727333Y-68147403D01*
X143660031Y-68369268D01*
X143637306Y-68600000D01*
X143462694Y-68600000D01*
X143439969Y-68369268D01*
X143372667Y-68147403D01*
X143263374Y-67942930D01*
X143116291Y-67763709D01*
X142937070Y-67616626D01*
X142732597Y-67507333D01*
X142510732Y-67440031D01*
X142337812Y-67423000D01*
X142222188Y-67423000D01*
X142049268Y-67440031D01*
X141827403Y-67507333D01*
X141622930Y-67616626D01*
X141443709Y-67763709D01*
X141296626Y-67942930D01*
X141187333Y-68147403D01*
X141120031Y-68369268D01*
X141097306Y-68600000D01*
X140922694Y-68600000D01*
X140899969Y-68369268D01*
X140832667Y-68147403D01*
X140723374Y-67942930D01*
X140576291Y-67763709D01*
X140397070Y-67616626D01*
X140192597Y-67507333D01*
X139970732Y-67440031D01*
X139797812Y-67423000D01*
X139682188Y-67423000D01*
X139509268Y-67440031D01*
X139287403Y-67507333D01*
X139082930Y-67616626D01*
X138903709Y-67763709D01*
X138756626Y-67942930D01*
X138686305Y-68074491D01*
X138688072Y-67750000D01*
X138675812Y-67625518D01*
X138639502Y-67505820D01*
X138580537Y-67395506D01*
X138501185Y-67298815D01*
X138404494Y-67219463D01*
X138294180Y-67160498D01*
X138174482Y-67124188D01*
X138050000Y-67111928D01*
X137485750Y-67115000D01*
X137327000Y-67273750D01*
X137073000Y-67273750D01*
X136914250Y-67115000D01*
X136350000Y-67111928D01*
X136225518Y-67124188D01*
X136105820Y-67160498D01*
X135995506Y-67219463D01*
X135898815Y-67298815D01*
X135819463Y-67395506D01*
X135760498Y-67505820D01*
X135724188Y-67625518D01*
X135711928Y-67750000D01*
X134419587Y-67750000D01*
X134257070Y-67616626D01*
X134052597Y-67507333D01*
X133830732Y-67440031D01*
X133657812Y-67423000D01*
X133542188Y-67423000D01*
X133369268Y-67440031D01*
X133147403Y-67507333D01*
X132942930Y-67616626D01*
X132763709Y-67763709D01*
X132616626Y-67942930D01*
X132507333Y-68147403D01*
X132440031Y-68369268D01*
X132417306Y-68600000D01*
X132242694Y-68600000D01*
X132219969Y-68369268D01*
X132152667Y-68147403D01*
X132043374Y-67942930D01*
X131896291Y-67763709D01*
X131717070Y-67616626D01*
X131512597Y-67507333D01*
X131290732Y-67440031D01*
X131117812Y-67423000D01*
X131002188Y-67423000D01*
X130829268Y-67440031D01*
X130607403Y-67507333D01*
X130402930Y-67616626D01*
X130223709Y-67763709D01*
X130076626Y-67942930D01*
X130006305Y-68074491D01*
X130008072Y-67750000D01*
X129995812Y-67625518D01*
X129959502Y-67505820D01*
X129900537Y-67395506D01*
X129821185Y-67298815D01*
X129724494Y-67219463D01*
X129614180Y-67160498D01*
X129494482Y-67124188D01*
X129370000Y-67111928D01*
X128805750Y-67115000D01*
X128647000Y-67273750D01*
X128393000Y-67273750D01*
X128234250Y-67115000D01*
X127670000Y-67111928D01*
X127545518Y-67124188D01*
X127425820Y-67160498D01*
X127315506Y-67219463D01*
X127218815Y-67298815D01*
X127139463Y-67395506D01*
X127080498Y-67505820D01*
X127044188Y-67625518D01*
X127031928Y-67750000D01*
X122027000Y-67750000D01*
X122027000Y-57659453D01*
X122973000Y-57659453D01*
X122973000Y-57940547D01*
X123027838Y-58216241D01*
X123135409Y-58475938D01*
X123291576Y-58709660D01*
X123490340Y-58908424D01*
X123724062Y-59064591D01*
X123983759Y-59172162D01*
X124259453Y-59227000D01*
X124540547Y-59227000D01*
X124816241Y-59172162D01*
X125075938Y-59064591D01*
X125309660Y-58908424D01*
X125508424Y-58709660D01*
X125664591Y-58475938D01*
X125772162Y-58216241D01*
X125827000Y-57940547D01*
X125827000Y-57759453D01*
X166173000Y-57759453D01*
X166173000Y-58040547D01*
X166227838Y-58316241D01*
X166335409Y-58575938D01*
X166491576Y-58809660D01*
X166690340Y-59008424D01*
X166924062Y-59164591D01*
X167183759Y-59272162D01*
X167459453Y-59327000D01*
X167740547Y-59327000D01*
X168016241Y-59272162D01*
X168275938Y-59164591D01*
X168509660Y-59008424D01*
X168708424Y-58809660D01*
X168864591Y-58575938D01*
X168972162Y-58316241D01*
X169027000Y-58040547D01*
X169027000Y-57759453D01*
X168972162Y-57483759D01*
X168864591Y-57224062D01*
X168708424Y-56990340D01*
X168509660Y-56791576D01*
X168275938Y-56635409D01*
X168016241Y-56527838D01*
X167740547Y-56473000D01*
X167459453Y-56473000D01*
X167183759Y-56527838D01*
X166924062Y-56635409D01*
X166690340Y-56791576D01*
X166491576Y-56990340D01*
X166335409Y-57224062D01*
X166227838Y-57483759D01*
X166173000Y-57759453D01*
X125827000Y-57759453D01*
X125827000Y-57659453D01*
X125772162Y-57383759D01*
X125664591Y-57124062D01*
X125508424Y-56890340D01*
X125309660Y-56691576D01*
X125075938Y-56535409D01*
X124816241Y-56427838D01*
X124540547Y-56373000D01*
X124259453Y-56373000D01*
X123983759Y-56427838D01*
X123724062Y-56535409D01*
X123490340Y-56691576D01*
X123291576Y-56890340D01*
X123135409Y-57124062D01*
X123027838Y-57383759D01*
X122973000Y-57659453D01*
X122027000Y-57659453D01*
X122027000Y-55427000D01*
X170073000Y-55427000D01*
X170073000Y-108573000D01*
X170073000Y-108573000D01*
G37*
X170073000Y-108573000D02*
X122027000Y-108573000D01*
X122027000Y-106059453D01*
X122973000Y-106059453D01*
X122973000Y-106340547D01*
X123027838Y-106616241D01*
X123135409Y-106875938D01*
X123291576Y-107109660D01*
X123490340Y-107308424D01*
X123724062Y-107464591D01*
X123983759Y-107572162D01*
X124259453Y-107627000D01*
X124540547Y-107627000D01*
X124816241Y-107572162D01*
X125075938Y-107464591D01*
X125309660Y-107308424D01*
X125508424Y-107109660D01*
X125664591Y-106875938D01*
X125772162Y-106616241D01*
X125827000Y-106340547D01*
X125827000Y-106059453D01*
X166273000Y-106059453D01*
X166273000Y-106340547D01*
X166327838Y-106616241D01*
X166435409Y-106875938D01*
X166591576Y-107109660D01*
X166790340Y-107308424D01*
X167024062Y-107464591D01*
X167283759Y-107572162D01*
X167559453Y-107627000D01*
X167840547Y-107627000D01*
X168116241Y-107572162D01*
X168375938Y-107464591D01*
X168609660Y-107308424D01*
X168808424Y-107109660D01*
X168964591Y-106875938D01*
X169072162Y-106616241D01*
X169127000Y-106340547D01*
X169127000Y-106059453D01*
X169072162Y-105783759D01*
X168964591Y-105524062D01*
X168808424Y-105290340D01*
X168609660Y-105091576D01*
X168375938Y-104935409D01*
X168116241Y-104827838D01*
X167840547Y-104773000D01*
X167559453Y-104773000D01*
X167283759Y-104827838D01*
X167024062Y-104935409D01*
X166790340Y-105091576D01*
X166591576Y-105290340D01*
X166435409Y-105524062D01*
X166327838Y-105783759D01*
X166273000Y-106059453D01*
X125827000Y-106059453D01*
X125772162Y-105783759D01*
X125664591Y-105524062D01*
X125508424Y-105290340D01*
X125309660Y-105091576D01*
X125075938Y-104935409D01*
X124816241Y-104827838D01*
X124540547Y-104773000D01*
X124259453Y-104773000D01*
X123983759Y-104827838D01*
X123724062Y-104935409D01*
X123490340Y-105091576D01*
X123291576Y-105290340D01*
X123135409Y-105524062D01*
X123027838Y-105783759D01*
X122973000Y-106059453D01*
X122027000Y-106059453D01*
X122027000Y-90738246D01*
X130773000Y-90738246D01*
X130773000Y-90861754D01*
X130797095Y-90982889D01*
X130844360Y-91096996D01*
X130912977Y-91199689D01*
X130923000Y-91209712D01*
X130923001Y-97451575D01*
X130920694Y-97475000D01*
X130929903Y-97568507D01*
X130957178Y-97658422D01*
X130957179Y-97658423D01*
X131001472Y-97741289D01*
X131006156Y-97746996D01*
X131038505Y-97786413D01*
X131061080Y-97813921D01*
X131079271Y-97828850D01*
X131724745Y-98474325D01*
X131711413Y-98518276D01*
X131693515Y-98700000D01*
X131711413Y-98881724D01*
X131764420Y-99056464D01*
X131850499Y-99217505D01*
X131966341Y-99358659D01*
X132107495Y-99474501D01*
X132268536Y-99560580D01*
X132443276Y-99613587D01*
X132579462Y-99627000D01*
X133220538Y-99627000D01*
X133356724Y-99613587D01*
X133531464Y-99560580D01*
X133692505Y-99474501D01*
X133833659Y-99358659D01*
X133949501Y-99217505D01*
X134035580Y-99056464D01*
X134088587Y-98881724D01*
X134106485Y-98700000D01*
X134090554Y-98538246D01*
X134573000Y-98538246D01*
X134573000Y-98661754D01*
X134597095Y-98782889D01*
X134644360Y-98896996D01*
X134712977Y-98999689D01*
X134800311Y-99087023D01*
X134903004Y-99155640D01*
X135017111Y-99202905D01*
X135138246Y-99227000D01*
X135261754Y-99227000D01*
X135382889Y-99202905D01*
X135496996Y-99155640D01*
X135599689Y-99087023D01*
X135687023Y-98999689D01*
X135700000Y-98980267D01*
X135712977Y-98999689D01*
X135800311Y-99087023D01*
X135903004Y-99155640D01*
X136017111Y-99202905D01*
X136138246Y-99227000D01*
X136261754Y-99227000D01*
X136382889Y-99202905D01*
X136496996Y-99155640D01*
X136599689Y-99087023D01*
X136687023Y-98999689D01*
X136755640Y-98896996D01*
X136802905Y-98782889D01*
X136827000Y-98661754D01*
X136827000Y-98647579D01*
X139920729Y-95553851D01*
X139938921Y-95538921D01*
X139998529Y-95466289D01*
X140042822Y-95383423D01*
X140070097Y-95293508D01*
X140077000Y-95223423D01*
X140077000Y-95223416D01*
X140079306Y-95200001D01*
X140077000Y-95176586D01*
X140077000Y-94609712D01*
X140087023Y-94599689D01*
X140155640Y-94496996D01*
X140202905Y-94382889D01*
X140211508Y-94339640D01*
X142708972Y-96837105D01*
X142722341Y-96853395D01*
X142738631Y-96866764D01*
X142738634Y-96866767D01*
X142787359Y-96906755D01*
X142827009Y-96927948D01*
X142861540Y-96946405D01*
X142942029Y-96970822D01*
X142988707Y-96975419D01*
X143050311Y-97037023D01*
X143153004Y-97105640D01*
X143267111Y-97152905D01*
X143388246Y-97177000D01*
X143511754Y-97177000D01*
X143632889Y-97152905D01*
X143746996Y-97105640D01*
X143849689Y-97037023D01*
X143937023Y-96949689D01*
X144005640Y-96846996D01*
X144052905Y-96732889D01*
X144077000Y-96611754D01*
X144077000Y-96488246D01*
X144052905Y-96367111D01*
X144036290Y-96327000D01*
X144061754Y-96327000D01*
X144182889Y-96302905D01*
X144296996Y-96255640D01*
X144375002Y-96203519D01*
X144453007Y-96255640D01*
X144567114Y-96302905D01*
X144688249Y-96327000D01*
X144811757Y-96327000D01*
X144932892Y-96302905D01*
X145046999Y-96255640D01*
X145149692Y-96187023D01*
X145237026Y-96099689D01*
X145278080Y-96038246D01*
X145773000Y-96038246D01*
X145773000Y-96161754D01*
X145797095Y-96282889D01*
X145844360Y-96396996D01*
X145912977Y-96499689D01*
X145973000Y-96559712D01*
X145973001Y-97229023D01*
X145970935Y-97250000D01*
X145979179Y-97333706D01*
X146003596Y-97414196D01*
X146043245Y-97488376D01*
X146083232Y-97537100D01*
X146083237Y-97537105D01*
X146096606Y-97553395D01*
X146112896Y-97566764D01*
X148083236Y-99537105D01*
X148096605Y-99553395D01*
X148112895Y-99566764D01*
X148112899Y-99566768D01*
X148161623Y-99606755D01*
X148199500Y-99627000D01*
X148235804Y-99646405D01*
X148316293Y-99670822D01*
X148379022Y-99677000D01*
X148379032Y-99677000D01*
X148399999Y-99679065D01*
X148420966Y-99677000D01*
X158029033Y-99677000D01*
X158050000Y-99679065D01*
X158070967Y-99677000D01*
X158070978Y-99677000D01*
X158133707Y-99670822D01*
X158214196Y-99646405D01*
X158288376Y-99606755D01*
X158353395Y-99553395D01*
X158366768Y-99537100D01*
X159826869Y-98077000D01*
X159911754Y-98077000D01*
X160032889Y-98052905D01*
X160146996Y-98005640D01*
X160249689Y-97937023D01*
X160337023Y-97849689D01*
X160405640Y-97746996D01*
X160452905Y-97632889D01*
X160477000Y-97511754D01*
X160477000Y-97388246D01*
X160452905Y-97267111D01*
X160405640Y-97153004D01*
X160337023Y-97050311D01*
X160249689Y-96962977D01*
X160146996Y-96894360D01*
X160032889Y-96847095D01*
X159911754Y-96823000D01*
X159788246Y-96823000D01*
X159667111Y-96847095D01*
X159553004Y-96894360D01*
X159450311Y-96962977D01*
X159362977Y-97050311D01*
X159294360Y-97153004D01*
X159247095Y-97267111D01*
X159223000Y-97388246D01*
X159223000Y-97473131D01*
X157873132Y-98823000D01*
X148576869Y-98823000D01*
X147298305Y-97544437D01*
X147315195Y-97537441D01*
X147417888Y-97468824D01*
X147477911Y-97408801D01*
X147911234Y-97408801D01*
X147932201Y-97410866D01*
X147953168Y-97408801D01*
X147953179Y-97408801D01*
X148015908Y-97402623D01*
X148096397Y-97378206D01*
X148170577Y-97338556D01*
X148235596Y-97285196D01*
X148248969Y-97268901D01*
X151415000Y-94102871D01*
X152847746Y-94102871D01*
X152847746Y-94226379D01*
X152871841Y-94347514D01*
X152919106Y-94461621D01*
X152987723Y-94564314D01*
X153075057Y-94651648D01*
X153177750Y-94720265D01*
X153291857Y-94767530D01*
X153377539Y-94784573D01*
X153397095Y-94882889D01*
X153444360Y-94996996D01*
X153512977Y-95099689D01*
X153600311Y-95187023D01*
X153703004Y-95255640D01*
X153817111Y-95302905D01*
X153938246Y-95327000D01*
X154061754Y-95327000D01*
X154182889Y-95302905D01*
X154296996Y-95255640D01*
X154399689Y-95187023D01*
X154487023Y-95099689D01*
X154555640Y-94996996D01*
X154602905Y-94882889D01*
X154627000Y-94761754D01*
X154627000Y-94676868D01*
X156899741Y-92404128D01*
X156934440Y-92456058D01*
X157021774Y-92543392D01*
X157124467Y-92612009D01*
X157238574Y-92659274D01*
X157359709Y-92683369D01*
X157404114Y-92683369D01*
X157408018Y-92702997D01*
X157455283Y-92817104D01*
X157523900Y-92919797D01*
X157611234Y-93007131D01*
X157713927Y-93075748D01*
X157828034Y-93123013D01*
X157949169Y-93147108D01*
X158072677Y-93147108D01*
X158193812Y-93123013D01*
X158307919Y-93075748D01*
X158410612Y-93007131D01*
X158497946Y-92919797D01*
X158566563Y-92817104D01*
X158613828Y-92702997D01*
X158637923Y-92581862D01*
X158637923Y-92489183D01*
X158666697Y-92489183D01*
X158787832Y-92465088D01*
X158901939Y-92417823D01*
X159004632Y-92349206D01*
X159091966Y-92261872D01*
X159160583Y-92159179D01*
X159207848Y-92045072D01*
X159231943Y-91923937D01*
X159231943Y-91800429D01*
X159207848Y-91679294D01*
X159160583Y-91565187D01*
X159091966Y-91462494D01*
X159031943Y-91402471D01*
X159031943Y-88426935D01*
X159323000Y-88135878D01*
X159323000Y-88890288D01*
X159312977Y-88900311D01*
X159244360Y-89003004D01*
X159197095Y-89117111D01*
X159173000Y-89238246D01*
X159173000Y-89361754D01*
X159197095Y-89482889D01*
X159244360Y-89596996D01*
X159312977Y-89699689D01*
X159400311Y-89787023D01*
X159503004Y-89855640D01*
X159617111Y-89902905D01*
X159738246Y-89927000D01*
X159861754Y-89927000D01*
X159982889Y-89902905D01*
X160021544Y-89886894D01*
X160034132Y-89905733D01*
X160121466Y-89993067D01*
X160224159Y-90061684D01*
X160338266Y-90108949D01*
X160459401Y-90133044D01*
X160582909Y-90133044D01*
X160704044Y-90108949D01*
X160818151Y-90061684D01*
X160920844Y-89993067D01*
X161008178Y-89905733D01*
X161076795Y-89803040D01*
X161124060Y-89688933D01*
X161148155Y-89567798D01*
X161148155Y-89444290D01*
X161124060Y-89323155D01*
X161076795Y-89209048D01*
X161008178Y-89106355D01*
X160948155Y-89046332D01*
X160948155Y-87766389D01*
X161029086Y-87685458D01*
X161097703Y-87582765D01*
X161144968Y-87468658D01*
X161169063Y-87347523D01*
X161169063Y-87224015D01*
X161144968Y-87102880D01*
X161097703Y-86988773D01*
X161029086Y-86886080D01*
X160941752Y-86798746D01*
X160839059Y-86730129D01*
X160724952Y-86682864D01*
X160635287Y-86665029D01*
X160848012Y-86452304D01*
X160853004Y-86455640D01*
X160967111Y-86502905D01*
X161088246Y-86527000D01*
X161211754Y-86527000D01*
X161332889Y-86502905D01*
X161446996Y-86455640D01*
X161549689Y-86387023D01*
X161637023Y-86299689D01*
X161705640Y-86196996D01*
X161752905Y-86082889D01*
X161777000Y-85961754D01*
X161777000Y-85838246D01*
X161752905Y-85717111D01*
X161705640Y-85603004D01*
X161637023Y-85500311D01*
X161549689Y-85412977D01*
X161446996Y-85344360D01*
X161332889Y-85297095D01*
X161211754Y-85273000D01*
X161088246Y-85273000D01*
X160967111Y-85297095D01*
X160853004Y-85344360D01*
X160750311Y-85412977D01*
X160741083Y-85422205D01*
X160725735Y-85420694D01*
X160702320Y-85423000D01*
X160702313Y-85423000D01*
X160641074Y-85429032D01*
X160632227Y-85429903D01*
X160612771Y-85435805D01*
X160542313Y-85457178D01*
X160459447Y-85501471D01*
X160386815Y-85561079D01*
X160371885Y-85579271D01*
X159514294Y-86436863D01*
X159395555Y-86318124D01*
X159395555Y-86233239D01*
X159371460Y-86112104D01*
X159324195Y-85997997D01*
X159255578Y-85895304D01*
X159168244Y-85807970D01*
X159065551Y-85739353D01*
X158951444Y-85692088D01*
X158830309Y-85667993D01*
X158706801Y-85667993D01*
X158585666Y-85692088D01*
X158471559Y-85739353D01*
X158368866Y-85807970D01*
X158281532Y-85895304D01*
X158212915Y-85997997D01*
X158165650Y-86112104D01*
X158141555Y-86233239D01*
X158141555Y-86356747D01*
X158165650Y-86477882D01*
X158212915Y-86591989D01*
X158281532Y-86694682D01*
X158340643Y-86753793D01*
X158306891Y-86787545D01*
X158244549Y-86694244D01*
X158157215Y-86606910D01*
X158054522Y-86538293D01*
X157940415Y-86491028D01*
X157819280Y-86466933D01*
X157695772Y-86466933D01*
X157574637Y-86491028D01*
X157460530Y-86538293D01*
X157413384Y-86569795D01*
X157402905Y-86517111D01*
X157355640Y-86403004D01*
X157287023Y-86300311D01*
X157199689Y-86212977D01*
X157096996Y-86144360D01*
X156982889Y-86097095D01*
X156861754Y-86073000D01*
X156738246Y-86073000D01*
X156617111Y-86097095D01*
X156503004Y-86144360D01*
X156400311Y-86212977D01*
X156312977Y-86300311D01*
X156244360Y-86403004D01*
X156197095Y-86517111D01*
X156173000Y-86638246D01*
X156173000Y-86761754D01*
X156197095Y-86882889D01*
X156243850Y-86995765D01*
X156162967Y-87076648D01*
X156094350Y-87179341D01*
X156047085Y-87293448D01*
X156022990Y-87414583D01*
X156022990Y-87538091D01*
X156047085Y-87659226D01*
X156094350Y-87773333D01*
X156162967Y-87876026D01*
X156222991Y-87936050D01*
X156222990Y-90812511D01*
X153497878Y-93537625D01*
X153412992Y-93537625D01*
X153291857Y-93561720D01*
X153177750Y-93608985D01*
X153075057Y-93677602D01*
X152987723Y-93764936D01*
X152919106Y-93867629D01*
X152871841Y-93981736D01*
X152847746Y-94102871D01*
X151415000Y-94102871D01*
X153887112Y-91630760D01*
X153903395Y-91617397D01*
X153916759Y-91601113D01*
X153916768Y-91601104D01*
X153956755Y-91552379D01*
X153996404Y-91478199D01*
X153996405Y-91478198D01*
X154020822Y-91397709D01*
X154027000Y-91334980D01*
X154027000Y-91334970D01*
X154029065Y-91314003D01*
X154027000Y-91293036D01*
X154027000Y-84859712D01*
X154087023Y-84799689D01*
X154155640Y-84696996D01*
X154202905Y-84582889D01*
X154227000Y-84461754D01*
X154227000Y-84338246D01*
X154202905Y-84217111D01*
X154155640Y-84103004D01*
X154103519Y-84024999D01*
X154155640Y-83946993D01*
X154202905Y-83832886D01*
X154227000Y-83711751D01*
X154227000Y-83588243D01*
X154202905Y-83467108D01*
X154155640Y-83353001D01*
X154087023Y-83250308D01*
X153999689Y-83162974D01*
X153896996Y-83094357D01*
X153782889Y-83047092D01*
X153661754Y-83022997D01*
X153538246Y-83022997D01*
X153417111Y-83047092D01*
X153303004Y-83094357D01*
X153200311Y-83162974D01*
X153112977Y-83250308D01*
X153044360Y-83353001D01*
X152997095Y-83467108D01*
X152973000Y-83588243D01*
X152973000Y-83609130D01*
X152762894Y-83819236D01*
X152746605Y-83832604D01*
X152733236Y-83848894D01*
X152733231Y-83848899D01*
X152693244Y-83897623D01*
X152672145Y-83937098D01*
X152653595Y-83971803D01*
X152629178Y-84052292D01*
X152624184Y-84103004D01*
X152620934Y-84135999D01*
X152623000Y-84156976D01*
X152622999Y-90810944D01*
X150927000Y-92506944D01*
X150927000Y-81038246D01*
X158173000Y-81038246D01*
X158173000Y-81161754D01*
X158197095Y-81282889D01*
X158244360Y-81396996D01*
X158312977Y-81499689D01*
X158400311Y-81587023D01*
X158503004Y-81655640D01*
X158617111Y-81702905D01*
X158738246Y-81727000D01*
X158823132Y-81727000D01*
X162903000Y-85806869D01*
X162903001Y-93290511D01*
X162868321Y-93309048D01*
X162742394Y-93412394D01*
X162639048Y-93538321D01*
X162562255Y-93681990D01*
X162514966Y-93837880D01*
X162498999Y-94000000D01*
X162514966Y-94162120D01*
X162562255Y-94318010D01*
X162639048Y-94461679D01*
X162742394Y-94587606D01*
X162868321Y-94690952D01*
X163011990Y-94767745D01*
X163167880Y-94815034D01*
X163289376Y-94827000D01*
X163370624Y-94827000D01*
X163492120Y-94815034D01*
X163648010Y-94767745D01*
X163791679Y-94690952D01*
X163819209Y-94668359D01*
X163826794Y-94682550D01*
X163867657Y-94732343D01*
X163917450Y-94773206D01*
X163974257Y-94803570D01*
X164035897Y-94822268D01*
X164100000Y-94828582D01*
X165100000Y-94828582D01*
X165164103Y-94822268D01*
X165225743Y-94803570D01*
X165282550Y-94773206D01*
X165332343Y-94732343D01*
X165373206Y-94682550D01*
X165403570Y-94625743D01*
X165422268Y-94564103D01*
X165428582Y-94500000D01*
X165428582Y-93500000D01*
X165422268Y-93435897D01*
X165403570Y-93374257D01*
X165373206Y-93317450D01*
X165332343Y-93267657D01*
X165282550Y-93226794D01*
X165225743Y-93196430D01*
X165164103Y-93177732D01*
X165100000Y-93171418D01*
X165027000Y-93171418D01*
X165027000Y-85620967D01*
X165029065Y-85600000D01*
X165027000Y-85579033D01*
X165027000Y-85579022D01*
X165020822Y-85516293D01*
X164996405Y-85435804D01*
X164956756Y-85361625D01*
X164956755Y-85361623D01*
X164916768Y-85312899D01*
X164916764Y-85312895D01*
X164903395Y-85296605D01*
X164887107Y-85283238D01*
X159927000Y-80323132D01*
X159927000Y-80238246D01*
X159902905Y-80117111D01*
X159855640Y-80003004D01*
X159787023Y-79900311D01*
X159699689Y-79812977D01*
X159596996Y-79744360D01*
X159482889Y-79697095D01*
X159361754Y-79673000D01*
X159238246Y-79673000D01*
X159117111Y-79697095D01*
X159003004Y-79744360D01*
X158900311Y-79812977D01*
X158812977Y-79900311D01*
X158744360Y-80003004D01*
X158697095Y-80117111D01*
X158673000Y-80238246D01*
X158673000Y-80361754D01*
X158696769Y-80481250D01*
X158617111Y-80497095D01*
X158503004Y-80544360D01*
X158400311Y-80612977D01*
X158312977Y-80700311D01*
X158244360Y-80803004D01*
X158197095Y-80917111D01*
X158173000Y-81038246D01*
X150927000Y-81038246D01*
X150927000Y-77159712D01*
X150987023Y-77099689D01*
X151055640Y-76996996D01*
X151102905Y-76882889D01*
X151127000Y-76761754D01*
X151127000Y-76638246D01*
X151102905Y-76517111D01*
X151055640Y-76403004D01*
X150987023Y-76300311D01*
X150899689Y-76212977D01*
X150796996Y-76144360D01*
X150682889Y-76097095D01*
X150561754Y-76073000D01*
X150438246Y-76073000D01*
X150317111Y-76097095D01*
X150203004Y-76144360D01*
X150100311Y-76212977D01*
X150090784Y-76222504D01*
X150048664Y-76194360D01*
X149934557Y-76147095D01*
X149813422Y-76123000D01*
X149689914Y-76123000D01*
X149568779Y-76147095D01*
X149454672Y-76194360D01*
X149351979Y-76262977D01*
X149264645Y-76350311D01*
X149196028Y-76453004D01*
X149148763Y-76567111D01*
X149124668Y-76688246D01*
X149124668Y-76811754D01*
X149148763Y-76932889D01*
X149196028Y-77046996D01*
X149264645Y-77149689D01*
X149324669Y-77209713D01*
X149324668Y-92553638D01*
X148300311Y-93577997D01*
X148215425Y-93577997D01*
X148094290Y-93602092D01*
X147980183Y-93649357D01*
X147877490Y-93717974D01*
X147790156Y-93805308D01*
X147721539Y-93908001D01*
X147674274Y-94022108D01*
X147650179Y-94143243D01*
X147650179Y-94266751D01*
X147674274Y-94387886D01*
X147721539Y-94501993D01*
X147790156Y-94604686D01*
X147801970Y-94616500D01*
X147783002Y-94624357D01*
X147680309Y-94692974D01*
X147592975Y-94780308D01*
X147524358Y-94883001D01*
X147477093Y-94997108D01*
X147452998Y-95118243D01*
X147452998Y-95241751D01*
X147477093Y-95362886D01*
X147524358Y-95476993D01*
X147592975Y-95579686D01*
X147680309Y-95667020D01*
X147732231Y-95701713D01*
X147629144Y-95804801D01*
X147544258Y-95804801D01*
X147423123Y-95828896D01*
X147309016Y-95876161D01*
X147206323Y-95944778D01*
X147118989Y-96032112D01*
X147050372Y-96134805D01*
X147015720Y-96218461D01*
X147027000Y-96161754D01*
X147027000Y-96038246D01*
X147002905Y-95917111D01*
X146955640Y-95803004D01*
X146887023Y-95700311D01*
X146799689Y-95612977D01*
X146696996Y-95544360D01*
X146582889Y-95497095D01*
X146461754Y-95473000D01*
X146338246Y-95473000D01*
X146217111Y-95497095D01*
X146103004Y-95544360D01*
X146000311Y-95612977D01*
X145912977Y-95700311D01*
X145844360Y-95803004D01*
X145797095Y-95917111D01*
X145773000Y-96038246D01*
X145278080Y-96038246D01*
X145305643Y-95996996D01*
X145352908Y-95882889D01*
X145377003Y-95761754D01*
X145377003Y-95638246D01*
X145352908Y-95517111D01*
X145305643Y-95403004D01*
X145237026Y-95300311D01*
X145177003Y-95240288D01*
X145177003Y-80576865D01*
X148376870Y-77377000D01*
X148461754Y-77377000D01*
X148582889Y-77352905D01*
X148696996Y-77305640D01*
X148799689Y-77237023D01*
X148887023Y-77149689D01*
X148955640Y-77046996D01*
X149002905Y-76932889D01*
X149027000Y-76811754D01*
X149027000Y-76688246D01*
X149002905Y-76567111D01*
X148955640Y-76453004D01*
X148887023Y-76350311D01*
X148799689Y-76262977D01*
X148696996Y-76194360D01*
X148582889Y-76147095D01*
X148461754Y-76123000D01*
X148338246Y-76123000D01*
X148217111Y-76147095D01*
X148103004Y-76194360D01*
X148000311Y-76262977D01*
X147912977Y-76350311D01*
X147850000Y-76444563D01*
X147787023Y-76350311D01*
X147699689Y-76262977D01*
X147596996Y-76194360D01*
X147482889Y-76147095D01*
X147361754Y-76123000D01*
X147238246Y-76123000D01*
X147117111Y-76147095D01*
X147003004Y-76194360D01*
X146900311Y-76262977D01*
X146900000Y-76263288D01*
X146899689Y-76262977D01*
X146796996Y-76194360D01*
X146682889Y-76147095D01*
X146561754Y-76123000D01*
X146438246Y-76123000D01*
X146317111Y-76147095D01*
X146203004Y-76194360D01*
X146100311Y-76262977D01*
X146012977Y-76350311D01*
X145944360Y-76453004D01*
X145897095Y-76567111D01*
X145873000Y-76688246D01*
X145873000Y-76773131D01*
X142712900Y-79933232D01*
X142696605Y-79946605D01*
X142683233Y-79962899D01*
X142683232Y-79962900D01*
X142643245Y-80011624D01*
X142626345Y-80043242D01*
X142603595Y-80085805D01*
X142579178Y-80166294D01*
X142573000Y-80229023D01*
X142573000Y-80229033D01*
X142570935Y-80250000D01*
X142573000Y-80270967D01*
X142573001Y-95240287D01*
X142512977Y-95300311D01*
X142459680Y-95380076D01*
X140827000Y-93747396D01*
X140827000Y-79759712D01*
X140887023Y-79699689D01*
X140955640Y-79596996D01*
X141002905Y-79482889D01*
X141027000Y-79361754D01*
X141027000Y-79238246D01*
X141002905Y-79117111D01*
X140955640Y-79003004D01*
X140887023Y-78900311D01*
X140799689Y-78812977D01*
X140696996Y-78744360D01*
X140582889Y-78697095D01*
X140461754Y-78673000D01*
X140338246Y-78673000D01*
X140217111Y-78697095D01*
X140103004Y-78744360D01*
X140000311Y-78812977D01*
X139912977Y-78900311D01*
X139844360Y-79003004D01*
X139797095Y-79117111D01*
X139773000Y-79238246D01*
X139773000Y-79361754D01*
X139797095Y-79482889D01*
X139844360Y-79596996D01*
X139912977Y-79699689D01*
X139973000Y-79759712D01*
X139973001Y-93695145D01*
X139896996Y-93644360D01*
X139782889Y-93597095D01*
X139661754Y-93573000D01*
X139538246Y-93573000D01*
X139417111Y-93597095D01*
X139303004Y-93644360D01*
X139200311Y-93712977D01*
X139112977Y-93800311D01*
X139044360Y-93903004D01*
X138997095Y-94017111D01*
X138973000Y-94138246D01*
X138973000Y-94261754D01*
X138997095Y-94382889D01*
X139044360Y-94496996D01*
X139112977Y-94599689D01*
X139123000Y-94609712D01*
X139123001Y-95002419D01*
X136152421Y-97973000D01*
X136138246Y-97973000D01*
X136017111Y-97997095D01*
X135903004Y-98044360D01*
X135800311Y-98112977D01*
X135712977Y-98200311D01*
X135700000Y-98219733D01*
X135687023Y-98200311D01*
X135677000Y-98190288D01*
X135677000Y-94797579D01*
X137547580Y-92927000D01*
X137561754Y-92927000D01*
X137682889Y-92902905D01*
X137796996Y-92855640D01*
X137899689Y-92787023D01*
X137987023Y-92699689D01*
X138055640Y-92596996D01*
X138102905Y-92482889D01*
X138127000Y-92361754D01*
X138127000Y-92238246D01*
X138102905Y-92117111D01*
X138055640Y-92003004D01*
X137987023Y-91900311D01*
X137899689Y-91812977D01*
X137796996Y-91744360D01*
X137682889Y-91697095D01*
X137561754Y-91673000D01*
X137438246Y-91673000D01*
X137317111Y-91697095D01*
X137203004Y-91744360D01*
X137100311Y-91812977D01*
X137012977Y-91900311D01*
X136944360Y-92003004D01*
X136897095Y-92117111D01*
X136873000Y-92238246D01*
X136873000Y-92252420D01*
X134879276Y-94246145D01*
X134861079Y-94261079D01*
X134801471Y-94333711D01*
X134757178Y-94416578D01*
X134729903Y-94506493D01*
X134723000Y-94576578D01*
X134723000Y-94576585D01*
X134720694Y-94600000D01*
X134723000Y-94623415D01*
X134723001Y-98190287D01*
X134712977Y-98200311D01*
X134644360Y-98303004D01*
X134597095Y-98417111D01*
X134573000Y-98538246D01*
X134090554Y-98538246D01*
X134088587Y-98518276D01*
X134035580Y-98343536D01*
X133949501Y-98182495D01*
X133833659Y-98041341D01*
X133692505Y-97925499D01*
X133531464Y-97839420D01*
X133356724Y-97786413D01*
X133220538Y-97773000D01*
X132579462Y-97773000D01*
X132443276Y-97786413D01*
X132399325Y-97799745D01*
X132223044Y-97623465D01*
X132274999Y-97628582D01*
X133525001Y-97628582D01*
X133637877Y-97617465D01*
X133746414Y-97584540D01*
X133846443Y-97531074D01*
X133934120Y-97459120D01*
X134006074Y-97371443D01*
X134059540Y-97271414D01*
X134092465Y-97162877D01*
X134103582Y-97050001D01*
X134103582Y-96349999D01*
X134092465Y-96237123D01*
X134059540Y-96128586D01*
X134006074Y-96028557D01*
X133934120Y-95940880D01*
X133846443Y-95868926D01*
X133746414Y-95815460D01*
X133637877Y-95782535D01*
X133525001Y-95771418D01*
X132274999Y-95771418D01*
X132162123Y-95782535D01*
X132053586Y-95815460D01*
X131953557Y-95868926D01*
X131877000Y-95931754D01*
X131877000Y-91209712D01*
X131887023Y-91199689D01*
X131955640Y-91096996D01*
X132002905Y-90982889D01*
X132027000Y-90861754D01*
X132027000Y-90738246D01*
X132002905Y-90617111D01*
X131955640Y-90503004D01*
X131887023Y-90400311D01*
X131799689Y-90312977D01*
X131696996Y-90244360D01*
X131582889Y-90197095D01*
X131461754Y-90173000D01*
X131338246Y-90173000D01*
X131217111Y-90197095D01*
X131103004Y-90244360D01*
X131000311Y-90312977D01*
X130912977Y-90400311D01*
X130844360Y-90503004D01*
X130797095Y-90617111D01*
X130773000Y-90738246D01*
X122027000Y-90738246D01*
X122027000Y-69450000D01*
X127031928Y-69450000D01*
X127044188Y-69574482D01*
X127080498Y-69694180D01*
X127139463Y-69804494D01*
X127218815Y-69901185D01*
X127315506Y-69980537D01*
X127425820Y-70039502D01*
X127545518Y-70075812D01*
X127670000Y-70088072D01*
X128234250Y-70085000D01*
X128393000Y-69926250D01*
X128393000Y-68727000D01*
X127193750Y-68727000D01*
X127035000Y-68885750D01*
X127031928Y-69450000D01*
X122027000Y-69450000D01*
X122027000Y-67750000D01*
X127031928Y-67750000D01*
X127035000Y-68314250D01*
X127193750Y-68473000D01*
X128393000Y-68473000D01*
X128393000Y-67273750D01*
X128647000Y-67273750D01*
X128647000Y-68473000D01*
X128667000Y-68473000D01*
X128667000Y-68727000D01*
X128647000Y-68727000D01*
X128647000Y-69926250D01*
X128805750Y-70085000D01*
X129370000Y-70088072D01*
X129494482Y-70075812D01*
X129614180Y-70039502D01*
X129724494Y-69980537D01*
X129821185Y-69901185D01*
X129900537Y-69804494D01*
X129959502Y-69694180D01*
X129995812Y-69574482D01*
X130008072Y-69450000D01*
X130006305Y-69125509D01*
X130076626Y-69257070D01*
X130223709Y-69436291D01*
X130402930Y-69583374D01*
X130607403Y-69692667D01*
X130829268Y-69759969D01*
X131002188Y-69777000D01*
X131117812Y-69777000D01*
X131290732Y-69759969D01*
X131512597Y-69692667D01*
X131717070Y-69583374D01*
X131896291Y-69436291D01*
X132043374Y-69257070D01*
X132152667Y-69052597D01*
X132219969Y-68830732D01*
X132242694Y-68600000D01*
X132417306Y-68600000D01*
X132440031Y-68830732D01*
X132507333Y-69052597D01*
X132616626Y-69257070D01*
X132763709Y-69436291D01*
X132942930Y-69583374D01*
X133147403Y-69692667D01*
X133173000Y-69700432D01*
X133173000Y-69823058D01*
X133173001Y-69823068D01*
X133173000Y-85303297D01*
X133170935Y-85324264D01*
X133173000Y-85345231D01*
X133173000Y-85345241D01*
X133179178Y-85407970D01*
X133203595Y-85488459D01*
X133203596Y-85488460D01*
X133243245Y-85562640D01*
X133273906Y-85600000D01*
X133296605Y-85627659D01*
X133312900Y-85641032D01*
X136258977Y-88587111D01*
X136272341Y-88603395D01*
X136288625Y-88616759D01*
X136288634Y-88616768D01*
X136337359Y-88656755D01*
X136363801Y-88670888D01*
X136411540Y-88696405D01*
X136492029Y-88720822D01*
X136538707Y-88725419D01*
X136600311Y-88787023D01*
X136703004Y-88855640D01*
X136817111Y-88902905D01*
X136938246Y-88927000D01*
X137061754Y-88927000D01*
X137182889Y-88902905D01*
X137296996Y-88855640D01*
X137399689Y-88787023D01*
X137487023Y-88699689D01*
X137555640Y-88596996D01*
X137602905Y-88482889D01*
X137627000Y-88361754D01*
X137627000Y-88238246D01*
X137602905Y-88117111D01*
X137555640Y-88003004D01*
X137487023Y-87900311D01*
X137399689Y-87812977D01*
X137296996Y-87744360D01*
X137182889Y-87697095D01*
X137061754Y-87673000D01*
X136938246Y-87673000D01*
X136817111Y-87697095D01*
X136703004Y-87744360D01*
X136655624Y-87776018D01*
X134027000Y-85147396D01*
X134027000Y-83838246D01*
X137188000Y-83838246D01*
X137188000Y-83961754D01*
X137212095Y-84082889D01*
X137259360Y-84196996D01*
X137327977Y-84299689D01*
X137415311Y-84387023D01*
X137518004Y-84455640D01*
X137632111Y-84502905D01*
X137753246Y-84527000D01*
X137876754Y-84527000D01*
X137997889Y-84502905D01*
X138111996Y-84455640D01*
X138214689Y-84387023D01*
X138302023Y-84299689D01*
X138370640Y-84196996D01*
X138417905Y-84082889D01*
X138442000Y-83961754D01*
X138442000Y-83838246D01*
X138417905Y-83717111D01*
X138370640Y-83603004D01*
X138327000Y-83537692D01*
X138327000Y-76859712D01*
X138387023Y-76799689D01*
X138455640Y-76696996D01*
X138502905Y-76582889D01*
X138527000Y-76461754D01*
X138527000Y-76338246D01*
X138502905Y-76217111D01*
X138455640Y-76103004D01*
X138387023Y-76000311D01*
X138299689Y-75912977D01*
X138196996Y-75844360D01*
X138082889Y-75797095D01*
X137961754Y-75773000D01*
X137838246Y-75773000D01*
X137717111Y-75797095D01*
X137603004Y-75844360D01*
X137500311Y-75912977D01*
X137412977Y-76000311D01*
X137344360Y-76103004D01*
X137297095Y-76217111D01*
X137273000Y-76338246D01*
X137273000Y-76461754D01*
X137297095Y-76582889D01*
X137344360Y-76696996D01*
X137412977Y-76799689D01*
X137473000Y-76859712D01*
X137473001Y-83374430D01*
X137415311Y-83412977D01*
X137327977Y-83500311D01*
X137259360Y-83603004D01*
X137212095Y-83717111D01*
X137188000Y-83838246D01*
X134027000Y-83838246D01*
X134027000Y-69700432D01*
X134052597Y-69692667D01*
X134257070Y-69583374D01*
X134419586Y-69450000D01*
X135711928Y-69450000D01*
X135724188Y-69574482D01*
X135760498Y-69694180D01*
X135819463Y-69804494D01*
X135898815Y-69901185D01*
X135995506Y-69980537D01*
X136105820Y-70039502D01*
X136225518Y-70075812D01*
X136350000Y-70088072D01*
X136914250Y-70085000D01*
X137073000Y-69926250D01*
X137073000Y-68727000D01*
X135873750Y-68727000D01*
X135715000Y-68885750D01*
X135711928Y-69450000D01*
X134419586Y-69450000D01*
X134436291Y-69436291D01*
X134583374Y-69257070D01*
X134692667Y-69052597D01*
X134759969Y-68830732D01*
X134782694Y-68600000D01*
X134759969Y-68369268D01*
X134692667Y-68147403D01*
X134583374Y-67942930D01*
X134436291Y-67763709D01*
X134419587Y-67750000D01*
X135711928Y-67750000D01*
X135715000Y-68314250D01*
X135873750Y-68473000D01*
X137073000Y-68473000D01*
X137073000Y-67273750D01*
X137327000Y-67273750D01*
X137327000Y-68473000D01*
X137347000Y-68473000D01*
X137347000Y-68727000D01*
X137327000Y-68727000D01*
X137327000Y-69926250D01*
X137485750Y-70085000D01*
X138050000Y-70088072D01*
X138174482Y-70075812D01*
X138294180Y-70039502D01*
X138404494Y-69980537D01*
X138501185Y-69901185D01*
X138580537Y-69804494D01*
X138639502Y-69694180D01*
X138675812Y-69574482D01*
X138688072Y-69450000D01*
X138686305Y-69125509D01*
X138756626Y-69257070D01*
X138903709Y-69436291D01*
X139082930Y-69583374D01*
X139287403Y-69692667D01*
X139509268Y-69759969D01*
X139682188Y-69777000D01*
X139797812Y-69777000D01*
X139970732Y-69759969D01*
X140192597Y-69692667D01*
X140397070Y-69583374D01*
X140576291Y-69436291D01*
X140723374Y-69257070D01*
X140832667Y-69052597D01*
X140899969Y-68830732D01*
X140922694Y-68600000D01*
X141097306Y-68600000D01*
X141120031Y-68830732D01*
X141187333Y-69052597D01*
X141296626Y-69257070D01*
X141443709Y-69436291D01*
X141622930Y-69583374D01*
X141827403Y-69692667D01*
X142049268Y-69759969D01*
X142222188Y-69777000D01*
X142337812Y-69777000D01*
X142510732Y-69759969D01*
X142732597Y-69692667D01*
X142937070Y-69583374D01*
X143116291Y-69436291D01*
X143263374Y-69257070D01*
X143372667Y-69052597D01*
X143439969Y-68830732D01*
X143462694Y-68600000D01*
X143637306Y-68600000D01*
X143660031Y-68830732D01*
X143727333Y-69052597D01*
X143836626Y-69257070D01*
X143983709Y-69436291D01*
X144162930Y-69583374D01*
X144367403Y-69692667D01*
X144589268Y-69759969D01*
X144762188Y-69777000D01*
X144877812Y-69777000D01*
X145050732Y-69759969D01*
X145272597Y-69692667D01*
X145477070Y-69583374D01*
X145656291Y-69436291D01*
X145803374Y-69257070D01*
X145912667Y-69052597D01*
X145979969Y-68830732D01*
X146002694Y-68600000D01*
X146177306Y-68600000D01*
X146200031Y-68830732D01*
X146267333Y-69052597D01*
X146376626Y-69257070D01*
X146523709Y-69436291D01*
X146702930Y-69583374D01*
X146733001Y-69599447D01*
X146733000Y-70739033D01*
X146730935Y-70760000D01*
X146733000Y-70780967D01*
X146733000Y-70780977D01*
X146739178Y-70843706D01*
X146763595Y-70924195D01*
X146763596Y-70924196D01*
X146803245Y-70998376D01*
X146843232Y-71047100D01*
X146856605Y-71063395D01*
X146872900Y-71076768D01*
X153173001Y-77376871D01*
X153173000Y-78340288D01*
X153112977Y-78400311D01*
X153044360Y-78503004D01*
X152997095Y-78617111D01*
X152973000Y-78738246D01*
X152973000Y-78861754D01*
X152997095Y-78982889D01*
X153044360Y-79096996D01*
X153112977Y-79199689D01*
X153200311Y-79287023D01*
X153303004Y-79355640D01*
X153417111Y-79402905D01*
X153538246Y-79427000D01*
X153661754Y-79427000D01*
X153782889Y-79402905D01*
X153896996Y-79355640D01*
X153999689Y-79287023D01*
X154087023Y-79199689D01*
X154155640Y-79096996D01*
X154202905Y-78982889D01*
X154227000Y-78861754D01*
X154227000Y-78738246D01*
X154202905Y-78617111D01*
X154155640Y-78503004D01*
X154087023Y-78400311D01*
X154027000Y-78340288D01*
X154027000Y-77850000D01*
X161321418Y-77850000D01*
X161321418Y-79550000D01*
X161327732Y-79614103D01*
X161346430Y-79675743D01*
X161376794Y-79732550D01*
X161417657Y-79782343D01*
X161467450Y-79823206D01*
X161524257Y-79853570D01*
X161585897Y-79872268D01*
X161650000Y-79878582D01*
X163350000Y-79878582D01*
X163414103Y-79872268D01*
X163475743Y-79853570D01*
X163532550Y-79823206D01*
X163582343Y-79782343D01*
X163623206Y-79732550D01*
X163653570Y-79675743D01*
X163672268Y-79614103D01*
X163678582Y-79550000D01*
X163678582Y-78700000D01*
X163857306Y-78700000D01*
X163880031Y-78930732D01*
X163947333Y-79152597D01*
X164056626Y-79357070D01*
X164203709Y-79536291D01*
X164382930Y-79683374D01*
X164587403Y-79792667D01*
X164809268Y-79859969D01*
X164982188Y-79877000D01*
X165097812Y-79877000D01*
X165270732Y-79859969D01*
X165492597Y-79792667D01*
X165697070Y-79683374D01*
X165876291Y-79536291D01*
X166023374Y-79357070D01*
X166132667Y-79152597D01*
X166199969Y-78930732D01*
X166222694Y-78700000D01*
X166199969Y-78469268D01*
X166132667Y-78247403D01*
X166023374Y-78042930D01*
X165876291Y-77863709D01*
X165697070Y-77716626D01*
X165492597Y-77607333D01*
X165270732Y-77540031D01*
X165097812Y-77523000D01*
X164982188Y-77523000D01*
X164809268Y-77540031D01*
X164587403Y-77607333D01*
X164382930Y-77716626D01*
X164203709Y-77863709D01*
X164056626Y-78042930D01*
X163947333Y-78247403D01*
X163880031Y-78469268D01*
X163857306Y-78700000D01*
X163678582Y-78700000D01*
X163678582Y-77850000D01*
X163672268Y-77785897D01*
X163653570Y-77724257D01*
X163623206Y-77667450D01*
X163582343Y-77617657D01*
X163532550Y-77576794D01*
X163475743Y-77546430D01*
X163414103Y-77527732D01*
X163350000Y-77521418D01*
X161650000Y-77521418D01*
X161585897Y-77527732D01*
X161524257Y-77546430D01*
X161467450Y-77576794D01*
X161417657Y-77617657D01*
X161376794Y-77667450D01*
X161346430Y-77724257D01*
X161327732Y-77785897D01*
X161321418Y-77850000D01*
X154027000Y-77850000D01*
X154027000Y-77220964D01*
X154029065Y-77199999D01*
X154027000Y-77179034D01*
X154027000Y-77179022D01*
X154020822Y-77116293D01*
X153996405Y-77035804D01*
X153971055Y-76988377D01*
X153956755Y-76961623D01*
X153916768Y-76912898D01*
X153916759Y-76912889D01*
X153903395Y-76896605D01*
X153887111Y-76883241D01*
X148030868Y-71027000D01*
X148061754Y-71027000D01*
X148182889Y-71002905D01*
X148296996Y-70955640D01*
X148375652Y-70903084D01*
X154182949Y-70903084D01*
X154203916Y-70905149D01*
X154224883Y-70903084D01*
X154224894Y-70903084D01*
X154287623Y-70896906D01*
X154368112Y-70872489D01*
X154442292Y-70832839D01*
X154507311Y-70779479D01*
X154520684Y-70763184D01*
X155603811Y-69680057D01*
X155627403Y-69692667D01*
X155849268Y-69759969D01*
X156022188Y-69777000D01*
X156137812Y-69777000D01*
X156310732Y-69759969D01*
X156532597Y-69692667D01*
X156737070Y-69583374D01*
X156916291Y-69436291D01*
X157063374Y-69257070D01*
X157172667Y-69052597D01*
X157239969Y-68830732D01*
X157262694Y-68600000D01*
X157437306Y-68600000D01*
X157460031Y-68830732D01*
X157527333Y-69052597D01*
X157636626Y-69257070D01*
X157783709Y-69436291D01*
X157962930Y-69583374D01*
X158167403Y-69692667D01*
X158389268Y-69759969D01*
X158562188Y-69777000D01*
X158677812Y-69777000D01*
X158850732Y-69759969D01*
X159072597Y-69692667D01*
X159277070Y-69583374D01*
X159456291Y-69436291D01*
X159603374Y-69257070D01*
X159712667Y-69052597D01*
X159779969Y-68830732D01*
X159802694Y-68600000D01*
X159779969Y-68369268D01*
X159712667Y-68147403D01*
X159603374Y-67942930D01*
X159456291Y-67763709D01*
X159277070Y-67616626D01*
X159072597Y-67507333D01*
X158850732Y-67440031D01*
X158677812Y-67423000D01*
X158562188Y-67423000D01*
X158389268Y-67440031D01*
X158167403Y-67507333D01*
X157962930Y-67616626D01*
X157783709Y-67763709D01*
X157636626Y-67942930D01*
X157527333Y-68147403D01*
X157460031Y-68369268D01*
X157437306Y-68600000D01*
X157262694Y-68600000D01*
X157239969Y-68369268D01*
X157172667Y-68147403D01*
X157063374Y-67942930D01*
X156916291Y-67763709D01*
X156737070Y-67616626D01*
X156532597Y-67507333D01*
X156310732Y-67440031D01*
X156137812Y-67423000D01*
X156022188Y-67423000D01*
X155849268Y-67440031D01*
X155627403Y-67507333D01*
X155422930Y-67616626D01*
X155243709Y-67763709D01*
X155096626Y-67942930D01*
X154987333Y-68147403D01*
X154920031Y-68369268D01*
X154897306Y-68600000D01*
X154920031Y-68830732D01*
X154987333Y-69052597D01*
X154999943Y-69076189D01*
X154027048Y-70049084D01*
X152062592Y-70049084D01*
X152094180Y-70039502D01*
X152204494Y-69980537D01*
X152301185Y-69901185D01*
X152380537Y-69804494D01*
X152439502Y-69694180D01*
X152475812Y-69574482D01*
X152488072Y-69450000D01*
X152486305Y-69125509D01*
X152556626Y-69257070D01*
X152703709Y-69436291D01*
X152882930Y-69583374D01*
X153087403Y-69692667D01*
X153309268Y-69759969D01*
X153482188Y-69777000D01*
X153597812Y-69777000D01*
X153770732Y-69759969D01*
X153992597Y-69692667D01*
X154197070Y-69583374D01*
X154376291Y-69436291D01*
X154523374Y-69257070D01*
X154632667Y-69052597D01*
X154699969Y-68830732D01*
X154722694Y-68600000D01*
X154699969Y-68369268D01*
X154632667Y-68147403D01*
X154523374Y-67942930D01*
X154376291Y-67763709D01*
X154197070Y-67616626D01*
X153992597Y-67507333D01*
X153770732Y-67440031D01*
X153597812Y-67423000D01*
X153482188Y-67423000D01*
X153309268Y-67440031D01*
X153087403Y-67507333D01*
X152882930Y-67616626D01*
X152703709Y-67763709D01*
X152556626Y-67942930D01*
X152486305Y-68074491D01*
X152488072Y-67750000D01*
X152475812Y-67625518D01*
X152439502Y-67505820D01*
X152380537Y-67395506D01*
X152301185Y-67298815D01*
X152204494Y-67219463D01*
X152094180Y-67160498D01*
X151974482Y-67124188D01*
X151850000Y-67111928D01*
X151285750Y-67115000D01*
X151127000Y-67273750D01*
X151127000Y-68473000D01*
X151147000Y-68473000D01*
X151147000Y-68727000D01*
X151127000Y-68727000D01*
X151127000Y-68747000D01*
X150873000Y-68747000D01*
X150873000Y-68727000D01*
X149673750Y-68727000D01*
X149515000Y-68885750D01*
X149511928Y-69450000D01*
X149524188Y-69574482D01*
X149560498Y-69694180D01*
X149619463Y-69804494D01*
X149698815Y-69901185D01*
X149795506Y-69980537D01*
X149905820Y-70039502D01*
X149937408Y-70049084D01*
X148519612Y-70049084D01*
X148487023Y-70000311D01*
X148399689Y-69912977D01*
X148296996Y-69844360D01*
X148182889Y-69797095D01*
X148061754Y-69773000D01*
X147938246Y-69773000D01*
X147817111Y-69797095D01*
X147703004Y-69844360D01*
X147600311Y-69912977D01*
X147587000Y-69926288D01*
X147587000Y-69760337D01*
X147590732Y-69759969D01*
X147812597Y-69692667D01*
X148017070Y-69583374D01*
X148196291Y-69436291D01*
X148343374Y-69257070D01*
X148452667Y-69052597D01*
X148519969Y-68830732D01*
X148542694Y-68600000D01*
X148519969Y-68369268D01*
X148452667Y-68147403D01*
X148343374Y-67942930D01*
X148196291Y-67763709D01*
X148179587Y-67750000D01*
X149511928Y-67750000D01*
X149515000Y-68314250D01*
X149673750Y-68473000D01*
X150873000Y-68473000D01*
X150873000Y-67273750D01*
X150714250Y-67115000D01*
X150150000Y-67111928D01*
X150025518Y-67124188D01*
X149905820Y-67160498D01*
X149795506Y-67219463D01*
X149698815Y-67298815D01*
X149619463Y-67395506D01*
X149560498Y-67505820D01*
X149524188Y-67625518D01*
X149511928Y-67750000D01*
X148179587Y-67750000D01*
X148017070Y-67616626D01*
X147812597Y-67507333D01*
X147590732Y-67440031D01*
X147417812Y-67423000D01*
X147302188Y-67423000D01*
X147129268Y-67440031D01*
X146907403Y-67507333D01*
X146702930Y-67616626D01*
X146523709Y-67763709D01*
X146376626Y-67942930D01*
X146267333Y-68147403D01*
X146200031Y-68369268D01*
X146177306Y-68600000D01*
X146002694Y-68600000D01*
X145979969Y-68369268D01*
X145912667Y-68147403D01*
X145803374Y-67942930D01*
X145656291Y-67763709D01*
X145477070Y-67616626D01*
X145272597Y-67507333D01*
X145050732Y-67440031D01*
X144877812Y-67423000D01*
X144762188Y-67423000D01*
X144589268Y-67440031D01*
X144367403Y-67507333D01*
X144162930Y-67616626D01*
X143983709Y-67763709D01*
X143836626Y-67942930D01*
X143727333Y-68147403D01*
X143660031Y-68369268D01*
X143637306Y-68600000D01*
X143462694Y-68600000D01*
X143439969Y-68369268D01*
X143372667Y-68147403D01*
X143263374Y-67942930D01*
X143116291Y-67763709D01*
X142937070Y-67616626D01*
X142732597Y-67507333D01*
X142510732Y-67440031D01*
X142337812Y-67423000D01*
X142222188Y-67423000D01*
X142049268Y-67440031D01*
X141827403Y-67507333D01*
X141622930Y-67616626D01*
X141443709Y-67763709D01*
X141296626Y-67942930D01*
X141187333Y-68147403D01*
X141120031Y-68369268D01*
X141097306Y-68600000D01*
X140922694Y-68600000D01*
X140899969Y-68369268D01*
X140832667Y-68147403D01*
X140723374Y-67942930D01*
X140576291Y-67763709D01*
X140397070Y-67616626D01*
X140192597Y-67507333D01*
X139970732Y-67440031D01*
X139797812Y-67423000D01*
X139682188Y-67423000D01*
X139509268Y-67440031D01*
X139287403Y-67507333D01*
X139082930Y-67616626D01*
X138903709Y-67763709D01*
X138756626Y-67942930D01*
X138686305Y-68074491D01*
X138688072Y-67750000D01*
X138675812Y-67625518D01*
X138639502Y-67505820D01*
X138580537Y-67395506D01*
X138501185Y-67298815D01*
X138404494Y-67219463D01*
X138294180Y-67160498D01*
X138174482Y-67124188D01*
X138050000Y-67111928D01*
X137485750Y-67115000D01*
X137327000Y-67273750D01*
X137073000Y-67273750D01*
X136914250Y-67115000D01*
X136350000Y-67111928D01*
X136225518Y-67124188D01*
X136105820Y-67160498D01*
X135995506Y-67219463D01*
X135898815Y-67298815D01*
X135819463Y-67395506D01*
X135760498Y-67505820D01*
X135724188Y-67625518D01*
X135711928Y-67750000D01*
X134419587Y-67750000D01*
X134257070Y-67616626D01*
X134052597Y-67507333D01*
X133830732Y-67440031D01*
X133657812Y-67423000D01*
X133542188Y-67423000D01*
X133369268Y-67440031D01*
X133147403Y-67507333D01*
X132942930Y-67616626D01*
X132763709Y-67763709D01*
X132616626Y-67942930D01*
X132507333Y-68147403D01*
X132440031Y-68369268D01*
X132417306Y-68600000D01*
X132242694Y-68600000D01*
X132219969Y-68369268D01*
X132152667Y-68147403D01*
X132043374Y-67942930D01*
X131896291Y-67763709D01*
X131717070Y-67616626D01*
X131512597Y-67507333D01*
X131290732Y-67440031D01*
X131117812Y-67423000D01*
X131002188Y-67423000D01*
X130829268Y-67440031D01*
X130607403Y-67507333D01*
X130402930Y-67616626D01*
X130223709Y-67763709D01*
X130076626Y-67942930D01*
X130006305Y-68074491D01*
X130008072Y-67750000D01*
X129995812Y-67625518D01*
X129959502Y-67505820D01*
X129900537Y-67395506D01*
X129821185Y-67298815D01*
X129724494Y-67219463D01*
X129614180Y-67160498D01*
X129494482Y-67124188D01*
X129370000Y-67111928D01*
X128805750Y-67115000D01*
X128647000Y-67273750D01*
X128393000Y-67273750D01*
X128234250Y-67115000D01*
X127670000Y-67111928D01*
X127545518Y-67124188D01*
X127425820Y-67160498D01*
X127315506Y-67219463D01*
X127218815Y-67298815D01*
X127139463Y-67395506D01*
X127080498Y-67505820D01*
X127044188Y-67625518D01*
X127031928Y-67750000D01*
X122027000Y-67750000D01*
X122027000Y-57659453D01*
X122973000Y-57659453D01*
X122973000Y-57940547D01*
X123027838Y-58216241D01*
X123135409Y-58475938D01*
X123291576Y-58709660D01*
X123490340Y-58908424D01*
X123724062Y-59064591D01*
X123983759Y-59172162D01*
X124259453Y-59227000D01*
X124540547Y-59227000D01*
X124816241Y-59172162D01*
X125075938Y-59064591D01*
X125309660Y-58908424D01*
X125508424Y-58709660D01*
X125664591Y-58475938D01*
X125772162Y-58216241D01*
X125827000Y-57940547D01*
X125827000Y-57759453D01*
X166173000Y-57759453D01*
X166173000Y-58040547D01*
X166227838Y-58316241D01*
X166335409Y-58575938D01*
X166491576Y-58809660D01*
X166690340Y-59008424D01*
X166924062Y-59164591D01*
X167183759Y-59272162D01*
X167459453Y-59327000D01*
X167740547Y-59327000D01*
X168016241Y-59272162D01*
X168275938Y-59164591D01*
X168509660Y-59008424D01*
X168708424Y-58809660D01*
X168864591Y-58575938D01*
X168972162Y-58316241D01*
X169027000Y-58040547D01*
X169027000Y-57759453D01*
X168972162Y-57483759D01*
X168864591Y-57224062D01*
X168708424Y-56990340D01*
X168509660Y-56791576D01*
X168275938Y-56635409D01*
X168016241Y-56527838D01*
X167740547Y-56473000D01*
X167459453Y-56473000D01*
X167183759Y-56527838D01*
X166924062Y-56635409D01*
X166690340Y-56791576D01*
X166491576Y-56990340D01*
X166335409Y-57224062D01*
X166227838Y-57483759D01*
X166173000Y-57759453D01*
X125827000Y-57759453D01*
X125827000Y-57659453D01*
X125772162Y-57383759D01*
X125664591Y-57124062D01*
X125508424Y-56890340D01*
X125309660Y-56691576D01*
X125075938Y-56535409D01*
X124816241Y-56427838D01*
X124540547Y-56373000D01*
X124259453Y-56373000D01*
X123983759Y-56427838D01*
X123724062Y-56535409D01*
X123490340Y-56691576D01*
X123291576Y-56890340D01*
X123135409Y-57124062D01*
X123027838Y-57383759D01*
X122973000Y-57659453D01*
X122027000Y-57659453D01*
X122027000Y-55427000D01*
X170073000Y-55427000D01*
X170073000Y-108573000D01*
M02*
