G04 #@! TF.GenerationSoftware,KiCad,Pcbnew,5.1.0*
G04 #@! TF.CreationDate,2019-05-01T02:44:57+08:00*
G04 #@! TF.ProjectId,reflow-toaster-mainboard,7265666c-6f77-42d7-946f-61737465722d,rev?*
G04 #@! TF.SameCoordinates,Original*
G04 #@! TF.FileFunction,Paste,Top*
G04 #@! TF.FilePolarity,Positive*
%FSLAX46Y46*%
G04 Gerber Fmt 4.6, Leading zero omitted, Abs format (unit mm)*
G04 Created by KiCad (PCBNEW 5.1.0) date 2019-05-01 02:44:57*
%MOMM*%
%LPD*%
G04 APERTURE LIST*
%ADD10C,0.150000*%
%ADD11R,1.800000X2.200000*%
%ADD12R,0.300000X1.300000*%
%ADD13R,1.500000X0.280000*%
%ADD14R,0.280000X1.500000*%
%ADD15R,1.060000X0.650000*%
%ADD16R,0.450000X1.450000*%
%ADD17C,0.100000*%
%ADD18C,0.590000*%
%ADD19R,3.000000X4.900000*%
%ADD20R,0.450000X0.700000*%
%ADD21C,0.975000*%
%ADD22R,1.550000X0.600000*%
%ADD23C,0.875000*%
%ADD24R,1.200000X1.200000*%
%ADD25R,1.500000X1.600000*%
G04 APERTURE END LIST*
D10*
X171000000Y-54500000D02*
X121200000Y-54500000D01*
X121300000Y-109400000D02*
X121200000Y-54500000D01*
X170900000Y-109400000D02*
X121300000Y-109400000D01*
X171000000Y-54500000D02*
X170900000Y-109400000D01*
D11*
X160450000Y-101200000D03*
X137150000Y-101200000D03*
D12*
X139050000Y-97950000D03*
X139550000Y-97950000D03*
X140050000Y-97950000D03*
X140550000Y-97950000D03*
X141050000Y-97950000D03*
X141550000Y-97950000D03*
X142050000Y-97950000D03*
X142550000Y-97950000D03*
X143050000Y-97950000D03*
X143550000Y-97950000D03*
X144050000Y-97950000D03*
X144550000Y-97950000D03*
X145050000Y-97950000D03*
X145550000Y-97950000D03*
X146050000Y-97950000D03*
X146550000Y-97950000D03*
X147050000Y-97950000D03*
X147550000Y-97950000D03*
X148050000Y-97950000D03*
X148550000Y-97950000D03*
X149050000Y-97950000D03*
X149550000Y-97950000D03*
X150050000Y-97950000D03*
X150550000Y-97950000D03*
X151050000Y-97950000D03*
X151550000Y-97950000D03*
X152050000Y-97950000D03*
X152550000Y-97950000D03*
X153050000Y-97950000D03*
X153550000Y-97950000D03*
X154050000Y-97950000D03*
X154550000Y-97950000D03*
X155050000Y-97950000D03*
X155550000Y-97950000D03*
X156050000Y-97950000D03*
X156550000Y-97950000D03*
X157050000Y-97950000D03*
X157550000Y-97950000D03*
X158050000Y-97950000D03*
X158550000Y-97950000D03*
D13*
X139100000Y-77300000D03*
X139100000Y-77800000D03*
X139100000Y-78300000D03*
X139100000Y-78800000D03*
X139100000Y-79300000D03*
X139100000Y-79800000D03*
X139100000Y-80300000D03*
X139100000Y-80800000D03*
X139100000Y-81300000D03*
X139100000Y-81800000D03*
X139100000Y-82300000D03*
X139100000Y-82800000D03*
X139100000Y-83300000D03*
X139100000Y-83800000D03*
X139100000Y-84300000D03*
X139100000Y-84800000D03*
X139100000Y-85300000D03*
X139100000Y-85800000D03*
X139100000Y-86300000D03*
X139100000Y-86800000D03*
X139100000Y-87300000D03*
X139100000Y-87800000D03*
X139100000Y-88300000D03*
X139100000Y-88800000D03*
X139100000Y-89300000D03*
D14*
X141000000Y-91200000D03*
X141500000Y-91200000D03*
X142000000Y-91200000D03*
X142500000Y-91200000D03*
X143000000Y-91200000D03*
X143500000Y-91200000D03*
X144000000Y-91200000D03*
X144500000Y-91200000D03*
X145000000Y-91200000D03*
X145500000Y-91200000D03*
X146000000Y-91200000D03*
X146500000Y-91200000D03*
X147000000Y-91200000D03*
X147500000Y-91200000D03*
X148000000Y-91200000D03*
X148500000Y-91200000D03*
X149000000Y-91200000D03*
X149500000Y-91200000D03*
X150000000Y-91200000D03*
X150500000Y-91200000D03*
X151000000Y-91200000D03*
X151500000Y-91200000D03*
X152000000Y-91200000D03*
X152500000Y-91200000D03*
X153000000Y-91200000D03*
D13*
X154900000Y-89300000D03*
X154900000Y-88800000D03*
X154900000Y-88300000D03*
X154900000Y-87800000D03*
X154900000Y-87300000D03*
X154900000Y-86800000D03*
X154900000Y-86300000D03*
X154900000Y-85800000D03*
X154900000Y-85300000D03*
X154900000Y-84800000D03*
X154900000Y-84300000D03*
X154900000Y-83800000D03*
X154900000Y-83300000D03*
X154900000Y-82800000D03*
X154900000Y-82300000D03*
X154900000Y-81800000D03*
X154900000Y-81300000D03*
X154900000Y-80800000D03*
X154900000Y-80300000D03*
X154900000Y-79800000D03*
X154900000Y-79300000D03*
X154900000Y-78800000D03*
X154900000Y-78300000D03*
X154900000Y-77800000D03*
X154900000Y-77300000D03*
D14*
X153000000Y-75400000D03*
X152500000Y-75400000D03*
X152000000Y-75400000D03*
X151500000Y-75400000D03*
X151000000Y-75400000D03*
X150500000Y-75400000D03*
X150000000Y-75400000D03*
X149500000Y-75400000D03*
X149000000Y-75400000D03*
X148500000Y-75400000D03*
X148000000Y-75400000D03*
X147500000Y-75400000D03*
X147000000Y-75400000D03*
X146500000Y-75400000D03*
X146000000Y-75400000D03*
X145500000Y-75400000D03*
X145000000Y-75400000D03*
X144500000Y-75400000D03*
X144000000Y-75400000D03*
X143500000Y-75400000D03*
X143000000Y-75400000D03*
X142500000Y-75400000D03*
X142000000Y-75400000D03*
X141500000Y-75400000D03*
X141000000Y-75400000D03*
D15*
X155100000Y-71650000D03*
X155100000Y-72600000D03*
X155100000Y-73550000D03*
X157300000Y-73550000D03*
X157300000Y-71650000D03*
D16*
X163750000Y-84550000D03*
X163100000Y-84550000D03*
X162450000Y-84550000D03*
X161800000Y-84550000D03*
X161150000Y-84550000D03*
X160500000Y-84550000D03*
X159850000Y-84550000D03*
X159850000Y-90450000D03*
X160500000Y-90450000D03*
X161150000Y-90450000D03*
X161800000Y-90450000D03*
X162450000Y-90450000D03*
X163100000Y-90450000D03*
X163750000Y-90450000D03*
D17*
G36*
X130086958Y-77090710D02*
G01*
X130101276Y-77092834D01*
X130115317Y-77096351D01*
X130128946Y-77101228D01*
X130142031Y-77107417D01*
X130154447Y-77114858D01*
X130166073Y-77123481D01*
X130176798Y-77133202D01*
X130186519Y-77143927D01*
X130195142Y-77155553D01*
X130202583Y-77167969D01*
X130208772Y-77181054D01*
X130213649Y-77194683D01*
X130217166Y-77208724D01*
X130219290Y-77223042D01*
X130220000Y-77237500D01*
X130220000Y-77532500D01*
X130219290Y-77546958D01*
X130217166Y-77561276D01*
X130213649Y-77575317D01*
X130208772Y-77588946D01*
X130202583Y-77602031D01*
X130195142Y-77614447D01*
X130186519Y-77626073D01*
X130176798Y-77636798D01*
X130166073Y-77646519D01*
X130154447Y-77655142D01*
X130142031Y-77662583D01*
X130128946Y-77668772D01*
X130115317Y-77673649D01*
X130101276Y-77677166D01*
X130086958Y-77679290D01*
X130072500Y-77680000D01*
X129727500Y-77680000D01*
X129713042Y-77679290D01*
X129698724Y-77677166D01*
X129684683Y-77673649D01*
X129671054Y-77668772D01*
X129657969Y-77662583D01*
X129645553Y-77655142D01*
X129633927Y-77646519D01*
X129623202Y-77636798D01*
X129613481Y-77626073D01*
X129604858Y-77614447D01*
X129597417Y-77602031D01*
X129591228Y-77588946D01*
X129586351Y-77575317D01*
X129582834Y-77561276D01*
X129580710Y-77546958D01*
X129580000Y-77532500D01*
X129580000Y-77237500D01*
X129580710Y-77223042D01*
X129582834Y-77208724D01*
X129586351Y-77194683D01*
X129591228Y-77181054D01*
X129597417Y-77167969D01*
X129604858Y-77155553D01*
X129613481Y-77143927D01*
X129623202Y-77133202D01*
X129633927Y-77123481D01*
X129645553Y-77114858D01*
X129657969Y-77107417D01*
X129671054Y-77101228D01*
X129684683Y-77096351D01*
X129698724Y-77092834D01*
X129713042Y-77090710D01*
X129727500Y-77090000D01*
X130072500Y-77090000D01*
X130086958Y-77090710D01*
X130086958Y-77090710D01*
G37*
D18*
X129900000Y-77385000D03*
D17*
G36*
X130086958Y-76120710D02*
G01*
X130101276Y-76122834D01*
X130115317Y-76126351D01*
X130128946Y-76131228D01*
X130142031Y-76137417D01*
X130154447Y-76144858D01*
X130166073Y-76153481D01*
X130176798Y-76163202D01*
X130186519Y-76173927D01*
X130195142Y-76185553D01*
X130202583Y-76197969D01*
X130208772Y-76211054D01*
X130213649Y-76224683D01*
X130217166Y-76238724D01*
X130219290Y-76253042D01*
X130220000Y-76267500D01*
X130220000Y-76562500D01*
X130219290Y-76576958D01*
X130217166Y-76591276D01*
X130213649Y-76605317D01*
X130208772Y-76618946D01*
X130202583Y-76632031D01*
X130195142Y-76644447D01*
X130186519Y-76656073D01*
X130176798Y-76666798D01*
X130166073Y-76676519D01*
X130154447Y-76685142D01*
X130142031Y-76692583D01*
X130128946Y-76698772D01*
X130115317Y-76703649D01*
X130101276Y-76707166D01*
X130086958Y-76709290D01*
X130072500Y-76710000D01*
X129727500Y-76710000D01*
X129713042Y-76709290D01*
X129698724Y-76707166D01*
X129684683Y-76703649D01*
X129671054Y-76698772D01*
X129657969Y-76692583D01*
X129645553Y-76685142D01*
X129633927Y-76676519D01*
X129623202Y-76666798D01*
X129613481Y-76656073D01*
X129604858Y-76644447D01*
X129597417Y-76632031D01*
X129591228Y-76618946D01*
X129586351Y-76605317D01*
X129582834Y-76591276D01*
X129580710Y-76576958D01*
X129580000Y-76562500D01*
X129580000Y-76267500D01*
X129580710Y-76253042D01*
X129582834Y-76238724D01*
X129586351Y-76224683D01*
X129591228Y-76211054D01*
X129597417Y-76197969D01*
X129604858Y-76185553D01*
X129613481Y-76173927D01*
X129623202Y-76163202D01*
X129633927Y-76153481D01*
X129645553Y-76144858D01*
X129657969Y-76137417D01*
X129671054Y-76131228D01*
X129684683Y-76126351D01*
X129698724Y-76122834D01*
X129713042Y-76120710D01*
X129727500Y-76120000D01*
X130072500Y-76120000D01*
X130086958Y-76120710D01*
X130086958Y-76120710D01*
G37*
D18*
X129900000Y-76415000D03*
D17*
G36*
X130086958Y-83320710D02*
G01*
X130101276Y-83322834D01*
X130115317Y-83326351D01*
X130128946Y-83331228D01*
X130142031Y-83337417D01*
X130154447Y-83344858D01*
X130166073Y-83353481D01*
X130176798Y-83363202D01*
X130186519Y-83373927D01*
X130195142Y-83385553D01*
X130202583Y-83397969D01*
X130208772Y-83411054D01*
X130213649Y-83424683D01*
X130217166Y-83438724D01*
X130219290Y-83453042D01*
X130220000Y-83467500D01*
X130220000Y-83762500D01*
X130219290Y-83776958D01*
X130217166Y-83791276D01*
X130213649Y-83805317D01*
X130208772Y-83818946D01*
X130202583Y-83832031D01*
X130195142Y-83844447D01*
X130186519Y-83856073D01*
X130176798Y-83866798D01*
X130166073Y-83876519D01*
X130154447Y-83885142D01*
X130142031Y-83892583D01*
X130128946Y-83898772D01*
X130115317Y-83903649D01*
X130101276Y-83907166D01*
X130086958Y-83909290D01*
X130072500Y-83910000D01*
X129727500Y-83910000D01*
X129713042Y-83909290D01*
X129698724Y-83907166D01*
X129684683Y-83903649D01*
X129671054Y-83898772D01*
X129657969Y-83892583D01*
X129645553Y-83885142D01*
X129633927Y-83876519D01*
X129623202Y-83866798D01*
X129613481Y-83856073D01*
X129604858Y-83844447D01*
X129597417Y-83832031D01*
X129591228Y-83818946D01*
X129586351Y-83805317D01*
X129582834Y-83791276D01*
X129580710Y-83776958D01*
X129580000Y-83762500D01*
X129580000Y-83467500D01*
X129580710Y-83453042D01*
X129582834Y-83438724D01*
X129586351Y-83424683D01*
X129591228Y-83411054D01*
X129597417Y-83397969D01*
X129604858Y-83385553D01*
X129613481Y-83373927D01*
X129623202Y-83363202D01*
X129633927Y-83353481D01*
X129645553Y-83344858D01*
X129657969Y-83337417D01*
X129671054Y-83331228D01*
X129684683Y-83326351D01*
X129698724Y-83322834D01*
X129713042Y-83320710D01*
X129727500Y-83320000D01*
X130072500Y-83320000D01*
X130086958Y-83320710D01*
X130086958Y-83320710D01*
G37*
D18*
X129900000Y-83615000D03*
D17*
G36*
X130086958Y-84290710D02*
G01*
X130101276Y-84292834D01*
X130115317Y-84296351D01*
X130128946Y-84301228D01*
X130142031Y-84307417D01*
X130154447Y-84314858D01*
X130166073Y-84323481D01*
X130176798Y-84333202D01*
X130186519Y-84343927D01*
X130195142Y-84355553D01*
X130202583Y-84367969D01*
X130208772Y-84381054D01*
X130213649Y-84394683D01*
X130217166Y-84408724D01*
X130219290Y-84423042D01*
X130220000Y-84437500D01*
X130220000Y-84732500D01*
X130219290Y-84746958D01*
X130217166Y-84761276D01*
X130213649Y-84775317D01*
X130208772Y-84788946D01*
X130202583Y-84802031D01*
X130195142Y-84814447D01*
X130186519Y-84826073D01*
X130176798Y-84836798D01*
X130166073Y-84846519D01*
X130154447Y-84855142D01*
X130142031Y-84862583D01*
X130128946Y-84868772D01*
X130115317Y-84873649D01*
X130101276Y-84877166D01*
X130086958Y-84879290D01*
X130072500Y-84880000D01*
X129727500Y-84880000D01*
X129713042Y-84879290D01*
X129698724Y-84877166D01*
X129684683Y-84873649D01*
X129671054Y-84868772D01*
X129657969Y-84862583D01*
X129645553Y-84855142D01*
X129633927Y-84846519D01*
X129623202Y-84836798D01*
X129613481Y-84826073D01*
X129604858Y-84814447D01*
X129597417Y-84802031D01*
X129591228Y-84788946D01*
X129586351Y-84775317D01*
X129582834Y-84761276D01*
X129580710Y-84746958D01*
X129580000Y-84732500D01*
X129580000Y-84437500D01*
X129580710Y-84423042D01*
X129582834Y-84408724D01*
X129586351Y-84394683D01*
X129591228Y-84381054D01*
X129597417Y-84367969D01*
X129604858Y-84355553D01*
X129613481Y-84343927D01*
X129623202Y-84333202D01*
X129633927Y-84323481D01*
X129645553Y-84314858D01*
X129657969Y-84307417D01*
X129671054Y-84301228D01*
X129684683Y-84296351D01*
X129698724Y-84292834D01*
X129713042Y-84290710D01*
X129727500Y-84290000D01*
X130072500Y-84290000D01*
X130086958Y-84290710D01*
X130086958Y-84290710D01*
G37*
D18*
X129900000Y-84585000D03*
D17*
G36*
X137586958Y-86990710D02*
G01*
X137601276Y-86992834D01*
X137615317Y-86996351D01*
X137628946Y-87001228D01*
X137642031Y-87007417D01*
X137654447Y-87014858D01*
X137666073Y-87023481D01*
X137676798Y-87033202D01*
X137686519Y-87043927D01*
X137695142Y-87055553D01*
X137702583Y-87067969D01*
X137708772Y-87081054D01*
X137713649Y-87094683D01*
X137717166Y-87108724D01*
X137719290Y-87123042D01*
X137720000Y-87137500D01*
X137720000Y-87432500D01*
X137719290Y-87446958D01*
X137717166Y-87461276D01*
X137713649Y-87475317D01*
X137708772Y-87488946D01*
X137702583Y-87502031D01*
X137695142Y-87514447D01*
X137686519Y-87526073D01*
X137676798Y-87536798D01*
X137666073Y-87546519D01*
X137654447Y-87555142D01*
X137642031Y-87562583D01*
X137628946Y-87568772D01*
X137615317Y-87573649D01*
X137601276Y-87577166D01*
X137586958Y-87579290D01*
X137572500Y-87580000D01*
X137227500Y-87580000D01*
X137213042Y-87579290D01*
X137198724Y-87577166D01*
X137184683Y-87573649D01*
X137171054Y-87568772D01*
X137157969Y-87562583D01*
X137145553Y-87555142D01*
X137133927Y-87546519D01*
X137123202Y-87536798D01*
X137113481Y-87526073D01*
X137104858Y-87514447D01*
X137097417Y-87502031D01*
X137091228Y-87488946D01*
X137086351Y-87475317D01*
X137082834Y-87461276D01*
X137080710Y-87446958D01*
X137080000Y-87432500D01*
X137080000Y-87137500D01*
X137080710Y-87123042D01*
X137082834Y-87108724D01*
X137086351Y-87094683D01*
X137091228Y-87081054D01*
X137097417Y-87067969D01*
X137104858Y-87055553D01*
X137113481Y-87043927D01*
X137123202Y-87033202D01*
X137133927Y-87023481D01*
X137145553Y-87014858D01*
X137157969Y-87007417D01*
X137171054Y-87001228D01*
X137184683Y-86996351D01*
X137198724Y-86992834D01*
X137213042Y-86990710D01*
X137227500Y-86990000D01*
X137572500Y-86990000D01*
X137586958Y-86990710D01*
X137586958Y-86990710D01*
G37*
D18*
X137400000Y-87285000D03*
D17*
G36*
X137586958Y-86020710D02*
G01*
X137601276Y-86022834D01*
X137615317Y-86026351D01*
X137628946Y-86031228D01*
X137642031Y-86037417D01*
X137654447Y-86044858D01*
X137666073Y-86053481D01*
X137676798Y-86063202D01*
X137686519Y-86073927D01*
X137695142Y-86085553D01*
X137702583Y-86097969D01*
X137708772Y-86111054D01*
X137713649Y-86124683D01*
X137717166Y-86138724D01*
X137719290Y-86153042D01*
X137720000Y-86167500D01*
X137720000Y-86462500D01*
X137719290Y-86476958D01*
X137717166Y-86491276D01*
X137713649Y-86505317D01*
X137708772Y-86518946D01*
X137702583Y-86532031D01*
X137695142Y-86544447D01*
X137686519Y-86556073D01*
X137676798Y-86566798D01*
X137666073Y-86576519D01*
X137654447Y-86585142D01*
X137642031Y-86592583D01*
X137628946Y-86598772D01*
X137615317Y-86603649D01*
X137601276Y-86607166D01*
X137586958Y-86609290D01*
X137572500Y-86610000D01*
X137227500Y-86610000D01*
X137213042Y-86609290D01*
X137198724Y-86607166D01*
X137184683Y-86603649D01*
X137171054Y-86598772D01*
X137157969Y-86592583D01*
X137145553Y-86585142D01*
X137133927Y-86576519D01*
X137123202Y-86566798D01*
X137113481Y-86556073D01*
X137104858Y-86544447D01*
X137097417Y-86532031D01*
X137091228Y-86518946D01*
X137086351Y-86505317D01*
X137082834Y-86491276D01*
X137080710Y-86476958D01*
X137080000Y-86462500D01*
X137080000Y-86167500D01*
X137080710Y-86153042D01*
X137082834Y-86138724D01*
X137086351Y-86124683D01*
X137091228Y-86111054D01*
X137097417Y-86097969D01*
X137104858Y-86085553D01*
X137113481Y-86073927D01*
X137123202Y-86063202D01*
X137133927Y-86053481D01*
X137145553Y-86044858D01*
X137157969Y-86037417D01*
X137171054Y-86031228D01*
X137184683Y-86026351D01*
X137198724Y-86022834D01*
X137213042Y-86020710D01*
X137227500Y-86020000D01*
X137572500Y-86020000D01*
X137586958Y-86020710D01*
X137586958Y-86020710D01*
G37*
D18*
X137400000Y-86315000D03*
D17*
G36*
X153076958Y-92480710D02*
G01*
X153091276Y-92482834D01*
X153105317Y-92486351D01*
X153118946Y-92491228D01*
X153132031Y-92497417D01*
X153144447Y-92504858D01*
X153156073Y-92513481D01*
X153166798Y-92523202D01*
X153176519Y-92533927D01*
X153185142Y-92545553D01*
X153192583Y-92557969D01*
X153198772Y-92571054D01*
X153203649Y-92584683D01*
X153207166Y-92598724D01*
X153209290Y-92613042D01*
X153210000Y-92627500D01*
X153210000Y-92972500D01*
X153209290Y-92986958D01*
X153207166Y-93001276D01*
X153203649Y-93015317D01*
X153198772Y-93028946D01*
X153192583Y-93042031D01*
X153185142Y-93054447D01*
X153176519Y-93066073D01*
X153166798Y-93076798D01*
X153156073Y-93086519D01*
X153144447Y-93095142D01*
X153132031Y-93102583D01*
X153118946Y-93108772D01*
X153105317Y-93113649D01*
X153091276Y-93117166D01*
X153076958Y-93119290D01*
X153062500Y-93120000D01*
X152767500Y-93120000D01*
X152753042Y-93119290D01*
X152738724Y-93117166D01*
X152724683Y-93113649D01*
X152711054Y-93108772D01*
X152697969Y-93102583D01*
X152685553Y-93095142D01*
X152673927Y-93086519D01*
X152663202Y-93076798D01*
X152653481Y-93066073D01*
X152644858Y-93054447D01*
X152637417Y-93042031D01*
X152631228Y-93028946D01*
X152626351Y-93015317D01*
X152622834Y-93001276D01*
X152620710Y-92986958D01*
X152620000Y-92972500D01*
X152620000Y-92627500D01*
X152620710Y-92613042D01*
X152622834Y-92598724D01*
X152626351Y-92584683D01*
X152631228Y-92571054D01*
X152637417Y-92557969D01*
X152644858Y-92545553D01*
X152653481Y-92533927D01*
X152663202Y-92523202D01*
X152673927Y-92513481D01*
X152685553Y-92504858D01*
X152697969Y-92497417D01*
X152711054Y-92491228D01*
X152724683Y-92486351D01*
X152738724Y-92482834D01*
X152753042Y-92480710D01*
X152767500Y-92480000D01*
X153062500Y-92480000D01*
X153076958Y-92480710D01*
X153076958Y-92480710D01*
G37*
D18*
X152915000Y-92800000D03*
D17*
G36*
X154046958Y-92480710D02*
G01*
X154061276Y-92482834D01*
X154075317Y-92486351D01*
X154088946Y-92491228D01*
X154102031Y-92497417D01*
X154114447Y-92504858D01*
X154126073Y-92513481D01*
X154136798Y-92523202D01*
X154146519Y-92533927D01*
X154155142Y-92545553D01*
X154162583Y-92557969D01*
X154168772Y-92571054D01*
X154173649Y-92584683D01*
X154177166Y-92598724D01*
X154179290Y-92613042D01*
X154180000Y-92627500D01*
X154180000Y-92972500D01*
X154179290Y-92986958D01*
X154177166Y-93001276D01*
X154173649Y-93015317D01*
X154168772Y-93028946D01*
X154162583Y-93042031D01*
X154155142Y-93054447D01*
X154146519Y-93066073D01*
X154136798Y-93076798D01*
X154126073Y-93086519D01*
X154114447Y-93095142D01*
X154102031Y-93102583D01*
X154088946Y-93108772D01*
X154075317Y-93113649D01*
X154061276Y-93117166D01*
X154046958Y-93119290D01*
X154032500Y-93120000D01*
X153737500Y-93120000D01*
X153723042Y-93119290D01*
X153708724Y-93117166D01*
X153694683Y-93113649D01*
X153681054Y-93108772D01*
X153667969Y-93102583D01*
X153655553Y-93095142D01*
X153643927Y-93086519D01*
X153633202Y-93076798D01*
X153623481Y-93066073D01*
X153614858Y-93054447D01*
X153607417Y-93042031D01*
X153601228Y-93028946D01*
X153596351Y-93015317D01*
X153592834Y-93001276D01*
X153590710Y-92986958D01*
X153590000Y-92972500D01*
X153590000Y-92627500D01*
X153590710Y-92613042D01*
X153592834Y-92598724D01*
X153596351Y-92584683D01*
X153601228Y-92571054D01*
X153607417Y-92557969D01*
X153614858Y-92545553D01*
X153623481Y-92533927D01*
X153633202Y-92523202D01*
X153643927Y-92513481D01*
X153655553Y-92504858D01*
X153667969Y-92497417D01*
X153681054Y-92491228D01*
X153694683Y-92486351D01*
X153708724Y-92482834D01*
X153723042Y-92480710D01*
X153737500Y-92480000D01*
X154032500Y-92480000D01*
X154046958Y-92480710D01*
X154046958Y-92480710D01*
G37*
D18*
X153885000Y-92800000D03*
D17*
G36*
X156786958Y-76505710D02*
G01*
X156801276Y-76507834D01*
X156815317Y-76511351D01*
X156828946Y-76516228D01*
X156842031Y-76522417D01*
X156854447Y-76529858D01*
X156866073Y-76538481D01*
X156876798Y-76548202D01*
X156886519Y-76558927D01*
X156895142Y-76570553D01*
X156902583Y-76582969D01*
X156908772Y-76596054D01*
X156913649Y-76609683D01*
X156917166Y-76623724D01*
X156919290Y-76638042D01*
X156920000Y-76652500D01*
X156920000Y-76947500D01*
X156919290Y-76961958D01*
X156917166Y-76976276D01*
X156913649Y-76990317D01*
X156908772Y-77003946D01*
X156902583Y-77017031D01*
X156895142Y-77029447D01*
X156886519Y-77041073D01*
X156876798Y-77051798D01*
X156866073Y-77061519D01*
X156854447Y-77070142D01*
X156842031Y-77077583D01*
X156828946Y-77083772D01*
X156815317Y-77088649D01*
X156801276Y-77092166D01*
X156786958Y-77094290D01*
X156772500Y-77095000D01*
X156427500Y-77095000D01*
X156413042Y-77094290D01*
X156398724Y-77092166D01*
X156384683Y-77088649D01*
X156371054Y-77083772D01*
X156357969Y-77077583D01*
X156345553Y-77070142D01*
X156333927Y-77061519D01*
X156323202Y-77051798D01*
X156313481Y-77041073D01*
X156304858Y-77029447D01*
X156297417Y-77017031D01*
X156291228Y-77003946D01*
X156286351Y-76990317D01*
X156282834Y-76976276D01*
X156280710Y-76961958D01*
X156280000Y-76947500D01*
X156280000Y-76652500D01*
X156280710Y-76638042D01*
X156282834Y-76623724D01*
X156286351Y-76609683D01*
X156291228Y-76596054D01*
X156297417Y-76582969D01*
X156304858Y-76570553D01*
X156313481Y-76558927D01*
X156323202Y-76548202D01*
X156333927Y-76538481D01*
X156345553Y-76529858D01*
X156357969Y-76522417D01*
X156371054Y-76516228D01*
X156384683Y-76511351D01*
X156398724Y-76507834D01*
X156413042Y-76505710D01*
X156427500Y-76505000D01*
X156772500Y-76505000D01*
X156786958Y-76505710D01*
X156786958Y-76505710D01*
G37*
D18*
X156600000Y-76800000D03*
D17*
G36*
X156786958Y-77475710D02*
G01*
X156801276Y-77477834D01*
X156815317Y-77481351D01*
X156828946Y-77486228D01*
X156842031Y-77492417D01*
X156854447Y-77499858D01*
X156866073Y-77508481D01*
X156876798Y-77518202D01*
X156886519Y-77528927D01*
X156895142Y-77540553D01*
X156902583Y-77552969D01*
X156908772Y-77566054D01*
X156913649Y-77579683D01*
X156917166Y-77593724D01*
X156919290Y-77608042D01*
X156920000Y-77622500D01*
X156920000Y-77917500D01*
X156919290Y-77931958D01*
X156917166Y-77946276D01*
X156913649Y-77960317D01*
X156908772Y-77973946D01*
X156902583Y-77987031D01*
X156895142Y-77999447D01*
X156886519Y-78011073D01*
X156876798Y-78021798D01*
X156866073Y-78031519D01*
X156854447Y-78040142D01*
X156842031Y-78047583D01*
X156828946Y-78053772D01*
X156815317Y-78058649D01*
X156801276Y-78062166D01*
X156786958Y-78064290D01*
X156772500Y-78065000D01*
X156427500Y-78065000D01*
X156413042Y-78064290D01*
X156398724Y-78062166D01*
X156384683Y-78058649D01*
X156371054Y-78053772D01*
X156357969Y-78047583D01*
X156345553Y-78040142D01*
X156333927Y-78031519D01*
X156323202Y-78021798D01*
X156313481Y-78011073D01*
X156304858Y-77999447D01*
X156297417Y-77987031D01*
X156291228Y-77973946D01*
X156286351Y-77960317D01*
X156282834Y-77946276D01*
X156280710Y-77931958D01*
X156280000Y-77917500D01*
X156280000Y-77622500D01*
X156280710Y-77608042D01*
X156282834Y-77593724D01*
X156286351Y-77579683D01*
X156291228Y-77566054D01*
X156297417Y-77552969D01*
X156304858Y-77540553D01*
X156313481Y-77528927D01*
X156323202Y-77518202D01*
X156333927Y-77508481D01*
X156345553Y-77499858D01*
X156357969Y-77492417D01*
X156371054Y-77486228D01*
X156384683Y-77481351D01*
X156398724Y-77477834D01*
X156413042Y-77475710D01*
X156427500Y-77475000D01*
X156772500Y-77475000D01*
X156786958Y-77475710D01*
X156786958Y-77475710D01*
G37*
D18*
X156600000Y-77770000D03*
D17*
G36*
X140976958Y-73380710D02*
G01*
X140991276Y-73382834D01*
X141005317Y-73386351D01*
X141018946Y-73391228D01*
X141032031Y-73397417D01*
X141044447Y-73404858D01*
X141056073Y-73413481D01*
X141066798Y-73423202D01*
X141076519Y-73433927D01*
X141085142Y-73445553D01*
X141092583Y-73457969D01*
X141098772Y-73471054D01*
X141103649Y-73484683D01*
X141107166Y-73498724D01*
X141109290Y-73513042D01*
X141110000Y-73527500D01*
X141110000Y-73872500D01*
X141109290Y-73886958D01*
X141107166Y-73901276D01*
X141103649Y-73915317D01*
X141098772Y-73928946D01*
X141092583Y-73942031D01*
X141085142Y-73954447D01*
X141076519Y-73966073D01*
X141066798Y-73976798D01*
X141056073Y-73986519D01*
X141044447Y-73995142D01*
X141032031Y-74002583D01*
X141018946Y-74008772D01*
X141005317Y-74013649D01*
X140991276Y-74017166D01*
X140976958Y-74019290D01*
X140962500Y-74020000D01*
X140667500Y-74020000D01*
X140653042Y-74019290D01*
X140638724Y-74017166D01*
X140624683Y-74013649D01*
X140611054Y-74008772D01*
X140597969Y-74002583D01*
X140585553Y-73995142D01*
X140573927Y-73986519D01*
X140563202Y-73976798D01*
X140553481Y-73966073D01*
X140544858Y-73954447D01*
X140537417Y-73942031D01*
X140531228Y-73928946D01*
X140526351Y-73915317D01*
X140522834Y-73901276D01*
X140520710Y-73886958D01*
X140520000Y-73872500D01*
X140520000Y-73527500D01*
X140520710Y-73513042D01*
X140522834Y-73498724D01*
X140526351Y-73484683D01*
X140531228Y-73471054D01*
X140537417Y-73457969D01*
X140544858Y-73445553D01*
X140553481Y-73433927D01*
X140563202Y-73423202D01*
X140573927Y-73413481D01*
X140585553Y-73404858D01*
X140597969Y-73397417D01*
X140611054Y-73391228D01*
X140624683Y-73386351D01*
X140638724Y-73382834D01*
X140653042Y-73380710D01*
X140667500Y-73380000D01*
X140962500Y-73380000D01*
X140976958Y-73380710D01*
X140976958Y-73380710D01*
G37*
D18*
X140815000Y-73700000D03*
D17*
G36*
X141946958Y-73380710D02*
G01*
X141961276Y-73382834D01*
X141975317Y-73386351D01*
X141988946Y-73391228D01*
X142002031Y-73397417D01*
X142014447Y-73404858D01*
X142026073Y-73413481D01*
X142036798Y-73423202D01*
X142046519Y-73433927D01*
X142055142Y-73445553D01*
X142062583Y-73457969D01*
X142068772Y-73471054D01*
X142073649Y-73484683D01*
X142077166Y-73498724D01*
X142079290Y-73513042D01*
X142080000Y-73527500D01*
X142080000Y-73872500D01*
X142079290Y-73886958D01*
X142077166Y-73901276D01*
X142073649Y-73915317D01*
X142068772Y-73928946D01*
X142062583Y-73942031D01*
X142055142Y-73954447D01*
X142046519Y-73966073D01*
X142036798Y-73976798D01*
X142026073Y-73986519D01*
X142014447Y-73995142D01*
X142002031Y-74002583D01*
X141988946Y-74008772D01*
X141975317Y-74013649D01*
X141961276Y-74017166D01*
X141946958Y-74019290D01*
X141932500Y-74020000D01*
X141637500Y-74020000D01*
X141623042Y-74019290D01*
X141608724Y-74017166D01*
X141594683Y-74013649D01*
X141581054Y-74008772D01*
X141567969Y-74002583D01*
X141555553Y-73995142D01*
X141543927Y-73986519D01*
X141533202Y-73976798D01*
X141523481Y-73966073D01*
X141514858Y-73954447D01*
X141507417Y-73942031D01*
X141501228Y-73928946D01*
X141496351Y-73915317D01*
X141492834Y-73901276D01*
X141490710Y-73886958D01*
X141490000Y-73872500D01*
X141490000Y-73527500D01*
X141490710Y-73513042D01*
X141492834Y-73498724D01*
X141496351Y-73484683D01*
X141501228Y-73471054D01*
X141507417Y-73457969D01*
X141514858Y-73445553D01*
X141523481Y-73433927D01*
X141533202Y-73423202D01*
X141543927Y-73413481D01*
X141555553Y-73404858D01*
X141567969Y-73397417D01*
X141581054Y-73391228D01*
X141594683Y-73386351D01*
X141608724Y-73382834D01*
X141623042Y-73380710D01*
X141637500Y-73380000D01*
X141932500Y-73380000D01*
X141946958Y-73380710D01*
X141946958Y-73380710D01*
G37*
D18*
X141785000Y-73700000D03*
D17*
G36*
X153686958Y-71320710D02*
G01*
X153701276Y-71322834D01*
X153715317Y-71326351D01*
X153728946Y-71331228D01*
X153742031Y-71337417D01*
X153754447Y-71344858D01*
X153766073Y-71353481D01*
X153776798Y-71363202D01*
X153786519Y-71373927D01*
X153795142Y-71385553D01*
X153802583Y-71397969D01*
X153808772Y-71411054D01*
X153813649Y-71424683D01*
X153817166Y-71438724D01*
X153819290Y-71453042D01*
X153820000Y-71467500D01*
X153820000Y-71762500D01*
X153819290Y-71776958D01*
X153817166Y-71791276D01*
X153813649Y-71805317D01*
X153808772Y-71818946D01*
X153802583Y-71832031D01*
X153795142Y-71844447D01*
X153786519Y-71856073D01*
X153776798Y-71866798D01*
X153766073Y-71876519D01*
X153754447Y-71885142D01*
X153742031Y-71892583D01*
X153728946Y-71898772D01*
X153715317Y-71903649D01*
X153701276Y-71907166D01*
X153686958Y-71909290D01*
X153672500Y-71910000D01*
X153327500Y-71910000D01*
X153313042Y-71909290D01*
X153298724Y-71907166D01*
X153284683Y-71903649D01*
X153271054Y-71898772D01*
X153257969Y-71892583D01*
X153245553Y-71885142D01*
X153233927Y-71876519D01*
X153223202Y-71866798D01*
X153213481Y-71856073D01*
X153204858Y-71844447D01*
X153197417Y-71832031D01*
X153191228Y-71818946D01*
X153186351Y-71805317D01*
X153182834Y-71791276D01*
X153180710Y-71776958D01*
X153180000Y-71762500D01*
X153180000Y-71467500D01*
X153180710Y-71453042D01*
X153182834Y-71438724D01*
X153186351Y-71424683D01*
X153191228Y-71411054D01*
X153197417Y-71397969D01*
X153204858Y-71385553D01*
X153213481Y-71373927D01*
X153223202Y-71363202D01*
X153233927Y-71353481D01*
X153245553Y-71344858D01*
X153257969Y-71337417D01*
X153271054Y-71331228D01*
X153284683Y-71326351D01*
X153298724Y-71322834D01*
X153313042Y-71320710D01*
X153327500Y-71320000D01*
X153672500Y-71320000D01*
X153686958Y-71320710D01*
X153686958Y-71320710D01*
G37*
D18*
X153500000Y-71615000D03*
D17*
G36*
X153686958Y-72290710D02*
G01*
X153701276Y-72292834D01*
X153715317Y-72296351D01*
X153728946Y-72301228D01*
X153742031Y-72307417D01*
X153754447Y-72314858D01*
X153766073Y-72323481D01*
X153776798Y-72333202D01*
X153786519Y-72343927D01*
X153795142Y-72355553D01*
X153802583Y-72367969D01*
X153808772Y-72381054D01*
X153813649Y-72394683D01*
X153817166Y-72408724D01*
X153819290Y-72423042D01*
X153820000Y-72437500D01*
X153820000Y-72732500D01*
X153819290Y-72746958D01*
X153817166Y-72761276D01*
X153813649Y-72775317D01*
X153808772Y-72788946D01*
X153802583Y-72802031D01*
X153795142Y-72814447D01*
X153786519Y-72826073D01*
X153776798Y-72836798D01*
X153766073Y-72846519D01*
X153754447Y-72855142D01*
X153742031Y-72862583D01*
X153728946Y-72868772D01*
X153715317Y-72873649D01*
X153701276Y-72877166D01*
X153686958Y-72879290D01*
X153672500Y-72880000D01*
X153327500Y-72880000D01*
X153313042Y-72879290D01*
X153298724Y-72877166D01*
X153284683Y-72873649D01*
X153271054Y-72868772D01*
X153257969Y-72862583D01*
X153245553Y-72855142D01*
X153233927Y-72846519D01*
X153223202Y-72836798D01*
X153213481Y-72826073D01*
X153204858Y-72814447D01*
X153197417Y-72802031D01*
X153191228Y-72788946D01*
X153186351Y-72775317D01*
X153182834Y-72761276D01*
X153180710Y-72746958D01*
X153180000Y-72732500D01*
X153180000Y-72437500D01*
X153180710Y-72423042D01*
X153182834Y-72408724D01*
X153186351Y-72394683D01*
X153191228Y-72381054D01*
X153197417Y-72367969D01*
X153204858Y-72355553D01*
X153213481Y-72343927D01*
X153223202Y-72333202D01*
X153233927Y-72323481D01*
X153245553Y-72314858D01*
X153257969Y-72307417D01*
X153271054Y-72301228D01*
X153284683Y-72296351D01*
X153298724Y-72292834D01*
X153313042Y-72290710D01*
X153327500Y-72290000D01*
X153672500Y-72290000D01*
X153686958Y-72290710D01*
X153686958Y-72290710D01*
G37*
D18*
X153500000Y-72585000D03*
D17*
G36*
X140976958Y-92480710D02*
G01*
X140991276Y-92482834D01*
X141005317Y-92486351D01*
X141018946Y-92491228D01*
X141032031Y-92497417D01*
X141044447Y-92504858D01*
X141056073Y-92513481D01*
X141066798Y-92523202D01*
X141076519Y-92533927D01*
X141085142Y-92545553D01*
X141092583Y-92557969D01*
X141098772Y-92571054D01*
X141103649Y-92584683D01*
X141107166Y-92598724D01*
X141109290Y-92613042D01*
X141110000Y-92627500D01*
X141110000Y-92972500D01*
X141109290Y-92986958D01*
X141107166Y-93001276D01*
X141103649Y-93015317D01*
X141098772Y-93028946D01*
X141092583Y-93042031D01*
X141085142Y-93054447D01*
X141076519Y-93066073D01*
X141066798Y-93076798D01*
X141056073Y-93086519D01*
X141044447Y-93095142D01*
X141032031Y-93102583D01*
X141018946Y-93108772D01*
X141005317Y-93113649D01*
X140991276Y-93117166D01*
X140976958Y-93119290D01*
X140962500Y-93120000D01*
X140667500Y-93120000D01*
X140653042Y-93119290D01*
X140638724Y-93117166D01*
X140624683Y-93113649D01*
X140611054Y-93108772D01*
X140597969Y-93102583D01*
X140585553Y-93095142D01*
X140573927Y-93086519D01*
X140563202Y-93076798D01*
X140553481Y-93066073D01*
X140544858Y-93054447D01*
X140537417Y-93042031D01*
X140531228Y-93028946D01*
X140526351Y-93015317D01*
X140522834Y-93001276D01*
X140520710Y-92986958D01*
X140520000Y-92972500D01*
X140520000Y-92627500D01*
X140520710Y-92613042D01*
X140522834Y-92598724D01*
X140526351Y-92584683D01*
X140531228Y-92571054D01*
X140537417Y-92557969D01*
X140544858Y-92545553D01*
X140553481Y-92533927D01*
X140563202Y-92523202D01*
X140573927Y-92513481D01*
X140585553Y-92504858D01*
X140597969Y-92497417D01*
X140611054Y-92491228D01*
X140624683Y-92486351D01*
X140638724Y-92482834D01*
X140653042Y-92480710D01*
X140667500Y-92480000D01*
X140962500Y-92480000D01*
X140976958Y-92480710D01*
X140976958Y-92480710D01*
G37*
D18*
X140815000Y-92800000D03*
D17*
G36*
X141946958Y-92480710D02*
G01*
X141961276Y-92482834D01*
X141975317Y-92486351D01*
X141988946Y-92491228D01*
X142002031Y-92497417D01*
X142014447Y-92504858D01*
X142026073Y-92513481D01*
X142036798Y-92523202D01*
X142046519Y-92533927D01*
X142055142Y-92545553D01*
X142062583Y-92557969D01*
X142068772Y-92571054D01*
X142073649Y-92584683D01*
X142077166Y-92598724D01*
X142079290Y-92613042D01*
X142080000Y-92627500D01*
X142080000Y-92972500D01*
X142079290Y-92986958D01*
X142077166Y-93001276D01*
X142073649Y-93015317D01*
X142068772Y-93028946D01*
X142062583Y-93042031D01*
X142055142Y-93054447D01*
X142046519Y-93066073D01*
X142036798Y-93076798D01*
X142026073Y-93086519D01*
X142014447Y-93095142D01*
X142002031Y-93102583D01*
X141988946Y-93108772D01*
X141975317Y-93113649D01*
X141961276Y-93117166D01*
X141946958Y-93119290D01*
X141932500Y-93120000D01*
X141637500Y-93120000D01*
X141623042Y-93119290D01*
X141608724Y-93117166D01*
X141594683Y-93113649D01*
X141581054Y-93108772D01*
X141567969Y-93102583D01*
X141555553Y-93095142D01*
X141543927Y-93086519D01*
X141533202Y-93076798D01*
X141523481Y-93066073D01*
X141514858Y-93054447D01*
X141507417Y-93042031D01*
X141501228Y-93028946D01*
X141496351Y-93015317D01*
X141492834Y-93001276D01*
X141490710Y-92986958D01*
X141490000Y-92972500D01*
X141490000Y-92627500D01*
X141490710Y-92613042D01*
X141492834Y-92598724D01*
X141496351Y-92584683D01*
X141501228Y-92571054D01*
X141507417Y-92557969D01*
X141514858Y-92545553D01*
X141523481Y-92533927D01*
X141533202Y-92523202D01*
X141543927Y-92513481D01*
X141555553Y-92504858D01*
X141567969Y-92497417D01*
X141581054Y-92491228D01*
X141594683Y-92486351D01*
X141608724Y-92482834D01*
X141623042Y-92480710D01*
X141637500Y-92480000D01*
X141932500Y-92480000D01*
X141946958Y-92480710D01*
X141946958Y-92480710D01*
G37*
D18*
X141785000Y-92800000D03*
D17*
G36*
X137586958Y-80920710D02*
G01*
X137601276Y-80922834D01*
X137615317Y-80926351D01*
X137628946Y-80931228D01*
X137642031Y-80937417D01*
X137654447Y-80944858D01*
X137666073Y-80953481D01*
X137676798Y-80963202D01*
X137686519Y-80973927D01*
X137695142Y-80985553D01*
X137702583Y-80997969D01*
X137708772Y-81011054D01*
X137713649Y-81024683D01*
X137717166Y-81038724D01*
X137719290Y-81053042D01*
X137720000Y-81067500D01*
X137720000Y-81362500D01*
X137719290Y-81376958D01*
X137717166Y-81391276D01*
X137713649Y-81405317D01*
X137708772Y-81418946D01*
X137702583Y-81432031D01*
X137695142Y-81444447D01*
X137686519Y-81456073D01*
X137676798Y-81466798D01*
X137666073Y-81476519D01*
X137654447Y-81485142D01*
X137642031Y-81492583D01*
X137628946Y-81498772D01*
X137615317Y-81503649D01*
X137601276Y-81507166D01*
X137586958Y-81509290D01*
X137572500Y-81510000D01*
X137227500Y-81510000D01*
X137213042Y-81509290D01*
X137198724Y-81507166D01*
X137184683Y-81503649D01*
X137171054Y-81498772D01*
X137157969Y-81492583D01*
X137145553Y-81485142D01*
X137133927Y-81476519D01*
X137123202Y-81466798D01*
X137113481Y-81456073D01*
X137104858Y-81444447D01*
X137097417Y-81432031D01*
X137091228Y-81418946D01*
X137086351Y-81405317D01*
X137082834Y-81391276D01*
X137080710Y-81376958D01*
X137080000Y-81362500D01*
X137080000Y-81067500D01*
X137080710Y-81053042D01*
X137082834Y-81038724D01*
X137086351Y-81024683D01*
X137091228Y-81011054D01*
X137097417Y-80997969D01*
X137104858Y-80985553D01*
X137113481Y-80973927D01*
X137123202Y-80963202D01*
X137133927Y-80953481D01*
X137145553Y-80944858D01*
X137157969Y-80937417D01*
X137171054Y-80931228D01*
X137184683Y-80926351D01*
X137198724Y-80922834D01*
X137213042Y-80920710D01*
X137227500Y-80920000D01*
X137572500Y-80920000D01*
X137586958Y-80920710D01*
X137586958Y-80920710D01*
G37*
D18*
X137400000Y-81215000D03*
D17*
G36*
X137586958Y-81890710D02*
G01*
X137601276Y-81892834D01*
X137615317Y-81896351D01*
X137628946Y-81901228D01*
X137642031Y-81907417D01*
X137654447Y-81914858D01*
X137666073Y-81923481D01*
X137676798Y-81933202D01*
X137686519Y-81943927D01*
X137695142Y-81955553D01*
X137702583Y-81967969D01*
X137708772Y-81981054D01*
X137713649Y-81994683D01*
X137717166Y-82008724D01*
X137719290Y-82023042D01*
X137720000Y-82037500D01*
X137720000Y-82332500D01*
X137719290Y-82346958D01*
X137717166Y-82361276D01*
X137713649Y-82375317D01*
X137708772Y-82388946D01*
X137702583Y-82402031D01*
X137695142Y-82414447D01*
X137686519Y-82426073D01*
X137676798Y-82436798D01*
X137666073Y-82446519D01*
X137654447Y-82455142D01*
X137642031Y-82462583D01*
X137628946Y-82468772D01*
X137615317Y-82473649D01*
X137601276Y-82477166D01*
X137586958Y-82479290D01*
X137572500Y-82480000D01*
X137227500Y-82480000D01*
X137213042Y-82479290D01*
X137198724Y-82477166D01*
X137184683Y-82473649D01*
X137171054Y-82468772D01*
X137157969Y-82462583D01*
X137145553Y-82455142D01*
X137133927Y-82446519D01*
X137123202Y-82436798D01*
X137113481Y-82426073D01*
X137104858Y-82414447D01*
X137097417Y-82402031D01*
X137091228Y-82388946D01*
X137086351Y-82375317D01*
X137082834Y-82361276D01*
X137080710Y-82346958D01*
X137080000Y-82332500D01*
X137080000Y-82037500D01*
X137080710Y-82023042D01*
X137082834Y-82008724D01*
X137086351Y-81994683D01*
X137091228Y-81981054D01*
X137097417Y-81967969D01*
X137104858Y-81955553D01*
X137113481Y-81943927D01*
X137123202Y-81933202D01*
X137133927Y-81923481D01*
X137145553Y-81914858D01*
X137157969Y-81907417D01*
X137171054Y-81901228D01*
X137184683Y-81896351D01*
X137198724Y-81892834D01*
X137213042Y-81890710D01*
X137227500Y-81890000D01*
X137572500Y-81890000D01*
X137586958Y-81890710D01*
X137586958Y-81890710D01*
G37*
D18*
X137400000Y-82185000D03*
D17*
G36*
X159286958Y-72290710D02*
G01*
X159301276Y-72292834D01*
X159315317Y-72296351D01*
X159328946Y-72301228D01*
X159342031Y-72307417D01*
X159354447Y-72314858D01*
X159366073Y-72323481D01*
X159376798Y-72333202D01*
X159386519Y-72343927D01*
X159395142Y-72355553D01*
X159402583Y-72367969D01*
X159408772Y-72381054D01*
X159413649Y-72394683D01*
X159417166Y-72408724D01*
X159419290Y-72423042D01*
X159420000Y-72437500D01*
X159420000Y-72732500D01*
X159419290Y-72746958D01*
X159417166Y-72761276D01*
X159413649Y-72775317D01*
X159408772Y-72788946D01*
X159402583Y-72802031D01*
X159395142Y-72814447D01*
X159386519Y-72826073D01*
X159376798Y-72836798D01*
X159366073Y-72846519D01*
X159354447Y-72855142D01*
X159342031Y-72862583D01*
X159328946Y-72868772D01*
X159315317Y-72873649D01*
X159301276Y-72877166D01*
X159286958Y-72879290D01*
X159272500Y-72880000D01*
X158927500Y-72880000D01*
X158913042Y-72879290D01*
X158898724Y-72877166D01*
X158884683Y-72873649D01*
X158871054Y-72868772D01*
X158857969Y-72862583D01*
X158845553Y-72855142D01*
X158833927Y-72846519D01*
X158823202Y-72836798D01*
X158813481Y-72826073D01*
X158804858Y-72814447D01*
X158797417Y-72802031D01*
X158791228Y-72788946D01*
X158786351Y-72775317D01*
X158782834Y-72761276D01*
X158780710Y-72746958D01*
X158780000Y-72732500D01*
X158780000Y-72437500D01*
X158780710Y-72423042D01*
X158782834Y-72408724D01*
X158786351Y-72394683D01*
X158791228Y-72381054D01*
X158797417Y-72367969D01*
X158804858Y-72355553D01*
X158813481Y-72343927D01*
X158823202Y-72333202D01*
X158833927Y-72323481D01*
X158845553Y-72314858D01*
X158857969Y-72307417D01*
X158871054Y-72301228D01*
X158884683Y-72296351D01*
X158898724Y-72292834D01*
X158913042Y-72290710D01*
X158927500Y-72290000D01*
X159272500Y-72290000D01*
X159286958Y-72290710D01*
X159286958Y-72290710D01*
G37*
D18*
X159100000Y-72585000D03*
D17*
G36*
X159286958Y-71320710D02*
G01*
X159301276Y-71322834D01*
X159315317Y-71326351D01*
X159328946Y-71331228D01*
X159342031Y-71337417D01*
X159354447Y-71344858D01*
X159366073Y-71353481D01*
X159376798Y-71363202D01*
X159386519Y-71373927D01*
X159395142Y-71385553D01*
X159402583Y-71397969D01*
X159408772Y-71411054D01*
X159413649Y-71424683D01*
X159417166Y-71438724D01*
X159419290Y-71453042D01*
X159420000Y-71467500D01*
X159420000Y-71762500D01*
X159419290Y-71776958D01*
X159417166Y-71791276D01*
X159413649Y-71805317D01*
X159408772Y-71818946D01*
X159402583Y-71832031D01*
X159395142Y-71844447D01*
X159386519Y-71856073D01*
X159376798Y-71866798D01*
X159366073Y-71876519D01*
X159354447Y-71885142D01*
X159342031Y-71892583D01*
X159328946Y-71898772D01*
X159315317Y-71903649D01*
X159301276Y-71907166D01*
X159286958Y-71909290D01*
X159272500Y-71910000D01*
X158927500Y-71910000D01*
X158913042Y-71909290D01*
X158898724Y-71907166D01*
X158884683Y-71903649D01*
X158871054Y-71898772D01*
X158857969Y-71892583D01*
X158845553Y-71885142D01*
X158833927Y-71876519D01*
X158823202Y-71866798D01*
X158813481Y-71856073D01*
X158804858Y-71844447D01*
X158797417Y-71832031D01*
X158791228Y-71818946D01*
X158786351Y-71805317D01*
X158782834Y-71791276D01*
X158780710Y-71776958D01*
X158780000Y-71762500D01*
X158780000Y-71467500D01*
X158780710Y-71453042D01*
X158782834Y-71438724D01*
X158786351Y-71424683D01*
X158791228Y-71411054D01*
X158797417Y-71397969D01*
X158804858Y-71385553D01*
X158813481Y-71373927D01*
X158823202Y-71363202D01*
X158833927Y-71353481D01*
X158845553Y-71344858D01*
X158857969Y-71337417D01*
X158871054Y-71331228D01*
X158884683Y-71326351D01*
X158898724Y-71322834D01*
X158913042Y-71320710D01*
X158927500Y-71320000D01*
X159272500Y-71320000D01*
X159286958Y-71320710D01*
X159286958Y-71320710D01*
G37*
D18*
X159100000Y-71615000D03*
D17*
G36*
X161986958Y-82575710D02*
G01*
X162001276Y-82577834D01*
X162015317Y-82581351D01*
X162028946Y-82586228D01*
X162042031Y-82592417D01*
X162054447Y-82599858D01*
X162066073Y-82608481D01*
X162076798Y-82618202D01*
X162086519Y-82628927D01*
X162095142Y-82640553D01*
X162102583Y-82652969D01*
X162108772Y-82666054D01*
X162113649Y-82679683D01*
X162117166Y-82693724D01*
X162119290Y-82708042D01*
X162120000Y-82722500D01*
X162120000Y-83017500D01*
X162119290Y-83031958D01*
X162117166Y-83046276D01*
X162113649Y-83060317D01*
X162108772Y-83073946D01*
X162102583Y-83087031D01*
X162095142Y-83099447D01*
X162086519Y-83111073D01*
X162076798Y-83121798D01*
X162066073Y-83131519D01*
X162054447Y-83140142D01*
X162042031Y-83147583D01*
X162028946Y-83153772D01*
X162015317Y-83158649D01*
X162001276Y-83162166D01*
X161986958Y-83164290D01*
X161972500Y-83165000D01*
X161627500Y-83165000D01*
X161613042Y-83164290D01*
X161598724Y-83162166D01*
X161584683Y-83158649D01*
X161571054Y-83153772D01*
X161557969Y-83147583D01*
X161545553Y-83140142D01*
X161533927Y-83131519D01*
X161523202Y-83121798D01*
X161513481Y-83111073D01*
X161504858Y-83099447D01*
X161497417Y-83087031D01*
X161491228Y-83073946D01*
X161486351Y-83060317D01*
X161482834Y-83046276D01*
X161480710Y-83031958D01*
X161480000Y-83017500D01*
X161480000Y-82722500D01*
X161480710Y-82708042D01*
X161482834Y-82693724D01*
X161486351Y-82679683D01*
X161491228Y-82666054D01*
X161497417Y-82652969D01*
X161504858Y-82640553D01*
X161513481Y-82628927D01*
X161523202Y-82618202D01*
X161533927Y-82608481D01*
X161545553Y-82599858D01*
X161557969Y-82592417D01*
X161571054Y-82586228D01*
X161584683Y-82581351D01*
X161598724Y-82577834D01*
X161613042Y-82575710D01*
X161627500Y-82575000D01*
X161972500Y-82575000D01*
X161986958Y-82575710D01*
X161986958Y-82575710D01*
G37*
D18*
X161800000Y-82870000D03*
D17*
G36*
X161986958Y-81605710D02*
G01*
X162001276Y-81607834D01*
X162015317Y-81611351D01*
X162028946Y-81616228D01*
X162042031Y-81622417D01*
X162054447Y-81629858D01*
X162066073Y-81638481D01*
X162076798Y-81648202D01*
X162086519Y-81658927D01*
X162095142Y-81670553D01*
X162102583Y-81682969D01*
X162108772Y-81696054D01*
X162113649Y-81709683D01*
X162117166Y-81723724D01*
X162119290Y-81738042D01*
X162120000Y-81752500D01*
X162120000Y-82047500D01*
X162119290Y-82061958D01*
X162117166Y-82076276D01*
X162113649Y-82090317D01*
X162108772Y-82103946D01*
X162102583Y-82117031D01*
X162095142Y-82129447D01*
X162086519Y-82141073D01*
X162076798Y-82151798D01*
X162066073Y-82161519D01*
X162054447Y-82170142D01*
X162042031Y-82177583D01*
X162028946Y-82183772D01*
X162015317Y-82188649D01*
X162001276Y-82192166D01*
X161986958Y-82194290D01*
X161972500Y-82195000D01*
X161627500Y-82195000D01*
X161613042Y-82194290D01*
X161598724Y-82192166D01*
X161584683Y-82188649D01*
X161571054Y-82183772D01*
X161557969Y-82177583D01*
X161545553Y-82170142D01*
X161533927Y-82161519D01*
X161523202Y-82151798D01*
X161513481Y-82141073D01*
X161504858Y-82129447D01*
X161497417Y-82117031D01*
X161491228Y-82103946D01*
X161486351Y-82090317D01*
X161482834Y-82076276D01*
X161480710Y-82061958D01*
X161480000Y-82047500D01*
X161480000Y-81752500D01*
X161480710Y-81738042D01*
X161482834Y-81723724D01*
X161486351Y-81709683D01*
X161491228Y-81696054D01*
X161497417Y-81682969D01*
X161504858Y-81670553D01*
X161513481Y-81658927D01*
X161523202Y-81648202D01*
X161533927Y-81638481D01*
X161545553Y-81629858D01*
X161557969Y-81622417D01*
X161571054Y-81616228D01*
X161584683Y-81611351D01*
X161598724Y-81607834D01*
X161613042Y-81605710D01*
X161627500Y-81605000D01*
X161972500Y-81605000D01*
X161986958Y-81605710D01*
X161986958Y-81605710D01*
G37*
D18*
X161800000Y-81900000D03*
D17*
G36*
X164046958Y-81480710D02*
G01*
X164061276Y-81482834D01*
X164075317Y-81486351D01*
X164088946Y-81491228D01*
X164102031Y-81497417D01*
X164114447Y-81504858D01*
X164126073Y-81513481D01*
X164136798Y-81523202D01*
X164146519Y-81533927D01*
X164155142Y-81545553D01*
X164162583Y-81557969D01*
X164168772Y-81571054D01*
X164173649Y-81584683D01*
X164177166Y-81598724D01*
X164179290Y-81613042D01*
X164180000Y-81627500D01*
X164180000Y-81972500D01*
X164179290Y-81986958D01*
X164177166Y-82001276D01*
X164173649Y-82015317D01*
X164168772Y-82028946D01*
X164162583Y-82042031D01*
X164155142Y-82054447D01*
X164146519Y-82066073D01*
X164136798Y-82076798D01*
X164126073Y-82086519D01*
X164114447Y-82095142D01*
X164102031Y-82102583D01*
X164088946Y-82108772D01*
X164075317Y-82113649D01*
X164061276Y-82117166D01*
X164046958Y-82119290D01*
X164032500Y-82120000D01*
X163737500Y-82120000D01*
X163723042Y-82119290D01*
X163708724Y-82117166D01*
X163694683Y-82113649D01*
X163681054Y-82108772D01*
X163667969Y-82102583D01*
X163655553Y-82095142D01*
X163643927Y-82086519D01*
X163633202Y-82076798D01*
X163623481Y-82066073D01*
X163614858Y-82054447D01*
X163607417Y-82042031D01*
X163601228Y-82028946D01*
X163596351Y-82015317D01*
X163592834Y-82001276D01*
X163590710Y-81986958D01*
X163590000Y-81972500D01*
X163590000Y-81627500D01*
X163590710Y-81613042D01*
X163592834Y-81598724D01*
X163596351Y-81584683D01*
X163601228Y-81571054D01*
X163607417Y-81557969D01*
X163614858Y-81545553D01*
X163623481Y-81533927D01*
X163633202Y-81523202D01*
X163643927Y-81513481D01*
X163655553Y-81504858D01*
X163667969Y-81497417D01*
X163681054Y-81491228D01*
X163694683Y-81486351D01*
X163708724Y-81482834D01*
X163723042Y-81480710D01*
X163737500Y-81480000D01*
X164032500Y-81480000D01*
X164046958Y-81480710D01*
X164046958Y-81480710D01*
G37*
D18*
X163885000Y-81800000D03*
D17*
G36*
X163076958Y-81480710D02*
G01*
X163091276Y-81482834D01*
X163105317Y-81486351D01*
X163118946Y-81491228D01*
X163132031Y-81497417D01*
X163144447Y-81504858D01*
X163156073Y-81513481D01*
X163166798Y-81523202D01*
X163176519Y-81533927D01*
X163185142Y-81545553D01*
X163192583Y-81557969D01*
X163198772Y-81571054D01*
X163203649Y-81584683D01*
X163207166Y-81598724D01*
X163209290Y-81613042D01*
X163210000Y-81627500D01*
X163210000Y-81972500D01*
X163209290Y-81986958D01*
X163207166Y-82001276D01*
X163203649Y-82015317D01*
X163198772Y-82028946D01*
X163192583Y-82042031D01*
X163185142Y-82054447D01*
X163176519Y-82066073D01*
X163166798Y-82076798D01*
X163156073Y-82086519D01*
X163144447Y-82095142D01*
X163132031Y-82102583D01*
X163118946Y-82108772D01*
X163105317Y-82113649D01*
X163091276Y-82117166D01*
X163076958Y-82119290D01*
X163062500Y-82120000D01*
X162767500Y-82120000D01*
X162753042Y-82119290D01*
X162738724Y-82117166D01*
X162724683Y-82113649D01*
X162711054Y-82108772D01*
X162697969Y-82102583D01*
X162685553Y-82095142D01*
X162673927Y-82086519D01*
X162663202Y-82076798D01*
X162653481Y-82066073D01*
X162644858Y-82054447D01*
X162637417Y-82042031D01*
X162631228Y-82028946D01*
X162626351Y-82015317D01*
X162622834Y-82001276D01*
X162620710Y-81986958D01*
X162620000Y-81972500D01*
X162620000Y-81627500D01*
X162620710Y-81613042D01*
X162622834Y-81598724D01*
X162626351Y-81584683D01*
X162631228Y-81571054D01*
X162637417Y-81557969D01*
X162644858Y-81545553D01*
X162653481Y-81533927D01*
X162663202Y-81523202D01*
X162673927Y-81513481D01*
X162685553Y-81504858D01*
X162697969Y-81497417D01*
X162711054Y-81491228D01*
X162724683Y-81486351D01*
X162738724Y-81482834D01*
X162753042Y-81480710D01*
X162767500Y-81480000D01*
X163062500Y-81480000D01*
X163076958Y-81480710D01*
X163076958Y-81480710D01*
G37*
D18*
X162915000Y-81800000D03*
D17*
G36*
X164031958Y-82580710D02*
G01*
X164046276Y-82582834D01*
X164060317Y-82586351D01*
X164073946Y-82591228D01*
X164087031Y-82597417D01*
X164099447Y-82604858D01*
X164111073Y-82613481D01*
X164121798Y-82623202D01*
X164131519Y-82633927D01*
X164140142Y-82645553D01*
X164147583Y-82657969D01*
X164153772Y-82671054D01*
X164158649Y-82684683D01*
X164162166Y-82698724D01*
X164164290Y-82713042D01*
X164165000Y-82727500D01*
X164165000Y-83072500D01*
X164164290Y-83086958D01*
X164162166Y-83101276D01*
X164158649Y-83115317D01*
X164153772Y-83128946D01*
X164147583Y-83142031D01*
X164140142Y-83154447D01*
X164131519Y-83166073D01*
X164121798Y-83176798D01*
X164111073Y-83186519D01*
X164099447Y-83195142D01*
X164087031Y-83202583D01*
X164073946Y-83208772D01*
X164060317Y-83213649D01*
X164046276Y-83217166D01*
X164031958Y-83219290D01*
X164017500Y-83220000D01*
X163722500Y-83220000D01*
X163708042Y-83219290D01*
X163693724Y-83217166D01*
X163679683Y-83213649D01*
X163666054Y-83208772D01*
X163652969Y-83202583D01*
X163640553Y-83195142D01*
X163628927Y-83186519D01*
X163618202Y-83176798D01*
X163608481Y-83166073D01*
X163599858Y-83154447D01*
X163592417Y-83142031D01*
X163586228Y-83128946D01*
X163581351Y-83115317D01*
X163577834Y-83101276D01*
X163575710Y-83086958D01*
X163575000Y-83072500D01*
X163575000Y-82727500D01*
X163575710Y-82713042D01*
X163577834Y-82698724D01*
X163581351Y-82684683D01*
X163586228Y-82671054D01*
X163592417Y-82657969D01*
X163599858Y-82645553D01*
X163608481Y-82633927D01*
X163618202Y-82623202D01*
X163628927Y-82613481D01*
X163640553Y-82604858D01*
X163652969Y-82597417D01*
X163666054Y-82591228D01*
X163679683Y-82586351D01*
X163693724Y-82582834D01*
X163708042Y-82580710D01*
X163722500Y-82580000D01*
X164017500Y-82580000D01*
X164031958Y-82580710D01*
X164031958Y-82580710D01*
G37*
D18*
X163870000Y-82900000D03*
D17*
G36*
X163061958Y-82580710D02*
G01*
X163076276Y-82582834D01*
X163090317Y-82586351D01*
X163103946Y-82591228D01*
X163117031Y-82597417D01*
X163129447Y-82604858D01*
X163141073Y-82613481D01*
X163151798Y-82623202D01*
X163161519Y-82633927D01*
X163170142Y-82645553D01*
X163177583Y-82657969D01*
X163183772Y-82671054D01*
X163188649Y-82684683D01*
X163192166Y-82698724D01*
X163194290Y-82713042D01*
X163195000Y-82727500D01*
X163195000Y-83072500D01*
X163194290Y-83086958D01*
X163192166Y-83101276D01*
X163188649Y-83115317D01*
X163183772Y-83128946D01*
X163177583Y-83142031D01*
X163170142Y-83154447D01*
X163161519Y-83166073D01*
X163151798Y-83176798D01*
X163141073Y-83186519D01*
X163129447Y-83195142D01*
X163117031Y-83202583D01*
X163103946Y-83208772D01*
X163090317Y-83213649D01*
X163076276Y-83217166D01*
X163061958Y-83219290D01*
X163047500Y-83220000D01*
X162752500Y-83220000D01*
X162738042Y-83219290D01*
X162723724Y-83217166D01*
X162709683Y-83213649D01*
X162696054Y-83208772D01*
X162682969Y-83202583D01*
X162670553Y-83195142D01*
X162658927Y-83186519D01*
X162648202Y-83176798D01*
X162638481Y-83166073D01*
X162629858Y-83154447D01*
X162622417Y-83142031D01*
X162616228Y-83128946D01*
X162611351Y-83115317D01*
X162607834Y-83101276D01*
X162605710Y-83086958D01*
X162605000Y-83072500D01*
X162605000Y-82727500D01*
X162605710Y-82713042D01*
X162607834Y-82698724D01*
X162611351Y-82684683D01*
X162616228Y-82671054D01*
X162622417Y-82657969D01*
X162629858Y-82645553D01*
X162638481Y-82633927D01*
X162648202Y-82623202D01*
X162658927Y-82613481D01*
X162670553Y-82604858D01*
X162682969Y-82597417D01*
X162696054Y-82591228D01*
X162709683Y-82586351D01*
X162723724Y-82582834D01*
X162738042Y-82580710D01*
X162752500Y-82580000D01*
X163047500Y-82580000D01*
X163061958Y-82580710D01*
X163061958Y-82580710D01*
G37*
D18*
X162900000Y-82900000D03*
D17*
G36*
X160886958Y-81635710D02*
G01*
X160901276Y-81637834D01*
X160915317Y-81641351D01*
X160928946Y-81646228D01*
X160942031Y-81652417D01*
X160954447Y-81659858D01*
X160966073Y-81668481D01*
X160976798Y-81678202D01*
X160986519Y-81688927D01*
X160995142Y-81700553D01*
X161002583Y-81712969D01*
X161008772Y-81726054D01*
X161013649Y-81739683D01*
X161017166Y-81753724D01*
X161019290Y-81768042D01*
X161020000Y-81782500D01*
X161020000Y-82077500D01*
X161019290Y-82091958D01*
X161017166Y-82106276D01*
X161013649Y-82120317D01*
X161008772Y-82133946D01*
X161002583Y-82147031D01*
X160995142Y-82159447D01*
X160986519Y-82171073D01*
X160976798Y-82181798D01*
X160966073Y-82191519D01*
X160954447Y-82200142D01*
X160942031Y-82207583D01*
X160928946Y-82213772D01*
X160915317Y-82218649D01*
X160901276Y-82222166D01*
X160886958Y-82224290D01*
X160872500Y-82225000D01*
X160527500Y-82225000D01*
X160513042Y-82224290D01*
X160498724Y-82222166D01*
X160484683Y-82218649D01*
X160471054Y-82213772D01*
X160457969Y-82207583D01*
X160445553Y-82200142D01*
X160433927Y-82191519D01*
X160423202Y-82181798D01*
X160413481Y-82171073D01*
X160404858Y-82159447D01*
X160397417Y-82147031D01*
X160391228Y-82133946D01*
X160386351Y-82120317D01*
X160382834Y-82106276D01*
X160380710Y-82091958D01*
X160380000Y-82077500D01*
X160380000Y-81782500D01*
X160380710Y-81768042D01*
X160382834Y-81753724D01*
X160386351Y-81739683D01*
X160391228Y-81726054D01*
X160397417Y-81712969D01*
X160404858Y-81700553D01*
X160413481Y-81688927D01*
X160423202Y-81678202D01*
X160433927Y-81668481D01*
X160445553Y-81659858D01*
X160457969Y-81652417D01*
X160471054Y-81646228D01*
X160484683Y-81641351D01*
X160498724Y-81637834D01*
X160513042Y-81635710D01*
X160527500Y-81635000D01*
X160872500Y-81635000D01*
X160886958Y-81635710D01*
X160886958Y-81635710D01*
G37*
D18*
X160700000Y-81930000D03*
D17*
G36*
X160886958Y-82605710D02*
G01*
X160901276Y-82607834D01*
X160915317Y-82611351D01*
X160928946Y-82616228D01*
X160942031Y-82622417D01*
X160954447Y-82629858D01*
X160966073Y-82638481D01*
X160976798Y-82648202D01*
X160986519Y-82658927D01*
X160995142Y-82670553D01*
X161002583Y-82682969D01*
X161008772Y-82696054D01*
X161013649Y-82709683D01*
X161017166Y-82723724D01*
X161019290Y-82738042D01*
X161020000Y-82752500D01*
X161020000Y-83047500D01*
X161019290Y-83061958D01*
X161017166Y-83076276D01*
X161013649Y-83090317D01*
X161008772Y-83103946D01*
X161002583Y-83117031D01*
X160995142Y-83129447D01*
X160986519Y-83141073D01*
X160976798Y-83151798D01*
X160966073Y-83161519D01*
X160954447Y-83170142D01*
X160942031Y-83177583D01*
X160928946Y-83183772D01*
X160915317Y-83188649D01*
X160901276Y-83192166D01*
X160886958Y-83194290D01*
X160872500Y-83195000D01*
X160527500Y-83195000D01*
X160513042Y-83194290D01*
X160498724Y-83192166D01*
X160484683Y-83188649D01*
X160471054Y-83183772D01*
X160457969Y-83177583D01*
X160445553Y-83170142D01*
X160433927Y-83161519D01*
X160423202Y-83151798D01*
X160413481Y-83141073D01*
X160404858Y-83129447D01*
X160397417Y-83117031D01*
X160391228Y-83103946D01*
X160386351Y-83090317D01*
X160382834Y-83076276D01*
X160380710Y-83061958D01*
X160380000Y-83047500D01*
X160380000Y-82752500D01*
X160380710Y-82738042D01*
X160382834Y-82723724D01*
X160386351Y-82709683D01*
X160391228Y-82696054D01*
X160397417Y-82682969D01*
X160404858Y-82670553D01*
X160413481Y-82658927D01*
X160423202Y-82648202D01*
X160433927Y-82638481D01*
X160445553Y-82629858D01*
X160457969Y-82622417D01*
X160471054Y-82616228D01*
X160484683Y-82611351D01*
X160498724Y-82607834D01*
X160513042Y-82605710D01*
X160527500Y-82605000D01*
X160872500Y-82605000D01*
X160886958Y-82605710D01*
X160886958Y-82605710D01*
G37*
D18*
X160700000Y-82900000D03*
D17*
G36*
X158586958Y-89720710D02*
G01*
X158601276Y-89722834D01*
X158615317Y-89726351D01*
X158628946Y-89731228D01*
X158642031Y-89737417D01*
X158654447Y-89744858D01*
X158666073Y-89753481D01*
X158676798Y-89763202D01*
X158686519Y-89773927D01*
X158695142Y-89785553D01*
X158702583Y-89797969D01*
X158708772Y-89811054D01*
X158713649Y-89824683D01*
X158717166Y-89838724D01*
X158719290Y-89853042D01*
X158720000Y-89867500D01*
X158720000Y-90162500D01*
X158719290Y-90176958D01*
X158717166Y-90191276D01*
X158713649Y-90205317D01*
X158708772Y-90218946D01*
X158702583Y-90232031D01*
X158695142Y-90244447D01*
X158686519Y-90256073D01*
X158676798Y-90266798D01*
X158666073Y-90276519D01*
X158654447Y-90285142D01*
X158642031Y-90292583D01*
X158628946Y-90298772D01*
X158615317Y-90303649D01*
X158601276Y-90307166D01*
X158586958Y-90309290D01*
X158572500Y-90310000D01*
X158227500Y-90310000D01*
X158213042Y-90309290D01*
X158198724Y-90307166D01*
X158184683Y-90303649D01*
X158171054Y-90298772D01*
X158157969Y-90292583D01*
X158145553Y-90285142D01*
X158133927Y-90276519D01*
X158123202Y-90266798D01*
X158113481Y-90256073D01*
X158104858Y-90244447D01*
X158097417Y-90232031D01*
X158091228Y-90218946D01*
X158086351Y-90205317D01*
X158082834Y-90191276D01*
X158080710Y-90176958D01*
X158080000Y-90162500D01*
X158080000Y-89867500D01*
X158080710Y-89853042D01*
X158082834Y-89838724D01*
X158086351Y-89824683D01*
X158091228Y-89811054D01*
X158097417Y-89797969D01*
X158104858Y-89785553D01*
X158113481Y-89773927D01*
X158123202Y-89763202D01*
X158133927Y-89753481D01*
X158145553Y-89744858D01*
X158157969Y-89737417D01*
X158171054Y-89731228D01*
X158184683Y-89726351D01*
X158198724Y-89722834D01*
X158213042Y-89720710D01*
X158227500Y-89720000D01*
X158572500Y-89720000D01*
X158586958Y-89720710D01*
X158586958Y-89720710D01*
G37*
D18*
X158400000Y-90015000D03*
D17*
G36*
X158586958Y-90690710D02*
G01*
X158601276Y-90692834D01*
X158615317Y-90696351D01*
X158628946Y-90701228D01*
X158642031Y-90707417D01*
X158654447Y-90714858D01*
X158666073Y-90723481D01*
X158676798Y-90733202D01*
X158686519Y-90743927D01*
X158695142Y-90755553D01*
X158702583Y-90767969D01*
X158708772Y-90781054D01*
X158713649Y-90794683D01*
X158717166Y-90808724D01*
X158719290Y-90823042D01*
X158720000Y-90837500D01*
X158720000Y-91132500D01*
X158719290Y-91146958D01*
X158717166Y-91161276D01*
X158713649Y-91175317D01*
X158708772Y-91188946D01*
X158702583Y-91202031D01*
X158695142Y-91214447D01*
X158686519Y-91226073D01*
X158676798Y-91236798D01*
X158666073Y-91246519D01*
X158654447Y-91255142D01*
X158642031Y-91262583D01*
X158628946Y-91268772D01*
X158615317Y-91273649D01*
X158601276Y-91277166D01*
X158586958Y-91279290D01*
X158572500Y-91280000D01*
X158227500Y-91280000D01*
X158213042Y-91279290D01*
X158198724Y-91277166D01*
X158184683Y-91273649D01*
X158171054Y-91268772D01*
X158157969Y-91262583D01*
X158145553Y-91255142D01*
X158133927Y-91246519D01*
X158123202Y-91236798D01*
X158113481Y-91226073D01*
X158104858Y-91214447D01*
X158097417Y-91202031D01*
X158091228Y-91188946D01*
X158086351Y-91175317D01*
X158082834Y-91161276D01*
X158080710Y-91146958D01*
X158080000Y-91132500D01*
X158080000Y-90837500D01*
X158080710Y-90823042D01*
X158082834Y-90808724D01*
X158086351Y-90794683D01*
X158091228Y-90781054D01*
X158097417Y-90767969D01*
X158104858Y-90755553D01*
X158113481Y-90743927D01*
X158123202Y-90733202D01*
X158133927Y-90723481D01*
X158145553Y-90714858D01*
X158157969Y-90707417D01*
X158171054Y-90701228D01*
X158184683Y-90696351D01*
X158198724Y-90692834D01*
X158213042Y-90690710D01*
X158227500Y-90690000D01*
X158572500Y-90690000D01*
X158586958Y-90690710D01*
X158586958Y-90690710D01*
G37*
D18*
X158400000Y-90985000D03*
D19*
X133400000Y-84550000D03*
X133400000Y-77250000D03*
D20*
X147400000Y-71500000D03*
X148050000Y-73500000D03*
X146750000Y-73500000D03*
X159850000Y-95600000D03*
X161150000Y-95600000D03*
X160500000Y-93600000D03*
D17*
G36*
X137586958Y-84990710D02*
G01*
X137601276Y-84992834D01*
X137615317Y-84996351D01*
X137628946Y-85001228D01*
X137642031Y-85007417D01*
X137654447Y-85014858D01*
X137666073Y-85023481D01*
X137676798Y-85033202D01*
X137686519Y-85043927D01*
X137695142Y-85055553D01*
X137702583Y-85067969D01*
X137708772Y-85081054D01*
X137713649Y-85094683D01*
X137717166Y-85108724D01*
X137719290Y-85123042D01*
X137720000Y-85137500D01*
X137720000Y-85432500D01*
X137719290Y-85446958D01*
X137717166Y-85461276D01*
X137713649Y-85475317D01*
X137708772Y-85488946D01*
X137702583Y-85502031D01*
X137695142Y-85514447D01*
X137686519Y-85526073D01*
X137676798Y-85536798D01*
X137666073Y-85546519D01*
X137654447Y-85555142D01*
X137642031Y-85562583D01*
X137628946Y-85568772D01*
X137615317Y-85573649D01*
X137601276Y-85577166D01*
X137586958Y-85579290D01*
X137572500Y-85580000D01*
X137227500Y-85580000D01*
X137213042Y-85579290D01*
X137198724Y-85577166D01*
X137184683Y-85573649D01*
X137171054Y-85568772D01*
X137157969Y-85562583D01*
X137145553Y-85555142D01*
X137133927Y-85546519D01*
X137123202Y-85536798D01*
X137113481Y-85526073D01*
X137104858Y-85514447D01*
X137097417Y-85502031D01*
X137091228Y-85488946D01*
X137086351Y-85475317D01*
X137082834Y-85461276D01*
X137080710Y-85446958D01*
X137080000Y-85432500D01*
X137080000Y-85137500D01*
X137080710Y-85123042D01*
X137082834Y-85108724D01*
X137086351Y-85094683D01*
X137091228Y-85081054D01*
X137097417Y-85067969D01*
X137104858Y-85055553D01*
X137113481Y-85043927D01*
X137123202Y-85033202D01*
X137133927Y-85023481D01*
X137145553Y-85014858D01*
X137157969Y-85007417D01*
X137171054Y-85001228D01*
X137184683Y-84996351D01*
X137198724Y-84992834D01*
X137213042Y-84990710D01*
X137227500Y-84990000D01*
X137572500Y-84990000D01*
X137586958Y-84990710D01*
X137586958Y-84990710D01*
G37*
D18*
X137400000Y-85285000D03*
D17*
G36*
X137586958Y-84020710D02*
G01*
X137601276Y-84022834D01*
X137615317Y-84026351D01*
X137628946Y-84031228D01*
X137642031Y-84037417D01*
X137654447Y-84044858D01*
X137666073Y-84053481D01*
X137676798Y-84063202D01*
X137686519Y-84073927D01*
X137695142Y-84085553D01*
X137702583Y-84097969D01*
X137708772Y-84111054D01*
X137713649Y-84124683D01*
X137717166Y-84138724D01*
X137719290Y-84153042D01*
X137720000Y-84167500D01*
X137720000Y-84462500D01*
X137719290Y-84476958D01*
X137717166Y-84491276D01*
X137713649Y-84505317D01*
X137708772Y-84518946D01*
X137702583Y-84532031D01*
X137695142Y-84544447D01*
X137686519Y-84556073D01*
X137676798Y-84566798D01*
X137666073Y-84576519D01*
X137654447Y-84585142D01*
X137642031Y-84592583D01*
X137628946Y-84598772D01*
X137615317Y-84603649D01*
X137601276Y-84607166D01*
X137586958Y-84609290D01*
X137572500Y-84610000D01*
X137227500Y-84610000D01*
X137213042Y-84609290D01*
X137198724Y-84607166D01*
X137184683Y-84603649D01*
X137171054Y-84598772D01*
X137157969Y-84592583D01*
X137145553Y-84585142D01*
X137133927Y-84576519D01*
X137123202Y-84566798D01*
X137113481Y-84556073D01*
X137104858Y-84544447D01*
X137097417Y-84532031D01*
X137091228Y-84518946D01*
X137086351Y-84505317D01*
X137082834Y-84491276D01*
X137080710Y-84476958D01*
X137080000Y-84462500D01*
X137080000Y-84167500D01*
X137080710Y-84153042D01*
X137082834Y-84138724D01*
X137086351Y-84124683D01*
X137091228Y-84111054D01*
X137097417Y-84097969D01*
X137104858Y-84085553D01*
X137113481Y-84073927D01*
X137123202Y-84063202D01*
X137133927Y-84053481D01*
X137145553Y-84044858D01*
X137157969Y-84037417D01*
X137171054Y-84031228D01*
X137184683Y-84026351D01*
X137198724Y-84022834D01*
X137213042Y-84020710D01*
X137227500Y-84020000D01*
X137572500Y-84020000D01*
X137586958Y-84020710D01*
X137586958Y-84020710D01*
G37*
D18*
X137400000Y-84315000D03*
D17*
G36*
X141446958Y-93880710D02*
G01*
X141461276Y-93882834D01*
X141475317Y-93886351D01*
X141488946Y-93891228D01*
X141502031Y-93897417D01*
X141514447Y-93904858D01*
X141526073Y-93913481D01*
X141536798Y-93923202D01*
X141546519Y-93933927D01*
X141555142Y-93945553D01*
X141562583Y-93957969D01*
X141568772Y-93971054D01*
X141573649Y-93984683D01*
X141577166Y-93998724D01*
X141579290Y-94013042D01*
X141580000Y-94027500D01*
X141580000Y-94372500D01*
X141579290Y-94386958D01*
X141577166Y-94401276D01*
X141573649Y-94415317D01*
X141568772Y-94428946D01*
X141562583Y-94442031D01*
X141555142Y-94454447D01*
X141546519Y-94466073D01*
X141536798Y-94476798D01*
X141526073Y-94486519D01*
X141514447Y-94495142D01*
X141502031Y-94502583D01*
X141488946Y-94508772D01*
X141475317Y-94513649D01*
X141461276Y-94517166D01*
X141446958Y-94519290D01*
X141432500Y-94520000D01*
X141137500Y-94520000D01*
X141123042Y-94519290D01*
X141108724Y-94517166D01*
X141094683Y-94513649D01*
X141081054Y-94508772D01*
X141067969Y-94502583D01*
X141055553Y-94495142D01*
X141043927Y-94486519D01*
X141033202Y-94476798D01*
X141023481Y-94466073D01*
X141014858Y-94454447D01*
X141007417Y-94442031D01*
X141001228Y-94428946D01*
X140996351Y-94415317D01*
X140992834Y-94401276D01*
X140990710Y-94386958D01*
X140990000Y-94372500D01*
X140990000Y-94027500D01*
X140990710Y-94013042D01*
X140992834Y-93998724D01*
X140996351Y-93984683D01*
X141001228Y-93971054D01*
X141007417Y-93957969D01*
X141014858Y-93945553D01*
X141023481Y-93933927D01*
X141033202Y-93923202D01*
X141043927Y-93913481D01*
X141055553Y-93904858D01*
X141067969Y-93897417D01*
X141081054Y-93891228D01*
X141094683Y-93886351D01*
X141108724Y-93882834D01*
X141123042Y-93880710D01*
X141137500Y-93880000D01*
X141432500Y-93880000D01*
X141446958Y-93880710D01*
X141446958Y-93880710D01*
G37*
D18*
X141285000Y-94200000D03*
D17*
G36*
X140476958Y-93880710D02*
G01*
X140491276Y-93882834D01*
X140505317Y-93886351D01*
X140518946Y-93891228D01*
X140532031Y-93897417D01*
X140544447Y-93904858D01*
X140556073Y-93913481D01*
X140566798Y-93923202D01*
X140576519Y-93933927D01*
X140585142Y-93945553D01*
X140592583Y-93957969D01*
X140598772Y-93971054D01*
X140603649Y-93984683D01*
X140607166Y-93998724D01*
X140609290Y-94013042D01*
X140610000Y-94027500D01*
X140610000Y-94372500D01*
X140609290Y-94386958D01*
X140607166Y-94401276D01*
X140603649Y-94415317D01*
X140598772Y-94428946D01*
X140592583Y-94442031D01*
X140585142Y-94454447D01*
X140576519Y-94466073D01*
X140566798Y-94476798D01*
X140556073Y-94486519D01*
X140544447Y-94495142D01*
X140532031Y-94502583D01*
X140518946Y-94508772D01*
X140505317Y-94513649D01*
X140491276Y-94517166D01*
X140476958Y-94519290D01*
X140462500Y-94520000D01*
X140167500Y-94520000D01*
X140153042Y-94519290D01*
X140138724Y-94517166D01*
X140124683Y-94513649D01*
X140111054Y-94508772D01*
X140097969Y-94502583D01*
X140085553Y-94495142D01*
X140073927Y-94486519D01*
X140063202Y-94476798D01*
X140053481Y-94466073D01*
X140044858Y-94454447D01*
X140037417Y-94442031D01*
X140031228Y-94428946D01*
X140026351Y-94415317D01*
X140022834Y-94401276D01*
X140020710Y-94386958D01*
X140020000Y-94372500D01*
X140020000Y-94027500D01*
X140020710Y-94013042D01*
X140022834Y-93998724D01*
X140026351Y-93984683D01*
X140031228Y-93971054D01*
X140037417Y-93957969D01*
X140044858Y-93945553D01*
X140053481Y-93933927D01*
X140063202Y-93923202D01*
X140073927Y-93913481D01*
X140085553Y-93904858D01*
X140097969Y-93897417D01*
X140111054Y-93891228D01*
X140124683Y-93886351D01*
X140138724Y-93882834D01*
X140153042Y-93880710D01*
X140167500Y-93880000D01*
X140462500Y-93880000D01*
X140476958Y-93880710D01*
X140476958Y-93880710D01*
G37*
D18*
X140315000Y-94200000D03*
D17*
G36*
X136586958Y-93390710D02*
G01*
X136601276Y-93392834D01*
X136615317Y-93396351D01*
X136628946Y-93401228D01*
X136642031Y-93407417D01*
X136654447Y-93414858D01*
X136666073Y-93423481D01*
X136676798Y-93433202D01*
X136686519Y-93443927D01*
X136695142Y-93455553D01*
X136702583Y-93467969D01*
X136708772Y-93481054D01*
X136713649Y-93494683D01*
X136717166Y-93508724D01*
X136719290Y-93523042D01*
X136720000Y-93537500D01*
X136720000Y-93832500D01*
X136719290Y-93846958D01*
X136717166Y-93861276D01*
X136713649Y-93875317D01*
X136708772Y-93888946D01*
X136702583Y-93902031D01*
X136695142Y-93914447D01*
X136686519Y-93926073D01*
X136676798Y-93936798D01*
X136666073Y-93946519D01*
X136654447Y-93955142D01*
X136642031Y-93962583D01*
X136628946Y-93968772D01*
X136615317Y-93973649D01*
X136601276Y-93977166D01*
X136586958Y-93979290D01*
X136572500Y-93980000D01*
X136227500Y-93980000D01*
X136213042Y-93979290D01*
X136198724Y-93977166D01*
X136184683Y-93973649D01*
X136171054Y-93968772D01*
X136157969Y-93962583D01*
X136145553Y-93955142D01*
X136133927Y-93946519D01*
X136123202Y-93936798D01*
X136113481Y-93926073D01*
X136104858Y-93914447D01*
X136097417Y-93902031D01*
X136091228Y-93888946D01*
X136086351Y-93875317D01*
X136082834Y-93861276D01*
X136080710Y-93846958D01*
X136080000Y-93832500D01*
X136080000Y-93537500D01*
X136080710Y-93523042D01*
X136082834Y-93508724D01*
X136086351Y-93494683D01*
X136091228Y-93481054D01*
X136097417Y-93467969D01*
X136104858Y-93455553D01*
X136113481Y-93443927D01*
X136123202Y-93433202D01*
X136133927Y-93423481D01*
X136145553Y-93414858D01*
X136157969Y-93407417D01*
X136171054Y-93401228D01*
X136184683Y-93396351D01*
X136198724Y-93392834D01*
X136213042Y-93390710D01*
X136227500Y-93390000D01*
X136572500Y-93390000D01*
X136586958Y-93390710D01*
X136586958Y-93390710D01*
G37*
D18*
X136400000Y-93685000D03*
D17*
G36*
X136586958Y-92420710D02*
G01*
X136601276Y-92422834D01*
X136615317Y-92426351D01*
X136628946Y-92431228D01*
X136642031Y-92437417D01*
X136654447Y-92444858D01*
X136666073Y-92453481D01*
X136676798Y-92463202D01*
X136686519Y-92473927D01*
X136695142Y-92485553D01*
X136702583Y-92497969D01*
X136708772Y-92511054D01*
X136713649Y-92524683D01*
X136717166Y-92538724D01*
X136719290Y-92553042D01*
X136720000Y-92567500D01*
X136720000Y-92862500D01*
X136719290Y-92876958D01*
X136717166Y-92891276D01*
X136713649Y-92905317D01*
X136708772Y-92918946D01*
X136702583Y-92932031D01*
X136695142Y-92944447D01*
X136686519Y-92956073D01*
X136676798Y-92966798D01*
X136666073Y-92976519D01*
X136654447Y-92985142D01*
X136642031Y-92992583D01*
X136628946Y-92998772D01*
X136615317Y-93003649D01*
X136601276Y-93007166D01*
X136586958Y-93009290D01*
X136572500Y-93010000D01*
X136227500Y-93010000D01*
X136213042Y-93009290D01*
X136198724Y-93007166D01*
X136184683Y-93003649D01*
X136171054Y-92998772D01*
X136157969Y-92992583D01*
X136145553Y-92985142D01*
X136133927Y-92976519D01*
X136123202Y-92966798D01*
X136113481Y-92956073D01*
X136104858Y-92944447D01*
X136097417Y-92932031D01*
X136091228Y-92918946D01*
X136086351Y-92905317D01*
X136082834Y-92891276D01*
X136080710Y-92876958D01*
X136080000Y-92862500D01*
X136080000Y-92567500D01*
X136080710Y-92553042D01*
X136082834Y-92538724D01*
X136086351Y-92524683D01*
X136091228Y-92511054D01*
X136097417Y-92497969D01*
X136104858Y-92485553D01*
X136113481Y-92473927D01*
X136123202Y-92463202D01*
X136133927Y-92453481D01*
X136145553Y-92444858D01*
X136157969Y-92437417D01*
X136171054Y-92431228D01*
X136184683Y-92426351D01*
X136198724Y-92422834D01*
X136213042Y-92420710D01*
X136227500Y-92420000D01*
X136572500Y-92420000D01*
X136586958Y-92420710D01*
X136586958Y-92420710D01*
G37*
D18*
X136400000Y-92715000D03*
D17*
G36*
X127280142Y-91551174D02*
G01*
X127303803Y-91554684D01*
X127327007Y-91560496D01*
X127349529Y-91568554D01*
X127371153Y-91578782D01*
X127391670Y-91591079D01*
X127410883Y-91605329D01*
X127428607Y-91621393D01*
X127444671Y-91639117D01*
X127458921Y-91658330D01*
X127471218Y-91678847D01*
X127481446Y-91700471D01*
X127489504Y-91722993D01*
X127495316Y-91746197D01*
X127498826Y-91769858D01*
X127500000Y-91793750D01*
X127500000Y-92281250D01*
X127498826Y-92305142D01*
X127495316Y-92328803D01*
X127489504Y-92352007D01*
X127481446Y-92374529D01*
X127471218Y-92396153D01*
X127458921Y-92416670D01*
X127444671Y-92435883D01*
X127428607Y-92453607D01*
X127410883Y-92469671D01*
X127391670Y-92483921D01*
X127371153Y-92496218D01*
X127349529Y-92506446D01*
X127327007Y-92514504D01*
X127303803Y-92520316D01*
X127280142Y-92523826D01*
X127256250Y-92525000D01*
X126343750Y-92525000D01*
X126319858Y-92523826D01*
X126296197Y-92520316D01*
X126272993Y-92514504D01*
X126250471Y-92506446D01*
X126228847Y-92496218D01*
X126208330Y-92483921D01*
X126189117Y-92469671D01*
X126171393Y-92453607D01*
X126155329Y-92435883D01*
X126141079Y-92416670D01*
X126128782Y-92396153D01*
X126118554Y-92374529D01*
X126110496Y-92352007D01*
X126104684Y-92328803D01*
X126101174Y-92305142D01*
X126100000Y-92281250D01*
X126100000Y-91793750D01*
X126101174Y-91769858D01*
X126104684Y-91746197D01*
X126110496Y-91722993D01*
X126118554Y-91700471D01*
X126128782Y-91678847D01*
X126141079Y-91658330D01*
X126155329Y-91639117D01*
X126171393Y-91621393D01*
X126189117Y-91605329D01*
X126208330Y-91591079D01*
X126228847Y-91578782D01*
X126250471Y-91568554D01*
X126272993Y-91560496D01*
X126296197Y-91554684D01*
X126319858Y-91551174D01*
X126343750Y-91550000D01*
X127256250Y-91550000D01*
X127280142Y-91551174D01*
X127280142Y-91551174D01*
G37*
D21*
X126800000Y-92037500D03*
D17*
G36*
X127280142Y-89676174D02*
G01*
X127303803Y-89679684D01*
X127327007Y-89685496D01*
X127349529Y-89693554D01*
X127371153Y-89703782D01*
X127391670Y-89716079D01*
X127410883Y-89730329D01*
X127428607Y-89746393D01*
X127444671Y-89764117D01*
X127458921Y-89783330D01*
X127471218Y-89803847D01*
X127481446Y-89825471D01*
X127489504Y-89847993D01*
X127495316Y-89871197D01*
X127498826Y-89894858D01*
X127500000Y-89918750D01*
X127500000Y-90406250D01*
X127498826Y-90430142D01*
X127495316Y-90453803D01*
X127489504Y-90477007D01*
X127481446Y-90499529D01*
X127471218Y-90521153D01*
X127458921Y-90541670D01*
X127444671Y-90560883D01*
X127428607Y-90578607D01*
X127410883Y-90594671D01*
X127391670Y-90608921D01*
X127371153Y-90621218D01*
X127349529Y-90631446D01*
X127327007Y-90639504D01*
X127303803Y-90645316D01*
X127280142Y-90648826D01*
X127256250Y-90650000D01*
X126343750Y-90650000D01*
X126319858Y-90648826D01*
X126296197Y-90645316D01*
X126272993Y-90639504D01*
X126250471Y-90631446D01*
X126228847Y-90621218D01*
X126208330Y-90608921D01*
X126189117Y-90594671D01*
X126171393Y-90578607D01*
X126155329Y-90560883D01*
X126141079Y-90541670D01*
X126128782Y-90521153D01*
X126118554Y-90499529D01*
X126110496Y-90477007D01*
X126104684Y-90453803D01*
X126101174Y-90430142D01*
X126100000Y-90406250D01*
X126100000Y-89918750D01*
X126101174Y-89894858D01*
X126104684Y-89871197D01*
X126110496Y-89847993D01*
X126118554Y-89825471D01*
X126128782Y-89803847D01*
X126141079Y-89783330D01*
X126155329Y-89764117D01*
X126171393Y-89746393D01*
X126189117Y-89730329D01*
X126208330Y-89716079D01*
X126228847Y-89703782D01*
X126250471Y-89693554D01*
X126272993Y-89685496D01*
X126296197Y-89679684D01*
X126319858Y-89676174D01*
X126343750Y-89675000D01*
X127256250Y-89675000D01*
X127280142Y-89676174D01*
X127280142Y-89676174D01*
G37*
D21*
X126800000Y-90162500D03*
D22*
X134500000Y-92805000D03*
X134500000Y-91535000D03*
X134500000Y-90265000D03*
X134500000Y-88995000D03*
X129100000Y-88995000D03*
X129100000Y-90265000D03*
X129100000Y-91535000D03*
X129100000Y-92805000D03*
D17*
G36*
X131740191Y-71826053D02*
G01*
X131761426Y-71829203D01*
X131782250Y-71834419D01*
X131802462Y-71841651D01*
X131821868Y-71850830D01*
X131840281Y-71861866D01*
X131857524Y-71874654D01*
X131873430Y-71889070D01*
X131887846Y-71904976D01*
X131900634Y-71922219D01*
X131911670Y-71940632D01*
X131920849Y-71960038D01*
X131928081Y-71980250D01*
X131933297Y-72001074D01*
X131936447Y-72022309D01*
X131937500Y-72043750D01*
X131937500Y-72556250D01*
X131936447Y-72577691D01*
X131933297Y-72598926D01*
X131928081Y-72619750D01*
X131920849Y-72639962D01*
X131911670Y-72659368D01*
X131900634Y-72677781D01*
X131887846Y-72695024D01*
X131873430Y-72710930D01*
X131857524Y-72725346D01*
X131840281Y-72738134D01*
X131821868Y-72749170D01*
X131802462Y-72758349D01*
X131782250Y-72765581D01*
X131761426Y-72770797D01*
X131740191Y-72773947D01*
X131718750Y-72775000D01*
X131281250Y-72775000D01*
X131259809Y-72773947D01*
X131238574Y-72770797D01*
X131217750Y-72765581D01*
X131197538Y-72758349D01*
X131178132Y-72749170D01*
X131159719Y-72738134D01*
X131142476Y-72725346D01*
X131126570Y-72710930D01*
X131112154Y-72695024D01*
X131099366Y-72677781D01*
X131088330Y-72659368D01*
X131079151Y-72639962D01*
X131071919Y-72619750D01*
X131066703Y-72598926D01*
X131063553Y-72577691D01*
X131062500Y-72556250D01*
X131062500Y-72043750D01*
X131063553Y-72022309D01*
X131066703Y-72001074D01*
X131071919Y-71980250D01*
X131079151Y-71960038D01*
X131088330Y-71940632D01*
X131099366Y-71922219D01*
X131112154Y-71904976D01*
X131126570Y-71889070D01*
X131142476Y-71874654D01*
X131159719Y-71861866D01*
X131178132Y-71850830D01*
X131197538Y-71841651D01*
X131217750Y-71834419D01*
X131238574Y-71829203D01*
X131259809Y-71826053D01*
X131281250Y-71825000D01*
X131718750Y-71825000D01*
X131740191Y-71826053D01*
X131740191Y-71826053D01*
G37*
D23*
X131500000Y-72300000D03*
D17*
G36*
X130165191Y-71826053D02*
G01*
X130186426Y-71829203D01*
X130207250Y-71834419D01*
X130227462Y-71841651D01*
X130246868Y-71850830D01*
X130265281Y-71861866D01*
X130282524Y-71874654D01*
X130298430Y-71889070D01*
X130312846Y-71904976D01*
X130325634Y-71922219D01*
X130336670Y-71940632D01*
X130345849Y-71960038D01*
X130353081Y-71980250D01*
X130358297Y-72001074D01*
X130361447Y-72022309D01*
X130362500Y-72043750D01*
X130362500Y-72556250D01*
X130361447Y-72577691D01*
X130358297Y-72598926D01*
X130353081Y-72619750D01*
X130345849Y-72639962D01*
X130336670Y-72659368D01*
X130325634Y-72677781D01*
X130312846Y-72695024D01*
X130298430Y-72710930D01*
X130282524Y-72725346D01*
X130265281Y-72738134D01*
X130246868Y-72749170D01*
X130227462Y-72758349D01*
X130207250Y-72765581D01*
X130186426Y-72770797D01*
X130165191Y-72773947D01*
X130143750Y-72775000D01*
X129706250Y-72775000D01*
X129684809Y-72773947D01*
X129663574Y-72770797D01*
X129642750Y-72765581D01*
X129622538Y-72758349D01*
X129603132Y-72749170D01*
X129584719Y-72738134D01*
X129567476Y-72725346D01*
X129551570Y-72710930D01*
X129537154Y-72695024D01*
X129524366Y-72677781D01*
X129513330Y-72659368D01*
X129504151Y-72639962D01*
X129496919Y-72619750D01*
X129491703Y-72598926D01*
X129488553Y-72577691D01*
X129487500Y-72556250D01*
X129487500Y-72043750D01*
X129488553Y-72022309D01*
X129491703Y-72001074D01*
X129496919Y-71980250D01*
X129504151Y-71960038D01*
X129513330Y-71940632D01*
X129524366Y-71922219D01*
X129537154Y-71904976D01*
X129551570Y-71889070D01*
X129567476Y-71874654D01*
X129584719Y-71861866D01*
X129603132Y-71850830D01*
X129622538Y-71841651D01*
X129642750Y-71834419D01*
X129663574Y-71829203D01*
X129684809Y-71826053D01*
X129706250Y-71825000D01*
X130143750Y-71825000D01*
X130165191Y-71826053D01*
X130165191Y-71826053D01*
G37*
D23*
X129925000Y-72300000D03*
D17*
G36*
X146877691Y-93176053D02*
G01*
X146898926Y-93179203D01*
X146919750Y-93184419D01*
X146939962Y-93191651D01*
X146959368Y-93200830D01*
X146977781Y-93211866D01*
X146995024Y-93224654D01*
X147010930Y-93239070D01*
X147025346Y-93254976D01*
X147038134Y-93272219D01*
X147049170Y-93290632D01*
X147058349Y-93310038D01*
X147065581Y-93330250D01*
X147070797Y-93351074D01*
X147073947Y-93372309D01*
X147075000Y-93393750D01*
X147075000Y-93831250D01*
X147073947Y-93852691D01*
X147070797Y-93873926D01*
X147065581Y-93894750D01*
X147058349Y-93914962D01*
X147049170Y-93934368D01*
X147038134Y-93952781D01*
X147025346Y-93970024D01*
X147010930Y-93985930D01*
X146995024Y-94000346D01*
X146977781Y-94013134D01*
X146959368Y-94024170D01*
X146939962Y-94033349D01*
X146919750Y-94040581D01*
X146898926Y-94045797D01*
X146877691Y-94048947D01*
X146856250Y-94050000D01*
X146343750Y-94050000D01*
X146322309Y-94048947D01*
X146301074Y-94045797D01*
X146280250Y-94040581D01*
X146260038Y-94033349D01*
X146240632Y-94024170D01*
X146222219Y-94013134D01*
X146204976Y-94000346D01*
X146189070Y-93985930D01*
X146174654Y-93970024D01*
X146161866Y-93952781D01*
X146150830Y-93934368D01*
X146141651Y-93914962D01*
X146134419Y-93894750D01*
X146129203Y-93873926D01*
X146126053Y-93852691D01*
X146125000Y-93831250D01*
X146125000Y-93393750D01*
X146126053Y-93372309D01*
X146129203Y-93351074D01*
X146134419Y-93330250D01*
X146141651Y-93310038D01*
X146150830Y-93290632D01*
X146161866Y-93272219D01*
X146174654Y-93254976D01*
X146189070Y-93239070D01*
X146204976Y-93224654D01*
X146222219Y-93211866D01*
X146240632Y-93200830D01*
X146260038Y-93191651D01*
X146280250Y-93184419D01*
X146301074Y-93179203D01*
X146322309Y-93176053D01*
X146343750Y-93175000D01*
X146856250Y-93175000D01*
X146877691Y-93176053D01*
X146877691Y-93176053D01*
G37*
D23*
X146600000Y-93612500D03*
D17*
G36*
X146877691Y-94751053D02*
G01*
X146898926Y-94754203D01*
X146919750Y-94759419D01*
X146939962Y-94766651D01*
X146959368Y-94775830D01*
X146977781Y-94786866D01*
X146995024Y-94799654D01*
X147010930Y-94814070D01*
X147025346Y-94829976D01*
X147038134Y-94847219D01*
X147049170Y-94865632D01*
X147058349Y-94885038D01*
X147065581Y-94905250D01*
X147070797Y-94926074D01*
X147073947Y-94947309D01*
X147075000Y-94968750D01*
X147075000Y-95406250D01*
X147073947Y-95427691D01*
X147070797Y-95448926D01*
X147065581Y-95469750D01*
X147058349Y-95489962D01*
X147049170Y-95509368D01*
X147038134Y-95527781D01*
X147025346Y-95545024D01*
X147010930Y-95560930D01*
X146995024Y-95575346D01*
X146977781Y-95588134D01*
X146959368Y-95599170D01*
X146939962Y-95608349D01*
X146919750Y-95615581D01*
X146898926Y-95620797D01*
X146877691Y-95623947D01*
X146856250Y-95625000D01*
X146343750Y-95625000D01*
X146322309Y-95623947D01*
X146301074Y-95620797D01*
X146280250Y-95615581D01*
X146260038Y-95608349D01*
X146240632Y-95599170D01*
X146222219Y-95588134D01*
X146204976Y-95575346D01*
X146189070Y-95560930D01*
X146174654Y-95545024D01*
X146161866Y-95527781D01*
X146150830Y-95509368D01*
X146141651Y-95489962D01*
X146134419Y-95469750D01*
X146129203Y-95448926D01*
X146126053Y-95427691D01*
X146125000Y-95406250D01*
X146125000Y-94968750D01*
X146126053Y-94947309D01*
X146129203Y-94926074D01*
X146134419Y-94905250D01*
X146141651Y-94885038D01*
X146150830Y-94865632D01*
X146161866Y-94847219D01*
X146174654Y-94829976D01*
X146189070Y-94814070D01*
X146204976Y-94799654D01*
X146222219Y-94786866D01*
X146240632Y-94775830D01*
X146260038Y-94766651D01*
X146280250Y-94759419D01*
X146301074Y-94754203D01*
X146322309Y-94751053D01*
X146343750Y-94750000D01*
X146856250Y-94750000D01*
X146877691Y-94751053D01*
X146877691Y-94751053D01*
G37*
D23*
X146600000Y-95187500D03*
D17*
G36*
X145377691Y-71463553D02*
G01*
X145398926Y-71466703D01*
X145419750Y-71471919D01*
X145439962Y-71479151D01*
X145459368Y-71488330D01*
X145477781Y-71499366D01*
X145495024Y-71512154D01*
X145510930Y-71526570D01*
X145525346Y-71542476D01*
X145538134Y-71559719D01*
X145549170Y-71578132D01*
X145558349Y-71597538D01*
X145565581Y-71617750D01*
X145570797Y-71638574D01*
X145573947Y-71659809D01*
X145575000Y-71681250D01*
X145575000Y-72118750D01*
X145573947Y-72140191D01*
X145570797Y-72161426D01*
X145565581Y-72182250D01*
X145558349Y-72202462D01*
X145549170Y-72221868D01*
X145538134Y-72240281D01*
X145525346Y-72257524D01*
X145510930Y-72273430D01*
X145495024Y-72287846D01*
X145477781Y-72300634D01*
X145459368Y-72311670D01*
X145439962Y-72320849D01*
X145419750Y-72328081D01*
X145398926Y-72333297D01*
X145377691Y-72336447D01*
X145356250Y-72337500D01*
X144843750Y-72337500D01*
X144822309Y-72336447D01*
X144801074Y-72333297D01*
X144780250Y-72328081D01*
X144760038Y-72320849D01*
X144740632Y-72311670D01*
X144722219Y-72300634D01*
X144704976Y-72287846D01*
X144689070Y-72273430D01*
X144674654Y-72257524D01*
X144661866Y-72240281D01*
X144650830Y-72221868D01*
X144641651Y-72202462D01*
X144634419Y-72182250D01*
X144629203Y-72161426D01*
X144626053Y-72140191D01*
X144625000Y-72118750D01*
X144625000Y-71681250D01*
X144626053Y-71659809D01*
X144629203Y-71638574D01*
X144634419Y-71617750D01*
X144641651Y-71597538D01*
X144650830Y-71578132D01*
X144661866Y-71559719D01*
X144674654Y-71542476D01*
X144689070Y-71526570D01*
X144704976Y-71512154D01*
X144722219Y-71499366D01*
X144740632Y-71488330D01*
X144760038Y-71479151D01*
X144780250Y-71471919D01*
X144801074Y-71466703D01*
X144822309Y-71463553D01*
X144843750Y-71462500D01*
X145356250Y-71462500D01*
X145377691Y-71463553D01*
X145377691Y-71463553D01*
G37*
D23*
X145100000Y-71900000D03*
D17*
G36*
X145377691Y-73038553D02*
G01*
X145398926Y-73041703D01*
X145419750Y-73046919D01*
X145439962Y-73054151D01*
X145459368Y-73063330D01*
X145477781Y-73074366D01*
X145495024Y-73087154D01*
X145510930Y-73101570D01*
X145525346Y-73117476D01*
X145538134Y-73134719D01*
X145549170Y-73153132D01*
X145558349Y-73172538D01*
X145565581Y-73192750D01*
X145570797Y-73213574D01*
X145573947Y-73234809D01*
X145575000Y-73256250D01*
X145575000Y-73693750D01*
X145573947Y-73715191D01*
X145570797Y-73736426D01*
X145565581Y-73757250D01*
X145558349Y-73777462D01*
X145549170Y-73796868D01*
X145538134Y-73815281D01*
X145525346Y-73832524D01*
X145510930Y-73848430D01*
X145495024Y-73862846D01*
X145477781Y-73875634D01*
X145459368Y-73886670D01*
X145439962Y-73895849D01*
X145419750Y-73903081D01*
X145398926Y-73908297D01*
X145377691Y-73911447D01*
X145356250Y-73912500D01*
X144843750Y-73912500D01*
X144822309Y-73911447D01*
X144801074Y-73908297D01*
X144780250Y-73903081D01*
X144760038Y-73895849D01*
X144740632Y-73886670D01*
X144722219Y-73875634D01*
X144704976Y-73862846D01*
X144689070Y-73848430D01*
X144674654Y-73832524D01*
X144661866Y-73815281D01*
X144650830Y-73796868D01*
X144641651Y-73777462D01*
X144634419Y-73757250D01*
X144629203Y-73736426D01*
X144626053Y-73715191D01*
X144625000Y-73693750D01*
X144625000Y-73256250D01*
X144626053Y-73234809D01*
X144629203Y-73213574D01*
X144634419Y-73192750D01*
X144641651Y-73172538D01*
X144650830Y-73153132D01*
X144661866Y-73134719D01*
X144674654Y-73117476D01*
X144689070Y-73101570D01*
X144704976Y-73087154D01*
X144722219Y-73074366D01*
X144740632Y-73063330D01*
X144760038Y-73054151D01*
X144780250Y-73046919D01*
X144801074Y-73041703D01*
X144822309Y-73038553D01*
X144843750Y-73037500D01*
X145356250Y-73037500D01*
X145377691Y-73038553D01*
X145377691Y-73038553D01*
G37*
D23*
X145100000Y-73475000D03*
D17*
G36*
X137177691Y-89076053D02*
G01*
X137198926Y-89079203D01*
X137219750Y-89084419D01*
X137239962Y-89091651D01*
X137259368Y-89100830D01*
X137277781Y-89111866D01*
X137295024Y-89124654D01*
X137310930Y-89139070D01*
X137325346Y-89154976D01*
X137338134Y-89172219D01*
X137349170Y-89190632D01*
X137358349Y-89210038D01*
X137365581Y-89230250D01*
X137370797Y-89251074D01*
X137373947Y-89272309D01*
X137375000Y-89293750D01*
X137375000Y-89731250D01*
X137373947Y-89752691D01*
X137370797Y-89773926D01*
X137365581Y-89794750D01*
X137358349Y-89814962D01*
X137349170Y-89834368D01*
X137338134Y-89852781D01*
X137325346Y-89870024D01*
X137310930Y-89885930D01*
X137295024Y-89900346D01*
X137277781Y-89913134D01*
X137259368Y-89924170D01*
X137239962Y-89933349D01*
X137219750Y-89940581D01*
X137198926Y-89945797D01*
X137177691Y-89948947D01*
X137156250Y-89950000D01*
X136643750Y-89950000D01*
X136622309Y-89948947D01*
X136601074Y-89945797D01*
X136580250Y-89940581D01*
X136560038Y-89933349D01*
X136540632Y-89924170D01*
X136522219Y-89913134D01*
X136504976Y-89900346D01*
X136489070Y-89885930D01*
X136474654Y-89870024D01*
X136461866Y-89852781D01*
X136450830Y-89834368D01*
X136441651Y-89814962D01*
X136434419Y-89794750D01*
X136429203Y-89773926D01*
X136426053Y-89752691D01*
X136425000Y-89731250D01*
X136425000Y-89293750D01*
X136426053Y-89272309D01*
X136429203Y-89251074D01*
X136434419Y-89230250D01*
X136441651Y-89210038D01*
X136450830Y-89190632D01*
X136461866Y-89172219D01*
X136474654Y-89154976D01*
X136489070Y-89139070D01*
X136504976Y-89124654D01*
X136522219Y-89111866D01*
X136540632Y-89100830D01*
X136560038Y-89091651D01*
X136580250Y-89084419D01*
X136601074Y-89079203D01*
X136622309Y-89076053D01*
X136643750Y-89075000D01*
X137156250Y-89075000D01*
X137177691Y-89076053D01*
X137177691Y-89076053D01*
G37*
D23*
X136900000Y-89512500D03*
D17*
G36*
X137177691Y-90651053D02*
G01*
X137198926Y-90654203D01*
X137219750Y-90659419D01*
X137239962Y-90666651D01*
X137259368Y-90675830D01*
X137277781Y-90686866D01*
X137295024Y-90699654D01*
X137310930Y-90714070D01*
X137325346Y-90729976D01*
X137338134Y-90747219D01*
X137349170Y-90765632D01*
X137358349Y-90785038D01*
X137365581Y-90805250D01*
X137370797Y-90826074D01*
X137373947Y-90847309D01*
X137375000Y-90868750D01*
X137375000Y-91306250D01*
X137373947Y-91327691D01*
X137370797Y-91348926D01*
X137365581Y-91369750D01*
X137358349Y-91389962D01*
X137349170Y-91409368D01*
X137338134Y-91427781D01*
X137325346Y-91445024D01*
X137310930Y-91460930D01*
X137295024Y-91475346D01*
X137277781Y-91488134D01*
X137259368Y-91499170D01*
X137239962Y-91508349D01*
X137219750Y-91515581D01*
X137198926Y-91520797D01*
X137177691Y-91523947D01*
X137156250Y-91525000D01*
X136643750Y-91525000D01*
X136622309Y-91523947D01*
X136601074Y-91520797D01*
X136580250Y-91515581D01*
X136560038Y-91508349D01*
X136540632Y-91499170D01*
X136522219Y-91488134D01*
X136504976Y-91475346D01*
X136489070Y-91460930D01*
X136474654Y-91445024D01*
X136461866Y-91427781D01*
X136450830Y-91409368D01*
X136441651Y-91389962D01*
X136434419Y-91369750D01*
X136429203Y-91348926D01*
X136426053Y-91327691D01*
X136425000Y-91306250D01*
X136425000Y-90868750D01*
X136426053Y-90847309D01*
X136429203Y-90826074D01*
X136434419Y-90805250D01*
X136441651Y-90785038D01*
X136450830Y-90765632D01*
X136461866Y-90747219D01*
X136474654Y-90729976D01*
X136489070Y-90714070D01*
X136504976Y-90699654D01*
X136522219Y-90686866D01*
X136540632Y-90675830D01*
X136560038Y-90666651D01*
X136580250Y-90659419D01*
X136601074Y-90654203D01*
X136622309Y-90651053D01*
X136643750Y-90650000D01*
X137156250Y-90650000D01*
X137177691Y-90651053D01*
X137177691Y-90651053D01*
G37*
D23*
X136900000Y-91087500D03*
D17*
G36*
X129627691Y-86526053D02*
G01*
X129648926Y-86529203D01*
X129669750Y-86534419D01*
X129689962Y-86541651D01*
X129709368Y-86550830D01*
X129727781Y-86561866D01*
X129745024Y-86574654D01*
X129760930Y-86589070D01*
X129775346Y-86604976D01*
X129788134Y-86622219D01*
X129799170Y-86640632D01*
X129808349Y-86660038D01*
X129815581Y-86680250D01*
X129820797Y-86701074D01*
X129823947Y-86722309D01*
X129825000Y-86743750D01*
X129825000Y-87256250D01*
X129823947Y-87277691D01*
X129820797Y-87298926D01*
X129815581Y-87319750D01*
X129808349Y-87339962D01*
X129799170Y-87359368D01*
X129788134Y-87377781D01*
X129775346Y-87395024D01*
X129760930Y-87410930D01*
X129745024Y-87425346D01*
X129727781Y-87438134D01*
X129709368Y-87449170D01*
X129689962Y-87458349D01*
X129669750Y-87465581D01*
X129648926Y-87470797D01*
X129627691Y-87473947D01*
X129606250Y-87475000D01*
X129168750Y-87475000D01*
X129147309Y-87473947D01*
X129126074Y-87470797D01*
X129105250Y-87465581D01*
X129085038Y-87458349D01*
X129065632Y-87449170D01*
X129047219Y-87438134D01*
X129029976Y-87425346D01*
X129014070Y-87410930D01*
X128999654Y-87395024D01*
X128986866Y-87377781D01*
X128975830Y-87359368D01*
X128966651Y-87339962D01*
X128959419Y-87319750D01*
X128954203Y-87298926D01*
X128951053Y-87277691D01*
X128950000Y-87256250D01*
X128950000Y-86743750D01*
X128951053Y-86722309D01*
X128954203Y-86701074D01*
X128959419Y-86680250D01*
X128966651Y-86660038D01*
X128975830Y-86640632D01*
X128986866Y-86622219D01*
X128999654Y-86604976D01*
X129014070Y-86589070D01*
X129029976Y-86574654D01*
X129047219Y-86561866D01*
X129065632Y-86550830D01*
X129085038Y-86541651D01*
X129105250Y-86534419D01*
X129126074Y-86529203D01*
X129147309Y-86526053D01*
X129168750Y-86525000D01*
X129606250Y-86525000D01*
X129627691Y-86526053D01*
X129627691Y-86526053D01*
G37*
D23*
X129387500Y-87000000D03*
D17*
G36*
X128052691Y-86526053D02*
G01*
X128073926Y-86529203D01*
X128094750Y-86534419D01*
X128114962Y-86541651D01*
X128134368Y-86550830D01*
X128152781Y-86561866D01*
X128170024Y-86574654D01*
X128185930Y-86589070D01*
X128200346Y-86604976D01*
X128213134Y-86622219D01*
X128224170Y-86640632D01*
X128233349Y-86660038D01*
X128240581Y-86680250D01*
X128245797Y-86701074D01*
X128248947Y-86722309D01*
X128250000Y-86743750D01*
X128250000Y-87256250D01*
X128248947Y-87277691D01*
X128245797Y-87298926D01*
X128240581Y-87319750D01*
X128233349Y-87339962D01*
X128224170Y-87359368D01*
X128213134Y-87377781D01*
X128200346Y-87395024D01*
X128185930Y-87410930D01*
X128170024Y-87425346D01*
X128152781Y-87438134D01*
X128134368Y-87449170D01*
X128114962Y-87458349D01*
X128094750Y-87465581D01*
X128073926Y-87470797D01*
X128052691Y-87473947D01*
X128031250Y-87475000D01*
X127593750Y-87475000D01*
X127572309Y-87473947D01*
X127551074Y-87470797D01*
X127530250Y-87465581D01*
X127510038Y-87458349D01*
X127490632Y-87449170D01*
X127472219Y-87438134D01*
X127454976Y-87425346D01*
X127439070Y-87410930D01*
X127424654Y-87395024D01*
X127411866Y-87377781D01*
X127400830Y-87359368D01*
X127391651Y-87339962D01*
X127384419Y-87319750D01*
X127379203Y-87298926D01*
X127376053Y-87277691D01*
X127375000Y-87256250D01*
X127375000Y-86743750D01*
X127376053Y-86722309D01*
X127379203Y-86701074D01*
X127384419Y-86680250D01*
X127391651Y-86660038D01*
X127400830Y-86640632D01*
X127411866Y-86622219D01*
X127424654Y-86604976D01*
X127439070Y-86589070D01*
X127454976Y-86574654D01*
X127472219Y-86561866D01*
X127490632Y-86550830D01*
X127510038Y-86541651D01*
X127530250Y-86534419D01*
X127551074Y-86529203D01*
X127572309Y-86526053D01*
X127593750Y-86525000D01*
X128031250Y-86525000D01*
X128052691Y-86526053D01*
X128052691Y-86526053D01*
G37*
D23*
X127812500Y-87000000D03*
D17*
G36*
X136377691Y-72951053D02*
G01*
X136398926Y-72954203D01*
X136419750Y-72959419D01*
X136439962Y-72966651D01*
X136459368Y-72975830D01*
X136477781Y-72986866D01*
X136495024Y-72999654D01*
X136510930Y-73014070D01*
X136525346Y-73029976D01*
X136538134Y-73047219D01*
X136549170Y-73065632D01*
X136558349Y-73085038D01*
X136565581Y-73105250D01*
X136570797Y-73126074D01*
X136573947Y-73147309D01*
X136575000Y-73168750D01*
X136575000Y-73606250D01*
X136573947Y-73627691D01*
X136570797Y-73648926D01*
X136565581Y-73669750D01*
X136558349Y-73689962D01*
X136549170Y-73709368D01*
X136538134Y-73727781D01*
X136525346Y-73745024D01*
X136510930Y-73760930D01*
X136495024Y-73775346D01*
X136477781Y-73788134D01*
X136459368Y-73799170D01*
X136439962Y-73808349D01*
X136419750Y-73815581D01*
X136398926Y-73820797D01*
X136377691Y-73823947D01*
X136356250Y-73825000D01*
X135843750Y-73825000D01*
X135822309Y-73823947D01*
X135801074Y-73820797D01*
X135780250Y-73815581D01*
X135760038Y-73808349D01*
X135740632Y-73799170D01*
X135722219Y-73788134D01*
X135704976Y-73775346D01*
X135689070Y-73760930D01*
X135674654Y-73745024D01*
X135661866Y-73727781D01*
X135650830Y-73709368D01*
X135641651Y-73689962D01*
X135634419Y-73669750D01*
X135629203Y-73648926D01*
X135626053Y-73627691D01*
X135625000Y-73606250D01*
X135625000Y-73168750D01*
X135626053Y-73147309D01*
X135629203Y-73126074D01*
X135634419Y-73105250D01*
X135641651Y-73085038D01*
X135650830Y-73065632D01*
X135661866Y-73047219D01*
X135674654Y-73029976D01*
X135689070Y-73014070D01*
X135704976Y-72999654D01*
X135722219Y-72986866D01*
X135740632Y-72975830D01*
X135760038Y-72966651D01*
X135780250Y-72959419D01*
X135801074Y-72954203D01*
X135822309Y-72951053D01*
X135843750Y-72950000D01*
X136356250Y-72950000D01*
X136377691Y-72951053D01*
X136377691Y-72951053D01*
G37*
D23*
X136100000Y-73387500D03*
D17*
G36*
X136377691Y-71376053D02*
G01*
X136398926Y-71379203D01*
X136419750Y-71384419D01*
X136439962Y-71391651D01*
X136459368Y-71400830D01*
X136477781Y-71411866D01*
X136495024Y-71424654D01*
X136510930Y-71439070D01*
X136525346Y-71454976D01*
X136538134Y-71472219D01*
X136549170Y-71490632D01*
X136558349Y-71510038D01*
X136565581Y-71530250D01*
X136570797Y-71551074D01*
X136573947Y-71572309D01*
X136575000Y-71593750D01*
X136575000Y-72031250D01*
X136573947Y-72052691D01*
X136570797Y-72073926D01*
X136565581Y-72094750D01*
X136558349Y-72114962D01*
X136549170Y-72134368D01*
X136538134Y-72152781D01*
X136525346Y-72170024D01*
X136510930Y-72185930D01*
X136495024Y-72200346D01*
X136477781Y-72213134D01*
X136459368Y-72224170D01*
X136439962Y-72233349D01*
X136419750Y-72240581D01*
X136398926Y-72245797D01*
X136377691Y-72248947D01*
X136356250Y-72250000D01*
X135843750Y-72250000D01*
X135822309Y-72248947D01*
X135801074Y-72245797D01*
X135780250Y-72240581D01*
X135760038Y-72233349D01*
X135740632Y-72224170D01*
X135722219Y-72213134D01*
X135704976Y-72200346D01*
X135689070Y-72185930D01*
X135674654Y-72170024D01*
X135661866Y-72152781D01*
X135650830Y-72134368D01*
X135641651Y-72114962D01*
X135634419Y-72094750D01*
X135629203Y-72073926D01*
X135626053Y-72052691D01*
X135625000Y-72031250D01*
X135625000Y-71593750D01*
X135626053Y-71572309D01*
X135629203Y-71551074D01*
X135634419Y-71530250D01*
X135641651Y-71510038D01*
X135650830Y-71490632D01*
X135661866Y-71472219D01*
X135674654Y-71454976D01*
X135689070Y-71439070D01*
X135704976Y-71424654D01*
X135722219Y-71411866D01*
X135740632Y-71400830D01*
X135760038Y-71391651D01*
X135780250Y-71384419D01*
X135801074Y-71379203D01*
X135822309Y-71376053D01*
X135843750Y-71375000D01*
X136356250Y-71375000D01*
X136377691Y-71376053D01*
X136377691Y-71376053D01*
G37*
D23*
X136100000Y-71812500D03*
D17*
G36*
X143477691Y-71476053D02*
G01*
X143498926Y-71479203D01*
X143519750Y-71484419D01*
X143539962Y-71491651D01*
X143559368Y-71500830D01*
X143577781Y-71511866D01*
X143595024Y-71524654D01*
X143610930Y-71539070D01*
X143625346Y-71554976D01*
X143638134Y-71572219D01*
X143649170Y-71590632D01*
X143658349Y-71610038D01*
X143665581Y-71630250D01*
X143670797Y-71651074D01*
X143673947Y-71672309D01*
X143675000Y-71693750D01*
X143675000Y-72131250D01*
X143673947Y-72152691D01*
X143670797Y-72173926D01*
X143665581Y-72194750D01*
X143658349Y-72214962D01*
X143649170Y-72234368D01*
X143638134Y-72252781D01*
X143625346Y-72270024D01*
X143610930Y-72285930D01*
X143595024Y-72300346D01*
X143577781Y-72313134D01*
X143559368Y-72324170D01*
X143539962Y-72333349D01*
X143519750Y-72340581D01*
X143498926Y-72345797D01*
X143477691Y-72348947D01*
X143456250Y-72350000D01*
X142943750Y-72350000D01*
X142922309Y-72348947D01*
X142901074Y-72345797D01*
X142880250Y-72340581D01*
X142860038Y-72333349D01*
X142840632Y-72324170D01*
X142822219Y-72313134D01*
X142804976Y-72300346D01*
X142789070Y-72285930D01*
X142774654Y-72270024D01*
X142761866Y-72252781D01*
X142750830Y-72234368D01*
X142741651Y-72214962D01*
X142734419Y-72194750D01*
X142729203Y-72173926D01*
X142726053Y-72152691D01*
X142725000Y-72131250D01*
X142725000Y-71693750D01*
X142726053Y-71672309D01*
X142729203Y-71651074D01*
X142734419Y-71630250D01*
X142741651Y-71610038D01*
X142750830Y-71590632D01*
X142761866Y-71572219D01*
X142774654Y-71554976D01*
X142789070Y-71539070D01*
X142804976Y-71524654D01*
X142822219Y-71511866D01*
X142840632Y-71500830D01*
X142860038Y-71491651D01*
X142880250Y-71484419D01*
X142901074Y-71479203D01*
X142922309Y-71476053D01*
X142943750Y-71475000D01*
X143456250Y-71475000D01*
X143477691Y-71476053D01*
X143477691Y-71476053D01*
G37*
D23*
X143200000Y-71912500D03*
D17*
G36*
X143477691Y-73051053D02*
G01*
X143498926Y-73054203D01*
X143519750Y-73059419D01*
X143539962Y-73066651D01*
X143559368Y-73075830D01*
X143577781Y-73086866D01*
X143595024Y-73099654D01*
X143610930Y-73114070D01*
X143625346Y-73129976D01*
X143638134Y-73147219D01*
X143649170Y-73165632D01*
X143658349Y-73185038D01*
X143665581Y-73205250D01*
X143670797Y-73226074D01*
X143673947Y-73247309D01*
X143675000Y-73268750D01*
X143675000Y-73706250D01*
X143673947Y-73727691D01*
X143670797Y-73748926D01*
X143665581Y-73769750D01*
X143658349Y-73789962D01*
X143649170Y-73809368D01*
X143638134Y-73827781D01*
X143625346Y-73845024D01*
X143610930Y-73860930D01*
X143595024Y-73875346D01*
X143577781Y-73888134D01*
X143559368Y-73899170D01*
X143539962Y-73908349D01*
X143519750Y-73915581D01*
X143498926Y-73920797D01*
X143477691Y-73923947D01*
X143456250Y-73925000D01*
X142943750Y-73925000D01*
X142922309Y-73923947D01*
X142901074Y-73920797D01*
X142880250Y-73915581D01*
X142860038Y-73908349D01*
X142840632Y-73899170D01*
X142822219Y-73888134D01*
X142804976Y-73875346D01*
X142789070Y-73860930D01*
X142774654Y-73845024D01*
X142761866Y-73827781D01*
X142750830Y-73809368D01*
X142741651Y-73789962D01*
X142734419Y-73769750D01*
X142729203Y-73748926D01*
X142726053Y-73727691D01*
X142725000Y-73706250D01*
X142725000Y-73268750D01*
X142726053Y-73247309D01*
X142729203Y-73226074D01*
X142734419Y-73205250D01*
X142741651Y-73185038D01*
X142750830Y-73165632D01*
X142761866Y-73147219D01*
X142774654Y-73129976D01*
X142789070Y-73114070D01*
X142804976Y-73099654D01*
X142822219Y-73086866D01*
X142840632Y-73075830D01*
X142860038Y-73066651D01*
X142880250Y-73059419D01*
X142901074Y-73054203D01*
X142922309Y-73051053D01*
X142943750Y-73050000D01*
X143456250Y-73050000D01*
X143477691Y-73051053D01*
X143477691Y-73051053D01*
G37*
D23*
X143200000Y-73487500D03*
D24*
X134100000Y-102500000D03*
D25*
X130850000Y-103500000D03*
D24*
X134100000Y-104500000D03*
M02*
