G04 #@! TF.GenerationSoftware,KiCad,Pcbnew,5.1.0*
G04 #@! TF.CreationDate,2019-05-01T02:44:57+08:00*
G04 #@! TF.ProjectId,reflow-toaster-mainboard,7265666c-6f77-42d7-946f-61737465722d,rev?*
G04 #@! TF.SameCoordinates,Original*
G04 #@! TF.FileFunction,Legend,Top*
G04 #@! TF.FilePolarity,Positive*
%FSLAX46Y46*%
G04 Gerber Fmt 4.6, Leading zero omitted, Abs format (unit mm)*
G04 Created by KiCad (PCBNEW 5.1.0) date 2019-05-01 02:44:57*
%MOMM*%
%LPD*%
G04 APERTURE LIST*
%ADD10C,0.150000*%
%ADD11C,0.120000*%
G04 APERTURE END LIST*
D10*
X166052380Y-99147619D02*
X166861904Y-99147619D01*
X166957142Y-99100000D01*
X167004761Y-99052380D01*
X167052380Y-98957142D01*
X167052380Y-98766666D01*
X167004761Y-98671428D01*
X166957142Y-98623809D01*
X166861904Y-98576190D01*
X166052380Y-98576190D01*
X167004761Y-98147619D02*
X167052380Y-98004761D01*
X167052380Y-97766666D01*
X167004761Y-97671428D01*
X166957142Y-97623809D01*
X166861904Y-97576190D01*
X166766666Y-97576190D01*
X166671428Y-97623809D01*
X166623809Y-97671428D01*
X166576190Y-97766666D01*
X166528571Y-97957142D01*
X166480952Y-98052380D01*
X166433333Y-98100000D01*
X166338095Y-98147619D01*
X166242857Y-98147619D01*
X166147619Y-98100000D01*
X166100000Y-98052380D01*
X166052380Y-97957142D01*
X166052380Y-97719047D01*
X166100000Y-97576190D01*
X166766666Y-97195238D02*
X166766666Y-96719047D01*
X167052380Y-97290476D02*
X166052380Y-96957142D01*
X167052380Y-96623809D01*
X167052380Y-95719047D02*
X166576190Y-96052380D01*
X167052380Y-96290476D02*
X166052380Y-96290476D01*
X166052380Y-95909523D01*
X166100000Y-95814285D01*
X166147619Y-95766666D01*
X166242857Y-95719047D01*
X166385714Y-95719047D01*
X166480952Y-95766666D01*
X166528571Y-95814285D01*
X166576190Y-95909523D01*
X166576190Y-96290476D01*
X166052380Y-95433333D02*
X166052380Y-94861904D01*
X167052380Y-95147619D02*
X166052380Y-95147619D01*
X167052380Y-94004761D02*
X167052380Y-94576190D01*
X167052380Y-94290476D02*
X166052380Y-94290476D01*
X166195238Y-94385714D01*
X166290476Y-94480952D01*
X166338095Y-94576190D01*
X163552380Y-101266666D02*
X163076190Y-101600000D01*
X163552380Y-101838095D02*
X162552380Y-101838095D01*
X162552380Y-101457142D01*
X162600000Y-101361904D01*
X162647619Y-101314285D01*
X162742857Y-101266666D01*
X162885714Y-101266666D01*
X162980952Y-101314285D01*
X163028571Y-101361904D01*
X163076190Y-101457142D01*
X163076190Y-101838095D01*
X162552380Y-100933333D02*
X163552380Y-100266666D01*
X162552380Y-100266666D02*
X163552380Y-100933333D01*
X164452380Y-101761904D02*
X164452380Y-101190476D01*
X165452380Y-101476190D02*
X164452380Y-101476190D01*
X164452380Y-100952380D02*
X165452380Y-100285714D01*
X164452380Y-100285714D02*
X165452380Y-100952380D01*
X129509523Y-74352380D02*
X129509523Y-73352380D01*
X129890476Y-73352380D01*
X129985714Y-73400000D01*
X130033333Y-73447619D01*
X130080952Y-73542857D01*
X130080952Y-73685714D01*
X130033333Y-73780952D01*
X129985714Y-73828571D01*
X129890476Y-73876190D01*
X129509523Y-73876190D01*
X130509523Y-73828571D02*
X130842857Y-73828571D01*
X130985714Y-74352380D02*
X130509523Y-74352380D01*
X130509523Y-73352380D01*
X130985714Y-73352380D01*
X131890476Y-73352380D02*
X131414285Y-73352380D01*
X131366666Y-73828571D01*
X131414285Y-73780952D01*
X131509523Y-73733333D01*
X131747619Y-73733333D01*
X131842857Y-73780952D01*
X131890476Y-73828571D01*
X131938095Y-73923809D01*
X131938095Y-74161904D01*
X131890476Y-74257142D01*
X131842857Y-74304761D01*
X131747619Y-74352380D01*
X131509523Y-74352380D01*
X131414285Y-74304761D01*
X131366666Y-74257142D01*
X134571428Y-97080952D02*
X134571428Y-96319047D01*
X134571428Y-99080952D02*
X134571428Y-98319047D01*
X134952380Y-98700000D02*
X134190476Y-98700000D01*
X125704761Y-98385714D02*
X125752380Y-98242857D01*
X125752380Y-98004761D01*
X125704761Y-97909523D01*
X125657142Y-97861904D01*
X125561904Y-97814285D01*
X125466666Y-97814285D01*
X125371428Y-97861904D01*
X125323809Y-97909523D01*
X125276190Y-98004761D01*
X125228571Y-98195238D01*
X125180952Y-98290476D01*
X125133333Y-98338095D01*
X125038095Y-98385714D01*
X124942857Y-98385714D01*
X124847619Y-98338095D01*
X124800000Y-98290476D01*
X124752380Y-98195238D01*
X124752380Y-97957142D01*
X124800000Y-97814285D01*
X125752380Y-97385714D02*
X124752380Y-97385714D01*
X124752380Y-97004761D01*
X124800000Y-96909523D01*
X124847619Y-96861904D01*
X124942857Y-96814285D01*
X125085714Y-96814285D01*
X125180952Y-96861904D01*
X125228571Y-96909523D01*
X125276190Y-97004761D01*
X125276190Y-97385714D01*
X125752380Y-96385714D02*
X124752380Y-96385714D01*
X125752380Y-95814285D02*
X125180952Y-96242857D01*
X124752380Y-95814285D02*
X125323809Y-96385714D01*
X125752380Y-94814285D02*
X125276190Y-95147619D01*
X125752380Y-95385714D02*
X124752380Y-95385714D01*
X124752380Y-95004761D01*
X124800000Y-94909523D01*
X124847619Y-94861904D01*
X124942857Y-94814285D01*
X125085714Y-94814285D01*
X125180952Y-94861904D01*
X125228571Y-94909523D01*
X125276190Y-95004761D01*
X125276190Y-95385714D01*
X127000000Y-62661904D02*
X126952380Y-62757142D01*
X126952380Y-62900000D01*
X127000000Y-63042857D01*
X127095238Y-63138095D01*
X127190476Y-63185714D01*
X127380952Y-63233333D01*
X127523809Y-63233333D01*
X127714285Y-63185714D01*
X127809523Y-63138095D01*
X127904761Y-63042857D01*
X127952380Y-62900000D01*
X127952380Y-62804761D01*
X127904761Y-62661904D01*
X127857142Y-62614285D01*
X127523809Y-62614285D01*
X127523809Y-62804761D01*
X127952380Y-62185714D02*
X126952380Y-62185714D01*
X127952380Y-61614285D01*
X126952380Y-61614285D01*
X127952380Y-61138095D02*
X126952380Y-61138095D01*
X126952380Y-60900000D01*
X127000000Y-60757142D01*
X127095238Y-60661904D01*
X127190476Y-60614285D01*
X127380952Y-60566666D01*
X127523809Y-60566666D01*
X127714285Y-60614285D01*
X127809523Y-60661904D01*
X127904761Y-60757142D01*
X127952380Y-60900000D01*
X127952380Y-61138095D01*
X129452380Y-63090476D02*
X129452380Y-63566666D01*
X129928571Y-63614285D01*
X129880952Y-63566666D01*
X129833333Y-63471428D01*
X129833333Y-63233333D01*
X129880952Y-63138095D01*
X129928571Y-63090476D01*
X130023809Y-63042857D01*
X130261904Y-63042857D01*
X130357142Y-63090476D01*
X130404761Y-63138095D01*
X130452380Y-63233333D01*
X130452380Y-63471428D01*
X130404761Y-63566666D01*
X130357142Y-63614285D01*
X129452380Y-62757142D02*
X130452380Y-62423809D01*
X129452380Y-62090476D01*
X130452380Y-61757142D02*
X129452380Y-61757142D01*
X129452380Y-61519047D01*
X129500000Y-61376190D01*
X129595238Y-61280952D01*
X129690476Y-61233333D01*
X129880952Y-61185714D01*
X130023809Y-61185714D01*
X130214285Y-61233333D01*
X130309523Y-61280952D01*
X130404761Y-61376190D01*
X130452380Y-61519047D01*
X130452380Y-61757142D01*
X130357142Y-60185714D02*
X130404761Y-60233333D01*
X130452380Y-60376190D01*
X130452380Y-60471428D01*
X130404761Y-60614285D01*
X130309523Y-60709523D01*
X130214285Y-60757142D01*
X130023809Y-60804761D01*
X129880952Y-60804761D01*
X129690476Y-60757142D01*
X129595238Y-60709523D01*
X129500000Y-60614285D01*
X129452380Y-60471428D01*
X129452380Y-60376190D01*
X129500000Y-60233333D01*
X129547619Y-60185714D01*
X132952380Y-63304761D02*
X131952380Y-63304761D01*
X131952380Y-62923809D01*
X132000000Y-62828571D01*
X132047619Y-62780952D01*
X132142857Y-62733333D01*
X132285714Y-62733333D01*
X132380952Y-62780952D01*
X132428571Y-62828571D01*
X132476190Y-62923809D01*
X132476190Y-63304761D01*
X131952380Y-62400000D02*
X132952380Y-62161904D01*
X132238095Y-61971428D01*
X132952380Y-61780952D01*
X131952380Y-61542857D01*
X132952380Y-61161904D02*
X131952380Y-61161904D01*
X132666666Y-60828571D01*
X131952380Y-60495238D01*
X132952380Y-60495238D01*
X135500000Y-62361904D02*
X135452380Y-62457142D01*
X135452380Y-62600000D01*
X135500000Y-62742857D01*
X135595238Y-62838095D01*
X135690476Y-62885714D01*
X135880952Y-62933333D01*
X136023809Y-62933333D01*
X136214285Y-62885714D01*
X136309523Y-62838095D01*
X136404761Y-62742857D01*
X136452380Y-62600000D01*
X136452380Y-62504761D01*
X136404761Y-62361904D01*
X136357142Y-62314285D01*
X136023809Y-62314285D01*
X136023809Y-62504761D01*
X136452380Y-61885714D02*
X135452380Y-61885714D01*
X136452380Y-61314285D01*
X135452380Y-61314285D01*
X136452380Y-60838095D02*
X135452380Y-60838095D01*
X135452380Y-60600000D01*
X135500000Y-60457142D01*
X135595238Y-60361904D01*
X135690476Y-60314285D01*
X135880952Y-60266666D01*
X136023809Y-60266666D01*
X136214285Y-60314285D01*
X136309523Y-60361904D01*
X136404761Y-60457142D01*
X136452380Y-60600000D01*
X136452380Y-60838095D01*
X138952380Y-63242857D02*
X137952380Y-63242857D01*
X138952380Y-62671428D01*
X137952380Y-62671428D01*
X138952380Y-61623809D02*
X138476190Y-61957142D01*
X138952380Y-62195238D02*
X137952380Y-62195238D01*
X137952380Y-61814285D01*
X138000000Y-61719047D01*
X138047619Y-61671428D01*
X138142857Y-61623809D01*
X138285714Y-61623809D01*
X138380952Y-61671428D01*
X138428571Y-61719047D01*
X138476190Y-61814285D01*
X138476190Y-62195238D01*
X138904761Y-61242857D02*
X138952380Y-61100000D01*
X138952380Y-60861904D01*
X138904761Y-60766666D01*
X138857142Y-60719047D01*
X138761904Y-60671428D01*
X138666666Y-60671428D01*
X138571428Y-60719047D01*
X138523809Y-60766666D01*
X138476190Y-60861904D01*
X138428571Y-61052380D01*
X138380952Y-61147619D01*
X138333333Y-61195238D01*
X138238095Y-61242857D01*
X138142857Y-61242857D01*
X138047619Y-61195238D01*
X138000000Y-61147619D01*
X137952380Y-61052380D01*
X137952380Y-60814285D01*
X138000000Y-60671428D01*
X137952380Y-60385714D02*
X137952380Y-59814285D01*
X138952380Y-60100000D02*
X137952380Y-60100000D01*
X140452380Y-64076190D02*
X140452380Y-63457142D01*
X140833333Y-63790476D01*
X140833333Y-63647619D01*
X140880952Y-63552380D01*
X140928571Y-63504761D01*
X141023809Y-63457142D01*
X141261904Y-63457142D01*
X141357142Y-63504761D01*
X141404761Y-63552380D01*
X141452380Y-63647619D01*
X141452380Y-63933333D01*
X141404761Y-64028571D01*
X141357142Y-64076190D01*
X141357142Y-63028571D02*
X141404761Y-62980952D01*
X141452380Y-63028571D01*
X141404761Y-63076190D01*
X141357142Y-63028571D01*
X141452380Y-63028571D01*
X140452380Y-62647619D02*
X140452380Y-62028571D01*
X140833333Y-62361904D01*
X140833333Y-62219047D01*
X140880952Y-62123809D01*
X140928571Y-62076190D01*
X141023809Y-62028571D01*
X141261904Y-62028571D01*
X141357142Y-62076190D01*
X141404761Y-62123809D01*
X141452380Y-62219047D01*
X141452380Y-62504761D01*
X141404761Y-62600000D01*
X141357142Y-62647619D01*
X140452380Y-61742857D02*
X141452380Y-61409523D01*
X140452380Y-61076190D01*
X141452380Y-60742857D02*
X140452380Y-60742857D01*
X140452380Y-60504761D01*
X140500000Y-60361904D01*
X140595238Y-60266666D01*
X140690476Y-60219047D01*
X140880952Y-60171428D01*
X141023809Y-60171428D01*
X141214285Y-60219047D01*
X141309523Y-60266666D01*
X141404761Y-60361904D01*
X141452380Y-60504761D01*
X141452380Y-60742857D01*
X141357142Y-59171428D02*
X141404761Y-59219047D01*
X141452380Y-59361904D01*
X141452380Y-59457142D01*
X141404761Y-59600000D01*
X141309523Y-59695238D01*
X141214285Y-59742857D01*
X141023809Y-59790476D01*
X140880952Y-59790476D01*
X140690476Y-59742857D01*
X140595238Y-59695238D01*
X140500000Y-59600000D01*
X140452380Y-59457142D01*
X140452380Y-59361904D01*
X140500000Y-59219047D01*
X140547619Y-59171428D01*
X144004761Y-63861904D02*
X144052380Y-63719047D01*
X144052380Y-63480952D01*
X144004761Y-63385714D01*
X143957142Y-63338095D01*
X143861904Y-63290476D01*
X143766666Y-63290476D01*
X143671428Y-63338095D01*
X143623809Y-63385714D01*
X143576190Y-63480952D01*
X143528571Y-63671428D01*
X143480952Y-63766666D01*
X143433333Y-63814285D01*
X143338095Y-63861904D01*
X143242857Y-63861904D01*
X143147619Y-63814285D01*
X143100000Y-63766666D01*
X143052380Y-63671428D01*
X143052380Y-63433333D01*
X143100000Y-63290476D01*
X143052380Y-62957142D02*
X144052380Y-62719047D01*
X143338095Y-62528571D01*
X144052380Y-62338095D01*
X143052380Y-62100000D01*
X143957142Y-61147619D02*
X144004761Y-61195238D01*
X144052380Y-61338095D01*
X144052380Y-61433333D01*
X144004761Y-61576190D01*
X143909523Y-61671428D01*
X143814285Y-61719047D01*
X143623809Y-61766666D01*
X143480952Y-61766666D01*
X143290476Y-61719047D01*
X143195238Y-61671428D01*
X143100000Y-61576190D01*
X143052380Y-61433333D01*
X143052380Y-61338095D01*
X143100000Y-61195238D01*
X143147619Y-61147619D01*
X144052380Y-60242857D02*
X144052380Y-60719047D01*
X143052380Y-60719047D01*
X144052380Y-59909523D02*
X143052380Y-59909523D01*
X144052380Y-59338095D02*
X143480952Y-59766666D01*
X143052380Y-59338095D02*
X143623809Y-59909523D01*
X146504761Y-63719047D02*
X146552380Y-63576190D01*
X146552380Y-63338095D01*
X146504761Y-63242857D01*
X146457142Y-63195238D01*
X146361904Y-63147619D01*
X146266666Y-63147619D01*
X146171428Y-63195238D01*
X146123809Y-63242857D01*
X146076190Y-63338095D01*
X146028571Y-63528571D01*
X145980952Y-63623809D01*
X145933333Y-63671428D01*
X145838095Y-63719047D01*
X145742857Y-63719047D01*
X145647619Y-63671428D01*
X145600000Y-63623809D01*
X145552380Y-63528571D01*
X145552380Y-63290476D01*
X145600000Y-63147619D01*
X145552380Y-62814285D02*
X146552380Y-62576190D01*
X145838095Y-62385714D01*
X146552380Y-62195238D01*
X145552380Y-61957142D01*
X146552380Y-61576190D02*
X145552380Y-61576190D01*
X145552380Y-61338095D01*
X145600000Y-61195238D01*
X145695238Y-61100000D01*
X145790476Y-61052380D01*
X145980952Y-61004761D01*
X146123809Y-61004761D01*
X146314285Y-61052380D01*
X146409523Y-61100000D01*
X146504761Y-61195238D01*
X146552380Y-61338095D01*
X146552380Y-61576190D01*
X146552380Y-60576190D02*
X145552380Y-60576190D01*
X145552380Y-59909523D02*
X145552380Y-59719047D01*
X145600000Y-59623809D01*
X145695238Y-59528571D01*
X145885714Y-59480952D01*
X146219047Y-59480952D01*
X146409523Y-59528571D01*
X146504761Y-59623809D01*
X146552380Y-59719047D01*
X146552380Y-59909523D01*
X146504761Y-60004761D01*
X146409523Y-60100000D01*
X146219047Y-60147619D01*
X145885714Y-60147619D01*
X145695238Y-60100000D01*
X145600000Y-60004761D01*
X145552380Y-59909523D01*
X165552380Y-67880952D02*
X164552380Y-67880952D01*
X165552380Y-67309523D02*
X164980952Y-67738095D01*
X164552380Y-67309523D02*
X165123809Y-67880952D01*
X165171428Y-66880952D02*
X165171428Y-66119047D01*
X162952380Y-67880952D02*
X161952380Y-67880952D01*
X162952380Y-67309523D02*
X162380952Y-67738095D01*
X161952380Y-67309523D02*
X162523809Y-67880952D01*
X162571428Y-66880952D02*
X162571428Y-66119047D01*
X162952380Y-66500000D02*
X162190476Y-66500000D01*
X158004761Y-63480952D02*
X158052380Y-63338095D01*
X158052380Y-63100000D01*
X158004761Y-63004761D01*
X157957142Y-62957142D01*
X157861904Y-62909523D01*
X157766666Y-62909523D01*
X157671428Y-62957142D01*
X157623809Y-63004761D01*
X157576190Y-63100000D01*
X157528571Y-63290476D01*
X157480952Y-63385714D01*
X157433333Y-63433333D01*
X157338095Y-63480952D01*
X157242857Y-63480952D01*
X157147619Y-63433333D01*
X157100000Y-63385714D01*
X157052380Y-63290476D01*
X157052380Y-63052380D01*
X157100000Y-62909523D01*
X158004761Y-62528571D02*
X158052380Y-62385714D01*
X158052380Y-62147619D01*
X158004761Y-62052380D01*
X157957142Y-62004761D01*
X157861904Y-61957142D01*
X157766666Y-61957142D01*
X157671428Y-62004761D01*
X157623809Y-62052380D01*
X157576190Y-62147619D01*
X157528571Y-62338095D01*
X157480952Y-62433333D01*
X157433333Y-62480952D01*
X157338095Y-62528571D01*
X157242857Y-62528571D01*
X157147619Y-62480952D01*
X157100000Y-62433333D01*
X157052380Y-62338095D01*
X157052380Y-62100000D01*
X157100000Y-61957142D01*
X158052380Y-60957142D02*
X157576190Y-61290476D01*
X158052380Y-61528571D02*
X157052380Y-61528571D01*
X157052380Y-61147619D01*
X157100000Y-61052380D01*
X157147619Y-61004761D01*
X157242857Y-60957142D01*
X157385714Y-60957142D01*
X157480952Y-61004761D01*
X157528571Y-61052380D01*
X157576190Y-61147619D01*
X157576190Y-61528571D01*
X157671428Y-60528571D02*
X157671428Y-59766666D01*
X158052380Y-60147619D02*
X157290476Y-60147619D01*
X155504761Y-63380952D02*
X155552380Y-63238095D01*
X155552380Y-63000000D01*
X155504761Y-62904761D01*
X155457142Y-62857142D01*
X155361904Y-62809523D01*
X155266666Y-62809523D01*
X155171428Y-62857142D01*
X155123809Y-62904761D01*
X155076190Y-63000000D01*
X155028571Y-63190476D01*
X154980952Y-63285714D01*
X154933333Y-63333333D01*
X154838095Y-63380952D01*
X154742857Y-63380952D01*
X154647619Y-63333333D01*
X154600000Y-63285714D01*
X154552380Y-63190476D01*
X154552380Y-62952380D01*
X154600000Y-62809523D01*
X155504761Y-62428571D02*
X155552380Y-62285714D01*
X155552380Y-62047619D01*
X155504761Y-61952380D01*
X155457142Y-61904761D01*
X155361904Y-61857142D01*
X155266666Y-61857142D01*
X155171428Y-61904761D01*
X155123809Y-61952380D01*
X155076190Y-62047619D01*
X155028571Y-62238095D01*
X154980952Y-62333333D01*
X154933333Y-62380952D01*
X154838095Y-62428571D01*
X154742857Y-62428571D01*
X154647619Y-62380952D01*
X154600000Y-62333333D01*
X154552380Y-62238095D01*
X154552380Y-62000000D01*
X154600000Y-61857142D01*
X155552380Y-60857142D02*
X155076190Y-61190476D01*
X155552380Y-61428571D02*
X154552380Y-61428571D01*
X154552380Y-61047619D01*
X154600000Y-60952380D01*
X154647619Y-60904761D01*
X154742857Y-60857142D01*
X154885714Y-60857142D01*
X154980952Y-60904761D01*
X155028571Y-60952380D01*
X155076190Y-61047619D01*
X155076190Y-61428571D01*
X155171428Y-60428571D02*
X155171428Y-59666666D01*
X151952380Y-62690476D02*
X151952380Y-63166666D01*
X152428571Y-63214285D01*
X152380952Y-63166666D01*
X152333333Y-63071428D01*
X152333333Y-62833333D01*
X152380952Y-62738095D01*
X152428571Y-62690476D01*
X152523809Y-62642857D01*
X152761904Y-62642857D01*
X152857142Y-62690476D01*
X152904761Y-62738095D01*
X152952380Y-62833333D01*
X152952380Y-63071428D01*
X152904761Y-63166666D01*
X152857142Y-63214285D01*
X151952380Y-62357142D02*
X152952380Y-62023809D01*
X151952380Y-61690476D01*
X152952380Y-61357142D02*
X151952380Y-61357142D01*
X151952380Y-61119047D01*
X152000000Y-60976190D01*
X152095238Y-60880952D01*
X152190476Y-60833333D01*
X152380952Y-60785714D01*
X152523809Y-60785714D01*
X152714285Y-60833333D01*
X152809523Y-60880952D01*
X152904761Y-60976190D01*
X152952380Y-61119047D01*
X152952380Y-61357142D01*
X152857142Y-59785714D02*
X152904761Y-59833333D01*
X152952380Y-59976190D01*
X152952380Y-60071428D01*
X152904761Y-60214285D01*
X152809523Y-60309523D01*
X152714285Y-60357142D01*
X152523809Y-60404761D01*
X152380952Y-60404761D01*
X152190476Y-60357142D01*
X152095238Y-60309523D01*
X152000000Y-60214285D01*
X151952380Y-60071428D01*
X151952380Y-59976190D01*
X152000000Y-59833333D01*
X152047619Y-59785714D01*
X149500000Y-62261904D02*
X149452380Y-62357142D01*
X149452380Y-62500000D01*
X149500000Y-62642857D01*
X149595238Y-62738095D01*
X149690476Y-62785714D01*
X149880952Y-62833333D01*
X150023809Y-62833333D01*
X150214285Y-62785714D01*
X150309523Y-62738095D01*
X150404761Y-62642857D01*
X150452380Y-62500000D01*
X150452380Y-62404761D01*
X150404761Y-62261904D01*
X150357142Y-62214285D01*
X150023809Y-62214285D01*
X150023809Y-62404761D01*
X150452380Y-61785714D02*
X149452380Y-61785714D01*
X150452380Y-61214285D01*
X149452380Y-61214285D01*
X150452380Y-60738095D02*
X149452380Y-60738095D01*
X149452380Y-60500000D01*
X149500000Y-60357142D01*
X149595238Y-60261904D01*
X149690476Y-60214285D01*
X149880952Y-60166666D01*
X150023809Y-60166666D01*
X150214285Y-60214285D01*
X150309523Y-60261904D01*
X150404761Y-60357142D01*
X150452380Y-60500000D01*
X150452380Y-60738095D01*
X171000000Y-54500000D02*
X121200000Y-54500000D01*
X164647619Y-84735714D02*
X164647619Y-84164285D01*
X164647619Y-84450000D02*
X165647619Y-84450000D01*
X165504761Y-84354761D01*
X165409523Y-84259523D01*
X165361904Y-84164285D01*
X139452380Y-75914285D02*
X139452380Y-76485714D01*
X139452380Y-76200000D02*
X138452380Y-76200000D01*
X138595238Y-76295238D01*
X138690476Y-76390476D01*
X138738095Y-76485714D01*
X157764285Y-95785714D02*
X157764285Y-96452380D01*
X157526190Y-95404761D02*
X157288095Y-96119047D01*
X157907142Y-96119047D01*
X158478571Y-95452380D02*
X158573809Y-95452380D01*
X158669047Y-95500000D01*
X158716666Y-95547619D01*
X158764285Y-95642857D01*
X158811904Y-95833333D01*
X158811904Y-96071428D01*
X158764285Y-96261904D01*
X158716666Y-96357142D01*
X158669047Y-96404761D01*
X158573809Y-96452380D01*
X158478571Y-96452380D01*
X158383333Y-96404761D01*
X158335714Y-96357142D01*
X158288095Y-96261904D01*
X158240476Y-96071428D01*
X158240476Y-95833333D01*
X158288095Y-95642857D01*
X158335714Y-95547619D01*
X158383333Y-95500000D01*
X158478571Y-95452380D01*
X139285714Y-96402380D02*
X138714285Y-96402380D01*
X139000000Y-96402380D02*
X139000000Y-95402380D01*
X138904761Y-95545238D01*
X138809523Y-95640476D01*
X138714285Y-95688095D01*
X121300000Y-109400000D02*
X121200000Y-54500000D01*
X170900000Y-109400000D02*
X121300000Y-109400000D01*
X171000000Y-54500000D02*
X170900000Y-109400000D01*
D11*
X127190000Y-67160000D02*
X134930000Y-67160000D01*
X134930000Y-67160000D02*
X134930000Y-64500000D01*
X134930000Y-64500000D02*
X127190000Y-64500000D01*
X127190000Y-64500000D02*
X127190000Y-67160000D01*
X128140000Y-64500000D02*
X128140000Y-58500000D01*
X128140000Y-58500000D02*
X128900000Y-58500000D01*
X128900000Y-58500000D02*
X128900000Y-64500000D01*
X128200000Y-64500000D02*
X128200000Y-58500000D01*
X128320000Y-64500000D02*
X128320000Y-58500000D01*
X128440000Y-64500000D02*
X128440000Y-58500000D01*
X128560000Y-64500000D02*
X128560000Y-58500000D01*
X128680000Y-64500000D02*
X128680000Y-58500000D01*
X128800000Y-64500000D02*
X128800000Y-58500000D01*
X128140000Y-67490000D02*
X128140000Y-67160000D01*
X128900000Y-67490000D02*
X128900000Y-67160000D01*
X129790000Y-67160000D02*
X129790000Y-64500000D01*
X130680000Y-64500000D02*
X130680000Y-58500000D01*
X130680000Y-58500000D02*
X131440000Y-58500000D01*
X131440000Y-58500000D02*
X131440000Y-64500000D01*
X130680000Y-67557071D02*
X130680000Y-67160000D01*
X131440000Y-67557071D02*
X131440000Y-67160000D01*
X132330000Y-67160000D02*
X132330000Y-64500000D01*
X133220000Y-64500000D02*
X133220000Y-58500000D01*
X133220000Y-58500000D02*
X133980000Y-58500000D01*
X133980000Y-58500000D02*
X133980000Y-64500000D01*
X133220000Y-67557071D02*
X133220000Y-67160000D01*
X133980000Y-67557071D02*
X133980000Y-67160000D01*
X128520000Y-69870000D02*
X127250000Y-69870000D01*
X127250000Y-69870000D02*
X127250000Y-68600000D01*
X138640000Y-98500000D02*
X137150000Y-98500000D01*
X137150000Y-98500000D02*
X137150000Y-99840000D01*
X158960000Y-98500000D02*
X160450000Y-98500000D01*
X160450000Y-98500000D02*
X160450000Y-99840000D01*
X137150000Y-102560000D02*
X137150000Y-104300000D01*
X137150000Y-104300000D02*
X160450000Y-104300000D01*
X160450000Y-104300000D02*
X160450000Y-102560000D01*
X138640000Y-98500000D02*
X138640000Y-97300000D01*
D10*
X139875000Y-76175000D02*
X139875000Y-76825000D01*
X154125000Y-76175000D02*
X154125000Y-76935000D01*
X154125000Y-90425000D02*
X154125000Y-89665000D01*
X139875000Y-90425000D02*
X139875000Y-89665000D01*
X139875000Y-76175000D02*
X140635000Y-76175000D01*
X139875000Y-90425000D02*
X140635000Y-90425000D01*
X154125000Y-90425000D02*
X153365000Y-90425000D01*
X154125000Y-76175000D02*
X153365000Y-76175000D01*
X139875000Y-76825000D02*
X138350000Y-76825000D01*
D11*
X155300000Y-74210000D02*
X157100000Y-74210000D01*
X157100000Y-70990000D02*
X154650000Y-70990000D01*
D10*
X164425000Y-85175000D02*
X164300000Y-85175000D01*
X164425000Y-89825000D02*
X164200000Y-89825000D01*
X159175000Y-89825000D02*
X159400000Y-89825000D01*
X159175000Y-85175000D02*
X159400000Y-85175000D01*
X164425000Y-85175000D02*
X164425000Y-89825000D01*
X159175000Y-85175000D02*
X159175000Y-89825000D01*
X164300000Y-85175000D02*
X164300000Y-83825000D01*
D11*
X130700000Y-77200000D02*
X130700000Y-87200000D01*
X130700000Y-87200000D02*
X136100000Y-87200000D01*
X136100000Y-87200000D02*
X136100000Y-77200000D01*
X148560000Y-73180000D02*
X148560000Y-71770000D01*
X146240000Y-71770000D02*
X146240000Y-73800000D01*
X146240000Y-71770000D02*
X146900000Y-71770000D01*
X147900000Y-71770000D02*
X148560000Y-71770000D01*
X161000000Y-93870000D02*
X161660000Y-93870000D01*
X159340000Y-93870000D02*
X160000000Y-93870000D01*
X159340000Y-93870000D02*
X159340000Y-95900000D01*
X161660000Y-95280000D02*
X161660000Y-93870000D01*
X135870000Y-67160000D02*
X148690000Y-67160000D01*
X148690000Y-67160000D02*
X148690000Y-64500000D01*
X148690000Y-64500000D02*
X135870000Y-64500000D01*
X135870000Y-64500000D02*
X135870000Y-67160000D01*
X136820000Y-64500000D02*
X136820000Y-58500000D01*
X136820000Y-58500000D02*
X137580000Y-58500000D01*
X137580000Y-58500000D02*
X137580000Y-64500000D01*
X136880000Y-64500000D02*
X136880000Y-58500000D01*
X137000000Y-64500000D02*
X137000000Y-58500000D01*
X137120000Y-64500000D02*
X137120000Y-58500000D01*
X137240000Y-64500000D02*
X137240000Y-58500000D01*
X137360000Y-64500000D02*
X137360000Y-58500000D01*
X137480000Y-64500000D02*
X137480000Y-58500000D01*
X136820000Y-67490000D02*
X136820000Y-67160000D01*
X137580000Y-67490000D02*
X137580000Y-67160000D01*
X138470000Y-67160000D02*
X138470000Y-64500000D01*
X139360000Y-64500000D02*
X139360000Y-58500000D01*
X139360000Y-58500000D02*
X140120000Y-58500000D01*
X140120000Y-58500000D02*
X140120000Y-64500000D01*
X139360000Y-67557071D02*
X139360000Y-67160000D01*
X140120000Y-67557071D02*
X140120000Y-67160000D01*
X141010000Y-67160000D02*
X141010000Y-64500000D01*
X141900000Y-64500000D02*
X141900000Y-58500000D01*
X141900000Y-58500000D02*
X142660000Y-58500000D01*
X142660000Y-58500000D02*
X142660000Y-64500000D01*
X141900000Y-67557071D02*
X141900000Y-67160000D01*
X142660000Y-67557071D02*
X142660000Y-67160000D01*
X143550000Y-67160000D02*
X143550000Y-64500000D01*
X144440000Y-64500000D02*
X144440000Y-58500000D01*
X144440000Y-58500000D02*
X145200000Y-58500000D01*
X145200000Y-58500000D02*
X145200000Y-64500000D01*
X144440000Y-67557071D02*
X144440000Y-67160000D01*
X145200000Y-67557071D02*
X145200000Y-67160000D01*
X146090000Y-67160000D02*
X146090000Y-64500000D01*
X146980000Y-64500000D02*
X146980000Y-58500000D01*
X146980000Y-58500000D02*
X147740000Y-58500000D01*
X147740000Y-58500000D02*
X147740000Y-64500000D01*
X146980000Y-67557071D02*
X146980000Y-67160000D01*
X147740000Y-67557071D02*
X147740000Y-67160000D01*
X137200000Y-69870000D02*
X135930000Y-69870000D01*
X135930000Y-69870000D02*
X135930000Y-68600000D01*
X126090000Y-91358578D02*
X126090000Y-90841422D01*
X127510000Y-91358578D02*
X127510000Y-90841422D01*
D10*
X133875000Y-93475000D02*
X133875000Y-93425000D01*
X129725000Y-93475000D02*
X129725000Y-93330000D01*
X129725000Y-88325000D02*
X129725000Y-88470000D01*
X133875000Y-88325000D02*
X133875000Y-88470000D01*
X133875000Y-93475000D02*
X129725000Y-93475000D01*
X133875000Y-88325000D02*
X129725000Y-88325000D01*
X133875000Y-93425000D02*
X135275000Y-93425000D01*
D11*
X129227500Y-73035000D02*
X131512500Y-73035000D01*
X129227500Y-71565000D02*
X129227500Y-73035000D01*
X131512500Y-71565000D02*
X129227500Y-71565000D01*
X147110000Y-94562779D02*
X147110000Y-94237221D01*
X146090000Y-94562779D02*
X146090000Y-94237221D01*
X145610000Y-72524721D02*
X145610000Y-72850279D01*
X144590000Y-72524721D02*
X144590000Y-72850279D01*
X137410000Y-90137221D02*
X137410000Y-90462779D01*
X136390000Y-90137221D02*
X136390000Y-90462779D01*
X128437221Y-87510000D02*
X128762779Y-87510000D01*
X128437221Y-86490000D02*
X128762779Y-86490000D01*
X135590000Y-72762779D02*
X135590000Y-72437221D01*
X136610000Y-72762779D02*
X136610000Y-72437221D01*
X143710000Y-72537221D02*
X143710000Y-72862779D01*
X142690000Y-72537221D02*
X142690000Y-72862779D01*
X132760000Y-95840000D02*
X132760000Y-95560000D01*
X132760000Y-95560000D02*
X134360000Y-95560000D01*
X134360000Y-95560000D02*
X134360000Y-94640000D01*
X134360000Y-94640000D02*
X126540000Y-94640000D01*
X126540000Y-94640000D02*
X126540000Y-100760000D01*
X126540000Y-100760000D02*
X134360000Y-100760000D01*
X134360000Y-100760000D02*
X134360000Y-99840000D01*
X134360000Y-99840000D02*
X132760000Y-99840000D01*
X132760000Y-99840000D02*
X132760000Y-99560000D01*
X126540000Y-97200000D02*
X130900000Y-97200000D01*
X130900000Y-97200000D02*
X130900000Y-98200000D01*
X130900000Y-98200000D02*
X126540000Y-98200000D01*
X132760000Y-94640000D02*
X132760000Y-95560000D01*
X132760000Y-100760000D02*
X132760000Y-99840000D01*
X130400000Y-95400000D02*
X128800000Y-95400000D01*
X128800000Y-95400000D02*
X128800000Y-96400000D01*
X128800000Y-96400000D02*
X130400000Y-96400000D01*
X130400000Y-96400000D02*
X130400000Y-95400000D01*
X130400000Y-100000000D02*
X128800000Y-100000000D01*
X128800000Y-100000000D02*
X128800000Y-99000000D01*
X128800000Y-99000000D02*
X130400000Y-99000000D01*
X130400000Y-99000000D02*
X130400000Y-100000000D01*
X128800000Y-96400000D02*
X126540000Y-96400000D01*
X128800000Y-95900000D02*
X126540000Y-95900000D01*
X132760000Y-95840000D02*
X133975000Y-95840000D01*
X134820000Y-101860000D02*
X134820000Y-101480000D01*
X134820000Y-105520000D02*
X134820000Y-105140000D01*
X129800000Y-103870000D02*
X129800000Y-103150000D01*
X129930000Y-105520000D02*
X129930000Y-104240000D01*
X129930000Y-102760000D02*
X129930000Y-101480000D01*
X129930000Y-105520000D02*
X134820000Y-105520000D01*
X129930000Y-101480000D02*
X134820000Y-101480000D01*
X161170000Y-77260000D02*
X166370000Y-77260000D01*
X166370000Y-77260000D02*
X166370000Y-74600000D01*
X166370000Y-74600000D02*
X161170000Y-74600000D01*
X161170000Y-74600000D02*
X161170000Y-77260000D01*
X162120000Y-74600000D02*
X162120000Y-68600000D01*
X162120000Y-68600000D02*
X162880000Y-68600000D01*
X162880000Y-68600000D02*
X162880000Y-74600000D01*
X162180000Y-74600000D02*
X162180000Y-68600000D01*
X162300000Y-74600000D02*
X162300000Y-68600000D01*
X162420000Y-74600000D02*
X162420000Y-68600000D01*
X162540000Y-74600000D02*
X162540000Y-68600000D01*
X162660000Y-74600000D02*
X162660000Y-68600000D01*
X162780000Y-74600000D02*
X162780000Y-68600000D01*
X162120000Y-77590000D02*
X162120000Y-77260000D01*
X162880000Y-77590000D02*
X162880000Y-77260000D01*
X163770000Y-77260000D02*
X163770000Y-74600000D01*
X164660000Y-74600000D02*
X164660000Y-68600000D01*
X164660000Y-68600000D02*
X165420000Y-68600000D01*
X165420000Y-68600000D02*
X165420000Y-74600000D01*
X164660000Y-77657071D02*
X164660000Y-77260000D01*
X165420000Y-77657071D02*
X165420000Y-77260000D01*
X162500000Y-79970000D02*
X161230000Y-79970000D01*
X161230000Y-79970000D02*
X161230000Y-78700000D01*
X149670000Y-67160000D02*
X159950000Y-67160000D01*
X159950000Y-67160000D02*
X159950000Y-64500000D01*
X159950000Y-64500000D02*
X149670000Y-64500000D01*
X149670000Y-64500000D02*
X149670000Y-67160000D01*
X150620000Y-64500000D02*
X150620000Y-58500000D01*
X150620000Y-58500000D02*
X151380000Y-58500000D01*
X151380000Y-58500000D02*
X151380000Y-64500000D01*
X150680000Y-64500000D02*
X150680000Y-58500000D01*
X150800000Y-64500000D02*
X150800000Y-58500000D01*
X150920000Y-64500000D02*
X150920000Y-58500000D01*
X151040000Y-64500000D02*
X151040000Y-58500000D01*
X151160000Y-64500000D02*
X151160000Y-58500000D01*
X151280000Y-64500000D02*
X151280000Y-58500000D01*
X150620000Y-67490000D02*
X150620000Y-67160000D01*
X151380000Y-67490000D02*
X151380000Y-67160000D01*
X152270000Y-67160000D02*
X152270000Y-64500000D01*
X153160000Y-64500000D02*
X153160000Y-58500000D01*
X153160000Y-58500000D02*
X153920000Y-58500000D01*
X153920000Y-58500000D02*
X153920000Y-64500000D01*
X153160000Y-67557071D02*
X153160000Y-67160000D01*
X153920000Y-67557071D02*
X153920000Y-67160000D01*
X154810000Y-67160000D02*
X154810000Y-64500000D01*
X155700000Y-64500000D02*
X155700000Y-58500000D01*
X155700000Y-58500000D02*
X156460000Y-58500000D01*
X156460000Y-58500000D02*
X156460000Y-64500000D01*
X155700000Y-67557071D02*
X155700000Y-67160000D01*
X156460000Y-67557071D02*
X156460000Y-67160000D01*
X157350000Y-67160000D02*
X157350000Y-64500000D01*
X158240000Y-64500000D02*
X158240000Y-58500000D01*
X158240000Y-58500000D02*
X159000000Y-58500000D01*
X159000000Y-58500000D02*
X159000000Y-64500000D01*
X158240000Y-67557071D02*
X158240000Y-67160000D01*
X159000000Y-67557071D02*
X159000000Y-67160000D01*
X151000000Y-69870000D02*
X149730000Y-69870000D01*
X149730000Y-69870000D02*
X149730000Y-68600000D01*
X165295000Y-94760000D02*
X165295000Y-95560000D01*
X165295000Y-95560000D02*
X162635000Y-95560000D01*
X162635000Y-95560000D02*
X162635000Y-94440000D01*
X162635000Y-94440000D02*
X162710323Y-94440000D01*
X164860000Y-95560000D02*
X164860000Y-99560000D01*
X164860000Y-99560000D02*
X164340000Y-99560000D01*
X164340000Y-99560000D02*
X164340000Y-95560000D01*
X164800000Y-95560000D02*
X164800000Y-99560000D01*
X164680000Y-95560000D02*
X164680000Y-99560000D01*
X164560000Y-95560000D02*
X164560000Y-99560000D01*
X164440000Y-95560000D02*
X164440000Y-99560000D01*
X163965000Y-94760000D02*
X163965000Y-95560000D01*
X163590000Y-95560000D02*
X163590000Y-99560000D01*
X163590000Y-99560000D02*
X163070000Y-99560000D01*
X163070000Y-99560000D02*
X163070000Y-95560000D01*
X164600000Y-93240000D02*
X165360000Y-93240000D01*
X165360000Y-93240000D02*
X165360000Y-94000000D01*
D10*
X127352380Y-71233333D02*
X128066666Y-71233333D01*
X128209523Y-71280952D01*
X128304761Y-71376190D01*
X128352380Y-71519047D01*
X128352380Y-71614285D01*
X127352380Y-70280952D02*
X127352380Y-70757142D01*
X127828571Y-70804761D01*
X127780952Y-70757142D01*
X127733333Y-70661904D01*
X127733333Y-70423809D01*
X127780952Y-70328571D01*
X127828571Y-70280952D01*
X127923809Y-70233333D01*
X128161904Y-70233333D01*
X128257142Y-70280952D01*
X128304761Y-70328571D01*
X128352380Y-70423809D01*
X128352380Y-70661904D01*
X128304761Y-70757142D01*
X128257142Y-70804761D01*
X161352380Y-104033333D02*
X162066666Y-104033333D01*
X162209523Y-104080952D01*
X162304761Y-104176190D01*
X162352380Y-104319047D01*
X162352380Y-104414285D01*
X162352380Y-103033333D02*
X162352380Y-103604761D01*
X162352380Y-103319047D02*
X161352380Y-103319047D01*
X161495238Y-103414285D01*
X161590476Y-103509523D01*
X161638095Y-103604761D01*
X137938095Y-74052380D02*
X137938095Y-74861904D01*
X137985714Y-74957142D01*
X138033333Y-75004761D01*
X138128571Y-75052380D01*
X138319047Y-75052380D01*
X138414285Y-75004761D01*
X138461904Y-74957142D01*
X138509523Y-74861904D01*
X138509523Y-74052380D01*
X139509523Y-75052380D02*
X138938095Y-75052380D01*
X139223809Y-75052380D02*
X139223809Y-74052380D01*
X139128571Y-74195238D01*
X139033333Y-74290476D01*
X138938095Y-74338095D01*
X155638095Y-74752380D02*
X155638095Y-75561904D01*
X155685714Y-75657142D01*
X155733333Y-75704761D01*
X155828571Y-75752380D01*
X156019047Y-75752380D01*
X156114285Y-75704761D01*
X156161904Y-75657142D01*
X156209523Y-75561904D01*
X156209523Y-74752380D01*
X156638095Y-74847619D02*
X156685714Y-74800000D01*
X156780952Y-74752380D01*
X157019047Y-74752380D01*
X157114285Y-74800000D01*
X157161904Y-74847619D01*
X157209523Y-74942857D01*
X157209523Y-75038095D01*
X157161904Y-75180952D01*
X156590476Y-75752380D01*
X157209523Y-75752380D01*
X164902380Y-88311904D02*
X165711904Y-88311904D01*
X165807142Y-88264285D01*
X165854761Y-88216666D01*
X165902380Y-88121428D01*
X165902380Y-87930952D01*
X165854761Y-87835714D01*
X165807142Y-87788095D01*
X165711904Y-87740476D01*
X164902380Y-87740476D01*
X164902380Y-87359523D02*
X164902380Y-86740476D01*
X165283333Y-87073809D01*
X165283333Y-86930952D01*
X165330952Y-86835714D01*
X165378571Y-86788095D01*
X165473809Y-86740476D01*
X165711904Y-86740476D01*
X165807142Y-86788095D01*
X165854761Y-86835714D01*
X165902380Y-86930952D01*
X165902380Y-87216666D01*
X165854761Y-87311904D01*
X165807142Y-87359523D01*
X128957142Y-77066666D02*
X129004761Y-77114285D01*
X129052380Y-77257142D01*
X129052380Y-77352380D01*
X129004761Y-77495238D01*
X128909523Y-77590476D01*
X128814285Y-77638095D01*
X128623809Y-77685714D01*
X128480952Y-77685714D01*
X128290476Y-77638095D01*
X128195238Y-77590476D01*
X128100000Y-77495238D01*
X128052380Y-77352380D01*
X128052380Y-77257142D01*
X128100000Y-77114285D01*
X128147619Y-77066666D01*
X129052380Y-76114285D02*
X129052380Y-76685714D01*
X129052380Y-76400000D02*
X128052380Y-76400000D01*
X128195238Y-76495238D01*
X128290476Y-76590476D01*
X128338095Y-76685714D01*
X129157142Y-84166666D02*
X129204761Y-84214285D01*
X129252380Y-84357142D01*
X129252380Y-84452380D01*
X129204761Y-84595238D01*
X129109523Y-84690476D01*
X129014285Y-84738095D01*
X128823809Y-84785714D01*
X128680952Y-84785714D01*
X128490476Y-84738095D01*
X128395238Y-84690476D01*
X128300000Y-84595238D01*
X128252380Y-84452380D01*
X128252380Y-84357142D01*
X128300000Y-84214285D01*
X128347619Y-84166666D01*
X128347619Y-83785714D02*
X128300000Y-83738095D01*
X128252380Y-83642857D01*
X128252380Y-83404761D01*
X128300000Y-83309523D01*
X128347619Y-83261904D01*
X128442857Y-83214285D01*
X128538095Y-83214285D01*
X128680952Y-83261904D01*
X129252380Y-83833333D01*
X129252380Y-83214285D01*
X136933333Y-88857142D02*
X136885714Y-88904761D01*
X136742857Y-88952380D01*
X136647619Y-88952380D01*
X136504761Y-88904761D01*
X136409523Y-88809523D01*
X136361904Y-88714285D01*
X136314285Y-88523809D01*
X136314285Y-88380952D01*
X136361904Y-88190476D01*
X136409523Y-88095238D01*
X136504761Y-88000000D01*
X136647619Y-87952380D01*
X136742857Y-87952380D01*
X136885714Y-88000000D01*
X136933333Y-88047619D01*
X137266666Y-87952380D02*
X137885714Y-87952380D01*
X137552380Y-88333333D01*
X137695238Y-88333333D01*
X137790476Y-88380952D01*
X137838095Y-88428571D01*
X137885714Y-88523809D01*
X137885714Y-88761904D01*
X137838095Y-88857142D01*
X137790476Y-88904761D01*
X137695238Y-88952380D01*
X137409523Y-88952380D01*
X137314285Y-88904761D01*
X137266666Y-88857142D01*
X153233333Y-94557142D02*
X153185714Y-94604761D01*
X153042857Y-94652380D01*
X152947619Y-94652380D01*
X152804761Y-94604761D01*
X152709523Y-94509523D01*
X152661904Y-94414285D01*
X152614285Y-94223809D01*
X152614285Y-94080952D01*
X152661904Y-93890476D01*
X152709523Y-93795238D01*
X152804761Y-93700000D01*
X152947619Y-93652380D01*
X153042857Y-93652380D01*
X153185714Y-93700000D01*
X153233333Y-93747619D01*
X154090476Y-93985714D02*
X154090476Y-94652380D01*
X153852380Y-93604761D02*
X153614285Y-94319047D01*
X154233333Y-94319047D01*
X158157142Y-77451666D02*
X158204761Y-77499285D01*
X158252380Y-77642142D01*
X158252380Y-77737380D01*
X158204761Y-77880238D01*
X158109523Y-77975476D01*
X158014285Y-78023095D01*
X157823809Y-78070714D01*
X157680952Y-78070714D01*
X157490476Y-78023095D01*
X157395238Y-77975476D01*
X157300000Y-77880238D01*
X157252380Y-77737380D01*
X157252380Y-77642142D01*
X157300000Y-77499285D01*
X157347619Y-77451666D01*
X157252380Y-76546904D02*
X157252380Y-77023095D01*
X157728571Y-77070714D01*
X157680952Y-77023095D01*
X157633333Y-76927857D01*
X157633333Y-76689761D01*
X157680952Y-76594523D01*
X157728571Y-76546904D01*
X157823809Y-76499285D01*
X158061904Y-76499285D01*
X158157142Y-76546904D01*
X158204761Y-76594523D01*
X158252380Y-76689761D01*
X158252380Y-76927857D01*
X158204761Y-77023095D01*
X158157142Y-77070714D01*
X140057142Y-72966666D02*
X140104761Y-73014285D01*
X140152380Y-73157142D01*
X140152380Y-73252380D01*
X140104761Y-73395238D01*
X140009523Y-73490476D01*
X139914285Y-73538095D01*
X139723809Y-73585714D01*
X139580952Y-73585714D01*
X139390476Y-73538095D01*
X139295238Y-73490476D01*
X139200000Y-73395238D01*
X139152380Y-73252380D01*
X139152380Y-73157142D01*
X139200000Y-73014285D01*
X139247619Y-72966666D01*
X139152380Y-72109523D02*
X139152380Y-72300000D01*
X139200000Y-72395238D01*
X139247619Y-72442857D01*
X139390476Y-72538095D01*
X139580952Y-72585714D01*
X139961904Y-72585714D01*
X140057142Y-72538095D01*
X140104761Y-72490476D01*
X140152380Y-72395238D01*
X140152380Y-72204761D01*
X140104761Y-72109523D01*
X140057142Y-72061904D01*
X139961904Y-72014285D01*
X139723809Y-72014285D01*
X139628571Y-72061904D01*
X139580952Y-72109523D01*
X139533333Y-72204761D01*
X139533333Y-72395238D01*
X139580952Y-72490476D01*
X139628571Y-72538095D01*
X139723809Y-72585714D01*
X152457142Y-72166666D02*
X152504761Y-72214285D01*
X152552380Y-72357142D01*
X152552380Y-72452380D01*
X152504761Y-72595238D01*
X152409523Y-72690476D01*
X152314285Y-72738095D01*
X152123809Y-72785714D01*
X151980952Y-72785714D01*
X151790476Y-72738095D01*
X151695238Y-72690476D01*
X151600000Y-72595238D01*
X151552380Y-72452380D01*
X151552380Y-72357142D01*
X151600000Y-72214285D01*
X151647619Y-72166666D01*
X151552380Y-71833333D02*
X151552380Y-71166666D01*
X152552380Y-71595238D01*
X140133333Y-95757142D02*
X140085714Y-95804761D01*
X139942857Y-95852380D01*
X139847619Y-95852380D01*
X139704761Y-95804761D01*
X139609523Y-95709523D01*
X139561904Y-95614285D01*
X139514285Y-95423809D01*
X139514285Y-95280952D01*
X139561904Y-95090476D01*
X139609523Y-94995238D01*
X139704761Y-94900000D01*
X139847619Y-94852380D01*
X139942857Y-94852380D01*
X140085714Y-94900000D01*
X140133333Y-94947619D01*
X140704761Y-95280952D02*
X140609523Y-95233333D01*
X140561904Y-95185714D01*
X140514285Y-95090476D01*
X140514285Y-95042857D01*
X140561904Y-94947619D01*
X140609523Y-94900000D01*
X140704761Y-94852380D01*
X140895238Y-94852380D01*
X140990476Y-94900000D01*
X141038095Y-94947619D01*
X141085714Y-95042857D01*
X141085714Y-95090476D01*
X141038095Y-95185714D01*
X140990476Y-95233333D01*
X140895238Y-95280952D01*
X140704761Y-95280952D01*
X140609523Y-95328571D01*
X140561904Y-95376190D01*
X140514285Y-95471428D01*
X140514285Y-95661904D01*
X140561904Y-95757142D01*
X140609523Y-95804761D01*
X140704761Y-95852380D01*
X140895238Y-95852380D01*
X140990476Y-95804761D01*
X141038095Y-95757142D01*
X141085714Y-95661904D01*
X141085714Y-95471428D01*
X141038095Y-95376190D01*
X140990476Y-95328571D01*
X140895238Y-95280952D01*
X137757142Y-79751666D02*
X137804761Y-79799285D01*
X137852380Y-79942142D01*
X137852380Y-80037380D01*
X137804761Y-80180238D01*
X137709523Y-80275476D01*
X137614285Y-80323095D01*
X137423809Y-80370714D01*
X137280952Y-80370714D01*
X137090476Y-80323095D01*
X136995238Y-80275476D01*
X136900000Y-80180238D01*
X136852380Y-80037380D01*
X136852380Y-79942142D01*
X136900000Y-79799285D01*
X136947619Y-79751666D01*
X137852380Y-79275476D02*
X137852380Y-79085000D01*
X137804761Y-78989761D01*
X137757142Y-78942142D01*
X137614285Y-78846904D01*
X137423809Y-78799285D01*
X137042857Y-78799285D01*
X136947619Y-78846904D01*
X136900000Y-78894523D01*
X136852380Y-78989761D01*
X136852380Y-79180238D01*
X136900000Y-79275476D01*
X136947619Y-79323095D01*
X137042857Y-79370714D01*
X137280952Y-79370714D01*
X137376190Y-79323095D01*
X137423809Y-79275476D01*
X137471428Y-79180238D01*
X137471428Y-78989761D01*
X137423809Y-78894523D01*
X137376190Y-78846904D01*
X137280952Y-78799285D01*
X161007142Y-72742857D02*
X161054761Y-72790476D01*
X161102380Y-72933333D01*
X161102380Y-73028571D01*
X161054761Y-73171428D01*
X160959523Y-73266666D01*
X160864285Y-73314285D01*
X160673809Y-73361904D01*
X160530952Y-73361904D01*
X160340476Y-73314285D01*
X160245238Y-73266666D01*
X160150000Y-73171428D01*
X160102380Y-73028571D01*
X160102380Y-72933333D01*
X160150000Y-72790476D01*
X160197619Y-72742857D01*
X161102380Y-71790476D02*
X161102380Y-72361904D01*
X161102380Y-72076190D02*
X160102380Y-72076190D01*
X160245238Y-72171428D01*
X160340476Y-72266666D01*
X160388095Y-72361904D01*
X160102380Y-71171428D02*
X160102380Y-71076190D01*
X160150000Y-70980952D01*
X160197619Y-70933333D01*
X160292857Y-70885714D01*
X160483333Y-70838095D01*
X160721428Y-70838095D01*
X160911904Y-70885714D01*
X161007142Y-70933333D01*
X161054761Y-70980952D01*
X161102380Y-71076190D01*
X161102380Y-71171428D01*
X161054761Y-71266666D01*
X161007142Y-71314285D01*
X160911904Y-71361904D01*
X160721428Y-71409523D01*
X160483333Y-71409523D01*
X160292857Y-71361904D01*
X160197619Y-71314285D01*
X160150000Y-71266666D01*
X160102380Y-71171428D01*
X160357142Y-80957142D02*
X160309523Y-81004761D01*
X160166666Y-81052380D01*
X160071428Y-81052380D01*
X159928571Y-81004761D01*
X159833333Y-80909523D01*
X159785714Y-80814285D01*
X159738095Y-80623809D01*
X159738095Y-80480952D01*
X159785714Y-80290476D01*
X159833333Y-80195238D01*
X159928571Y-80100000D01*
X160071428Y-80052380D01*
X160166666Y-80052380D01*
X160309523Y-80100000D01*
X160357142Y-80147619D01*
X161309523Y-81052380D02*
X160738095Y-81052380D01*
X161023809Y-81052380D02*
X161023809Y-80052380D01*
X160928571Y-80195238D01*
X160833333Y-80290476D01*
X160738095Y-80338095D01*
X162261904Y-81052380D02*
X161690476Y-81052380D01*
X161976190Y-81052380D02*
X161976190Y-80052380D01*
X161880952Y-80195238D01*
X161785714Y-80290476D01*
X161690476Y-80338095D01*
X163207142Y-80857142D02*
X163159523Y-80904761D01*
X163016666Y-80952380D01*
X162921428Y-80952380D01*
X162778571Y-80904761D01*
X162683333Y-80809523D01*
X162635714Y-80714285D01*
X162588095Y-80523809D01*
X162588095Y-80380952D01*
X162635714Y-80190476D01*
X162683333Y-80095238D01*
X162778571Y-80000000D01*
X162921428Y-79952380D01*
X163016666Y-79952380D01*
X163159523Y-80000000D01*
X163207142Y-80047619D01*
X164159523Y-80952380D02*
X163588095Y-80952380D01*
X163873809Y-80952380D02*
X163873809Y-79952380D01*
X163778571Y-80095238D01*
X163683333Y-80190476D01*
X163588095Y-80238095D01*
X164540476Y-80047619D02*
X164588095Y-80000000D01*
X164683333Y-79952380D01*
X164921428Y-79952380D01*
X165016666Y-80000000D01*
X165064285Y-80047619D01*
X165111904Y-80142857D01*
X165111904Y-80238095D01*
X165064285Y-80380952D01*
X164492857Y-80952380D01*
X165111904Y-80952380D01*
X165207142Y-83157142D02*
X165159523Y-83204761D01*
X165016666Y-83252380D01*
X164921428Y-83252380D01*
X164778571Y-83204761D01*
X164683333Y-83109523D01*
X164635714Y-83014285D01*
X164588095Y-82823809D01*
X164588095Y-82680952D01*
X164635714Y-82490476D01*
X164683333Y-82395238D01*
X164778571Y-82300000D01*
X164921428Y-82252380D01*
X165016666Y-82252380D01*
X165159523Y-82300000D01*
X165207142Y-82347619D01*
X166159523Y-83252380D02*
X165588095Y-83252380D01*
X165873809Y-83252380D02*
X165873809Y-82252380D01*
X165778571Y-82395238D01*
X165683333Y-82490476D01*
X165588095Y-82538095D01*
X166492857Y-82252380D02*
X167111904Y-82252380D01*
X166778571Y-82633333D01*
X166921428Y-82633333D01*
X167016666Y-82680952D01*
X167064285Y-82728571D01*
X167111904Y-82823809D01*
X167111904Y-83061904D01*
X167064285Y-83157142D01*
X167016666Y-83204761D01*
X166921428Y-83252380D01*
X166635714Y-83252380D01*
X166540476Y-83204761D01*
X166492857Y-83157142D01*
X157957142Y-83157142D02*
X157909523Y-83204761D01*
X157766666Y-83252380D01*
X157671428Y-83252380D01*
X157528571Y-83204761D01*
X157433333Y-83109523D01*
X157385714Y-83014285D01*
X157338095Y-82823809D01*
X157338095Y-82680952D01*
X157385714Y-82490476D01*
X157433333Y-82395238D01*
X157528571Y-82300000D01*
X157671428Y-82252380D01*
X157766666Y-82252380D01*
X157909523Y-82300000D01*
X157957142Y-82347619D01*
X158909523Y-83252380D02*
X158338095Y-83252380D01*
X158623809Y-83252380D02*
X158623809Y-82252380D01*
X158528571Y-82395238D01*
X158433333Y-82490476D01*
X158338095Y-82538095D01*
X159766666Y-82585714D02*
X159766666Y-83252380D01*
X159528571Y-82204761D02*
X159290476Y-82919047D01*
X159909523Y-82919047D01*
X157557142Y-91142857D02*
X157604761Y-91190476D01*
X157652380Y-91333333D01*
X157652380Y-91428571D01*
X157604761Y-91571428D01*
X157509523Y-91666666D01*
X157414285Y-91714285D01*
X157223809Y-91761904D01*
X157080952Y-91761904D01*
X156890476Y-91714285D01*
X156795238Y-91666666D01*
X156700000Y-91571428D01*
X156652380Y-91428571D01*
X156652380Y-91333333D01*
X156700000Y-91190476D01*
X156747619Y-91142857D01*
X157652380Y-90190476D02*
X157652380Y-90761904D01*
X157652380Y-90476190D02*
X156652380Y-90476190D01*
X156795238Y-90571428D01*
X156890476Y-90666666D01*
X156938095Y-90761904D01*
X156652380Y-89285714D02*
X156652380Y-89761904D01*
X157128571Y-89809523D01*
X157080952Y-89761904D01*
X157033333Y-89666666D01*
X157033333Y-89428571D01*
X157080952Y-89333333D01*
X157128571Y-89285714D01*
X157223809Y-89238095D01*
X157461904Y-89238095D01*
X157557142Y-89285714D01*
X157604761Y-89333333D01*
X157652380Y-89428571D01*
X157652380Y-89666666D01*
X157604761Y-89761904D01*
X157557142Y-89809523D01*
X136876190Y-75576190D02*
X137352380Y-75576190D01*
X136352380Y-75909523D02*
X136876190Y-75576190D01*
X136352380Y-75242857D01*
X137352380Y-74385714D02*
X137352380Y-74957142D01*
X137352380Y-74671428D02*
X136352380Y-74671428D01*
X136495238Y-74766666D01*
X136590476Y-74861904D01*
X136638095Y-74957142D01*
X150047619Y-72595238D02*
X150000000Y-72690476D01*
X149904761Y-72785714D01*
X149761904Y-72928571D01*
X149714285Y-73023809D01*
X149714285Y-73119047D01*
X149952380Y-73071428D02*
X149904761Y-73166666D01*
X149809523Y-73261904D01*
X149619047Y-73309523D01*
X149285714Y-73309523D01*
X149095238Y-73261904D01*
X149000000Y-73166666D01*
X148952380Y-73071428D01*
X148952380Y-72880952D01*
X149000000Y-72785714D01*
X149095238Y-72690476D01*
X149285714Y-72642857D01*
X149619047Y-72642857D01*
X149809523Y-72690476D01*
X149904761Y-72785714D01*
X149952380Y-72880952D01*
X149952380Y-73071428D01*
X149952380Y-71690476D02*
X149952380Y-72261904D01*
X149952380Y-71976190D02*
X148952380Y-71976190D01*
X149095238Y-72071428D01*
X149190476Y-72166666D01*
X149238095Y-72261904D01*
X161004761Y-97647619D02*
X160909523Y-97600000D01*
X160814285Y-97504761D01*
X160671428Y-97361904D01*
X160576190Y-97314285D01*
X160480952Y-97314285D01*
X160528571Y-97552380D02*
X160433333Y-97504761D01*
X160338095Y-97409523D01*
X160290476Y-97219047D01*
X160290476Y-96885714D01*
X160338095Y-96695238D01*
X160433333Y-96600000D01*
X160528571Y-96552380D01*
X160719047Y-96552380D01*
X160814285Y-96600000D01*
X160909523Y-96695238D01*
X160957142Y-96885714D01*
X160957142Y-97219047D01*
X160909523Y-97409523D01*
X160814285Y-97504761D01*
X160719047Y-97552380D01*
X160528571Y-97552380D01*
X161338095Y-96647619D02*
X161385714Y-96600000D01*
X161480952Y-96552380D01*
X161719047Y-96552380D01*
X161814285Y-96600000D01*
X161861904Y-96647619D01*
X161909523Y-96742857D01*
X161909523Y-96838095D01*
X161861904Y-96980952D01*
X161290476Y-97552380D01*
X161909523Y-97552380D01*
X136052380Y-71233333D02*
X136766666Y-71233333D01*
X136909523Y-71280952D01*
X137004761Y-71376190D01*
X137052380Y-71519047D01*
X137052380Y-71614285D01*
X136052380Y-70852380D02*
X136052380Y-70233333D01*
X136433333Y-70566666D01*
X136433333Y-70423809D01*
X136480952Y-70328571D01*
X136528571Y-70280952D01*
X136623809Y-70233333D01*
X136861904Y-70233333D01*
X136957142Y-70280952D01*
X137004761Y-70328571D01*
X137052380Y-70423809D01*
X137052380Y-70709523D01*
X137004761Y-70804761D01*
X136957142Y-70852380D01*
X136587142Y-85442857D02*
X136634761Y-85490476D01*
X136682380Y-85633333D01*
X136682380Y-85728571D01*
X136634761Y-85871428D01*
X136539523Y-85966666D01*
X136444285Y-86014285D01*
X136253809Y-86061904D01*
X136110952Y-86061904D01*
X135920476Y-86014285D01*
X135825238Y-85966666D01*
X135730000Y-85871428D01*
X135682380Y-85728571D01*
X135682380Y-85633333D01*
X135730000Y-85490476D01*
X135777619Y-85442857D01*
X136682380Y-84490476D02*
X136682380Y-85061904D01*
X136682380Y-84776190D02*
X135682380Y-84776190D01*
X135825238Y-84871428D01*
X135920476Y-84966666D01*
X135968095Y-85061904D01*
X135682380Y-83633333D02*
X135682380Y-83823809D01*
X135730000Y-83919047D01*
X135777619Y-83966666D01*
X135920476Y-84061904D01*
X136110952Y-84109523D01*
X136491904Y-84109523D01*
X136587142Y-84061904D01*
X136634761Y-84014285D01*
X136682380Y-83919047D01*
X136682380Y-83728571D01*
X136634761Y-83633333D01*
X136587142Y-83585714D01*
X136491904Y-83538095D01*
X136253809Y-83538095D01*
X136158571Y-83585714D01*
X136110952Y-83633333D01*
X136063333Y-83728571D01*
X136063333Y-83919047D01*
X136110952Y-84014285D01*
X136158571Y-84061904D01*
X136253809Y-84109523D01*
X143257142Y-93357142D02*
X143209523Y-93404761D01*
X143066666Y-93452380D01*
X142971428Y-93452380D01*
X142828571Y-93404761D01*
X142733333Y-93309523D01*
X142685714Y-93214285D01*
X142638095Y-93023809D01*
X142638095Y-92880952D01*
X142685714Y-92690476D01*
X142733333Y-92595238D01*
X142828571Y-92500000D01*
X142971428Y-92452380D01*
X143066666Y-92452380D01*
X143209523Y-92500000D01*
X143257142Y-92547619D01*
X144209523Y-93452380D02*
X143638095Y-93452380D01*
X143923809Y-93452380D02*
X143923809Y-92452380D01*
X143828571Y-92595238D01*
X143733333Y-92690476D01*
X143638095Y-92738095D01*
X144542857Y-92452380D02*
X145209523Y-92452380D01*
X144780952Y-93452380D01*
X137957142Y-94942857D02*
X138004761Y-94990476D01*
X138052380Y-95133333D01*
X138052380Y-95228571D01*
X138004761Y-95371428D01*
X137909523Y-95466666D01*
X137814285Y-95514285D01*
X137623809Y-95561904D01*
X137480952Y-95561904D01*
X137290476Y-95514285D01*
X137195238Y-95466666D01*
X137100000Y-95371428D01*
X137052380Y-95228571D01*
X137052380Y-95133333D01*
X137100000Y-94990476D01*
X137147619Y-94942857D01*
X138052380Y-93990476D02*
X138052380Y-94561904D01*
X138052380Y-94276190D02*
X137052380Y-94276190D01*
X137195238Y-94371428D01*
X137290476Y-94466666D01*
X137338095Y-94561904D01*
X137480952Y-93419047D02*
X137433333Y-93514285D01*
X137385714Y-93561904D01*
X137290476Y-93609523D01*
X137242857Y-93609523D01*
X137147619Y-93561904D01*
X137100000Y-93514285D01*
X137052380Y-93419047D01*
X137052380Y-93228571D01*
X137100000Y-93133333D01*
X137147619Y-93085714D01*
X137242857Y-93038095D01*
X137290476Y-93038095D01*
X137385714Y-93085714D01*
X137433333Y-93133333D01*
X137480952Y-93228571D01*
X137480952Y-93419047D01*
X137528571Y-93514285D01*
X137576190Y-93561904D01*
X137671428Y-93609523D01*
X137861904Y-93609523D01*
X137957142Y-93561904D01*
X138004761Y-93514285D01*
X138052380Y-93419047D01*
X138052380Y-93228571D01*
X138004761Y-93133333D01*
X137957142Y-93085714D01*
X137861904Y-93038095D01*
X137671428Y-93038095D01*
X137576190Y-93085714D01*
X137528571Y-93133333D01*
X137480952Y-93228571D01*
X125357142Y-91742857D02*
X125404761Y-91790476D01*
X125452380Y-91933333D01*
X125452380Y-92028571D01*
X125404761Y-92171428D01*
X125309523Y-92266666D01*
X125214285Y-92314285D01*
X125023809Y-92361904D01*
X124880952Y-92361904D01*
X124690476Y-92314285D01*
X124595238Y-92266666D01*
X124500000Y-92171428D01*
X124452380Y-92028571D01*
X124452380Y-91933333D01*
X124500000Y-91790476D01*
X124547619Y-91742857D01*
X125452380Y-90790476D02*
X125452380Y-91361904D01*
X125452380Y-91076190D02*
X124452380Y-91076190D01*
X124595238Y-91171428D01*
X124690476Y-91266666D01*
X124738095Y-91361904D01*
X125452380Y-90314285D02*
X125452380Y-90123809D01*
X125404761Y-90028571D01*
X125357142Y-89980952D01*
X125214285Y-89885714D01*
X125023809Y-89838095D01*
X124642857Y-89838095D01*
X124547619Y-89885714D01*
X124500000Y-89933333D01*
X124452380Y-90028571D01*
X124452380Y-90219047D01*
X124500000Y-90314285D01*
X124547619Y-90361904D01*
X124642857Y-90409523D01*
X124880952Y-90409523D01*
X124976190Y-90361904D01*
X125023809Y-90314285D01*
X125071428Y-90219047D01*
X125071428Y-90028571D01*
X125023809Y-89933333D01*
X124976190Y-89885714D01*
X124880952Y-89838095D01*
X126852380Y-94461904D02*
X127661904Y-94461904D01*
X127757142Y-94414285D01*
X127804761Y-94366666D01*
X127852380Y-94271428D01*
X127852380Y-94080952D01*
X127804761Y-93985714D01*
X127757142Y-93938095D01*
X127661904Y-93890476D01*
X126852380Y-93890476D01*
X127185714Y-92985714D02*
X127852380Y-92985714D01*
X126804761Y-93223809D02*
X127519047Y-93461904D01*
X127519047Y-92842857D01*
X129974404Y-71322380D02*
X129974404Y-70322380D01*
X130212500Y-70322380D01*
X130355357Y-70370000D01*
X130450595Y-70465238D01*
X130498214Y-70560476D01*
X130545833Y-70750952D01*
X130545833Y-70893809D01*
X130498214Y-71084285D01*
X130450595Y-71179523D01*
X130355357Y-71274761D01*
X130212500Y-71322380D01*
X129974404Y-71322380D01*
X131498214Y-71322380D02*
X130926785Y-71322380D01*
X131212500Y-71322380D02*
X131212500Y-70322380D01*
X131117261Y-70465238D01*
X131022023Y-70560476D01*
X130926785Y-70608095D01*
X145622380Y-94566666D02*
X145146190Y-94900000D01*
X145622380Y-95138095D02*
X144622380Y-95138095D01*
X144622380Y-94757142D01*
X144670000Y-94661904D01*
X144717619Y-94614285D01*
X144812857Y-94566666D01*
X144955714Y-94566666D01*
X145050952Y-94614285D01*
X145098571Y-94661904D01*
X145146190Y-94757142D01*
X145146190Y-95138095D01*
X145622380Y-93614285D02*
X145622380Y-94185714D01*
X145622380Y-93900000D02*
X144622380Y-93900000D01*
X144765238Y-93995238D01*
X144860476Y-94090476D01*
X144908095Y-94185714D01*
X144933333Y-71052380D02*
X144600000Y-70576190D01*
X144361904Y-71052380D02*
X144361904Y-70052380D01*
X144742857Y-70052380D01*
X144838095Y-70100000D01*
X144885714Y-70147619D01*
X144933333Y-70242857D01*
X144933333Y-70385714D01*
X144885714Y-70480952D01*
X144838095Y-70528571D01*
X144742857Y-70576190D01*
X144361904Y-70576190D01*
X145314285Y-70147619D02*
X145361904Y-70100000D01*
X145457142Y-70052380D01*
X145695238Y-70052380D01*
X145790476Y-70100000D01*
X145838095Y-70147619D01*
X145885714Y-70242857D01*
X145885714Y-70338095D01*
X145838095Y-70480952D01*
X145266666Y-71052380D01*
X145885714Y-71052380D01*
X138852380Y-90866666D02*
X138376190Y-91200000D01*
X138852380Y-91438095D02*
X137852380Y-91438095D01*
X137852380Y-91057142D01*
X137900000Y-90961904D01*
X137947619Y-90914285D01*
X138042857Y-90866666D01*
X138185714Y-90866666D01*
X138280952Y-90914285D01*
X138328571Y-90961904D01*
X138376190Y-91057142D01*
X138376190Y-91438095D01*
X137852380Y-90533333D02*
X137852380Y-89914285D01*
X138233333Y-90247619D01*
X138233333Y-90104761D01*
X138280952Y-90009523D01*
X138328571Y-89961904D01*
X138423809Y-89914285D01*
X138661904Y-89914285D01*
X138757142Y-89961904D01*
X138804761Y-90009523D01*
X138852380Y-90104761D01*
X138852380Y-90390476D01*
X138804761Y-90485714D01*
X138757142Y-90533333D01*
X127752380Y-85366666D02*
X127276190Y-85700000D01*
X127752380Y-85938095D02*
X126752380Y-85938095D01*
X126752380Y-85557142D01*
X126800000Y-85461904D01*
X126847619Y-85414285D01*
X126942857Y-85366666D01*
X127085714Y-85366666D01*
X127180952Y-85414285D01*
X127228571Y-85461904D01*
X127276190Y-85557142D01*
X127276190Y-85938095D01*
X127085714Y-84509523D02*
X127752380Y-84509523D01*
X126704761Y-84747619D02*
X127419047Y-84985714D01*
X127419047Y-84366666D01*
X135122380Y-72766666D02*
X134646190Y-73100000D01*
X135122380Y-73338095D02*
X134122380Y-73338095D01*
X134122380Y-72957142D01*
X134170000Y-72861904D01*
X134217619Y-72814285D01*
X134312857Y-72766666D01*
X134455714Y-72766666D01*
X134550952Y-72814285D01*
X134598571Y-72861904D01*
X134646190Y-72957142D01*
X134646190Y-73338095D01*
X134122380Y-71861904D02*
X134122380Y-72338095D01*
X134598571Y-72385714D01*
X134550952Y-72338095D01*
X134503333Y-72242857D01*
X134503333Y-72004761D01*
X134550952Y-71909523D01*
X134598571Y-71861904D01*
X134693809Y-71814285D01*
X134931904Y-71814285D01*
X135027142Y-71861904D01*
X135074761Y-71909523D01*
X135122380Y-72004761D01*
X135122380Y-72242857D01*
X135074761Y-72338095D01*
X135027142Y-72385714D01*
X142252380Y-71766666D02*
X141776190Y-72100000D01*
X142252380Y-72338095D02*
X141252380Y-72338095D01*
X141252380Y-71957142D01*
X141300000Y-71861904D01*
X141347619Y-71814285D01*
X141442857Y-71766666D01*
X141585714Y-71766666D01*
X141680952Y-71814285D01*
X141728571Y-71861904D01*
X141776190Y-71957142D01*
X141776190Y-72338095D01*
X141252380Y-70909523D02*
X141252380Y-71100000D01*
X141300000Y-71195238D01*
X141347619Y-71242857D01*
X141490476Y-71338095D01*
X141680952Y-71385714D01*
X142061904Y-71385714D01*
X142157142Y-71338095D01*
X142204761Y-71290476D01*
X142252380Y-71195238D01*
X142252380Y-71004761D01*
X142204761Y-70909523D01*
X142157142Y-70861904D01*
X142061904Y-70814285D01*
X141823809Y-70814285D01*
X141728571Y-70861904D01*
X141680952Y-70909523D01*
X141633333Y-71004761D01*
X141633333Y-71195238D01*
X141680952Y-71290476D01*
X141728571Y-71338095D01*
X141823809Y-71385714D01*
X124852380Y-100633333D02*
X125566666Y-100633333D01*
X125709523Y-100680952D01*
X125804761Y-100776190D01*
X125852380Y-100919047D01*
X125852380Y-101014285D01*
X125185714Y-99728571D02*
X125852380Y-99728571D01*
X124804761Y-99966666D02*
X125519047Y-100204761D01*
X125519047Y-99585714D01*
X129452380Y-104095238D02*
X128976190Y-104428571D01*
X129452380Y-104666666D02*
X128452380Y-104666666D01*
X128452380Y-104285714D01*
X128500000Y-104190476D01*
X128547619Y-104142857D01*
X128642857Y-104095238D01*
X128785714Y-104095238D01*
X128880952Y-104142857D01*
X128928571Y-104190476D01*
X128976190Y-104285714D01*
X128976190Y-104666666D01*
X128452380Y-103809523D02*
X129452380Y-103476190D01*
X128452380Y-103142857D01*
X129452380Y-102285714D02*
X129452380Y-102857142D01*
X129452380Y-102571428D02*
X128452380Y-102571428D01*
X128595238Y-102666666D01*
X128690476Y-102761904D01*
X128738095Y-102857142D01*
X159352380Y-76433333D02*
X160066666Y-76433333D01*
X160209523Y-76480952D01*
X160304761Y-76576190D01*
X160352380Y-76719047D01*
X160352380Y-76814285D01*
X159352380Y-75528571D02*
X159352380Y-75719047D01*
X159400000Y-75814285D01*
X159447619Y-75861904D01*
X159590476Y-75957142D01*
X159780952Y-76004761D01*
X160161904Y-76004761D01*
X160257142Y-75957142D01*
X160304761Y-75909523D01*
X160352380Y-75814285D01*
X160352380Y-75623809D01*
X160304761Y-75528571D01*
X160257142Y-75480952D01*
X160161904Y-75433333D01*
X159923809Y-75433333D01*
X159828571Y-75480952D01*
X159780952Y-75528571D01*
X159733333Y-75623809D01*
X159733333Y-75814285D01*
X159780952Y-75909523D01*
X159828571Y-75957142D01*
X159923809Y-76004761D01*
X148182380Y-64548333D02*
X148896666Y-64548333D01*
X149039523Y-64595952D01*
X149134761Y-64691190D01*
X149182380Y-64834047D01*
X149182380Y-64929285D01*
X148277619Y-64119761D02*
X148230000Y-64072142D01*
X148182380Y-63976904D01*
X148182380Y-63738809D01*
X148230000Y-63643571D01*
X148277619Y-63595952D01*
X148372857Y-63548333D01*
X148468095Y-63548333D01*
X148610952Y-63595952D01*
X149182380Y-64167380D01*
X149182380Y-63548333D01*
X164652380Y-92333333D02*
X165366666Y-92333333D01*
X165509523Y-92380952D01*
X165604761Y-92476190D01*
X165652380Y-92619047D01*
X165652380Y-92714285D01*
X164652380Y-91952380D02*
X164652380Y-91285714D01*
X165652380Y-91714285D01*
M02*
