G04 #@! TF.GenerationSoftware,KiCad,Pcbnew,5.1.0*
G04 #@! TF.CreationDate,2019-05-01T02:44:57+08:00*
G04 #@! TF.ProjectId,reflow-toaster-mainboard,7265666c-6f77-42d7-946f-61737465722d,rev?*
G04 #@! TF.SameCoordinates,Original*
G04 #@! TF.FileFunction,Soldermask,Bot*
G04 #@! TF.FilePolarity,Negative*
%FSLAX46Y46*%
G04 Gerber Fmt 4.6, Leading zero omitted, Abs format (unit mm)*
G04 Created by KiCad (PCBNEW 5.1.0) date 2019-05-01 02:44:57*
%MOMM*%
%LPD*%
G04 APERTURE LIST*
%ADD10C,0.150000*%
%ADD11C,0.100000*%
G04 APERTURE END LIST*
D10*
X171000000Y-54500000D02*
X121200000Y-54500000D01*
X121300000Y-109400000D02*
X121200000Y-54500000D01*
X170900000Y-109400000D02*
X121300000Y-109400000D01*
X171000000Y-54500000D02*
X170900000Y-109400000D01*
D11*
G36*
X167924549Y-105071116D02*
G01*
X168035734Y-105093232D01*
X168245203Y-105179997D01*
X168433720Y-105305960D01*
X168594040Y-105466280D01*
X168720003Y-105654797D01*
X168806768Y-105864266D01*
X168851000Y-106086636D01*
X168851000Y-106313364D01*
X168806768Y-106535734D01*
X168720003Y-106745203D01*
X168594040Y-106933720D01*
X168433720Y-107094040D01*
X168245203Y-107220003D01*
X168035734Y-107306768D01*
X167924549Y-107328884D01*
X167813365Y-107351000D01*
X167586635Y-107351000D01*
X167475451Y-107328884D01*
X167364266Y-107306768D01*
X167154797Y-107220003D01*
X166966280Y-107094040D01*
X166805960Y-106933720D01*
X166679997Y-106745203D01*
X166593232Y-106535734D01*
X166549000Y-106313364D01*
X166549000Y-106086636D01*
X166593232Y-105864266D01*
X166679997Y-105654797D01*
X166805960Y-105466280D01*
X166966280Y-105305960D01*
X167154797Y-105179997D01*
X167364266Y-105093232D01*
X167475451Y-105071116D01*
X167586635Y-105049000D01*
X167813365Y-105049000D01*
X167924549Y-105071116D01*
X167924549Y-105071116D01*
G37*
G36*
X124624549Y-105071116D02*
G01*
X124735734Y-105093232D01*
X124945203Y-105179997D01*
X125133720Y-105305960D01*
X125294040Y-105466280D01*
X125420003Y-105654797D01*
X125506768Y-105864266D01*
X125551000Y-106086636D01*
X125551000Y-106313364D01*
X125506768Y-106535734D01*
X125420003Y-106745203D01*
X125294040Y-106933720D01*
X125133720Y-107094040D01*
X124945203Y-107220003D01*
X124735734Y-107306768D01*
X124624549Y-107328884D01*
X124513365Y-107351000D01*
X124286635Y-107351000D01*
X124175451Y-107328884D01*
X124064266Y-107306768D01*
X123854797Y-107220003D01*
X123666280Y-107094040D01*
X123505960Y-106933720D01*
X123379997Y-106745203D01*
X123293232Y-106535734D01*
X123249000Y-106313364D01*
X123249000Y-106086636D01*
X123293232Y-105864266D01*
X123379997Y-105654797D01*
X123505960Y-105466280D01*
X123666280Y-105305960D01*
X123854797Y-105179997D01*
X124064266Y-105093232D01*
X124175451Y-105071116D01*
X124286635Y-105049000D01*
X124513365Y-105049000D01*
X124624549Y-105071116D01*
X124624549Y-105071116D01*
G37*
G36*
X133238855Y-98052140D02*
G01*
X133302618Y-98058420D01*
X133393404Y-98085960D01*
X133425336Y-98095646D01*
X133538425Y-98156094D01*
X133637554Y-98237446D01*
X133718906Y-98336575D01*
X133779354Y-98449664D01*
X133779355Y-98449668D01*
X133816580Y-98572382D01*
X133829149Y-98700000D01*
X133816580Y-98827618D01*
X133789040Y-98918404D01*
X133779354Y-98950336D01*
X133718906Y-99063425D01*
X133637554Y-99162554D01*
X133538425Y-99243906D01*
X133425336Y-99304354D01*
X133393404Y-99314040D01*
X133302618Y-99341580D01*
X133238855Y-99347860D01*
X133206974Y-99351000D01*
X132593026Y-99351000D01*
X132561145Y-99347860D01*
X132497382Y-99341580D01*
X132406596Y-99314040D01*
X132374664Y-99304354D01*
X132261575Y-99243906D01*
X132162446Y-99162554D01*
X132081094Y-99063425D01*
X132020646Y-98950336D01*
X132010960Y-98918404D01*
X131983420Y-98827618D01*
X131970851Y-98700000D01*
X131983420Y-98572382D01*
X132020645Y-98449668D01*
X132020646Y-98449664D01*
X132081094Y-98336575D01*
X132162446Y-98237446D01*
X132261575Y-98156094D01*
X132374664Y-98095646D01*
X132406596Y-98085960D01*
X132497382Y-98058420D01*
X132561145Y-98052140D01*
X132593026Y-98049000D01*
X133206974Y-98049000D01*
X133238855Y-98052140D01*
X133238855Y-98052140D01*
G37*
G36*
X133666242Y-96053404D02*
G01*
X133703337Y-96064657D01*
X133737515Y-96082925D01*
X133767481Y-96107519D01*
X133792075Y-96137485D01*
X133810343Y-96171663D01*
X133821596Y-96208758D01*
X133826000Y-96253474D01*
X133826000Y-97146526D01*
X133821596Y-97191242D01*
X133810343Y-97228337D01*
X133792075Y-97262515D01*
X133767481Y-97292481D01*
X133737515Y-97317075D01*
X133703337Y-97335343D01*
X133666242Y-97346596D01*
X133621526Y-97351000D01*
X132178474Y-97351000D01*
X132133758Y-97346596D01*
X132096663Y-97335343D01*
X132062485Y-97317075D01*
X132032519Y-97292481D01*
X132007925Y-97262515D01*
X131989657Y-97228337D01*
X131978404Y-97191242D01*
X131974000Y-97146526D01*
X131974000Y-96253474D01*
X131978404Y-96208758D01*
X131989657Y-96171663D01*
X132007925Y-96137485D01*
X132032519Y-96107519D01*
X132062485Y-96082925D01*
X132096663Y-96064657D01*
X132133758Y-96053404D01*
X132178474Y-96049000D01*
X133621526Y-96049000D01*
X133666242Y-96053404D01*
X133666242Y-96053404D01*
G37*
G36*
X163438015Y-93456973D02*
G01*
X163541879Y-93488479D01*
X163569055Y-93503005D01*
X163637600Y-93539643D01*
X163721501Y-93608499D01*
X163790356Y-93692400D01*
X163813764Y-93736193D01*
X163827375Y-93756563D01*
X163844702Y-93773890D01*
X163865076Y-93787504D01*
X163887715Y-93796881D01*
X163911748Y-93801662D01*
X163936252Y-93801662D01*
X163960286Y-93796882D01*
X163982924Y-93787505D01*
X164003299Y-93773891D01*
X164020626Y-93756564D01*
X164034240Y-93736190D01*
X164043617Y-93713551D01*
X164048398Y-93689518D01*
X164049000Y-93677265D01*
X164049000Y-93449000D01*
X165151000Y-93449000D01*
X165151000Y-94551000D01*
X164049000Y-94551000D01*
X164049000Y-94322735D01*
X164046598Y-94298349D01*
X164039485Y-94274900D01*
X164027934Y-94253289D01*
X164012389Y-94234347D01*
X163993447Y-94218802D01*
X163971836Y-94207251D01*
X163948387Y-94200138D01*
X163924001Y-94197736D01*
X163899615Y-94200138D01*
X163876166Y-94207251D01*
X163854555Y-94218802D01*
X163835613Y-94234347D01*
X163820068Y-94253289D01*
X163813767Y-94263802D01*
X163790356Y-94307600D01*
X163790355Y-94307601D01*
X163721501Y-94391501D01*
X163637600Y-94460357D01*
X163569055Y-94496995D01*
X163541879Y-94511521D01*
X163438015Y-94543027D01*
X163357067Y-94551000D01*
X163302933Y-94551000D01*
X163221985Y-94543027D01*
X163118121Y-94511521D01*
X163090945Y-94496995D01*
X163022400Y-94460357D01*
X162938499Y-94391501D01*
X162869643Y-94307600D01*
X162830489Y-94234347D01*
X162818479Y-94211879D01*
X162786973Y-94108015D01*
X162776334Y-94000000D01*
X162786973Y-93891985D01*
X162818479Y-93788121D01*
X162858338Y-93713551D01*
X162869643Y-93692400D01*
X162938499Y-93608499D01*
X163022400Y-93539643D01*
X163090945Y-93503005D01*
X163118121Y-93488479D01*
X163221985Y-93456973D01*
X163302933Y-93449000D01*
X163357067Y-93449000D01*
X163438015Y-93456973D01*
X163438015Y-93456973D01*
G37*
G36*
X165150443Y-77805519D02*
G01*
X165216627Y-77812037D01*
X165386466Y-77863557D01*
X165542991Y-77947222D01*
X165578729Y-77976552D01*
X165680186Y-78059814D01*
X165763448Y-78161271D01*
X165792778Y-78197009D01*
X165876443Y-78353534D01*
X165927963Y-78523373D01*
X165945359Y-78700000D01*
X165927963Y-78876627D01*
X165876443Y-79046466D01*
X165792778Y-79202991D01*
X165763448Y-79238729D01*
X165680186Y-79340186D01*
X165578729Y-79423448D01*
X165542991Y-79452778D01*
X165386466Y-79536443D01*
X165216627Y-79587963D01*
X165150442Y-79594482D01*
X165084260Y-79601000D01*
X164995740Y-79601000D01*
X164929558Y-79594482D01*
X164863373Y-79587963D01*
X164693534Y-79536443D01*
X164537009Y-79452778D01*
X164501271Y-79423448D01*
X164399814Y-79340186D01*
X164316552Y-79238729D01*
X164287222Y-79202991D01*
X164203557Y-79046466D01*
X164152037Y-78876627D01*
X164134641Y-78700000D01*
X164152037Y-78523373D01*
X164203557Y-78353534D01*
X164287222Y-78197009D01*
X164316552Y-78161271D01*
X164399814Y-78059814D01*
X164501271Y-77976552D01*
X164537009Y-77947222D01*
X164693534Y-77863557D01*
X164863373Y-77812037D01*
X164929557Y-77805519D01*
X164995740Y-77799000D01*
X165084260Y-77799000D01*
X165150443Y-77805519D01*
X165150443Y-77805519D01*
G37*
G36*
X163401000Y-79601000D02*
G01*
X161599000Y-79601000D01*
X161599000Y-77799000D01*
X163401000Y-77799000D01*
X163401000Y-79601000D01*
X163401000Y-79601000D01*
G37*
G36*
X153650443Y-67705519D02*
G01*
X153716627Y-67712037D01*
X153886466Y-67763557D01*
X154042991Y-67847222D01*
X154078729Y-67876552D01*
X154180186Y-67959814D01*
X154263448Y-68061271D01*
X154292778Y-68097009D01*
X154376443Y-68253534D01*
X154427963Y-68423373D01*
X154445359Y-68600000D01*
X154427963Y-68776627D01*
X154376443Y-68946466D01*
X154292778Y-69102991D01*
X154263448Y-69138729D01*
X154180186Y-69240186D01*
X154078729Y-69323448D01*
X154042991Y-69352778D01*
X153886466Y-69436443D01*
X153716627Y-69487963D01*
X153650443Y-69494481D01*
X153584260Y-69501000D01*
X153495740Y-69501000D01*
X153429557Y-69494481D01*
X153363373Y-69487963D01*
X153193534Y-69436443D01*
X153037009Y-69352778D01*
X153001271Y-69323448D01*
X152899814Y-69240186D01*
X152816552Y-69138729D01*
X152787222Y-69102991D01*
X152703557Y-68946466D01*
X152652037Y-68776627D01*
X152634641Y-68600000D01*
X152652037Y-68423373D01*
X152703557Y-68253534D01*
X152787222Y-68097009D01*
X152816552Y-68061271D01*
X152899814Y-67959814D01*
X153001271Y-67876552D01*
X153037009Y-67847222D01*
X153193534Y-67763557D01*
X153363373Y-67712037D01*
X153429557Y-67705519D01*
X153495740Y-67699000D01*
X153584260Y-67699000D01*
X153650443Y-67705519D01*
X153650443Y-67705519D01*
G37*
G36*
X129421000Y-69501000D02*
G01*
X127619000Y-69501000D01*
X127619000Y-67699000D01*
X129421000Y-67699000D01*
X129421000Y-69501000D01*
X129421000Y-69501000D01*
G37*
G36*
X133710443Y-67705519D02*
G01*
X133776627Y-67712037D01*
X133946466Y-67763557D01*
X134102991Y-67847222D01*
X134138729Y-67876552D01*
X134240186Y-67959814D01*
X134323448Y-68061271D01*
X134352778Y-68097009D01*
X134436443Y-68253534D01*
X134487963Y-68423373D01*
X134505359Y-68600000D01*
X134487963Y-68776627D01*
X134436443Y-68946466D01*
X134352778Y-69102991D01*
X134323448Y-69138729D01*
X134240186Y-69240186D01*
X134138729Y-69323448D01*
X134102991Y-69352778D01*
X133946466Y-69436443D01*
X133776627Y-69487963D01*
X133710443Y-69494481D01*
X133644260Y-69501000D01*
X133555740Y-69501000D01*
X133489557Y-69494481D01*
X133423373Y-69487963D01*
X133253534Y-69436443D01*
X133097009Y-69352778D01*
X133061271Y-69323448D01*
X132959814Y-69240186D01*
X132876552Y-69138729D01*
X132847222Y-69102991D01*
X132763557Y-68946466D01*
X132712037Y-68776627D01*
X132694641Y-68600000D01*
X132712037Y-68423373D01*
X132763557Y-68253534D01*
X132847222Y-68097009D01*
X132876552Y-68061271D01*
X132959814Y-67959814D01*
X133061271Y-67876552D01*
X133097009Y-67847222D01*
X133253534Y-67763557D01*
X133423373Y-67712037D01*
X133489557Y-67705519D01*
X133555740Y-67699000D01*
X133644260Y-67699000D01*
X133710443Y-67705519D01*
X133710443Y-67705519D01*
G37*
G36*
X131170443Y-67705519D02*
G01*
X131236627Y-67712037D01*
X131406466Y-67763557D01*
X131562991Y-67847222D01*
X131598729Y-67876552D01*
X131700186Y-67959814D01*
X131783448Y-68061271D01*
X131812778Y-68097009D01*
X131896443Y-68253534D01*
X131947963Y-68423373D01*
X131965359Y-68600000D01*
X131947963Y-68776627D01*
X131896443Y-68946466D01*
X131812778Y-69102991D01*
X131783448Y-69138729D01*
X131700186Y-69240186D01*
X131598729Y-69323448D01*
X131562991Y-69352778D01*
X131406466Y-69436443D01*
X131236627Y-69487963D01*
X131170443Y-69494481D01*
X131104260Y-69501000D01*
X131015740Y-69501000D01*
X130949557Y-69494481D01*
X130883373Y-69487963D01*
X130713534Y-69436443D01*
X130557009Y-69352778D01*
X130521271Y-69323448D01*
X130419814Y-69240186D01*
X130336552Y-69138729D01*
X130307222Y-69102991D01*
X130223557Y-68946466D01*
X130172037Y-68776627D01*
X130154641Y-68600000D01*
X130172037Y-68423373D01*
X130223557Y-68253534D01*
X130307222Y-68097009D01*
X130336552Y-68061271D01*
X130419814Y-67959814D01*
X130521271Y-67876552D01*
X130557009Y-67847222D01*
X130713534Y-67763557D01*
X130883373Y-67712037D01*
X130949557Y-67705519D01*
X131015740Y-67699000D01*
X131104260Y-67699000D01*
X131170443Y-67705519D01*
X131170443Y-67705519D01*
G37*
G36*
X138101000Y-69501000D02*
G01*
X136299000Y-69501000D01*
X136299000Y-67699000D01*
X138101000Y-67699000D01*
X138101000Y-69501000D01*
X138101000Y-69501000D01*
G37*
G36*
X139850443Y-67705519D02*
G01*
X139916627Y-67712037D01*
X140086466Y-67763557D01*
X140242991Y-67847222D01*
X140278729Y-67876552D01*
X140380186Y-67959814D01*
X140463448Y-68061271D01*
X140492778Y-68097009D01*
X140576443Y-68253534D01*
X140627963Y-68423373D01*
X140645359Y-68600000D01*
X140627963Y-68776627D01*
X140576443Y-68946466D01*
X140492778Y-69102991D01*
X140463448Y-69138729D01*
X140380186Y-69240186D01*
X140278729Y-69323448D01*
X140242991Y-69352778D01*
X140086466Y-69436443D01*
X139916627Y-69487963D01*
X139850443Y-69494481D01*
X139784260Y-69501000D01*
X139695740Y-69501000D01*
X139629557Y-69494481D01*
X139563373Y-69487963D01*
X139393534Y-69436443D01*
X139237009Y-69352778D01*
X139201271Y-69323448D01*
X139099814Y-69240186D01*
X139016552Y-69138729D01*
X138987222Y-69102991D01*
X138903557Y-68946466D01*
X138852037Y-68776627D01*
X138834641Y-68600000D01*
X138852037Y-68423373D01*
X138903557Y-68253534D01*
X138987222Y-68097009D01*
X139016552Y-68061271D01*
X139099814Y-67959814D01*
X139201271Y-67876552D01*
X139237009Y-67847222D01*
X139393534Y-67763557D01*
X139563373Y-67712037D01*
X139629557Y-67705519D01*
X139695740Y-67699000D01*
X139784260Y-67699000D01*
X139850443Y-67705519D01*
X139850443Y-67705519D01*
G37*
G36*
X142390443Y-67705519D02*
G01*
X142456627Y-67712037D01*
X142626466Y-67763557D01*
X142782991Y-67847222D01*
X142818729Y-67876552D01*
X142920186Y-67959814D01*
X143003448Y-68061271D01*
X143032778Y-68097009D01*
X143116443Y-68253534D01*
X143167963Y-68423373D01*
X143185359Y-68600000D01*
X143167963Y-68776627D01*
X143116443Y-68946466D01*
X143032778Y-69102991D01*
X143003448Y-69138729D01*
X142920186Y-69240186D01*
X142818729Y-69323448D01*
X142782991Y-69352778D01*
X142626466Y-69436443D01*
X142456627Y-69487963D01*
X142390443Y-69494481D01*
X142324260Y-69501000D01*
X142235740Y-69501000D01*
X142169557Y-69494481D01*
X142103373Y-69487963D01*
X141933534Y-69436443D01*
X141777009Y-69352778D01*
X141741271Y-69323448D01*
X141639814Y-69240186D01*
X141556552Y-69138729D01*
X141527222Y-69102991D01*
X141443557Y-68946466D01*
X141392037Y-68776627D01*
X141374641Y-68600000D01*
X141392037Y-68423373D01*
X141443557Y-68253534D01*
X141527222Y-68097009D01*
X141556552Y-68061271D01*
X141639814Y-67959814D01*
X141741271Y-67876552D01*
X141777009Y-67847222D01*
X141933534Y-67763557D01*
X142103373Y-67712037D01*
X142169557Y-67705519D01*
X142235740Y-67699000D01*
X142324260Y-67699000D01*
X142390443Y-67705519D01*
X142390443Y-67705519D01*
G37*
G36*
X144930443Y-67705519D02*
G01*
X144996627Y-67712037D01*
X145166466Y-67763557D01*
X145322991Y-67847222D01*
X145358729Y-67876552D01*
X145460186Y-67959814D01*
X145543448Y-68061271D01*
X145572778Y-68097009D01*
X145656443Y-68253534D01*
X145707963Y-68423373D01*
X145725359Y-68600000D01*
X145707963Y-68776627D01*
X145656443Y-68946466D01*
X145572778Y-69102991D01*
X145543448Y-69138729D01*
X145460186Y-69240186D01*
X145358729Y-69323448D01*
X145322991Y-69352778D01*
X145166466Y-69436443D01*
X144996627Y-69487963D01*
X144930443Y-69494481D01*
X144864260Y-69501000D01*
X144775740Y-69501000D01*
X144709557Y-69494481D01*
X144643373Y-69487963D01*
X144473534Y-69436443D01*
X144317009Y-69352778D01*
X144281271Y-69323448D01*
X144179814Y-69240186D01*
X144096552Y-69138729D01*
X144067222Y-69102991D01*
X143983557Y-68946466D01*
X143932037Y-68776627D01*
X143914641Y-68600000D01*
X143932037Y-68423373D01*
X143983557Y-68253534D01*
X144067222Y-68097009D01*
X144096552Y-68061271D01*
X144179814Y-67959814D01*
X144281271Y-67876552D01*
X144317009Y-67847222D01*
X144473534Y-67763557D01*
X144643373Y-67712037D01*
X144709557Y-67705519D01*
X144775740Y-67699000D01*
X144864260Y-67699000D01*
X144930443Y-67705519D01*
X144930443Y-67705519D01*
G37*
G36*
X147470443Y-67705519D02*
G01*
X147536627Y-67712037D01*
X147706466Y-67763557D01*
X147862991Y-67847222D01*
X147898729Y-67876552D01*
X148000186Y-67959814D01*
X148083448Y-68061271D01*
X148112778Y-68097009D01*
X148196443Y-68253534D01*
X148247963Y-68423373D01*
X148265359Y-68600000D01*
X148247963Y-68776627D01*
X148196443Y-68946466D01*
X148112778Y-69102991D01*
X148083448Y-69138729D01*
X148000186Y-69240186D01*
X147898729Y-69323448D01*
X147862991Y-69352778D01*
X147706466Y-69436443D01*
X147536627Y-69487963D01*
X147470443Y-69494481D01*
X147404260Y-69501000D01*
X147315740Y-69501000D01*
X147249557Y-69494481D01*
X147183373Y-69487963D01*
X147013534Y-69436443D01*
X146857009Y-69352778D01*
X146821271Y-69323448D01*
X146719814Y-69240186D01*
X146636552Y-69138729D01*
X146607222Y-69102991D01*
X146523557Y-68946466D01*
X146472037Y-68776627D01*
X146454641Y-68600000D01*
X146472037Y-68423373D01*
X146523557Y-68253534D01*
X146607222Y-68097009D01*
X146636552Y-68061271D01*
X146719814Y-67959814D01*
X146821271Y-67876552D01*
X146857009Y-67847222D01*
X147013534Y-67763557D01*
X147183373Y-67712037D01*
X147249557Y-67705519D01*
X147315740Y-67699000D01*
X147404260Y-67699000D01*
X147470443Y-67705519D01*
X147470443Y-67705519D01*
G37*
G36*
X151901000Y-69501000D02*
G01*
X150099000Y-69501000D01*
X150099000Y-67699000D01*
X151901000Y-67699000D01*
X151901000Y-69501000D01*
X151901000Y-69501000D01*
G37*
G36*
X156190443Y-67705519D02*
G01*
X156256627Y-67712037D01*
X156426466Y-67763557D01*
X156582991Y-67847222D01*
X156618729Y-67876552D01*
X156720186Y-67959814D01*
X156803448Y-68061271D01*
X156832778Y-68097009D01*
X156916443Y-68253534D01*
X156967963Y-68423373D01*
X156985359Y-68600000D01*
X156967963Y-68776627D01*
X156916443Y-68946466D01*
X156832778Y-69102991D01*
X156803448Y-69138729D01*
X156720186Y-69240186D01*
X156618729Y-69323448D01*
X156582991Y-69352778D01*
X156426466Y-69436443D01*
X156256627Y-69487963D01*
X156190443Y-69494481D01*
X156124260Y-69501000D01*
X156035740Y-69501000D01*
X155969557Y-69494481D01*
X155903373Y-69487963D01*
X155733534Y-69436443D01*
X155577009Y-69352778D01*
X155541271Y-69323448D01*
X155439814Y-69240186D01*
X155356552Y-69138729D01*
X155327222Y-69102991D01*
X155243557Y-68946466D01*
X155192037Y-68776627D01*
X155174641Y-68600000D01*
X155192037Y-68423373D01*
X155243557Y-68253534D01*
X155327222Y-68097009D01*
X155356552Y-68061271D01*
X155439814Y-67959814D01*
X155541271Y-67876552D01*
X155577009Y-67847222D01*
X155733534Y-67763557D01*
X155903373Y-67712037D01*
X155969557Y-67705519D01*
X156035740Y-67699000D01*
X156124260Y-67699000D01*
X156190443Y-67705519D01*
X156190443Y-67705519D01*
G37*
G36*
X158730443Y-67705519D02*
G01*
X158796627Y-67712037D01*
X158966466Y-67763557D01*
X159122991Y-67847222D01*
X159158729Y-67876552D01*
X159260186Y-67959814D01*
X159343448Y-68061271D01*
X159372778Y-68097009D01*
X159456443Y-68253534D01*
X159507963Y-68423373D01*
X159525359Y-68600000D01*
X159507963Y-68776627D01*
X159456443Y-68946466D01*
X159372778Y-69102991D01*
X159343448Y-69138729D01*
X159260186Y-69240186D01*
X159158729Y-69323448D01*
X159122991Y-69352778D01*
X158966466Y-69436443D01*
X158796627Y-69487963D01*
X158730443Y-69494481D01*
X158664260Y-69501000D01*
X158575740Y-69501000D01*
X158509557Y-69494481D01*
X158443373Y-69487963D01*
X158273534Y-69436443D01*
X158117009Y-69352778D01*
X158081271Y-69323448D01*
X157979814Y-69240186D01*
X157896552Y-69138729D01*
X157867222Y-69102991D01*
X157783557Y-68946466D01*
X157732037Y-68776627D01*
X157714641Y-68600000D01*
X157732037Y-68423373D01*
X157783557Y-68253534D01*
X157867222Y-68097009D01*
X157896552Y-68061271D01*
X157979814Y-67959814D01*
X158081271Y-67876552D01*
X158117009Y-67847222D01*
X158273534Y-67763557D01*
X158443373Y-67712037D01*
X158509557Y-67705519D01*
X158575740Y-67699000D01*
X158664260Y-67699000D01*
X158730443Y-67705519D01*
X158730443Y-67705519D01*
G37*
G36*
X167824549Y-56771116D02*
G01*
X167935734Y-56793232D01*
X168145203Y-56879997D01*
X168333720Y-57005960D01*
X168494040Y-57166280D01*
X168620003Y-57354797D01*
X168706768Y-57564266D01*
X168751000Y-57786636D01*
X168751000Y-58013364D01*
X168706768Y-58235734D01*
X168620003Y-58445203D01*
X168494040Y-58633720D01*
X168333720Y-58794040D01*
X168145203Y-58920003D01*
X167935734Y-59006768D01*
X167824549Y-59028884D01*
X167713365Y-59051000D01*
X167486635Y-59051000D01*
X167375451Y-59028884D01*
X167264266Y-59006768D01*
X167054797Y-58920003D01*
X166866280Y-58794040D01*
X166705960Y-58633720D01*
X166579997Y-58445203D01*
X166493232Y-58235734D01*
X166449000Y-58013364D01*
X166449000Y-57786636D01*
X166493232Y-57564266D01*
X166579997Y-57354797D01*
X166705960Y-57166280D01*
X166866280Y-57005960D01*
X167054797Y-56879997D01*
X167264266Y-56793232D01*
X167375451Y-56771116D01*
X167486635Y-56749000D01*
X167713365Y-56749000D01*
X167824549Y-56771116D01*
X167824549Y-56771116D01*
G37*
G36*
X124624549Y-56671116D02*
G01*
X124735734Y-56693232D01*
X124945203Y-56779997D01*
X125133720Y-56905960D01*
X125294040Y-57066280D01*
X125420003Y-57254797D01*
X125506768Y-57464266D01*
X125551000Y-57686636D01*
X125551000Y-57913364D01*
X125506768Y-58135734D01*
X125420003Y-58345203D01*
X125294040Y-58533720D01*
X125133720Y-58694040D01*
X124945203Y-58820003D01*
X124735734Y-58906768D01*
X124669197Y-58920003D01*
X124513365Y-58951000D01*
X124286635Y-58951000D01*
X124130803Y-58920003D01*
X124064266Y-58906768D01*
X123854797Y-58820003D01*
X123666280Y-58694040D01*
X123505960Y-58533720D01*
X123379997Y-58345203D01*
X123293232Y-58135734D01*
X123249000Y-57913364D01*
X123249000Y-57686636D01*
X123293232Y-57464266D01*
X123379997Y-57254797D01*
X123505960Y-57066280D01*
X123666280Y-56905960D01*
X123854797Y-56779997D01*
X124064266Y-56693232D01*
X124175451Y-56671116D01*
X124286635Y-56649000D01*
X124513365Y-56649000D01*
X124624549Y-56671116D01*
X124624549Y-56671116D01*
G37*
M02*
