M48
INCH,TZ
T1C0.0118
T2C0.0256
T3C0.0295
T4C0.0394
%
G90
G05
T1
X51732Y-35748
X53228Y-38819
X53622Y-38819
X53701Y-31969
X53701Y-33976
X53937Y-34764
X54134Y-36339
X54258Y-33031
X54291Y-30079
X54961Y-37087
X55000Y-36693
X55276Y-31220
X55551Y-39055
X55984Y-32835
X55984Y-34803
X56142Y-30945
X56299Y-37677
X56476Y-38012
X56693Y-30197
X56693Y-37677
X56988Y-37677
X57402Y-34803
X57402Y-39055
X57638Y-37835
X57677Y-30217
X57756Y-32874
X57881Y-38182
X57992Y-30217
X58110Y-30945
X58113Y-37965
X58268Y-27717
X58299Y-37472
X58377Y-37089
X58425Y-30217
X58583Y-34803
X58957Y-30217
X59252Y-30197
X59528Y-30945
X59528Y-32835
X59528Y-34803
X60236Y-36772
X60423Y-37073
X60472Y-31024
X60472Y-32933
X60472Y-33228
X60630Y-37283
X61378Y-35472
X61535Y-37362
X61654Y-30984
X61673Y-34440
X61732Y-34134
X61977Y-36243
X62109Y-34289
X62209Y-36425
X62443Y-36166
X62500Y-34343
X62507Y-33974
X62520Y-31929
X62717Y-31614
X62913Y-35157
X62933Y-38366
X63197Y-35239
X63206Y-34364
X63445Y-33819
T2
X64303Y-37008
X64803Y-37008
T3
X52323Y-38071
X52323Y-38858
T4
X63976Y-30984
X64976Y-30984
X50598Y-27008
X51598Y-27008
X52598Y-27008
X59449Y-27008
X60449Y-27008
X61449Y-27008
X62449Y-27008
X54016Y-27008
X55016Y-27008
X56016Y-27008
X57016Y-27008
X58016Y-27008
T0
M30
