G04 #@! TF.GenerationSoftware,KiCad,Pcbnew,5.1.0*
G04 #@! TF.CreationDate,2019-05-01T02:44:57+08:00*
G04 #@! TF.ProjectId,reflow-toaster-mainboard,7265666c-6f77-42d7-946f-61737465722d,rev?*
G04 #@! TF.SameCoordinates,Original*
G04 #@! TF.FileFunction,Soldermask,Top*
G04 #@! TF.FilePolarity,Negative*
%FSLAX46Y46*%
G04 Gerber Fmt 4.6, Leading zero omitted, Abs format (unit mm)*
G04 Created by KiCad (PCBNEW 5.1.0) date 2019-05-01 02:44:57*
%MOMM*%
%LPD*%
G04 APERTURE LIST*
%ADD10C,0.150000*%
%ADD11C,0.100000*%
G04 APERTURE END LIST*
D10*
X171000000Y-54500000D02*
X121200000Y-54500000D01*
X121300000Y-109400000D02*
X121200000Y-54500000D01*
X170900000Y-109400000D02*
X121300000Y-109400000D01*
X171000000Y-54500000D02*
X170900000Y-109400000D01*
D11*
G36*
X167924549Y-105071116D02*
G01*
X168035734Y-105093232D01*
X168245203Y-105179997D01*
X168433720Y-105305960D01*
X168594040Y-105466280D01*
X168720003Y-105654797D01*
X168806768Y-105864266D01*
X168851000Y-106086636D01*
X168851000Y-106313364D01*
X168806768Y-106535734D01*
X168720003Y-106745203D01*
X168594040Y-106933720D01*
X168433720Y-107094040D01*
X168245203Y-107220003D01*
X168035734Y-107306768D01*
X167924549Y-107328884D01*
X167813365Y-107351000D01*
X167586635Y-107351000D01*
X167475451Y-107328884D01*
X167364266Y-107306768D01*
X167154797Y-107220003D01*
X166966280Y-107094040D01*
X166805960Y-106933720D01*
X166679997Y-106745203D01*
X166593232Y-106535734D01*
X166549000Y-106313364D01*
X166549000Y-106086636D01*
X166593232Y-105864266D01*
X166679997Y-105654797D01*
X166805960Y-105466280D01*
X166966280Y-105305960D01*
X167154797Y-105179997D01*
X167364266Y-105093232D01*
X167475451Y-105071116D01*
X167586635Y-105049000D01*
X167813365Y-105049000D01*
X167924549Y-105071116D01*
X167924549Y-105071116D01*
G37*
G36*
X124624549Y-105071116D02*
G01*
X124735734Y-105093232D01*
X124945203Y-105179997D01*
X125133720Y-105305960D01*
X125294040Y-105466280D01*
X125420003Y-105654797D01*
X125506768Y-105864266D01*
X125551000Y-106086636D01*
X125551000Y-106313364D01*
X125506768Y-106535734D01*
X125420003Y-106745203D01*
X125294040Y-106933720D01*
X125133720Y-107094040D01*
X124945203Y-107220003D01*
X124735734Y-107306768D01*
X124624549Y-107328884D01*
X124513365Y-107351000D01*
X124286635Y-107351000D01*
X124175451Y-107328884D01*
X124064266Y-107306768D01*
X123854797Y-107220003D01*
X123666280Y-107094040D01*
X123505960Y-106933720D01*
X123379997Y-106745203D01*
X123293232Y-106535734D01*
X123249000Y-106313364D01*
X123249000Y-106086636D01*
X123293232Y-105864266D01*
X123379997Y-105654797D01*
X123505960Y-105466280D01*
X123666280Y-105305960D01*
X123854797Y-105179997D01*
X124064266Y-105093232D01*
X124175451Y-105071116D01*
X124286635Y-105049000D01*
X124513365Y-105049000D01*
X124624549Y-105071116D01*
X124624549Y-105071116D01*
G37*
G36*
X134751000Y-105151000D02*
G01*
X133449000Y-105151000D01*
X133449000Y-103849000D01*
X134751000Y-103849000D01*
X134751000Y-105151000D01*
X134751000Y-105151000D01*
G37*
G36*
X131651000Y-104351000D02*
G01*
X130049000Y-104351000D01*
X130049000Y-102649000D01*
X131651000Y-102649000D01*
X131651000Y-104351000D01*
X131651000Y-104351000D01*
G37*
G36*
X134751000Y-103151000D02*
G01*
X133449000Y-103151000D01*
X133449000Y-101849000D01*
X134751000Y-101849000D01*
X134751000Y-103151000D01*
X134751000Y-103151000D01*
G37*
G36*
X161401000Y-102351000D02*
G01*
X159499000Y-102351000D01*
X159499000Y-100049000D01*
X161401000Y-100049000D01*
X161401000Y-102351000D01*
X161401000Y-102351000D01*
G37*
G36*
X138101000Y-102351000D02*
G01*
X136199000Y-102351000D01*
X136199000Y-100049000D01*
X138101000Y-100049000D01*
X138101000Y-102351000D01*
X138101000Y-102351000D01*
G37*
G36*
X133238855Y-98052140D02*
G01*
X133302618Y-98058420D01*
X133393404Y-98085960D01*
X133425336Y-98095646D01*
X133538425Y-98156094D01*
X133637554Y-98237446D01*
X133718906Y-98336575D01*
X133779354Y-98449664D01*
X133779355Y-98449668D01*
X133816580Y-98572382D01*
X133829149Y-98700000D01*
X133816580Y-98827618D01*
X133789040Y-98918404D01*
X133779354Y-98950336D01*
X133718906Y-99063425D01*
X133637554Y-99162554D01*
X133538425Y-99243906D01*
X133425336Y-99304354D01*
X133393404Y-99314040D01*
X133302618Y-99341580D01*
X133238855Y-99347860D01*
X133206974Y-99351000D01*
X132593026Y-99351000D01*
X132561145Y-99347860D01*
X132497382Y-99341580D01*
X132406596Y-99314040D01*
X132374664Y-99304354D01*
X132261575Y-99243906D01*
X132162446Y-99162554D01*
X132081094Y-99063425D01*
X132020646Y-98950336D01*
X132010960Y-98918404D01*
X131983420Y-98827618D01*
X131970851Y-98700000D01*
X131983420Y-98572382D01*
X132020645Y-98449668D01*
X132020646Y-98449664D01*
X132081094Y-98336575D01*
X132162446Y-98237446D01*
X132261575Y-98156094D01*
X132374664Y-98095646D01*
X132406596Y-98085960D01*
X132497382Y-98058420D01*
X132561145Y-98052140D01*
X132593026Y-98049000D01*
X133206974Y-98049000D01*
X133238855Y-98052140D01*
X133238855Y-98052140D01*
G37*
G36*
X158751000Y-98651000D02*
G01*
X138849000Y-98651000D01*
X138849000Y-97249000D01*
X158751000Y-97249000D01*
X158751000Y-98651000D01*
X158751000Y-98651000D01*
G37*
G36*
X133666242Y-96053404D02*
G01*
X133703337Y-96064657D01*
X133737515Y-96082925D01*
X133767481Y-96107519D01*
X133792075Y-96137485D01*
X133810343Y-96171663D01*
X133821596Y-96208758D01*
X133826000Y-96253474D01*
X133826000Y-97146526D01*
X133821596Y-97191242D01*
X133810343Y-97228337D01*
X133792075Y-97262515D01*
X133767481Y-97292481D01*
X133737515Y-97317075D01*
X133703337Y-97335343D01*
X133666242Y-97346596D01*
X133621526Y-97351000D01*
X132178474Y-97351000D01*
X132133758Y-97346596D01*
X132096663Y-97335343D01*
X132062485Y-97317075D01*
X132032519Y-97292481D01*
X132007925Y-97262515D01*
X131989657Y-97228337D01*
X131978404Y-97191242D01*
X131974000Y-97146526D01*
X131974000Y-96253474D01*
X131978404Y-96208758D01*
X131989657Y-96171663D01*
X132007925Y-96137485D01*
X132032519Y-96107519D01*
X132062485Y-96082925D01*
X132096663Y-96064657D01*
X132133758Y-96053404D01*
X132178474Y-96049000D01*
X133621526Y-96049000D01*
X133666242Y-96053404D01*
X133666242Y-96053404D01*
G37*
G36*
X160126000Y-96001000D02*
G01*
X159574000Y-96001000D01*
X159574000Y-95199000D01*
X160126000Y-95199000D01*
X160126000Y-96001000D01*
X160126000Y-96001000D01*
G37*
G36*
X161426000Y-96001000D02*
G01*
X160874000Y-96001000D01*
X160874000Y-95199000D01*
X161426000Y-95199000D01*
X161426000Y-96001000D01*
X161426000Y-96001000D01*
G37*
G36*
X146979591Y-94703085D02*
G01*
X147013569Y-94713393D01*
X147044890Y-94730134D01*
X147072339Y-94752661D01*
X147094866Y-94780110D01*
X147111607Y-94811431D01*
X147121915Y-94845409D01*
X147126000Y-94886890D01*
X147126000Y-95488110D01*
X147121915Y-95529591D01*
X147111607Y-95563569D01*
X147094866Y-95594890D01*
X147072339Y-95622339D01*
X147044890Y-95644866D01*
X147013569Y-95661607D01*
X146979591Y-95671915D01*
X146938110Y-95676000D01*
X146261890Y-95676000D01*
X146220409Y-95671915D01*
X146186431Y-95661607D01*
X146155110Y-95644866D01*
X146127661Y-95622339D01*
X146105134Y-95594890D01*
X146088393Y-95563569D01*
X146078085Y-95529591D01*
X146074000Y-95488110D01*
X146074000Y-94886890D01*
X146078085Y-94845409D01*
X146088393Y-94811431D01*
X146105134Y-94780110D01*
X146127661Y-94752661D01*
X146155110Y-94730134D01*
X146186431Y-94713393D01*
X146220409Y-94703085D01*
X146261890Y-94699000D01*
X146938110Y-94699000D01*
X146979591Y-94703085D01*
X146979591Y-94703085D01*
G37*
G36*
X140571938Y-93831716D02*
G01*
X140592557Y-93837971D01*
X140611553Y-93848124D01*
X140628208Y-93861792D01*
X140641876Y-93878447D01*
X140652029Y-93897443D01*
X140658284Y-93918062D01*
X140661000Y-93945640D01*
X140661000Y-94454360D01*
X140658284Y-94481938D01*
X140652029Y-94502557D01*
X140641876Y-94521553D01*
X140628208Y-94538208D01*
X140611553Y-94551876D01*
X140592557Y-94562029D01*
X140571938Y-94568284D01*
X140544360Y-94571000D01*
X140085640Y-94571000D01*
X140058062Y-94568284D01*
X140037443Y-94562029D01*
X140018447Y-94551876D01*
X140001792Y-94538208D01*
X139988124Y-94521553D01*
X139977971Y-94502557D01*
X139971716Y-94481938D01*
X139969000Y-94454360D01*
X139969000Y-93945640D01*
X139971716Y-93918062D01*
X139977971Y-93897443D01*
X139988124Y-93878447D01*
X140001792Y-93861792D01*
X140018447Y-93848124D01*
X140037443Y-93837971D01*
X140058062Y-93831716D01*
X140085640Y-93829000D01*
X140544360Y-93829000D01*
X140571938Y-93831716D01*
X140571938Y-93831716D01*
G37*
G36*
X141541938Y-93831716D02*
G01*
X141562557Y-93837971D01*
X141581553Y-93848124D01*
X141598208Y-93861792D01*
X141611876Y-93878447D01*
X141622029Y-93897443D01*
X141628284Y-93918062D01*
X141631000Y-93945640D01*
X141631000Y-94454360D01*
X141628284Y-94481938D01*
X141622029Y-94502557D01*
X141611876Y-94521553D01*
X141598208Y-94538208D01*
X141581553Y-94551876D01*
X141562557Y-94562029D01*
X141541938Y-94568284D01*
X141514360Y-94571000D01*
X141055640Y-94571000D01*
X141028062Y-94568284D01*
X141007443Y-94562029D01*
X140988447Y-94551876D01*
X140971792Y-94538208D01*
X140958124Y-94521553D01*
X140947971Y-94502557D01*
X140941716Y-94481938D01*
X140939000Y-94454360D01*
X140939000Y-93945640D01*
X140941716Y-93918062D01*
X140947971Y-93897443D01*
X140958124Y-93878447D01*
X140971792Y-93861792D01*
X140988447Y-93848124D01*
X141007443Y-93837971D01*
X141028062Y-93831716D01*
X141055640Y-93829000D01*
X141514360Y-93829000D01*
X141541938Y-93831716D01*
X141541938Y-93831716D01*
G37*
G36*
X163438015Y-93456973D02*
G01*
X163541879Y-93488479D01*
X163569055Y-93503005D01*
X163637600Y-93539643D01*
X163721501Y-93608499D01*
X163790356Y-93692400D01*
X163813764Y-93736193D01*
X163827375Y-93756563D01*
X163844702Y-93773890D01*
X163865076Y-93787504D01*
X163887715Y-93796881D01*
X163911748Y-93801662D01*
X163936252Y-93801662D01*
X163960286Y-93796882D01*
X163982924Y-93787505D01*
X164003299Y-93773891D01*
X164020626Y-93756564D01*
X164034240Y-93736190D01*
X164043617Y-93713551D01*
X164048398Y-93689518D01*
X164049000Y-93677265D01*
X164049000Y-93449000D01*
X165151000Y-93449000D01*
X165151000Y-94551000D01*
X164049000Y-94551000D01*
X164049000Y-94322735D01*
X164046598Y-94298349D01*
X164039485Y-94274900D01*
X164027934Y-94253289D01*
X164012389Y-94234347D01*
X163993447Y-94218802D01*
X163971836Y-94207251D01*
X163948387Y-94200138D01*
X163924001Y-94197736D01*
X163899615Y-94200138D01*
X163876166Y-94207251D01*
X163854555Y-94218802D01*
X163835613Y-94234347D01*
X163820068Y-94253289D01*
X163813767Y-94263802D01*
X163790356Y-94307600D01*
X163790355Y-94307601D01*
X163721501Y-94391501D01*
X163637600Y-94460357D01*
X163574445Y-94494114D01*
X163541879Y-94511521D01*
X163438015Y-94543027D01*
X163357067Y-94551000D01*
X163302933Y-94551000D01*
X163221985Y-94543027D01*
X163118121Y-94511521D01*
X163085555Y-94494114D01*
X163022400Y-94460357D01*
X162938499Y-94391501D01*
X162869643Y-94307600D01*
X162830489Y-94234347D01*
X162818479Y-94211879D01*
X162786973Y-94108015D01*
X162776334Y-94000000D01*
X162786973Y-93891985D01*
X162818479Y-93788121D01*
X162858338Y-93713551D01*
X162869643Y-93692400D01*
X162938499Y-93608499D01*
X163022400Y-93539643D01*
X163090945Y-93503005D01*
X163118121Y-93488479D01*
X163221985Y-93456973D01*
X163302933Y-93449000D01*
X163357067Y-93449000D01*
X163438015Y-93456973D01*
X163438015Y-93456973D01*
G37*
G36*
X146979591Y-93128085D02*
G01*
X147013569Y-93138393D01*
X147044890Y-93155134D01*
X147072339Y-93177661D01*
X147094866Y-93205110D01*
X147111607Y-93236431D01*
X147121915Y-93270409D01*
X147126000Y-93311890D01*
X147126000Y-93913110D01*
X147121915Y-93954591D01*
X147111607Y-93988569D01*
X147094866Y-94019890D01*
X147072339Y-94047339D01*
X147044890Y-94069866D01*
X147013569Y-94086607D01*
X146979591Y-94096915D01*
X146938110Y-94101000D01*
X146261890Y-94101000D01*
X146220409Y-94096915D01*
X146186431Y-94086607D01*
X146155110Y-94069866D01*
X146127661Y-94047339D01*
X146105134Y-94019890D01*
X146088393Y-93988569D01*
X146078085Y-93954591D01*
X146074000Y-93913110D01*
X146074000Y-93311890D01*
X146078085Y-93270409D01*
X146088393Y-93236431D01*
X146105134Y-93205110D01*
X146127661Y-93177661D01*
X146155110Y-93155134D01*
X146186431Y-93138393D01*
X146220409Y-93128085D01*
X146261890Y-93124000D01*
X146938110Y-93124000D01*
X146979591Y-93128085D01*
X146979591Y-93128085D01*
G37*
G36*
X136681938Y-93341716D02*
G01*
X136702557Y-93347971D01*
X136721553Y-93358124D01*
X136738208Y-93371792D01*
X136751876Y-93388447D01*
X136762029Y-93407443D01*
X136768284Y-93428062D01*
X136771000Y-93455640D01*
X136771000Y-93914360D01*
X136768284Y-93941938D01*
X136762029Y-93962557D01*
X136751876Y-93981553D01*
X136738208Y-93998208D01*
X136721553Y-94011876D01*
X136702557Y-94022029D01*
X136681938Y-94028284D01*
X136654360Y-94031000D01*
X136145640Y-94031000D01*
X136118062Y-94028284D01*
X136097443Y-94022029D01*
X136078447Y-94011876D01*
X136061792Y-93998208D01*
X136048124Y-93981553D01*
X136037971Y-93962557D01*
X136031716Y-93941938D01*
X136029000Y-93914360D01*
X136029000Y-93455640D01*
X136031716Y-93428062D01*
X136037971Y-93407443D01*
X136048124Y-93388447D01*
X136061792Y-93371792D01*
X136078447Y-93358124D01*
X136097443Y-93347971D01*
X136118062Y-93341716D01*
X136145640Y-93339000D01*
X136654360Y-93339000D01*
X136681938Y-93341716D01*
X136681938Y-93341716D01*
G37*
G36*
X160776000Y-94001000D02*
G01*
X160224000Y-94001000D01*
X160224000Y-93199000D01*
X160776000Y-93199000D01*
X160776000Y-94001000D01*
X160776000Y-94001000D01*
G37*
G36*
X142041938Y-92431716D02*
G01*
X142062557Y-92437971D01*
X142081553Y-92448124D01*
X142098208Y-92461792D01*
X142111876Y-92478447D01*
X142122029Y-92497443D01*
X142128284Y-92518062D01*
X142131000Y-92545640D01*
X142131000Y-93054360D01*
X142128284Y-93081938D01*
X142122029Y-93102557D01*
X142111876Y-93121553D01*
X142098208Y-93138208D01*
X142081553Y-93151876D01*
X142062557Y-93162029D01*
X142041938Y-93168284D01*
X142014360Y-93171000D01*
X141555640Y-93171000D01*
X141528062Y-93168284D01*
X141507443Y-93162029D01*
X141488447Y-93151876D01*
X141471792Y-93138208D01*
X141458124Y-93121553D01*
X141447971Y-93102557D01*
X141441716Y-93081938D01*
X141439000Y-93054360D01*
X141439000Y-92545640D01*
X141441716Y-92518062D01*
X141447971Y-92497443D01*
X141458124Y-92478447D01*
X141471792Y-92461792D01*
X141488447Y-92448124D01*
X141507443Y-92437971D01*
X141528062Y-92431716D01*
X141555640Y-92429000D01*
X142014360Y-92429000D01*
X142041938Y-92431716D01*
X142041938Y-92431716D01*
G37*
G36*
X154141938Y-92431716D02*
G01*
X154162557Y-92437971D01*
X154181553Y-92448124D01*
X154198208Y-92461792D01*
X154211876Y-92478447D01*
X154222029Y-92497443D01*
X154228284Y-92518062D01*
X154231000Y-92545640D01*
X154231000Y-93054360D01*
X154228284Y-93081938D01*
X154222029Y-93102557D01*
X154211876Y-93121553D01*
X154198208Y-93138208D01*
X154181553Y-93151876D01*
X154162557Y-93162029D01*
X154141938Y-93168284D01*
X154114360Y-93171000D01*
X153655640Y-93171000D01*
X153628062Y-93168284D01*
X153607443Y-93162029D01*
X153588447Y-93151876D01*
X153571792Y-93138208D01*
X153558124Y-93121553D01*
X153547971Y-93102557D01*
X153541716Y-93081938D01*
X153539000Y-93054360D01*
X153539000Y-92545640D01*
X153541716Y-92518062D01*
X153547971Y-92497443D01*
X153558124Y-92478447D01*
X153571792Y-92461792D01*
X153588447Y-92448124D01*
X153607443Y-92437971D01*
X153628062Y-92431716D01*
X153655640Y-92429000D01*
X154114360Y-92429000D01*
X154141938Y-92431716D01*
X154141938Y-92431716D01*
G37*
G36*
X153171938Y-92431716D02*
G01*
X153192557Y-92437971D01*
X153211553Y-92448124D01*
X153228208Y-92461792D01*
X153241876Y-92478447D01*
X153252029Y-92497443D01*
X153258284Y-92518062D01*
X153261000Y-92545640D01*
X153261000Y-93054360D01*
X153258284Y-93081938D01*
X153252029Y-93102557D01*
X153241876Y-93121553D01*
X153228208Y-93138208D01*
X153211553Y-93151876D01*
X153192557Y-93162029D01*
X153171938Y-93168284D01*
X153144360Y-93171000D01*
X152685640Y-93171000D01*
X152658062Y-93168284D01*
X152637443Y-93162029D01*
X152618447Y-93151876D01*
X152601792Y-93138208D01*
X152588124Y-93121553D01*
X152577971Y-93102557D01*
X152571716Y-93081938D01*
X152569000Y-93054360D01*
X152569000Y-92545640D01*
X152571716Y-92518062D01*
X152577971Y-92497443D01*
X152588124Y-92478447D01*
X152601792Y-92461792D01*
X152618447Y-92448124D01*
X152637443Y-92437971D01*
X152658062Y-92431716D01*
X152685640Y-92429000D01*
X153144360Y-92429000D01*
X153171938Y-92431716D01*
X153171938Y-92431716D01*
G37*
G36*
X141071938Y-92431716D02*
G01*
X141092557Y-92437971D01*
X141111553Y-92448124D01*
X141128208Y-92461792D01*
X141141876Y-92478447D01*
X141152029Y-92497443D01*
X141158284Y-92518062D01*
X141161000Y-92545640D01*
X141161000Y-93054360D01*
X141158284Y-93081938D01*
X141152029Y-93102557D01*
X141141876Y-93121553D01*
X141128208Y-93138208D01*
X141111553Y-93151876D01*
X141092557Y-93162029D01*
X141071938Y-93168284D01*
X141044360Y-93171000D01*
X140585640Y-93171000D01*
X140558062Y-93168284D01*
X140537443Y-93162029D01*
X140518447Y-93151876D01*
X140501792Y-93138208D01*
X140488124Y-93121553D01*
X140477971Y-93102557D01*
X140471716Y-93081938D01*
X140469000Y-93054360D01*
X140469000Y-92545640D01*
X140471716Y-92518062D01*
X140477971Y-92497443D01*
X140488124Y-92478447D01*
X140501792Y-92461792D01*
X140518447Y-92448124D01*
X140537443Y-92437971D01*
X140558062Y-92431716D01*
X140585640Y-92429000D01*
X141044360Y-92429000D01*
X141071938Y-92431716D01*
X141071938Y-92431716D01*
G37*
G36*
X135326000Y-93156000D02*
G01*
X133674000Y-93156000D01*
X133674000Y-92454000D01*
X135326000Y-92454000D01*
X135326000Y-93156000D01*
X135326000Y-93156000D01*
G37*
G36*
X129926000Y-93156000D02*
G01*
X128274000Y-93156000D01*
X128274000Y-92454000D01*
X129926000Y-92454000D01*
X129926000Y-93156000D01*
X129926000Y-93156000D01*
G37*
G36*
X136681938Y-92371716D02*
G01*
X136702557Y-92377971D01*
X136721553Y-92388124D01*
X136738208Y-92401792D01*
X136751876Y-92418447D01*
X136762029Y-92437443D01*
X136768284Y-92458062D01*
X136771000Y-92485640D01*
X136771000Y-92944360D01*
X136768284Y-92971938D01*
X136762029Y-92992557D01*
X136751876Y-93011553D01*
X136738208Y-93028208D01*
X136721553Y-93041876D01*
X136702557Y-93052029D01*
X136681938Y-93058284D01*
X136654360Y-93061000D01*
X136145640Y-93061000D01*
X136118062Y-93058284D01*
X136097443Y-93052029D01*
X136078447Y-93041876D01*
X136061792Y-93028208D01*
X136048124Y-93011553D01*
X136037971Y-92992557D01*
X136031716Y-92971938D01*
X136029000Y-92944360D01*
X136029000Y-92485640D01*
X136031716Y-92458062D01*
X136037971Y-92437443D01*
X136048124Y-92418447D01*
X136061792Y-92401792D01*
X136078447Y-92388124D01*
X136097443Y-92377971D01*
X136118062Y-92371716D01*
X136145640Y-92369000D01*
X136654360Y-92369000D01*
X136681938Y-92371716D01*
X136681938Y-92371716D01*
G37*
G36*
X127384468Y-91503565D02*
G01*
X127423138Y-91515296D01*
X127458777Y-91534346D01*
X127490017Y-91559983D01*
X127515654Y-91591223D01*
X127534704Y-91626862D01*
X127546435Y-91665532D01*
X127551000Y-91711888D01*
X127551000Y-92363112D01*
X127546435Y-92409468D01*
X127534704Y-92448138D01*
X127515654Y-92483777D01*
X127490017Y-92515017D01*
X127458777Y-92540654D01*
X127423138Y-92559704D01*
X127384468Y-92571435D01*
X127338112Y-92576000D01*
X126261888Y-92576000D01*
X126215532Y-92571435D01*
X126176862Y-92559704D01*
X126141223Y-92540654D01*
X126109983Y-92515017D01*
X126084346Y-92483777D01*
X126065296Y-92448138D01*
X126053565Y-92409468D01*
X126049000Y-92363112D01*
X126049000Y-91711888D01*
X126053565Y-91665532D01*
X126065296Y-91626862D01*
X126084346Y-91591223D01*
X126109983Y-91559983D01*
X126141223Y-91534346D01*
X126176862Y-91515296D01*
X126215532Y-91503565D01*
X126261888Y-91499000D01*
X127338112Y-91499000D01*
X127384468Y-91503565D01*
X127384468Y-91503565D01*
G37*
G36*
X153191000Y-92001000D02*
G01*
X140809000Y-92001000D01*
X140809000Y-90399000D01*
X153191000Y-90399000D01*
X153191000Y-92001000D01*
X153191000Y-92001000D01*
G37*
G36*
X129926000Y-91886000D02*
G01*
X128274000Y-91886000D01*
X128274000Y-91184000D01*
X129926000Y-91184000D01*
X129926000Y-91886000D01*
X129926000Y-91886000D01*
G37*
G36*
X135326000Y-91886000D02*
G01*
X133674000Y-91886000D01*
X133674000Y-91184000D01*
X135326000Y-91184000D01*
X135326000Y-91886000D01*
X135326000Y-91886000D01*
G37*
G36*
X137279591Y-90603085D02*
G01*
X137313569Y-90613393D01*
X137344890Y-90630134D01*
X137372339Y-90652661D01*
X137394866Y-90680110D01*
X137411607Y-90711431D01*
X137421915Y-90745409D01*
X137426000Y-90786890D01*
X137426000Y-91388110D01*
X137421915Y-91429591D01*
X137411607Y-91463569D01*
X137394866Y-91494890D01*
X137372339Y-91522339D01*
X137344890Y-91544866D01*
X137313569Y-91561607D01*
X137279591Y-91571915D01*
X137238110Y-91576000D01*
X136561890Y-91576000D01*
X136520409Y-91571915D01*
X136486431Y-91561607D01*
X136455110Y-91544866D01*
X136427661Y-91522339D01*
X136405134Y-91494890D01*
X136388393Y-91463569D01*
X136378085Y-91429591D01*
X136374000Y-91388110D01*
X136374000Y-90786890D01*
X136378085Y-90745409D01*
X136388393Y-90711431D01*
X136405134Y-90680110D01*
X136427661Y-90652661D01*
X136455110Y-90630134D01*
X136486431Y-90613393D01*
X136520409Y-90603085D01*
X136561890Y-90599000D01*
X137238110Y-90599000D01*
X137279591Y-90603085D01*
X137279591Y-90603085D01*
G37*
G36*
X158681938Y-90641716D02*
G01*
X158702557Y-90647971D01*
X158721553Y-90658124D01*
X158738208Y-90671792D01*
X158751876Y-90688447D01*
X158762029Y-90707443D01*
X158768284Y-90728062D01*
X158771000Y-90755640D01*
X158771000Y-91214360D01*
X158768284Y-91241938D01*
X158762029Y-91262557D01*
X158751876Y-91281553D01*
X158738208Y-91298208D01*
X158721553Y-91311876D01*
X158702557Y-91322029D01*
X158681938Y-91328284D01*
X158654360Y-91331000D01*
X158145640Y-91331000D01*
X158118062Y-91328284D01*
X158097443Y-91322029D01*
X158078447Y-91311876D01*
X158061792Y-91298208D01*
X158048124Y-91281553D01*
X158037971Y-91262557D01*
X158031716Y-91241938D01*
X158029000Y-91214360D01*
X158029000Y-90755640D01*
X158031716Y-90728062D01*
X158037971Y-90707443D01*
X158048124Y-90688447D01*
X158061792Y-90671792D01*
X158078447Y-90658124D01*
X158097443Y-90647971D01*
X158118062Y-90641716D01*
X158145640Y-90639000D01*
X158654360Y-90639000D01*
X158681938Y-90641716D01*
X158681938Y-90641716D01*
G37*
G36*
X164026000Y-91226000D02*
G01*
X159574000Y-91226000D01*
X159574000Y-89674000D01*
X164026000Y-89674000D01*
X164026000Y-91226000D01*
X164026000Y-91226000D01*
G37*
G36*
X127384468Y-89628565D02*
G01*
X127423138Y-89640296D01*
X127458777Y-89659346D01*
X127490017Y-89684983D01*
X127515654Y-89716223D01*
X127534704Y-89751862D01*
X127546435Y-89790532D01*
X127551000Y-89836888D01*
X127551000Y-90488112D01*
X127546435Y-90534468D01*
X127534704Y-90573138D01*
X127515654Y-90608777D01*
X127490017Y-90640017D01*
X127458777Y-90665654D01*
X127423138Y-90684704D01*
X127384468Y-90696435D01*
X127338112Y-90701000D01*
X126261888Y-90701000D01*
X126215532Y-90696435D01*
X126176862Y-90684704D01*
X126141223Y-90665654D01*
X126109983Y-90640017D01*
X126084346Y-90608777D01*
X126065296Y-90573138D01*
X126053565Y-90534468D01*
X126049000Y-90488112D01*
X126049000Y-89836888D01*
X126053565Y-89790532D01*
X126065296Y-89751862D01*
X126084346Y-89716223D01*
X126109983Y-89684983D01*
X126141223Y-89659346D01*
X126176862Y-89640296D01*
X126215532Y-89628565D01*
X126261888Y-89624000D01*
X127338112Y-89624000D01*
X127384468Y-89628565D01*
X127384468Y-89628565D01*
G37*
G36*
X135326000Y-90616000D02*
G01*
X133674000Y-90616000D01*
X133674000Y-89914000D01*
X135326000Y-89914000D01*
X135326000Y-90616000D01*
X135326000Y-90616000D01*
G37*
G36*
X129926000Y-90616000D02*
G01*
X128274000Y-90616000D01*
X128274000Y-89914000D01*
X129926000Y-89914000D01*
X129926000Y-90616000D01*
X129926000Y-90616000D01*
G37*
G36*
X158681938Y-89671716D02*
G01*
X158702557Y-89677971D01*
X158721553Y-89688124D01*
X158738208Y-89701792D01*
X158751876Y-89718447D01*
X158762029Y-89737443D01*
X158768284Y-89758062D01*
X158771000Y-89785640D01*
X158771000Y-90244360D01*
X158768284Y-90271938D01*
X158762029Y-90292557D01*
X158751876Y-90311553D01*
X158738208Y-90328208D01*
X158721553Y-90341876D01*
X158702557Y-90352029D01*
X158681938Y-90358284D01*
X158654360Y-90361000D01*
X158145640Y-90361000D01*
X158118062Y-90358284D01*
X158097443Y-90352029D01*
X158078447Y-90341876D01*
X158061792Y-90328208D01*
X158048124Y-90311553D01*
X158037971Y-90292557D01*
X158031716Y-90271938D01*
X158029000Y-90244360D01*
X158029000Y-89785640D01*
X158031716Y-89758062D01*
X158037971Y-89737443D01*
X158048124Y-89718447D01*
X158061792Y-89701792D01*
X158078447Y-89688124D01*
X158097443Y-89677971D01*
X158118062Y-89671716D01*
X158145640Y-89669000D01*
X158654360Y-89669000D01*
X158681938Y-89671716D01*
X158681938Y-89671716D01*
G37*
G36*
X137279591Y-89028085D02*
G01*
X137313569Y-89038393D01*
X137344890Y-89055134D01*
X137372339Y-89077661D01*
X137394866Y-89105110D01*
X137411607Y-89136431D01*
X137421915Y-89170409D01*
X137426000Y-89211890D01*
X137426000Y-89813110D01*
X137421915Y-89854591D01*
X137411607Y-89888569D01*
X137394866Y-89919890D01*
X137372339Y-89947339D01*
X137344890Y-89969866D01*
X137313569Y-89986607D01*
X137279591Y-89996915D01*
X137238110Y-90001000D01*
X136561890Y-90001000D01*
X136520409Y-89996915D01*
X136486431Y-89986607D01*
X136455110Y-89969866D01*
X136427661Y-89947339D01*
X136405134Y-89919890D01*
X136388393Y-89888569D01*
X136378085Y-89854591D01*
X136374000Y-89813110D01*
X136374000Y-89211890D01*
X136378085Y-89170409D01*
X136388393Y-89136431D01*
X136405134Y-89105110D01*
X136427661Y-89077661D01*
X136455110Y-89055134D01*
X136486431Y-89038393D01*
X136520409Y-89028085D01*
X136561890Y-89024000D01*
X137238110Y-89024000D01*
X137279591Y-89028085D01*
X137279591Y-89028085D01*
G37*
G36*
X139901000Y-89491000D02*
G01*
X138299000Y-89491000D01*
X138299000Y-77109000D01*
X139901000Y-77109000D01*
X139901000Y-89491000D01*
X139901000Y-89491000D01*
G37*
G36*
X155701000Y-89491000D02*
G01*
X154099000Y-89491000D01*
X154099000Y-77109000D01*
X155701000Y-77109000D01*
X155701000Y-89491000D01*
X155701000Y-89491000D01*
G37*
G36*
X135326000Y-89346000D02*
G01*
X133674000Y-89346000D01*
X133674000Y-88644000D01*
X135326000Y-88644000D01*
X135326000Y-89346000D01*
X135326000Y-89346000D01*
G37*
G36*
X129926000Y-89346000D02*
G01*
X128274000Y-89346000D01*
X128274000Y-88644000D01*
X129926000Y-88644000D01*
X129926000Y-89346000D01*
X129926000Y-89346000D01*
G37*
G36*
X137681938Y-86941716D02*
G01*
X137702557Y-86947971D01*
X137721553Y-86958124D01*
X137738208Y-86971792D01*
X137751876Y-86988447D01*
X137762029Y-87007443D01*
X137768284Y-87028062D01*
X137771000Y-87055640D01*
X137771000Y-87514360D01*
X137768284Y-87541938D01*
X137762029Y-87562557D01*
X137751876Y-87581553D01*
X137738208Y-87598208D01*
X137721553Y-87611876D01*
X137702557Y-87622029D01*
X137681938Y-87628284D01*
X137654360Y-87631000D01*
X137145640Y-87631000D01*
X137118062Y-87628284D01*
X137097443Y-87622029D01*
X137078447Y-87611876D01*
X137061792Y-87598208D01*
X137048124Y-87581553D01*
X137037971Y-87562557D01*
X137031716Y-87541938D01*
X137029000Y-87514360D01*
X137029000Y-87055640D01*
X137031716Y-87028062D01*
X137037971Y-87007443D01*
X137048124Y-86988447D01*
X137061792Y-86971792D01*
X137078447Y-86958124D01*
X137097443Y-86947971D01*
X137118062Y-86941716D01*
X137145640Y-86939000D01*
X137654360Y-86939000D01*
X137681938Y-86941716D01*
X137681938Y-86941716D01*
G37*
G36*
X129729591Y-86478085D02*
G01*
X129763569Y-86488393D01*
X129794890Y-86505134D01*
X129822339Y-86527661D01*
X129844866Y-86555110D01*
X129861607Y-86586431D01*
X129871915Y-86620409D01*
X129876000Y-86661890D01*
X129876000Y-87338110D01*
X129871915Y-87379591D01*
X129861607Y-87413569D01*
X129844866Y-87444890D01*
X129822339Y-87472339D01*
X129794890Y-87494866D01*
X129763569Y-87511607D01*
X129729591Y-87521915D01*
X129688110Y-87526000D01*
X129086890Y-87526000D01*
X129045409Y-87521915D01*
X129011431Y-87511607D01*
X128980110Y-87494866D01*
X128952661Y-87472339D01*
X128930134Y-87444890D01*
X128913393Y-87413569D01*
X128903085Y-87379591D01*
X128899000Y-87338110D01*
X128899000Y-86661890D01*
X128903085Y-86620409D01*
X128913393Y-86586431D01*
X128930134Y-86555110D01*
X128952661Y-86527661D01*
X128980110Y-86505134D01*
X129011431Y-86488393D01*
X129045409Y-86478085D01*
X129086890Y-86474000D01*
X129688110Y-86474000D01*
X129729591Y-86478085D01*
X129729591Y-86478085D01*
G37*
G36*
X128154591Y-86478085D02*
G01*
X128188569Y-86488393D01*
X128219890Y-86505134D01*
X128247339Y-86527661D01*
X128269866Y-86555110D01*
X128286607Y-86586431D01*
X128296915Y-86620409D01*
X128301000Y-86661890D01*
X128301000Y-87338110D01*
X128296915Y-87379591D01*
X128286607Y-87413569D01*
X128269866Y-87444890D01*
X128247339Y-87472339D01*
X128219890Y-87494866D01*
X128188569Y-87511607D01*
X128154591Y-87521915D01*
X128113110Y-87526000D01*
X127511890Y-87526000D01*
X127470409Y-87521915D01*
X127436431Y-87511607D01*
X127405110Y-87494866D01*
X127377661Y-87472339D01*
X127355134Y-87444890D01*
X127338393Y-87413569D01*
X127328085Y-87379591D01*
X127324000Y-87338110D01*
X127324000Y-86661890D01*
X127328085Y-86620409D01*
X127338393Y-86586431D01*
X127355134Y-86555110D01*
X127377661Y-86527661D01*
X127405110Y-86505134D01*
X127436431Y-86488393D01*
X127470409Y-86478085D01*
X127511890Y-86474000D01*
X128113110Y-86474000D01*
X128154591Y-86478085D01*
X128154591Y-86478085D01*
G37*
G36*
X134951000Y-87051000D02*
G01*
X131849000Y-87051000D01*
X131849000Y-82049000D01*
X134951000Y-82049000D01*
X134951000Y-87051000D01*
X134951000Y-87051000D01*
G37*
G36*
X137681938Y-85971716D02*
G01*
X137702557Y-85977971D01*
X137721553Y-85988124D01*
X137738208Y-86001792D01*
X137751876Y-86018447D01*
X137762029Y-86037443D01*
X137768284Y-86058062D01*
X137771000Y-86085640D01*
X137771000Y-86544360D01*
X137768284Y-86571938D01*
X137762029Y-86592557D01*
X137751876Y-86611553D01*
X137738208Y-86628208D01*
X137721553Y-86641876D01*
X137702557Y-86652029D01*
X137681938Y-86658284D01*
X137654360Y-86661000D01*
X137145640Y-86661000D01*
X137118062Y-86658284D01*
X137097443Y-86652029D01*
X137078447Y-86641876D01*
X137061792Y-86628208D01*
X137048124Y-86611553D01*
X137037971Y-86592557D01*
X137031716Y-86571938D01*
X137029000Y-86544360D01*
X137029000Y-86085640D01*
X137031716Y-86058062D01*
X137037971Y-86037443D01*
X137048124Y-86018447D01*
X137061792Y-86001792D01*
X137078447Y-85988124D01*
X137097443Y-85977971D01*
X137118062Y-85971716D01*
X137145640Y-85969000D01*
X137654360Y-85969000D01*
X137681938Y-85971716D01*
X137681938Y-85971716D01*
G37*
G36*
X137681938Y-84941716D02*
G01*
X137702557Y-84947971D01*
X137721553Y-84958124D01*
X137738208Y-84971792D01*
X137751876Y-84988447D01*
X137762029Y-85007443D01*
X137768284Y-85028062D01*
X137771000Y-85055640D01*
X137771000Y-85514360D01*
X137768284Y-85541938D01*
X137762029Y-85562557D01*
X137751876Y-85581553D01*
X137738208Y-85598208D01*
X137721553Y-85611876D01*
X137702557Y-85622029D01*
X137681938Y-85628284D01*
X137654360Y-85631000D01*
X137145640Y-85631000D01*
X137118062Y-85628284D01*
X137097443Y-85622029D01*
X137078447Y-85611876D01*
X137061792Y-85598208D01*
X137048124Y-85581553D01*
X137037971Y-85562557D01*
X137031716Y-85541938D01*
X137029000Y-85514360D01*
X137029000Y-85055640D01*
X137031716Y-85028062D01*
X137037971Y-85007443D01*
X137048124Y-84988447D01*
X137061792Y-84971792D01*
X137078447Y-84958124D01*
X137097443Y-84947971D01*
X137118062Y-84941716D01*
X137145640Y-84939000D01*
X137654360Y-84939000D01*
X137681938Y-84941716D01*
X137681938Y-84941716D01*
G37*
G36*
X164026000Y-85326000D02*
G01*
X159574000Y-85326000D01*
X159574000Y-83774000D01*
X164026000Y-83774000D01*
X164026000Y-85326000D01*
X164026000Y-85326000D01*
G37*
G36*
X130181938Y-84241716D02*
G01*
X130202557Y-84247971D01*
X130221553Y-84258124D01*
X130238208Y-84271792D01*
X130251876Y-84288447D01*
X130262029Y-84307443D01*
X130268284Y-84328062D01*
X130271000Y-84355640D01*
X130271000Y-84814360D01*
X130268284Y-84841938D01*
X130262029Y-84862557D01*
X130251876Y-84881553D01*
X130238208Y-84898208D01*
X130221553Y-84911876D01*
X130202557Y-84922029D01*
X130181938Y-84928284D01*
X130154360Y-84931000D01*
X129645640Y-84931000D01*
X129618062Y-84928284D01*
X129597443Y-84922029D01*
X129578447Y-84911876D01*
X129561792Y-84898208D01*
X129548124Y-84881553D01*
X129537971Y-84862557D01*
X129531716Y-84841938D01*
X129529000Y-84814360D01*
X129529000Y-84355640D01*
X129531716Y-84328062D01*
X129537971Y-84307443D01*
X129548124Y-84288447D01*
X129561792Y-84271792D01*
X129578447Y-84258124D01*
X129597443Y-84247971D01*
X129618062Y-84241716D01*
X129645640Y-84239000D01*
X130154360Y-84239000D01*
X130181938Y-84241716D01*
X130181938Y-84241716D01*
G37*
G36*
X137681938Y-83971716D02*
G01*
X137702557Y-83977971D01*
X137721553Y-83988124D01*
X137738208Y-84001792D01*
X137751876Y-84018447D01*
X137762029Y-84037443D01*
X137768284Y-84058062D01*
X137771000Y-84085640D01*
X137771000Y-84544360D01*
X137768284Y-84571938D01*
X137762029Y-84592557D01*
X137751876Y-84611553D01*
X137738208Y-84628208D01*
X137721553Y-84641876D01*
X137702557Y-84652029D01*
X137681938Y-84658284D01*
X137654360Y-84661000D01*
X137145640Y-84661000D01*
X137118062Y-84658284D01*
X137097443Y-84652029D01*
X137078447Y-84641876D01*
X137061792Y-84628208D01*
X137048124Y-84611553D01*
X137037971Y-84592557D01*
X137031716Y-84571938D01*
X137029000Y-84544360D01*
X137029000Y-84085640D01*
X137031716Y-84058062D01*
X137037971Y-84037443D01*
X137048124Y-84018447D01*
X137061792Y-84001792D01*
X137078447Y-83988124D01*
X137097443Y-83977971D01*
X137118062Y-83971716D01*
X137145640Y-83969000D01*
X137654360Y-83969000D01*
X137681938Y-83971716D01*
X137681938Y-83971716D01*
G37*
G36*
X130181938Y-83271716D02*
G01*
X130202557Y-83277971D01*
X130221553Y-83288124D01*
X130238208Y-83301792D01*
X130251876Y-83318447D01*
X130262029Y-83337443D01*
X130268284Y-83358062D01*
X130271000Y-83385640D01*
X130271000Y-83844360D01*
X130268284Y-83871938D01*
X130262029Y-83892557D01*
X130251876Y-83911553D01*
X130238208Y-83928208D01*
X130221553Y-83941876D01*
X130202557Y-83952029D01*
X130181938Y-83958284D01*
X130154360Y-83961000D01*
X129645640Y-83961000D01*
X129618062Y-83958284D01*
X129597443Y-83952029D01*
X129578447Y-83941876D01*
X129561792Y-83928208D01*
X129548124Y-83911553D01*
X129537971Y-83892557D01*
X129531716Y-83871938D01*
X129529000Y-83844360D01*
X129529000Y-83385640D01*
X129531716Y-83358062D01*
X129537971Y-83337443D01*
X129548124Y-83318447D01*
X129561792Y-83301792D01*
X129578447Y-83288124D01*
X129597443Y-83277971D01*
X129618062Y-83271716D01*
X129645640Y-83269000D01*
X130154360Y-83269000D01*
X130181938Y-83271716D01*
X130181938Y-83271716D01*
G37*
G36*
X163156938Y-82531716D02*
G01*
X163177557Y-82537971D01*
X163196553Y-82548124D01*
X163213208Y-82561792D01*
X163226876Y-82578447D01*
X163237029Y-82597443D01*
X163243284Y-82618062D01*
X163246000Y-82645640D01*
X163246000Y-83154360D01*
X163243284Y-83181938D01*
X163237029Y-83202557D01*
X163226876Y-83221553D01*
X163213208Y-83238208D01*
X163196553Y-83251876D01*
X163177557Y-83262029D01*
X163156938Y-83268284D01*
X163129360Y-83271000D01*
X162670640Y-83271000D01*
X162643062Y-83268284D01*
X162622443Y-83262029D01*
X162603447Y-83251876D01*
X162586792Y-83238208D01*
X162573124Y-83221553D01*
X162562971Y-83202557D01*
X162556716Y-83181938D01*
X162554000Y-83154360D01*
X162554000Y-82645640D01*
X162556716Y-82618062D01*
X162562971Y-82597443D01*
X162573124Y-82578447D01*
X162586792Y-82561792D01*
X162603447Y-82548124D01*
X162622443Y-82537971D01*
X162643062Y-82531716D01*
X162670640Y-82529000D01*
X163129360Y-82529000D01*
X163156938Y-82531716D01*
X163156938Y-82531716D01*
G37*
G36*
X164126938Y-82531716D02*
G01*
X164147557Y-82537971D01*
X164166553Y-82548124D01*
X164183208Y-82561792D01*
X164196876Y-82578447D01*
X164207029Y-82597443D01*
X164213284Y-82618062D01*
X164216000Y-82645640D01*
X164216000Y-83154360D01*
X164213284Y-83181938D01*
X164207029Y-83202557D01*
X164196876Y-83221553D01*
X164183208Y-83238208D01*
X164166553Y-83251876D01*
X164147557Y-83262029D01*
X164126938Y-83268284D01*
X164099360Y-83271000D01*
X163640640Y-83271000D01*
X163613062Y-83268284D01*
X163592443Y-83262029D01*
X163573447Y-83251876D01*
X163556792Y-83238208D01*
X163543124Y-83221553D01*
X163532971Y-83202557D01*
X163526716Y-83181938D01*
X163524000Y-83154360D01*
X163524000Y-82645640D01*
X163526716Y-82618062D01*
X163532971Y-82597443D01*
X163543124Y-82578447D01*
X163556792Y-82561792D01*
X163573447Y-82548124D01*
X163592443Y-82537971D01*
X163613062Y-82531716D01*
X163640640Y-82529000D01*
X164099360Y-82529000D01*
X164126938Y-82531716D01*
X164126938Y-82531716D01*
G37*
G36*
X160981938Y-82556716D02*
G01*
X161002557Y-82562971D01*
X161021553Y-82573124D01*
X161038208Y-82586792D01*
X161051876Y-82603447D01*
X161062029Y-82622443D01*
X161068284Y-82643062D01*
X161071000Y-82670640D01*
X161071000Y-83129360D01*
X161068284Y-83156938D01*
X161062029Y-83177557D01*
X161051876Y-83196553D01*
X161038208Y-83213208D01*
X161021553Y-83226876D01*
X161002557Y-83237029D01*
X160981938Y-83243284D01*
X160954360Y-83246000D01*
X160445640Y-83246000D01*
X160418062Y-83243284D01*
X160397443Y-83237029D01*
X160378447Y-83226876D01*
X160361792Y-83213208D01*
X160348124Y-83196553D01*
X160337971Y-83177557D01*
X160331716Y-83156938D01*
X160329000Y-83129360D01*
X160329000Y-82670640D01*
X160331716Y-82643062D01*
X160337971Y-82622443D01*
X160348124Y-82603447D01*
X160361792Y-82586792D01*
X160378447Y-82573124D01*
X160397443Y-82562971D01*
X160418062Y-82556716D01*
X160445640Y-82554000D01*
X160954360Y-82554000D01*
X160981938Y-82556716D01*
X160981938Y-82556716D01*
G37*
G36*
X162081938Y-82526716D02*
G01*
X162102557Y-82532971D01*
X162121553Y-82543124D01*
X162138208Y-82556792D01*
X162151876Y-82573447D01*
X162162029Y-82592443D01*
X162168284Y-82613062D01*
X162171000Y-82640640D01*
X162171000Y-83099360D01*
X162168284Y-83126938D01*
X162162029Y-83147557D01*
X162151876Y-83166553D01*
X162138208Y-83183208D01*
X162121553Y-83196876D01*
X162102557Y-83207029D01*
X162081938Y-83213284D01*
X162054360Y-83216000D01*
X161545640Y-83216000D01*
X161518062Y-83213284D01*
X161497443Y-83207029D01*
X161478447Y-83196876D01*
X161461792Y-83183208D01*
X161448124Y-83166553D01*
X161437971Y-83147557D01*
X161431716Y-83126938D01*
X161429000Y-83099360D01*
X161429000Y-82640640D01*
X161431716Y-82613062D01*
X161437971Y-82592443D01*
X161448124Y-82573447D01*
X161461792Y-82556792D01*
X161478447Y-82543124D01*
X161497443Y-82532971D01*
X161518062Y-82526716D01*
X161545640Y-82524000D01*
X162054360Y-82524000D01*
X162081938Y-82526716D01*
X162081938Y-82526716D01*
G37*
G36*
X137681938Y-81841716D02*
G01*
X137702557Y-81847971D01*
X137721553Y-81858124D01*
X137738208Y-81871792D01*
X137751876Y-81888447D01*
X137762029Y-81907443D01*
X137768284Y-81928062D01*
X137771000Y-81955640D01*
X137771000Y-82414360D01*
X137768284Y-82441938D01*
X137762029Y-82462557D01*
X137751876Y-82481553D01*
X137738208Y-82498208D01*
X137721553Y-82511876D01*
X137702557Y-82522029D01*
X137681938Y-82528284D01*
X137654360Y-82531000D01*
X137145640Y-82531000D01*
X137118062Y-82528284D01*
X137097443Y-82522029D01*
X137078447Y-82511876D01*
X137061792Y-82498208D01*
X137048124Y-82481553D01*
X137037971Y-82462557D01*
X137031716Y-82441938D01*
X137029000Y-82414360D01*
X137029000Y-81955640D01*
X137031716Y-81928062D01*
X137037971Y-81907443D01*
X137048124Y-81888447D01*
X137061792Y-81871792D01*
X137078447Y-81858124D01*
X137097443Y-81847971D01*
X137118062Y-81841716D01*
X137145640Y-81839000D01*
X137654360Y-81839000D01*
X137681938Y-81841716D01*
X137681938Y-81841716D01*
G37*
G36*
X160981938Y-81586716D02*
G01*
X161002557Y-81592971D01*
X161021553Y-81603124D01*
X161038208Y-81616792D01*
X161051876Y-81633447D01*
X161062029Y-81652443D01*
X161068284Y-81673062D01*
X161071000Y-81700640D01*
X161071000Y-82159360D01*
X161068284Y-82186938D01*
X161062029Y-82207557D01*
X161051876Y-82226553D01*
X161038208Y-82243208D01*
X161021553Y-82256876D01*
X161002557Y-82267029D01*
X160981938Y-82273284D01*
X160954360Y-82276000D01*
X160445640Y-82276000D01*
X160418062Y-82273284D01*
X160397443Y-82267029D01*
X160378447Y-82256876D01*
X160361792Y-82243208D01*
X160348124Y-82226553D01*
X160337971Y-82207557D01*
X160331716Y-82186938D01*
X160329000Y-82159360D01*
X160329000Y-81700640D01*
X160331716Y-81673062D01*
X160337971Y-81652443D01*
X160348124Y-81633447D01*
X160361792Y-81616792D01*
X160378447Y-81603124D01*
X160397443Y-81592971D01*
X160418062Y-81586716D01*
X160445640Y-81584000D01*
X160954360Y-81584000D01*
X160981938Y-81586716D01*
X160981938Y-81586716D01*
G37*
G36*
X162081938Y-81556716D02*
G01*
X162102557Y-81562971D01*
X162121553Y-81573124D01*
X162138208Y-81586792D01*
X162151876Y-81603447D01*
X162162029Y-81622443D01*
X162168284Y-81643062D01*
X162171000Y-81670640D01*
X162171000Y-82129360D01*
X162168284Y-82156938D01*
X162162029Y-82177557D01*
X162151876Y-82196553D01*
X162138208Y-82213208D01*
X162121553Y-82226876D01*
X162102557Y-82237029D01*
X162081938Y-82243284D01*
X162054360Y-82246000D01*
X161545640Y-82246000D01*
X161518062Y-82243284D01*
X161497443Y-82237029D01*
X161478447Y-82226876D01*
X161461792Y-82213208D01*
X161448124Y-82196553D01*
X161437971Y-82177557D01*
X161431716Y-82156938D01*
X161429000Y-82129360D01*
X161429000Y-81670640D01*
X161431716Y-81643062D01*
X161437971Y-81622443D01*
X161448124Y-81603447D01*
X161461792Y-81586792D01*
X161478447Y-81573124D01*
X161497443Y-81562971D01*
X161518062Y-81556716D01*
X161545640Y-81554000D01*
X162054360Y-81554000D01*
X162081938Y-81556716D01*
X162081938Y-81556716D01*
G37*
G36*
X164141938Y-81431716D02*
G01*
X164162557Y-81437971D01*
X164181553Y-81448124D01*
X164198208Y-81461792D01*
X164211876Y-81478447D01*
X164222029Y-81497443D01*
X164228284Y-81518062D01*
X164231000Y-81545640D01*
X164231000Y-82054360D01*
X164228284Y-82081938D01*
X164222029Y-82102557D01*
X164211876Y-82121553D01*
X164198208Y-82138208D01*
X164181553Y-82151876D01*
X164162557Y-82162029D01*
X164141938Y-82168284D01*
X164114360Y-82171000D01*
X163655640Y-82171000D01*
X163628062Y-82168284D01*
X163607443Y-82162029D01*
X163588447Y-82151876D01*
X163571792Y-82138208D01*
X163558124Y-82121553D01*
X163547971Y-82102557D01*
X163541716Y-82081938D01*
X163539000Y-82054360D01*
X163539000Y-81545640D01*
X163541716Y-81518062D01*
X163547971Y-81497443D01*
X163558124Y-81478447D01*
X163571792Y-81461792D01*
X163588447Y-81448124D01*
X163607443Y-81437971D01*
X163628062Y-81431716D01*
X163655640Y-81429000D01*
X164114360Y-81429000D01*
X164141938Y-81431716D01*
X164141938Y-81431716D01*
G37*
G36*
X163171938Y-81431716D02*
G01*
X163192557Y-81437971D01*
X163211553Y-81448124D01*
X163228208Y-81461792D01*
X163241876Y-81478447D01*
X163252029Y-81497443D01*
X163258284Y-81518062D01*
X163261000Y-81545640D01*
X163261000Y-82054360D01*
X163258284Y-82081938D01*
X163252029Y-82102557D01*
X163241876Y-82121553D01*
X163228208Y-82138208D01*
X163211553Y-82151876D01*
X163192557Y-82162029D01*
X163171938Y-82168284D01*
X163144360Y-82171000D01*
X162685640Y-82171000D01*
X162658062Y-82168284D01*
X162637443Y-82162029D01*
X162618447Y-82151876D01*
X162601792Y-82138208D01*
X162588124Y-82121553D01*
X162577971Y-82102557D01*
X162571716Y-82081938D01*
X162569000Y-82054360D01*
X162569000Y-81545640D01*
X162571716Y-81518062D01*
X162577971Y-81497443D01*
X162588124Y-81478447D01*
X162601792Y-81461792D01*
X162618447Y-81448124D01*
X162637443Y-81437971D01*
X162658062Y-81431716D01*
X162685640Y-81429000D01*
X163144360Y-81429000D01*
X163171938Y-81431716D01*
X163171938Y-81431716D01*
G37*
G36*
X137681938Y-80871716D02*
G01*
X137702557Y-80877971D01*
X137721553Y-80888124D01*
X137738208Y-80901792D01*
X137751876Y-80918447D01*
X137762029Y-80937443D01*
X137768284Y-80958062D01*
X137771000Y-80985640D01*
X137771000Y-81444360D01*
X137768284Y-81471938D01*
X137762029Y-81492557D01*
X137751876Y-81511553D01*
X137738208Y-81528208D01*
X137721553Y-81541876D01*
X137702557Y-81552029D01*
X137681938Y-81558284D01*
X137654360Y-81561000D01*
X137145640Y-81561000D01*
X137118062Y-81558284D01*
X137097443Y-81552029D01*
X137078447Y-81541876D01*
X137061792Y-81528208D01*
X137048124Y-81511553D01*
X137037971Y-81492557D01*
X137031716Y-81471938D01*
X137029000Y-81444360D01*
X137029000Y-80985640D01*
X137031716Y-80958062D01*
X137037971Y-80937443D01*
X137048124Y-80918447D01*
X137061792Y-80901792D01*
X137078447Y-80888124D01*
X137097443Y-80877971D01*
X137118062Y-80871716D01*
X137145640Y-80869000D01*
X137654360Y-80869000D01*
X137681938Y-80871716D01*
X137681938Y-80871716D01*
G37*
G36*
X134951000Y-79751000D02*
G01*
X131849000Y-79751000D01*
X131849000Y-74749000D01*
X134951000Y-74749000D01*
X134951000Y-79751000D01*
X134951000Y-79751000D01*
G37*
G36*
X165150443Y-77805519D02*
G01*
X165216627Y-77812037D01*
X165386466Y-77863557D01*
X165542991Y-77947222D01*
X165578729Y-77976552D01*
X165680186Y-78059814D01*
X165763448Y-78161271D01*
X165792778Y-78197009D01*
X165876443Y-78353534D01*
X165927963Y-78523373D01*
X165945359Y-78700000D01*
X165927963Y-78876627D01*
X165876443Y-79046466D01*
X165792778Y-79202991D01*
X165763448Y-79238729D01*
X165680186Y-79340186D01*
X165578729Y-79423448D01*
X165542991Y-79452778D01*
X165386466Y-79536443D01*
X165216627Y-79587963D01*
X165150442Y-79594482D01*
X165084260Y-79601000D01*
X164995740Y-79601000D01*
X164929558Y-79594482D01*
X164863373Y-79587963D01*
X164693534Y-79536443D01*
X164537009Y-79452778D01*
X164501271Y-79423448D01*
X164399814Y-79340186D01*
X164316552Y-79238729D01*
X164287222Y-79202991D01*
X164203557Y-79046466D01*
X164152037Y-78876627D01*
X164134641Y-78700000D01*
X164152037Y-78523373D01*
X164203557Y-78353534D01*
X164287222Y-78197009D01*
X164316552Y-78161271D01*
X164399814Y-78059814D01*
X164501271Y-77976552D01*
X164537009Y-77947222D01*
X164693534Y-77863557D01*
X164863373Y-77812037D01*
X164929557Y-77805519D01*
X164995740Y-77799000D01*
X165084260Y-77799000D01*
X165150443Y-77805519D01*
X165150443Y-77805519D01*
G37*
G36*
X163401000Y-79601000D02*
G01*
X161599000Y-79601000D01*
X161599000Y-77799000D01*
X163401000Y-77799000D01*
X163401000Y-79601000D01*
X163401000Y-79601000D01*
G37*
G36*
X156881938Y-77426716D02*
G01*
X156902557Y-77432971D01*
X156921553Y-77443124D01*
X156938208Y-77456792D01*
X156951876Y-77473447D01*
X156962029Y-77492443D01*
X156968284Y-77513062D01*
X156971000Y-77540640D01*
X156971000Y-77999360D01*
X156968284Y-78026938D01*
X156962029Y-78047557D01*
X156951876Y-78066553D01*
X156938208Y-78083208D01*
X156921553Y-78096876D01*
X156902557Y-78107029D01*
X156881938Y-78113284D01*
X156854360Y-78116000D01*
X156345640Y-78116000D01*
X156318062Y-78113284D01*
X156297443Y-78107029D01*
X156278447Y-78096876D01*
X156261792Y-78083208D01*
X156248124Y-78066553D01*
X156237971Y-78047557D01*
X156231716Y-78026938D01*
X156229000Y-77999360D01*
X156229000Y-77540640D01*
X156231716Y-77513062D01*
X156237971Y-77492443D01*
X156248124Y-77473447D01*
X156261792Y-77456792D01*
X156278447Y-77443124D01*
X156297443Y-77432971D01*
X156318062Y-77426716D01*
X156345640Y-77424000D01*
X156854360Y-77424000D01*
X156881938Y-77426716D01*
X156881938Y-77426716D01*
G37*
G36*
X130181938Y-77041716D02*
G01*
X130202557Y-77047971D01*
X130221553Y-77058124D01*
X130238208Y-77071792D01*
X130251876Y-77088447D01*
X130262029Y-77107443D01*
X130268284Y-77128062D01*
X130271000Y-77155640D01*
X130271000Y-77614360D01*
X130268284Y-77641938D01*
X130262029Y-77662557D01*
X130251876Y-77681553D01*
X130238208Y-77698208D01*
X130221553Y-77711876D01*
X130202557Y-77722029D01*
X130181938Y-77728284D01*
X130154360Y-77731000D01*
X129645640Y-77731000D01*
X129618062Y-77728284D01*
X129597443Y-77722029D01*
X129578447Y-77711876D01*
X129561792Y-77698208D01*
X129548124Y-77681553D01*
X129537971Y-77662557D01*
X129531716Y-77641938D01*
X129529000Y-77614360D01*
X129529000Y-77155640D01*
X129531716Y-77128062D01*
X129537971Y-77107443D01*
X129548124Y-77088447D01*
X129561792Y-77071792D01*
X129578447Y-77058124D01*
X129597443Y-77047971D01*
X129618062Y-77041716D01*
X129645640Y-77039000D01*
X130154360Y-77039000D01*
X130181938Y-77041716D01*
X130181938Y-77041716D01*
G37*
G36*
X156881938Y-76456716D02*
G01*
X156902557Y-76462971D01*
X156921553Y-76473124D01*
X156938208Y-76486792D01*
X156951876Y-76503447D01*
X156962029Y-76522443D01*
X156968284Y-76543062D01*
X156971000Y-76570640D01*
X156971000Y-77029360D01*
X156968284Y-77056938D01*
X156962029Y-77077557D01*
X156951876Y-77096553D01*
X156938208Y-77113208D01*
X156921553Y-77126876D01*
X156902557Y-77137029D01*
X156881938Y-77143284D01*
X156854360Y-77146000D01*
X156345640Y-77146000D01*
X156318062Y-77143284D01*
X156297443Y-77137029D01*
X156278447Y-77126876D01*
X156261792Y-77113208D01*
X156248124Y-77096553D01*
X156237971Y-77077557D01*
X156231716Y-77056938D01*
X156229000Y-77029360D01*
X156229000Y-76570640D01*
X156231716Y-76543062D01*
X156237971Y-76522443D01*
X156248124Y-76503447D01*
X156261792Y-76486792D01*
X156278447Y-76473124D01*
X156297443Y-76462971D01*
X156318062Y-76456716D01*
X156345640Y-76454000D01*
X156854360Y-76454000D01*
X156881938Y-76456716D01*
X156881938Y-76456716D01*
G37*
G36*
X130181938Y-76071716D02*
G01*
X130202557Y-76077971D01*
X130221553Y-76088124D01*
X130238208Y-76101792D01*
X130251876Y-76118447D01*
X130262029Y-76137443D01*
X130268284Y-76158062D01*
X130271000Y-76185640D01*
X130271000Y-76644360D01*
X130268284Y-76671938D01*
X130262029Y-76692557D01*
X130251876Y-76711553D01*
X130238208Y-76728208D01*
X130221553Y-76741876D01*
X130202557Y-76752029D01*
X130181938Y-76758284D01*
X130154360Y-76761000D01*
X129645640Y-76761000D01*
X129618062Y-76758284D01*
X129597443Y-76752029D01*
X129578447Y-76741876D01*
X129561792Y-76728208D01*
X129548124Y-76711553D01*
X129537971Y-76692557D01*
X129531716Y-76671938D01*
X129529000Y-76644360D01*
X129529000Y-76185640D01*
X129531716Y-76158062D01*
X129537971Y-76137443D01*
X129548124Y-76118447D01*
X129561792Y-76101792D01*
X129578447Y-76088124D01*
X129597443Y-76077971D01*
X129618062Y-76071716D01*
X129645640Y-76069000D01*
X130154360Y-76069000D01*
X130181938Y-76071716D01*
X130181938Y-76071716D01*
G37*
G36*
X153191000Y-76201000D02*
G01*
X140809000Y-76201000D01*
X140809000Y-74599000D01*
X153191000Y-74599000D01*
X153191000Y-76201000D01*
X153191000Y-76201000D01*
G37*
G36*
X141071938Y-73331716D02*
G01*
X141092557Y-73337971D01*
X141111553Y-73348124D01*
X141128208Y-73361792D01*
X141141876Y-73378447D01*
X141152029Y-73397443D01*
X141158284Y-73418062D01*
X141161000Y-73445640D01*
X141161000Y-73954360D01*
X141158284Y-73981938D01*
X141152029Y-74002557D01*
X141141876Y-74021553D01*
X141128208Y-74038208D01*
X141111553Y-74051876D01*
X141092557Y-74062029D01*
X141071938Y-74068284D01*
X141044360Y-74071000D01*
X140585640Y-74071000D01*
X140558062Y-74068284D01*
X140537443Y-74062029D01*
X140518447Y-74051876D01*
X140501792Y-74038208D01*
X140488124Y-74021553D01*
X140477971Y-74002557D01*
X140471716Y-73981938D01*
X140469000Y-73954360D01*
X140469000Y-73445640D01*
X140471716Y-73418062D01*
X140477971Y-73397443D01*
X140488124Y-73378447D01*
X140501792Y-73361792D01*
X140518447Y-73348124D01*
X140537443Y-73337971D01*
X140558062Y-73331716D01*
X140585640Y-73329000D01*
X141044360Y-73329000D01*
X141071938Y-73331716D01*
X141071938Y-73331716D01*
G37*
G36*
X142041938Y-73331716D02*
G01*
X142062557Y-73337971D01*
X142081553Y-73348124D01*
X142098208Y-73361792D01*
X142111876Y-73378447D01*
X142122029Y-73397443D01*
X142128284Y-73418062D01*
X142131000Y-73445640D01*
X142131000Y-73954360D01*
X142128284Y-73981938D01*
X142122029Y-74002557D01*
X142111876Y-74021553D01*
X142098208Y-74038208D01*
X142081553Y-74051876D01*
X142062557Y-74062029D01*
X142041938Y-74068284D01*
X142014360Y-74071000D01*
X141555640Y-74071000D01*
X141528062Y-74068284D01*
X141507443Y-74062029D01*
X141488447Y-74051876D01*
X141471792Y-74038208D01*
X141458124Y-74021553D01*
X141447971Y-74002557D01*
X141441716Y-73981938D01*
X141439000Y-73954360D01*
X141439000Y-73445640D01*
X141441716Y-73418062D01*
X141447971Y-73397443D01*
X141458124Y-73378447D01*
X141471792Y-73361792D01*
X141488447Y-73348124D01*
X141507443Y-73337971D01*
X141528062Y-73331716D01*
X141555640Y-73329000D01*
X142014360Y-73329000D01*
X142041938Y-73331716D01*
X142041938Y-73331716D01*
G37*
G36*
X143579591Y-73003085D02*
G01*
X143613569Y-73013393D01*
X143644890Y-73030134D01*
X143672339Y-73052661D01*
X143694866Y-73080110D01*
X143711607Y-73111431D01*
X143721915Y-73145409D01*
X143726000Y-73186890D01*
X143726000Y-73788110D01*
X143721915Y-73829591D01*
X143711607Y-73863569D01*
X143694866Y-73894890D01*
X143672339Y-73922339D01*
X143644890Y-73944866D01*
X143613569Y-73961607D01*
X143579591Y-73971915D01*
X143538110Y-73976000D01*
X142861890Y-73976000D01*
X142820409Y-73971915D01*
X142786431Y-73961607D01*
X142755110Y-73944866D01*
X142727661Y-73922339D01*
X142705134Y-73894890D01*
X142688393Y-73863569D01*
X142678085Y-73829591D01*
X142674000Y-73788110D01*
X142674000Y-73186890D01*
X142678085Y-73145409D01*
X142688393Y-73111431D01*
X142705134Y-73080110D01*
X142727661Y-73052661D01*
X142755110Y-73030134D01*
X142786431Y-73013393D01*
X142820409Y-73003085D01*
X142861890Y-72999000D01*
X143538110Y-72999000D01*
X143579591Y-73003085D01*
X143579591Y-73003085D01*
G37*
G36*
X145479591Y-72990585D02*
G01*
X145513569Y-73000893D01*
X145544890Y-73017634D01*
X145572339Y-73040161D01*
X145594866Y-73067610D01*
X145611607Y-73098931D01*
X145621915Y-73132909D01*
X145626000Y-73174390D01*
X145626000Y-73775610D01*
X145621915Y-73817091D01*
X145611607Y-73851069D01*
X145594866Y-73882390D01*
X145572339Y-73909839D01*
X145544890Y-73932366D01*
X145513569Y-73949107D01*
X145479591Y-73959415D01*
X145438110Y-73963500D01*
X144761890Y-73963500D01*
X144720409Y-73959415D01*
X144686431Y-73949107D01*
X144655110Y-73932366D01*
X144627661Y-73909839D01*
X144605134Y-73882390D01*
X144588393Y-73851069D01*
X144578085Y-73817091D01*
X144574000Y-73775610D01*
X144574000Y-73174390D01*
X144578085Y-73132909D01*
X144588393Y-73098931D01*
X144605134Y-73067610D01*
X144627661Y-73040161D01*
X144655110Y-73017634D01*
X144686431Y-73000893D01*
X144720409Y-72990585D01*
X144761890Y-72986500D01*
X145438110Y-72986500D01*
X145479591Y-72990585D01*
X145479591Y-72990585D01*
G37*
G36*
X157881000Y-73926000D02*
G01*
X156719000Y-73926000D01*
X156719000Y-73174000D01*
X157881000Y-73174000D01*
X157881000Y-73926000D01*
X157881000Y-73926000D01*
G37*
G36*
X155681000Y-73926000D02*
G01*
X154519000Y-73926000D01*
X154519000Y-71274000D01*
X155681000Y-71274000D01*
X155681000Y-73926000D01*
X155681000Y-73926000D01*
G37*
G36*
X148326000Y-73901000D02*
G01*
X147774000Y-73901000D01*
X147774000Y-73099000D01*
X148326000Y-73099000D01*
X148326000Y-73901000D01*
X148326000Y-73901000D01*
G37*
G36*
X147026000Y-73901000D02*
G01*
X146474000Y-73901000D01*
X146474000Y-73099000D01*
X147026000Y-73099000D01*
X147026000Y-73901000D01*
X147026000Y-73901000D01*
G37*
G36*
X136479591Y-72903085D02*
G01*
X136513569Y-72913393D01*
X136544890Y-72930134D01*
X136572339Y-72952661D01*
X136594866Y-72980110D01*
X136611607Y-73011431D01*
X136621915Y-73045409D01*
X136626000Y-73086890D01*
X136626000Y-73688110D01*
X136621915Y-73729591D01*
X136611607Y-73763569D01*
X136594866Y-73794890D01*
X136572339Y-73822339D01*
X136544890Y-73844866D01*
X136513569Y-73861607D01*
X136479591Y-73871915D01*
X136438110Y-73876000D01*
X135761890Y-73876000D01*
X135720409Y-73871915D01*
X135686431Y-73861607D01*
X135655110Y-73844866D01*
X135627661Y-73822339D01*
X135605134Y-73794890D01*
X135588393Y-73763569D01*
X135578085Y-73729591D01*
X135574000Y-73688110D01*
X135574000Y-73086890D01*
X135578085Y-73045409D01*
X135588393Y-73011431D01*
X135605134Y-72980110D01*
X135627661Y-72952661D01*
X135655110Y-72930134D01*
X135686431Y-72913393D01*
X135720409Y-72903085D01*
X135761890Y-72899000D01*
X136438110Y-72899000D01*
X136479591Y-72903085D01*
X136479591Y-72903085D01*
G37*
G36*
X159381938Y-72241716D02*
G01*
X159402557Y-72247971D01*
X159421553Y-72258124D01*
X159438208Y-72271792D01*
X159451876Y-72288447D01*
X159462029Y-72307443D01*
X159468284Y-72328062D01*
X159471000Y-72355640D01*
X159471000Y-72814360D01*
X159468284Y-72841938D01*
X159462029Y-72862557D01*
X159451876Y-72881553D01*
X159438208Y-72898208D01*
X159421553Y-72911876D01*
X159402557Y-72922029D01*
X159381938Y-72928284D01*
X159354360Y-72931000D01*
X158845640Y-72931000D01*
X158818062Y-72928284D01*
X158797443Y-72922029D01*
X158778447Y-72911876D01*
X158761792Y-72898208D01*
X158748124Y-72881553D01*
X158737971Y-72862557D01*
X158731716Y-72841938D01*
X158729000Y-72814360D01*
X158729000Y-72355640D01*
X158731716Y-72328062D01*
X158737971Y-72307443D01*
X158748124Y-72288447D01*
X158761792Y-72271792D01*
X158778447Y-72258124D01*
X158797443Y-72247971D01*
X158818062Y-72241716D01*
X158845640Y-72239000D01*
X159354360Y-72239000D01*
X159381938Y-72241716D01*
X159381938Y-72241716D01*
G37*
G36*
X153781938Y-72241716D02*
G01*
X153802557Y-72247971D01*
X153821553Y-72258124D01*
X153838208Y-72271792D01*
X153851876Y-72288447D01*
X153862029Y-72307443D01*
X153868284Y-72328062D01*
X153871000Y-72355640D01*
X153871000Y-72814360D01*
X153868284Y-72841938D01*
X153862029Y-72862557D01*
X153851876Y-72881553D01*
X153838208Y-72898208D01*
X153821553Y-72911876D01*
X153802557Y-72922029D01*
X153781938Y-72928284D01*
X153754360Y-72931000D01*
X153245640Y-72931000D01*
X153218062Y-72928284D01*
X153197443Y-72922029D01*
X153178447Y-72911876D01*
X153161792Y-72898208D01*
X153148124Y-72881553D01*
X153137971Y-72862557D01*
X153131716Y-72841938D01*
X153129000Y-72814360D01*
X153129000Y-72355640D01*
X153131716Y-72328062D01*
X153137971Y-72307443D01*
X153148124Y-72288447D01*
X153161792Y-72271792D01*
X153178447Y-72258124D01*
X153197443Y-72247971D01*
X153218062Y-72241716D01*
X153245640Y-72239000D01*
X153754360Y-72239000D01*
X153781938Y-72241716D01*
X153781938Y-72241716D01*
G37*
G36*
X131842091Y-71778085D02*
G01*
X131876069Y-71788393D01*
X131907390Y-71805134D01*
X131934839Y-71827661D01*
X131957366Y-71855110D01*
X131974107Y-71886431D01*
X131984415Y-71920409D01*
X131988500Y-71961890D01*
X131988500Y-72638110D01*
X131984415Y-72679591D01*
X131974107Y-72713569D01*
X131957366Y-72744890D01*
X131934839Y-72772339D01*
X131907390Y-72794866D01*
X131876069Y-72811607D01*
X131842091Y-72821915D01*
X131800610Y-72826000D01*
X131199390Y-72826000D01*
X131157909Y-72821915D01*
X131123931Y-72811607D01*
X131092610Y-72794866D01*
X131065161Y-72772339D01*
X131042634Y-72744890D01*
X131025893Y-72713569D01*
X131015585Y-72679591D01*
X131011500Y-72638110D01*
X131011500Y-71961890D01*
X131015585Y-71920409D01*
X131025893Y-71886431D01*
X131042634Y-71855110D01*
X131065161Y-71827661D01*
X131092610Y-71805134D01*
X131123931Y-71788393D01*
X131157909Y-71778085D01*
X131199390Y-71774000D01*
X131800610Y-71774000D01*
X131842091Y-71778085D01*
X131842091Y-71778085D01*
G37*
G36*
X130267091Y-71778085D02*
G01*
X130301069Y-71788393D01*
X130332390Y-71805134D01*
X130359839Y-71827661D01*
X130382366Y-71855110D01*
X130399107Y-71886431D01*
X130409415Y-71920409D01*
X130413500Y-71961890D01*
X130413500Y-72638110D01*
X130409415Y-72679591D01*
X130399107Y-72713569D01*
X130382366Y-72744890D01*
X130359839Y-72772339D01*
X130332390Y-72794866D01*
X130301069Y-72811607D01*
X130267091Y-72821915D01*
X130225610Y-72826000D01*
X129624390Y-72826000D01*
X129582909Y-72821915D01*
X129548931Y-72811607D01*
X129517610Y-72794866D01*
X129490161Y-72772339D01*
X129467634Y-72744890D01*
X129450893Y-72713569D01*
X129440585Y-72679591D01*
X129436500Y-72638110D01*
X129436500Y-71961890D01*
X129440585Y-71920409D01*
X129450893Y-71886431D01*
X129467634Y-71855110D01*
X129490161Y-71827661D01*
X129517610Y-71805134D01*
X129548931Y-71788393D01*
X129582909Y-71778085D01*
X129624390Y-71774000D01*
X130225610Y-71774000D01*
X130267091Y-71778085D01*
X130267091Y-71778085D01*
G37*
G36*
X143579591Y-71428085D02*
G01*
X143613569Y-71438393D01*
X143644890Y-71455134D01*
X143672339Y-71477661D01*
X143694866Y-71505110D01*
X143711607Y-71536431D01*
X143721915Y-71570409D01*
X143726000Y-71611890D01*
X143726000Y-72213110D01*
X143721915Y-72254591D01*
X143711607Y-72288569D01*
X143694866Y-72319890D01*
X143672339Y-72347339D01*
X143644890Y-72369866D01*
X143613569Y-72386607D01*
X143579591Y-72396915D01*
X143538110Y-72401000D01*
X142861890Y-72401000D01*
X142820409Y-72396915D01*
X142786431Y-72386607D01*
X142755110Y-72369866D01*
X142727661Y-72347339D01*
X142705134Y-72319890D01*
X142688393Y-72288569D01*
X142678085Y-72254591D01*
X142674000Y-72213110D01*
X142674000Y-71611890D01*
X142678085Y-71570409D01*
X142688393Y-71536431D01*
X142705134Y-71505110D01*
X142727661Y-71477661D01*
X142755110Y-71455134D01*
X142786431Y-71438393D01*
X142820409Y-71428085D01*
X142861890Y-71424000D01*
X143538110Y-71424000D01*
X143579591Y-71428085D01*
X143579591Y-71428085D01*
G37*
G36*
X145479591Y-71415585D02*
G01*
X145513569Y-71425893D01*
X145544890Y-71442634D01*
X145572339Y-71465161D01*
X145594866Y-71492610D01*
X145611607Y-71523931D01*
X145621915Y-71557909D01*
X145626000Y-71599390D01*
X145626000Y-72200610D01*
X145621915Y-72242091D01*
X145611607Y-72276069D01*
X145594866Y-72307390D01*
X145572339Y-72334839D01*
X145544890Y-72357366D01*
X145513569Y-72374107D01*
X145479591Y-72384415D01*
X145438110Y-72388500D01*
X144761890Y-72388500D01*
X144720409Y-72384415D01*
X144686431Y-72374107D01*
X144655110Y-72357366D01*
X144627661Y-72334839D01*
X144605134Y-72307390D01*
X144588393Y-72276069D01*
X144578085Y-72242091D01*
X144574000Y-72200610D01*
X144574000Y-71599390D01*
X144578085Y-71557909D01*
X144588393Y-71523931D01*
X144605134Y-71492610D01*
X144627661Y-71465161D01*
X144655110Y-71442634D01*
X144686431Y-71425893D01*
X144720409Y-71415585D01*
X144761890Y-71411500D01*
X145438110Y-71411500D01*
X145479591Y-71415585D01*
X145479591Y-71415585D01*
G37*
G36*
X136479591Y-71328085D02*
G01*
X136513569Y-71338393D01*
X136544890Y-71355134D01*
X136572339Y-71377661D01*
X136594866Y-71405110D01*
X136611607Y-71436431D01*
X136621915Y-71470409D01*
X136626000Y-71511890D01*
X136626000Y-72113110D01*
X136621915Y-72154591D01*
X136611607Y-72188569D01*
X136594866Y-72219890D01*
X136572339Y-72247339D01*
X136544890Y-72269866D01*
X136513569Y-72286607D01*
X136479591Y-72296915D01*
X136438110Y-72301000D01*
X135761890Y-72301000D01*
X135720409Y-72296915D01*
X135686431Y-72286607D01*
X135655110Y-72269866D01*
X135627661Y-72247339D01*
X135605134Y-72219890D01*
X135588393Y-72188569D01*
X135578085Y-72154591D01*
X135574000Y-72113110D01*
X135574000Y-71511890D01*
X135578085Y-71470409D01*
X135588393Y-71436431D01*
X135605134Y-71405110D01*
X135627661Y-71377661D01*
X135655110Y-71355134D01*
X135686431Y-71338393D01*
X135720409Y-71328085D01*
X135761890Y-71324000D01*
X136438110Y-71324000D01*
X136479591Y-71328085D01*
X136479591Y-71328085D01*
G37*
G36*
X157881000Y-72026000D02*
G01*
X156719000Y-72026000D01*
X156719000Y-71274000D01*
X157881000Y-71274000D01*
X157881000Y-72026000D01*
X157881000Y-72026000D01*
G37*
G36*
X159381938Y-71271716D02*
G01*
X159402557Y-71277971D01*
X159421553Y-71288124D01*
X159438208Y-71301792D01*
X159451876Y-71318447D01*
X159462029Y-71337443D01*
X159468284Y-71358062D01*
X159471000Y-71385640D01*
X159471000Y-71844360D01*
X159468284Y-71871938D01*
X159462029Y-71892557D01*
X159451876Y-71911553D01*
X159438208Y-71928208D01*
X159421553Y-71941876D01*
X159402557Y-71952029D01*
X159381938Y-71958284D01*
X159354360Y-71961000D01*
X158845640Y-71961000D01*
X158818062Y-71958284D01*
X158797443Y-71952029D01*
X158778447Y-71941876D01*
X158761792Y-71928208D01*
X158748124Y-71911553D01*
X158737971Y-71892557D01*
X158731716Y-71871938D01*
X158729000Y-71844360D01*
X158729000Y-71385640D01*
X158731716Y-71358062D01*
X158737971Y-71337443D01*
X158748124Y-71318447D01*
X158761792Y-71301792D01*
X158778447Y-71288124D01*
X158797443Y-71277971D01*
X158818062Y-71271716D01*
X158845640Y-71269000D01*
X159354360Y-71269000D01*
X159381938Y-71271716D01*
X159381938Y-71271716D01*
G37*
G36*
X153781938Y-71271716D02*
G01*
X153802557Y-71277971D01*
X153821553Y-71288124D01*
X153838208Y-71301792D01*
X153851876Y-71318447D01*
X153862029Y-71337443D01*
X153868284Y-71358062D01*
X153871000Y-71385640D01*
X153871000Y-71844360D01*
X153868284Y-71871938D01*
X153862029Y-71892557D01*
X153851876Y-71911553D01*
X153838208Y-71928208D01*
X153821553Y-71941876D01*
X153802557Y-71952029D01*
X153781938Y-71958284D01*
X153754360Y-71961000D01*
X153245640Y-71961000D01*
X153218062Y-71958284D01*
X153197443Y-71952029D01*
X153178447Y-71941876D01*
X153161792Y-71928208D01*
X153148124Y-71911553D01*
X153137971Y-71892557D01*
X153131716Y-71871938D01*
X153129000Y-71844360D01*
X153129000Y-71385640D01*
X153131716Y-71358062D01*
X153137971Y-71337443D01*
X153148124Y-71318447D01*
X153161792Y-71301792D01*
X153178447Y-71288124D01*
X153197443Y-71277971D01*
X153218062Y-71271716D01*
X153245640Y-71269000D01*
X153754360Y-71269000D01*
X153781938Y-71271716D01*
X153781938Y-71271716D01*
G37*
G36*
X147676000Y-71901000D02*
G01*
X147124000Y-71901000D01*
X147124000Y-71099000D01*
X147676000Y-71099000D01*
X147676000Y-71901000D01*
X147676000Y-71901000D01*
G37*
G36*
X144930443Y-67705519D02*
G01*
X144996627Y-67712037D01*
X145166466Y-67763557D01*
X145322991Y-67847222D01*
X145358729Y-67876552D01*
X145460186Y-67959814D01*
X145543448Y-68061271D01*
X145572778Y-68097009D01*
X145656443Y-68253534D01*
X145707963Y-68423373D01*
X145725359Y-68600000D01*
X145707963Y-68776627D01*
X145656443Y-68946466D01*
X145572778Y-69102991D01*
X145543448Y-69138729D01*
X145460186Y-69240186D01*
X145358729Y-69323448D01*
X145322991Y-69352778D01*
X145166466Y-69436443D01*
X144996627Y-69487963D01*
X144930443Y-69494481D01*
X144864260Y-69501000D01*
X144775740Y-69501000D01*
X144709557Y-69494481D01*
X144643373Y-69487963D01*
X144473534Y-69436443D01*
X144317009Y-69352778D01*
X144281271Y-69323448D01*
X144179814Y-69240186D01*
X144096552Y-69138729D01*
X144067222Y-69102991D01*
X143983557Y-68946466D01*
X143932037Y-68776627D01*
X143914641Y-68600000D01*
X143932037Y-68423373D01*
X143983557Y-68253534D01*
X144067222Y-68097009D01*
X144096552Y-68061271D01*
X144179814Y-67959814D01*
X144281271Y-67876552D01*
X144317009Y-67847222D01*
X144473534Y-67763557D01*
X144643373Y-67712037D01*
X144709557Y-67705519D01*
X144775740Y-67699000D01*
X144864260Y-67699000D01*
X144930443Y-67705519D01*
X144930443Y-67705519D01*
G37*
G36*
X158730443Y-67705519D02*
G01*
X158796627Y-67712037D01*
X158966466Y-67763557D01*
X159122991Y-67847222D01*
X159158729Y-67876552D01*
X159260186Y-67959814D01*
X159343448Y-68061271D01*
X159372778Y-68097009D01*
X159456443Y-68253534D01*
X159507963Y-68423373D01*
X159525359Y-68600000D01*
X159507963Y-68776627D01*
X159456443Y-68946466D01*
X159372778Y-69102991D01*
X159343448Y-69138729D01*
X159260186Y-69240186D01*
X159158729Y-69323448D01*
X159122991Y-69352778D01*
X158966466Y-69436443D01*
X158796627Y-69487963D01*
X158730443Y-69494481D01*
X158664260Y-69501000D01*
X158575740Y-69501000D01*
X158509557Y-69494481D01*
X158443373Y-69487963D01*
X158273534Y-69436443D01*
X158117009Y-69352778D01*
X158081271Y-69323448D01*
X157979814Y-69240186D01*
X157896552Y-69138729D01*
X157867222Y-69102991D01*
X157783557Y-68946466D01*
X157732037Y-68776627D01*
X157714641Y-68600000D01*
X157732037Y-68423373D01*
X157783557Y-68253534D01*
X157867222Y-68097009D01*
X157896552Y-68061271D01*
X157979814Y-67959814D01*
X158081271Y-67876552D01*
X158117009Y-67847222D01*
X158273534Y-67763557D01*
X158443373Y-67712037D01*
X158509557Y-67705519D01*
X158575740Y-67699000D01*
X158664260Y-67699000D01*
X158730443Y-67705519D01*
X158730443Y-67705519D01*
G37*
G36*
X142390443Y-67705519D02*
G01*
X142456627Y-67712037D01*
X142626466Y-67763557D01*
X142782991Y-67847222D01*
X142818729Y-67876552D01*
X142920186Y-67959814D01*
X143003448Y-68061271D01*
X143032778Y-68097009D01*
X143116443Y-68253534D01*
X143167963Y-68423373D01*
X143185359Y-68600000D01*
X143167963Y-68776627D01*
X143116443Y-68946466D01*
X143032778Y-69102991D01*
X143003448Y-69138729D01*
X142920186Y-69240186D01*
X142818729Y-69323448D01*
X142782991Y-69352778D01*
X142626466Y-69436443D01*
X142456627Y-69487963D01*
X142390443Y-69494481D01*
X142324260Y-69501000D01*
X142235740Y-69501000D01*
X142169557Y-69494481D01*
X142103373Y-69487963D01*
X141933534Y-69436443D01*
X141777009Y-69352778D01*
X141741271Y-69323448D01*
X141639814Y-69240186D01*
X141556552Y-69138729D01*
X141527222Y-69102991D01*
X141443557Y-68946466D01*
X141392037Y-68776627D01*
X141374641Y-68600000D01*
X141392037Y-68423373D01*
X141443557Y-68253534D01*
X141527222Y-68097009D01*
X141556552Y-68061271D01*
X141639814Y-67959814D01*
X141741271Y-67876552D01*
X141777009Y-67847222D01*
X141933534Y-67763557D01*
X142103373Y-67712037D01*
X142169557Y-67705519D01*
X142235740Y-67699000D01*
X142324260Y-67699000D01*
X142390443Y-67705519D01*
X142390443Y-67705519D01*
G37*
G36*
X139850443Y-67705519D02*
G01*
X139916627Y-67712037D01*
X140086466Y-67763557D01*
X140242991Y-67847222D01*
X140278729Y-67876552D01*
X140380186Y-67959814D01*
X140463448Y-68061271D01*
X140492778Y-68097009D01*
X140576443Y-68253534D01*
X140627963Y-68423373D01*
X140645359Y-68600000D01*
X140627963Y-68776627D01*
X140576443Y-68946466D01*
X140492778Y-69102991D01*
X140463448Y-69138729D01*
X140380186Y-69240186D01*
X140278729Y-69323448D01*
X140242991Y-69352778D01*
X140086466Y-69436443D01*
X139916627Y-69487963D01*
X139850443Y-69494481D01*
X139784260Y-69501000D01*
X139695740Y-69501000D01*
X139629557Y-69494481D01*
X139563373Y-69487963D01*
X139393534Y-69436443D01*
X139237009Y-69352778D01*
X139201271Y-69323448D01*
X139099814Y-69240186D01*
X139016552Y-69138729D01*
X138987222Y-69102991D01*
X138903557Y-68946466D01*
X138852037Y-68776627D01*
X138834641Y-68600000D01*
X138852037Y-68423373D01*
X138903557Y-68253534D01*
X138987222Y-68097009D01*
X139016552Y-68061271D01*
X139099814Y-67959814D01*
X139201271Y-67876552D01*
X139237009Y-67847222D01*
X139393534Y-67763557D01*
X139563373Y-67712037D01*
X139629557Y-67705519D01*
X139695740Y-67699000D01*
X139784260Y-67699000D01*
X139850443Y-67705519D01*
X139850443Y-67705519D01*
G37*
G36*
X138101000Y-69501000D02*
G01*
X136299000Y-69501000D01*
X136299000Y-67699000D01*
X138101000Y-67699000D01*
X138101000Y-69501000D01*
X138101000Y-69501000D01*
G37*
G36*
X147470443Y-67705519D02*
G01*
X147536627Y-67712037D01*
X147706466Y-67763557D01*
X147862991Y-67847222D01*
X147898729Y-67876552D01*
X148000186Y-67959814D01*
X148083448Y-68061271D01*
X148112778Y-68097009D01*
X148196443Y-68253534D01*
X148247963Y-68423373D01*
X148265359Y-68600000D01*
X148247963Y-68776627D01*
X148196443Y-68946466D01*
X148112778Y-69102991D01*
X148083448Y-69138729D01*
X148000186Y-69240186D01*
X147898729Y-69323448D01*
X147862991Y-69352778D01*
X147706466Y-69436443D01*
X147536627Y-69487963D01*
X147470443Y-69494481D01*
X147404260Y-69501000D01*
X147315740Y-69501000D01*
X147249557Y-69494481D01*
X147183373Y-69487963D01*
X147013534Y-69436443D01*
X146857009Y-69352778D01*
X146821271Y-69323448D01*
X146719814Y-69240186D01*
X146636552Y-69138729D01*
X146607222Y-69102991D01*
X146523557Y-68946466D01*
X146472037Y-68776627D01*
X146454641Y-68600000D01*
X146472037Y-68423373D01*
X146523557Y-68253534D01*
X146607222Y-68097009D01*
X146636552Y-68061271D01*
X146719814Y-67959814D01*
X146821271Y-67876552D01*
X146857009Y-67847222D01*
X147013534Y-67763557D01*
X147183373Y-67712037D01*
X147249557Y-67705519D01*
X147315740Y-67699000D01*
X147404260Y-67699000D01*
X147470443Y-67705519D01*
X147470443Y-67705519D01*
G37*
G36*
X129421000Y-69501000D02*
G01*
X127619000Y-69501000D01*
X127619000Y-67699000D01*
X129421000Y-67699000D01*
X129421000Y-69501000D01*
X129421000Y-69501000D01*
G37*
G36*
X131170443Y-67705519D02*
G01*
X131236627Y-67712037D01*
X131406466Y-67763557D01*
X131562991Y-67847222D01*
X131598729Y-67876552D01*
X131700186Y-67959814D01*
X131783448Y-68061271D01*
X131812778Y-68097009D01*
X131896443Y-68253534D01*
X131947963Y-68423373D01*
X131965359Y-68600000D01*
X131947963Y-68776627D01*
X131896443Y-68946466D01*
X131812778Y-69102991D01*
X131783448Y-69138729D01*
X131700186Y-69240186D01*
X131598729Y-69323448D01*
X131562991Y-69352778D01*
X131406466Y-69436443D01*
X131236627Y-69487963D01*
X131170443Y-69494481D01*
X131104260Y-69501000D01*
X131015740Y-69501000D01*
X130949557Y-69494481D01*
X130883373Y-69487963D01*
X130713534Y-69436443D01*
X130557009Y-69352778D01*
X130521271Y-69323448D01*
X130419814Y-69240186D01*
X130336552Y-69138729D01*
X130307222Y-69102991D01*
X130223557Y-68946466D01*
X130172037Y-68776627D01*
X130154641Y-68600000D01*
X130172037Y-68423373D01*
X130223557Y-68253534D01*
X130307222Y-68097009D01*
X130336552Y-68061271D01*
X130419814Y-67959814D01*
X130521271Y-67876552D01*
X130557009Y-67847222D01*
X130713534Y-67763557D01*
X130883373Y-67712037D01*
X130949557Y-67705519D01*
X131015740Y-67699000D01*
X131104260Y-67699000D01*
X131170443Y-67705519D01*
X131170443Y-67705519D01*
G37*
G36*
X153650443Y-67705519D02*
G01*
X153716627Y-67712037D01*
X153886466Y-67763557D01*
X154042991Y-67847222D01*
X154078729Y-67876552D01*
X154180186Y-67959814D01*
X154263448Y-68061271D01*
X154292778Y-68097009D01*
X154376443Y-68253534D01*
X154427963Y-68423373D01*
X154445359Y-68600000D01*
X154427963Y-68776627D01*
X154376443Y-68946466D01*
X154292778Y-69102991D01*
X154263448Y-69138729D01*
X154180186Y-69240186D01*
X154078729Y-69323448D01*
X154042991Y-69352778D01*
X153886466Y-69436443D01*
X153716627Y-69487963D01*
X153650443Y-69494481D01*
X153584260Y-69501000D01*
X153495740Y-69501000D01*
X153429557Y-69494481D01*
X153363373Y-69487963D01*
X153193534Y-69436443D01*
X153037009Y-69352778D01*
X153001271Y-69323448D01*
X152899814Y-69240186D01*
X152816552Y-69138729D01*
X152787222Y-69102991D01*
X152703557Y-68946466D01*
X152652037Y-68776627D01*
X152634641Y-68600000D01*
X152652037Y-68423373D01*
X152703557Y-68253534D01*
X152787222Y-68097009D01*
X152816552Y-68061271D01*
X152899814Y-67959814D01*
X153001271Y-67876552D01*
X153037009Y-67847222D01*
X153193534Y-67763557D01*
X153363373Y-67712037D01*
X153429557Y-67705519D01*
X153495740Y-67699000D01*
X153584260Y-67699000D01*
X153650443Y-67705519D01*
X153650443Y-67705519D01*
G37*
G36*
X156190443Y-67705519D02*
G01*
X156256627Y-67712037D01*
X156426466Y-67763557D01*
X156582991Y-67847222D01*
X156618729Y-67876552D01*
X156720186Y-67959814D01*
X156803448Y-68061271D01*
X156832778Y-68097009D01*
X156916443Y-68253534D01*
X156967963Y-68423373D01*
X156985359Y-68600000D01*
X156967963Y-68776627D01*
X156916443Y-68946466D01*
X156832778Y-69102991D01*
X156803448Y-69138729D01*
X156720186Y-69240186D01*
X156618729Y-69323448D01*
X156582991Y-69352778D01*
X156426466Y-69436443D01*
X156256627Y-69487963D01*
X156190443Y-69494481D01*
X156124260Y-69501000D01*
X156035740Y-69501000D01*
X155969557Y-69494481D01*
X155903373Y-69487963D01*
X155733534Y-69436443D01*
X155577009Y-69352778D01*
X155541271Y-69323448D01*
X155439814Y-69240186D01*
X155356552Y-69138729D01*
X155327222Y-69102991D01*
X155243557Y-68946466D01*
X155192037Y-68776627D01*
X155174641Y-68600000D01*
X155192037Y-68423373D01*
X155243557Y-68253534D01*
X155327222Y-68097009D01*
X155356552Y-68061271D01*
X155439814Y-67959814D01*
X155541271Y-67876552D01*
X155577009Y-67847222D01*
X155733534Y-67763557D01*
X155903373Y-67712037D01*
X155969557Y-67705519D01*
X156035740Y-67699000D01*
X156124260Y-67699000D01*
X156190443Y-67705519D01*
X156190443Y-67705519D01*
G37*
G36*
X133710443Y-67705519D02*
G01*
X133776627Y-67712037D01*
X133946466Y-67763557D01*
X134102991Y-67847222D01*
X134138729Y-67876552D01*
X134240186Y-67959814D01*
X134323448Y-68061271D01*
X134352778Y-68097009D01*
X134436443Y-68253534D01*
X134487963Y-68423373D01*
X134505359Y-68600000D01*
X134487963Y-68776627D01*
X134436443Y-68946466D01*
X134352778Y-69102991D01*
X134323448Y-69138729D01*
X134240186Y-69240186D01*
X134138729Y-69323448D01*
X134102991Y-69352778D01*
X133946466Y-69436443D01*
X133776627Y-69487963D01*
X133710443Y-69494481D01*
X133644260Y-69501000D01*
X133555740Y-69501000D01*
X133489557Y-69494481D01*
X133423373Y-69487963D01*
X133253534Y-69436443D01*
X133097009Y-69352778D01*
X133061271Y-69323448D01*
X132959814Y-69240186D01*
X132876552Y-69138729D01*
X132847222Y-69102991D01*
X132763557Y-68946466D01*
X132712037Y-68776627D01*
X132694641Y-68600000D01*
X132712037Y-68423373D01*
X132763557Y-68253534D01*
X132847222Y-68097009D01*
X132876552Y-68061271D01*
X132959814Y-67959814D01*
X133061271Y-67876552D01*
X133097009Y-67847222D01*
X133253534Y-67763557D01*
X133423373Y-67712037D01*
X133489557Y-67705519D01*
X133555740Y-67699000D01*
X133644260Y-67699000D01*
X133710443Y-67705519D01*
X133710443Y-67705519D01*
G37*
G36*
X151901000Y-69501000D02*
G01*
X150099000Y-69501000D01*
X150099000Y-67699000D01*
X151901000Y-67699000D01*
X151901000Y-69501000D01*
X151901000Y-69501000D01*
G37*
G36*
X167824549Y-56771116D02*
G01*
X167935734Y-56793232D01*
X168145203Y-56879997D01*
X168333720Y-57005960D01*
X168494040Y-57166280D01*
X168620003Y-57354797D01*
X168706768Y-57564266D01*
X168751000Y-57786636D01*
X168751000Y-58013364D01*
X168706768Y-58235734D01*
X168620003Y-58445203D01*
X168494040Y-58633720D01*
X168333720Y-58794040D01*
X168145203Y-58920003D01*
X167935734Y-59006768D01*
X167824549Y-59028884D01*
X167713365Y-59051000D01*
X167486635Y-59051000D01*
X167375451Y-59028884D01*
X167264266Y-59006768D01*
X167054797Y-58920003D01*
X166866280Y-58794040D01*
X166705960Y-58633720D01*
X166579997Y-58445203D01*
X166493232Y-58235734D01*
X166449000Y-58013364D01*
X166449000Y-57786636D01*
X166493232Y-57564266D01*
X166579997Y-57354797D01*
X166705960Y-57166280D01*
X166866280Y-57005960D01*
X167054797Y-56879997D01*
X167264266Y-56793232D01*
X167375451Y-56771116D01*
X167486635Y-56749000D01*
X167713365Y-56749000D01*
X167824549Y-56771116D01*
X167824549Y-56771116D01*
G37*
G36*
X124624549Y-56671116D02*
G01*
X124735734Y-56693232D01*
X124945203Y-56779997D01*
X125133720Y-56905960D01*
X125294040Y-57066280D01*
X125420003Y-57254797D01*
X125506768Y-57464266D01*
X125551000Y-57686636D01*
X125551000Y-57913364D01*
X125506768Y-58135734D01*
X125420003Y-58345203D01*
X125294040Y-58533720D01*
X125133720Y-58694040D01*
X124945203Y-58820003D01*
X124735734Y-58906768D01*
X124669197Y-58920003D01*
X124513365Y-58951000D01*
X124286635Y-58951000D01*
X124130803Y-58920003D01*
X124064266Y-58906768D01*
X123854797Y-58820003D01*
X123666280Y-58694040D01*
X123505960Y-58533720D01*
X123379997Y-58345203D01*
X123293232Y-58135734D01*
X123249000Y-57913364D01*
X123249000Y-57686636D01*
X123293232Y-57464266D01*
X123379997Y-57254797D01*
X123505960Y-57066280D01*
X123666280Y-56905960D01*
X123854797Y-56779997D01*
X124064266Y-56693232D01*
X124175451Y-56671116D01*
X124286635Y-56649000D01*
X124513365Y-56649000D01*
X124624549Y-56671116D01*
X124624549Y-56671116D01*
G37*
M02*
